<svg transform="scale(1)" version="1.1" id="Layer_1" xmlns="http://www.w3.org/2000/svg" xmlns:xlink="http://www.w3.org/1999/xlink" x="0px" y="0px" viewBox="0 0 500 500" xml:space="preserve" class="show_show__wrapper__graphic__5Waiy "><title>React</title><style type="text/css">
	.st0{fill:url(#SVGID_1_);}
	.st1{fill:url(#SVGID_00000088104315477074145510000010593368060847227325_);}
	.st2{fill:#FFFFFF;}
	.st3{fill:#000111;}
	.st4{fill:#FED490;}
</style><g id="brain"><linearGradient id="SVGID_1_" gradientUnits="userSpaceOnUse" x1="117.2915" y1="463.9105" x2="222.6615" y2="114.2305" gradientTransform="matrix(1 0 0 -1 0 502)"><stop offset="0" style="stop-color: rgb(243, 131, 116);"></stop><stop offset="1" style="stop-color: rgb(198, 66, 52);"></stop></linearGradient><path class="st0" d="M254.2,129.4c1.4,1.7,0.4,226.2,0.1,287.9c0,11.6-7.9,21.6-19.1,24.5c-12.1,3-28.6,2.5-45.6-12.3
		c0,0-41.7,1.7-62.1-45.1c0,0-58.7-47.6-12.8-102c0,0-22.1-53.6,23.8-77.4c0,0-17.8-56.1,46.8-57
		C176.5,125.7,220.6,89.5,254.2,129.4z"></path><linearGradient id="SVGID_00000158021915872350773660000001519113731989637803_" gradientUnits="userSpaceOnUse" x1="235.8255" y1="499.6347" x2="341.2056" y2="149.9247" gradientTransform="matrix(1 0 0 -1 0 502)"><stop offset="0" style="stop-color: rgb(243, 131, 116);"></stop><stop offset="1" style="stop-color: rgb(198, 66, 52);"></stop></linearGradient><path d="M263,129.4c-1.4,1.7-0.4,226.2-0.1,287.9
		c0,11.6,7.9,21.6,19.1,24.5c12.1,3,28.6,2.5,45.6-12.3c0,0,41.6,1.7,62.1-45.1c0,0,58.7-47.6,12.8-102c0,0,22.1-53.6-23.8-77.4
		c0,0,17.9-56.1-46.8-57C340.6,125.7,296.6,89.5,263,129.4z" style="fill: url(&quot;#SVGID_00000158021915872350773660000001519113731989637803_&quot;);"></path><rect class="st2" x="216.8" y="235.6" width="83.6" height="83.6"></rect><path class="st3" d="M300.4,320.8h-83.6c-0.9,0-1.6-0.7-1.6-1.6c0,0,0,0,0,0v-83.6c0-0.9,0.7-1.6,1.6-1.6h83.6
		c0.9,0,1.6,0.7,1.6,1.6v83.6C302,320.1,301.3,320.8,300.4,320.8z M218.4,317.6h80.3v-80.3h-80.3L218.4,317.6z"></path><rect class="st2" x="226.1" y="245" width="64.9" height="64.9"></rect><path class="st3" d="M291,311.5h-64.9c-0.9,0-1.6-0.7-1.6-1.6V245c0-0.9,0.7-1.6,1.6-1.6H291c0.9,0,1.6,0.7,1.6,1.6c0,0,0,0,0,0
		v64.9C292.6,310.8,291.9,311.5,291,311.5z M227.7,308.2h61.6v-61.6h-61.6L227.7,308.2z"></path><rect class="st3" x="231.9" y="251.7" width="9.2" height="4.6"></rect><rect class="st3" x="231.9" y="257.5" width="9.2" height="4.6"></rect><rect class="st3" x="231.9" y="263.3" width="9.2" height="4.6"></rect><rect class="st3" x="231.9" y="269.1" width="9.2" height="4.6"></rect><rect class="st3" x="275.8" y="283.1" width="9.2" height="4.6"></rect><rect class="st3" x="275.8" y="288.9" width="9.2" height="4.6"></rect><rect class="st3" x="275.8" y="294.7" width="9.2" height="4.6"></rect><rect class="st3" x="275.8" y="300.5" width="9.2" height="4.6"></rect><path class="st3" d="M244.6,236.8c-0.9,0-1.6-0.7-1.6-1.6c0,0,0,0,0,0v-40.6l-22.2-22.6c-0.3-0.3-0.5-0.7-0.5-1.1V149
		c0.1-0.9,0.9-1.6,1.8-1.5c0.8,0.1,1.4,0.7,1.5,1.5v21.1l22.2,22.6c0.3,0.3,0.5,0.7,0.5,1.1v41.3C246.2,236,245.5,236.8,244.6,236.8
		C244.6,236.8,244.6,236.8,244.6,236.8z"></path><path class="st3" d="M234.7,236.8c-0.9,0-1.6-0.7-1.6-1.6c0,0,0,0,0,0v-40.6l-22.2-22.6c-0.3-0.3-0.5-0.7-0.5-1.1V149
		c0.1-0.9,0.9-1.6,1.8-1.5c0.8,0.1,1.4,0.7,1.5,1.5v21.1l22.2,22.6c0.3,0.3,0.5,0.7,0.5,1.1v41.3C236.3,236,235.6,236.8,234.7,236.8
		C234.7,236.8,234.7,236.8,234.7,236.8z"></path><path class="st3" d="M224.8,236.8c-0.9,0-1.6-0.7-1.6-1.6c0,0,0,0,0,0v-40.6L201,171.9c-0.3-0.3-0.5-0.7-0.5-1.1V149
		c0-0.9,0.7-1.6,1.6-1.6c0.9,0,1.6,0.7,1.6,1.6v21.1l22.2,22.6c0.3,0.3,0.5,0.7,0.5,1.1v41.3C226.4,236,225.7,236.8,224.8,236.8
		C224.8,236.8,224.8,236.8,224.8,236.8z"></path><path class="st3" d="M201.9,150.2c-3.4,0-6.2-2.8-6.2-6.2c0-3.4,2.8-6.2,6.2-6.2c3.4,0,6.2,2.8,6.2,6.2c0,0,0,0,0,0
		C208.1,147.4,205.3,150.2,201.9,150.2z M201.9,141c-1.6,0-2.9,1.3-2.9,2.9s1.3,2.9,2.9,2.9s2.9-1.3,2.9-2.9
		C204.9,142.4,203.6,141,201.9,141C201.9,141,201.9,141,201.9,141L201.9,141z"></path><path class="st3" d="M212.2,150.2c-3.4,0-6.2-2.8-6.2-6.2s2.8-6.2,6.2-6.2s6.2,2.8,6.2,6.2S215.6,150.2,212.2,150.2L212.2,150.2z
		 M212.2,141c-1.6,0-2.9,1.3-2.9,2.9s1.3,2.9,2.9,2.9s2.9-1.3,2.9-2.9C215.2,142.4,213.9,141,212.2,141
		C212.3,141,212.2,141,212.2,141L212.2,141z"></path><path class="st3" d="M222.6,150.2c-3.4,0-6.2-2.8-6.2-6.2s2.8-6.2,6.2-6.2s6.2,2.8,6.2,6.2S226,150.2,222.6,150.2L222.6,150.2z
		 M222.6,141c-1.6,0-2.9,1.3-2.9,2.9s1.3,2.9,2.9,2.9s2.9-1.3,2.9-2.9C225.5,142.4,224.2,141,222.6,141
		C222.6,141,222.6,141,222.6,141L222.6,141z"></path><path class="st3" d="M222,407.2c-0.9,0-1.6-0.7-1.6-1.6c0,0,0,0,0,0v-21.8c0-0.4,0.2-0.8,0.5-1.1l22.2-22.6v-40.6
		c-0.1-0.9,0.6-1.7,1.5-1.8c0.9-0.1,1.7,0.6,1.8,1.5c0,0.1,0,0.2,0,0.3v41.3c0,0.4-0.2,0.8-0.5,1.1l-22.2,22.6v21.1
		C223.6,406.5,222.9,407.2,222,407.2C222,407.2,222,407.2,222,407.2z"></path><path class="st3" d="M212,407.2c-0.9,0-1.6-0.7-1.6-1.6c0,0,0,0,0,0v-21.8c0-0.4,0.2-0.8,0.5-1.1l22.2-22.6v-40.6
		c-0.1-0.9,0.6-1.7,1.5-1.8c0.9-0.1,1.7,0.6,1.8,1.5c0,0.1,0,0.2,0,0.3v41.3c0,0.4-0.2,0.8-0.5,1.1l-22.2,22.6v21.1
		C213.6,406.5,212.9,407.2,212,407.2C212,407.2,212,407.2,212,407.2z"></path><path class="st3" d="M202.1,407.2c-0.9,0-1.6-0.7-1.6-1.6c0,0,0,0,0,0v-21.8c0-0.4,0.2-0.8,0.5-1.1l22.2-22.6v-40.6
		c-0.1-0.9,0.6-1.7,1.5-1.8c0.9-0.1,1.7,0.6,1.8,1.5c0,0.1,0,0.2,0,0.3v41.3c0,0.4-0.2,0.8-0.5,1.1l-22.2,22.6v21.1
		C203.7,406.5,203,407.2,202.1,407.2C202.1,407.2,202.1,407.2,202.1,407.2z"></path><path class="st3" d="M201.9,416.8c-3.4,0-6.2-2.8-6.2-6.2s2.8-6.2,6.2-6.2s6.2,2.8,6.2,6.2S205.3,416.8,201.9,416.8L201.9,416.8z
		 M201.9,407.7c-1.6,0-2.9,1.3-2.9,2.9c0,1.6,1.3,2.9,2.9,2.9c1.6,0,2.9-1.3,2.9-2.9c0,0,0,0,0,0C204.9,409,203.5,407.7,201.9,407.7
		C201.9,407.7,201.9,407.7,201.9,407.7z"></path><path class="st3" d="M212.2,416.8c-3.4,0-6.2-2.8-6.2-6.2s2.8-6.2,6.2-6.2s6.2,2.8,6.2,6.2S215.6,416.8,212.2,416.8L212.2,416.8z
		 M212.2,407.7c-1.6,0-2.9,1.3-2.9,2.9c0,1.6,1.3,2.9,2.9,2.9c1.6,0,2.9-1.3,2.9-2.9c0,0,0,0,0,0C215.2,409,213.9,407.7,212.2,407.7
		C212.2,407.7,212.2,407.7,212.2,407.7z"></path><path class="st3" d="M222.6,416.8c-3.4,0-6.2-2.8-6.2-6.2s2.8-6.2,6.2-6.2s6.2,2.8,6.2,6.2S226,416.8,222.6,416.8L222.6,416.8z
		 M222.6,407.7c-1.6,0-2.9,1.3-2.9,2.9c0,1.6,1.3,2.9,2.9,2.9c1.6,0,2.9-1.3,2.9-2.9c0,0,0,0,0,0C225.5,409,224.2,407.7,222.6,407.7
		C222.6,407.7,222.6,407.7,222.6,407.7z"></path><path class="st3" d="M215.9,294.9h-24.8c-0.4,0-0.8-0.2-1.1-0.5l-22.6-22.2h-21.1c-0.9,0.1-1.7-0.6-1.8-1.5
		c-0.1-0.9,0.6-1.7,1.5-1.8c0.1,0,0.2,0,0.3,0h21.8c0.4,0,0.8,0.2,1.1,0.5l22.6,22.2h24.1c0.9,0.1,1.6,0.9,1.5,1.8
		C217.3,294.2,216.7,294.9,215.9,294.9L215.9,294.9z"></path><path class="st3" d="M215.9,285h-24.8c-0.4,0-0.8-0.2-1.1-0.5l-22.6-22.2h-21.1c-0.9,0.1-1.7-0.6-1.8-1.5c-0.1-0.9,0.6-1.7,1.5-1.8
		c0.1,0,0.2,0,0.3,0h21.8c0.4,0,0.8,0.2,1.1,0.5l22.6,22.2h24.1c0.9,0.1,1.6,0.9,1.5,1.8C217.3,284.3,216.7,284.9,215.9,285
		L215.9,285z"></path><path class="st3" d="M215.9,275.1h-24.8c-0.4,0-0.8-0.2-1.1-0.5l-22.6-22.2h-21.1c-0.9,0.1-1.7-0.6-1.8-1.5
		c-0.1-0.9,0.6-1.7,1.5-1.8c0.1,0,0.2,0,0.3,0h21.8c0.4,0,0.8,0.2,1.1,0.5l22.6,22.2h24.1c0.9,0.1,1.6,0.9,1.5,1.8
		C217.3,274.4,216.7,275,215.9,275.1L215.9,275.1z"></path><path class="st3" d="M141.3,256.8c-3.4,0-6.2-2.8-6.2-6.2s2.8-6.2,6.2-6.2s6.2,2.8,6.2,6.2C147.4,254,144.7,256.8,141.3,256.8z
		 M141.3,247.7c-1.6,0-2.9,1.3-2.9,2.9c0,1.6,1.3,2.9,2.9,2.9c1.6,0,2.9-1.3,2.9-2.9c0,0,0,0,0,0C144.2,249,142.9,247.7,141.3,247.7
		C141.3,247.7,141.3,247.7,141.3,247.7z"></path><path class="st3" d="M141.3,267.1c-3.4,0-6.2-2.8-6.2-6.2s2.8-6.2,6.2-6.2s6.2,2.8,6.2,6.2C147.4,264.4,144.7,267.1,141.3,267.1z
		 M141.3,258c-1.6,0-2.9,1.3-2.9,2.9c0,1.6,1.3,2.9,2.9,2.9c1.6,0,2.9-1.3,2.9-2.9c0,0,0,0,0,0C144.2,259.3,142.9,258,141.3,258
		C141.3,258,141.3,258,141.3,258L141.3,258z"></path><path class="st3" d="M141.3,277.5c-3.4,0-6.2-2.8-6.2-6.2s2.8-6.2,6.2-6.2s6.2,2.8,6.2,6.2C147.4,274.7,144.7,277.4,141.3,277.5z
		 M141.3,268.3c-1.6,0-2.9,1.3-2.9,2.9c0,1.6,1.3,2.9,2.9,2.9c1.6,0,2.9-1.3,2.9-2.9c0,0,0,0,0,0
		C144.2,269.6,142.9,268.3,141.3,268.3C141.3,268.3,141.3,268.3,141.3,268.3L141.3,268.3z"></path><path class="st3" d="M272.8,236.8c-0.9,0-1.6-0.7-1.6-1.6c0,0,0,0,0,0v-41.3c0-0.4,0.2-0.8,0.5-1.1l22.2-22.6V149
		c0.1-0.9,0.9-1.6,1.8-1.5c0.8,0.1,1.4,0.7,1.5,1.5v21.8c0,0.4-0.2,0.8-0.5,1.1l-22.2,22.6v40.6C274.4,236,273.7,236.8,272.8,236.8
		C272.8,236.8,272.8,236.8,272.8,236.8z"></path><path class="st3" d="M282.7,236.8c-0.9,0-1.6-0.7-1.6-1.6c0,0,0,0,0,0v-41.3c0-0.4,0.2-0.8,0.5-1.1l22.2-22.6V149
		c0.1-0.9,0.9-1.6,1.8-1.5c0.8,0.1,1.4,0.7,1.5,1.5v21.8c0,0.4-0.2,0.8-0.5,1.1l-22.2,22.6v40.6C284.3,236,283.6,236.8,282.7,236.8
		C282.7,236.8,282.7,236.8,282.7,236.8z"></path><path class="st3" d="M292.6,236.8c-0.9,0-1.6-0.7-1.6-1.6c0,0,0,0,0,0v-41.3c0-0.4,0.2-0.8,0.5-1.1l22.2-22.6V149
		c0.1-0.9,0.9-1.6,1.8-1.5c0.8,0.1,1.4,0.7,1.5,1.5v21.8c0,0.4-0.2,0.8-0.5,1.1l-22.2,22.6v40.6C294.2,236,293.5,236.8,292.6,236.8
		C292.6,236.8,292.6,236.8,292.6,236.8z"></path><path class="st3" d="M315.4,150.2c-3.4,0-6.2-2.8-6.2-6.2s2.8-6.2,6.2-6.2s6.2,2.8,6.2,6.2C321.6,147.4,318.8,150.2,315.4,150.2z
		 M315.4,141c-1.6,0-2.9,1.3-2.9,2.9s1.3,2.9,2.9,2.9c1.6,0,2.9-1.3,2.9-2.9c0,0,0,0,0,0C318.4,142.4,317.1,141,315.4,141
		C315.5,141,315.4,141,315.4,141L315.4,141z"></path><path class="st3" d="M305.1,150.2c-3.4,0-6.2-2.8-6.2-6.2c0-3.4,2.8-6.2,6.2-6.2c3.4,0,6.2,2.8,6.2,6.2c0,0,0,0,0,0
		C311.3,147.4,308.5,150.2,305.1,150.2z M305.1,141c-1.6,0-3,1.3-3,2.9c0,1.6,1.3,3,2.9,3c1.6,0,3-1.3,3-2.9c0,0,0,0,0,0
		C308,142.4,306.7,141,305.1,141C305.1,141,305.1,141,305.1,141L305.1,141z"></path><path class="st3" d="M294.8,150.2c-3.4,0-6.2-2.8-6.2-6.2c0-3.4,2.8-6.2,6.2-6.2c3.4,0,6.2,2.8,6.2,6.2
		C301,147.4,298.2,150.2,294.8,150.2z M294.8,141c-1.6,0-2.9,1.3-2.9,2.9s1.3,2.9,2.9,2.9c1.6,0,2.9-1.3,2.9-2.9c0,0,0,0,0,0
		C297.7,142.4,296.4,141,294.8,141C294.8,141,294.8,141,294.8,141L294.8,141z"></path><path class="st3" d="M295.4,407.2c-0.9,0-1.6-0.7-1.6-1.6c0,0,0,0,0,0v-21.1l-22.2-22.6c-0.3-0.3-0.5-0.7-0.5-1.1v-41.3
		c-0.1-0.9,0.6-1.7,1.5-1.8c0.9-0.1,1.7,0.6,1.8,1.5c0,0.1,0,0.2,0,0.3v40.6l22.2,22.6c0.3,0.3,0.5,0.7,0.5,1.1v21.8
		C297,406.5,296.3,407.2,295.4,407.2C295.4,407.2,295.4,407.2,295.4,407.2z"></path><path class="st3" d="M305.3,407.2c-0.9,0-1.6-0.7-1.6-1.6c0,0,0,0,0,0v-21.1l-22.2-22.6c-0.3-0.3-0.5-0.7-0.5-1.1v-41.3
		c-0.1-0.9,0.6-1.7,1.5-1.8c0.9-0.1,1.7,0.6,1.8,1.5c0,0.1,0,0.2,0,0.3v40.6l22.2,22.6c0.3,0.3,0.5,0.7,0.5,1.1v21.8
		C306.9,406.5,306.2,407.2,305.3,407.2z"></path><path class="st3" d="M315.2,407.2c-0.9,0-1.6-0.7-1.6-1.6c0,0,0,0,0,0v-21.1l-22.2-22.6c-0.3-0.3-0.5-0.7-0.5-1.1v-41.3
		c-0.1-0.9,0.6-1.7,1.5-1.8c0.9-0.1,1.7,0.6,1.8,1.5c0,0.1,0,0.2,0,0.3v40.6l22.2,22.6c0.3,0.3,0.5,0.7,0.5,1.1v21.8
		C316.8,406.5,316.1,407.2,315.2,407.2C315.2,407.2,315.2,407.2,315.2,407.2z"></path><path class="st3" d="M315.4,416.8c-3.4,0-6.2-2.8-6.2-6.2s2.8-6.2,6.2-6.2s6.2,2.8,6.2,6.2C321.6,414,318.8,416.8,315.4,416.8z
		 M315.4,407.7c-1.6,0-2.9,1.3-2.9,2.9s1.3,2.9,2.9,2.9c1.6,0,2.9-1.3,2.9-2.9c0,0,0,0,0,0C318.4,409,317,407.7,315.4,407.7z"></path><path class="st3" d="M305.1,416.8c-3.4,0-6.2-2.8-6.2-6.2s2.8-6.2,6.2-6.2s6.2,2.8,6.2,6.2C311.3,414,308.5,416.8,305.1,416.8z
		 M305.1,407.7c-1.6,0-2.9,1.3-2.9,2.9s1.3,2.9,2.9,2.9c1.6,0,2.9-1.3,2.9-2.9c0,0,0,0,0,0C308,409,306.7,407.7,305.1,407.7z"></path><path class="st3" d="M294.8,416.8c-3.4,0-6.2-2.8-6.2-6.2c0-3.4,2.8-6.2,6.2-6.2s6.2,2.8,6.2,6.2c0,0,0,0,0,0
		C301,414,298.2,416.8,294.8,416.8z M294.8,407.7c-1.6,0-2.9,1.3-2.9,2.9s1.3,2.9,2.9,2.9c1.6,0,2.9-1.3,2.9-2.9c0,0,0,0,0,0
		C297.7,409,296.4,407.7,294.8,407.7z"></path><path class="st3" d="M326.2,294.9h-24.8c-0.9-0.1-1.6-0.9-1.5-1.8c0.1-0.8,0.7-1.4,1.5-1.5h24.1l22.6-22.2c0.3-0.3,0.7-0.5,1.1-0.5
		H371c0.9-0.1,1.7,0.6,1.8,1.5c0.1,0.9-0.6,1.7-1.5,1.8c-0.1,0-0.2,0-0.3,0h-21l-22.6,22.2C327.1,294.8,326.6,294.9,326.2,294.9z"></path><path class="st3" d="M326.2,285h-24.8c-0.9-0.1-1.6-0.9-1.5-1.8c0.1-0.8,0.7-1.4,1.5-1.5h24.1l22.6-22.2c0.3-0.3,0.7-0.5,1.1-0.5
		H371c0.9-0.1,1.7,0.6,1.8,1.5c0.1,0.9-0.6,1.7-1.5,1.8c-0.1,0-0.2,0-0.3,0h-21l-22.6,22.2C327.1,284.8,326.6,285,326.2,285z"></path><path class="st3" d="M326.2,275.1h-24.8c-0.9-0.1-1.6-0.9-1.5-1.8c0.1-0.8,0.7-1.4,1.5-1.5h24.1l22.6-22.2c0.3-0.3,0.7-0.5,1.1-0.5
		H371c0.9-0.1,1.7,0.6,1.8,1.5c0.1,0.9-0.6,1.7-1.5,1.8c-0.1,0-0.2,0-0.3,0h-21l-22.6,22.2C327.1,274.9,326.6,275.1,326.2,275.1z"></path><path class="st3" d="M376.1,256.8c-3.4,0-6.2-2.8-6.2-6.2c0-3.4,2.8-6.2,6.2-6.2c3.4,0,6.2,2.8,6.2,6.2c0,0,0,0,0,0
		C382.3,254,379.5,256.8,376.1,256.8z M376.1,247.7c-1.6,0-2.9,1.3-2.9,2.9s1.3,2.9,2.9,2.9c1.6,0,2.9-1.3,2.9-2.9c0,0,0,0,0,0
		C379,249,377.7,247.7,376.1,247.7z"></path><path class="st3" d="M376.1,267.1c-3.4,0-6.2-2.8-6.2-6.2c0-3.4,2.8-6.2,6.2-6.2c3.4,0,6.2,2.8,6.2,6.2c0,0,0,0,0,0
		C382.3,264.4,379.5,267.1,376.1,267.1z M376.1,258c-1.6,0-2.9,1.3-2.9,2.9s1.3,2.9,2.9,2.9c1.6,0,2.9-1.3,2.9-2.9c0,0,0,0,0,0
		C379,259.3,377.7,258,376.1,258L376.1,258z"></path><path class="st3" d="M376.1,277.5c-3.4,0-6.2-2.8-6.2-6.2c0-3.4,2.8-6.2,6.2-6.2s6.2,2.8,6.2,6.2c0,0,0,0,0,0
		C382.3,274.7,379.5,277.4,376.1,277.5z M376.1,268.3c-1.6,0-2.9,1.3-2.9,2.9s1.3,2.9,2.9,2.9c1.6,0,2.9-1.3,2.9-2.9c0,0,0,0,0,0
		C379,269.6,377.7,268.3,376.1,268.3L376.1,268.3z"></path><path class="st3" d="M127.5,386.1c-0.1,0-0.2,0-0.3,0c-0.9-0.2-1.5-1-1.3-1.9c0.1-0.4,7.7-36.3,50.2-36.3c0.9,0.1,1.6,0.9,1.5,1.8
		c-0.1,0.8-0.7,1.4-1.5,1.5c-39.8,0-46.7,32.3-47,33.7C128.9,385.5,128.3,386,127.5,386.1z"></path><path class="st3" d="M147.6,358.4c-0.2,0-0.4,0-0.6-0.1c-12-4.6-11.1-18.4-9-25.1c0.3-0.8,1.2-1.3,2.1-1c0.8,0.3,1.2,1.1,1,2
		c-0.2,0.7-5.1,16.4,7,21.1c0.8,0.3,1.3,1.2,1,2.1C148.9,358,148.3,358.4,147.6,358.4L147.6,358.4z"></path><path class="st3" d="M189.6,431.1c-0.2,0-0.3,0-0.5-0.1c-0.9-0.3-1.3-1.1-1.1-2c0.9-3.5,1.2-7.1,0.9-10.7
		c-0.6-7.6-4-13.5-10.1-17.3c-0.8-0.4-1.1-1.4-0.7-2.2c0.4-0.8,1.4-1.1,2.2-0.7c0.1,0,0.1,0.1,0.2,0.1
		c16.6,10.5,10.6,31.4,10.6,31.6C190.9,430.7,190.3,431.1,189.6,431.1z"></path><path class="st3" d="M147.4,310.5h-0.2c-27.2-2.6-34-27.4-34-27.7c-0.2-0.9,0.4-1.7,1.2-1.9c0.8-0.2,1.7,0.3,1.9,1.1
		c0.2,0.9,6.3,22.9,31.2,25.3c0.9,0,1.6,0.8,1.5,1.7C149.1,309.9,148.3,310.6,147.4,310.5L147.4,310.5z"></path><path class="st3" d="M138.6,206.7c-0.4,0-0.8-0.1-1.1-0.4c-0.7-0.6-0.8-1.6-0.2-2.3c0.6-0.7,14.6-16.9,43.1-8
		c0.9,0.3,1.3,1.2,1.1,2.1s-1.2,1.3-2.1,1.1c-26.3-8.2-39.1,6.4-39.6,7C139.5,206.5,139,206.7,138.6,206.7z"></path><path class="st3" d="M173.5,209.8c-0.1,0-0.2,0-0.3,0c-0.9-0.2-1.4-1-1.3-1.9c0-0.2,3.9-18.1,27.4-13.9c0.9,0.2,1.4,1.1,1.2,2
		c-0.2,0.8-0.9,1.3-1.7,1.2c-20.2-3.6-23.5,10.7-23.6,11.4C174.9,209.3,174.2,209.8,173.5,209.8z"></path><path class="st3" d="M389.1,386.1c-0.8,0-1.4-0.5-1.6-1.3c-0.3-1.4-7.2-33.7-47-33.7c-0.9-0.1-1.6-0.9-1.5-1.8
		c0.1-0.8,0.7-1.4,1.5-1.5c42.5,0,50.1,36,50.1,36.3c0.2,0.9-0.4,1.7-1.3,1.9c0,0,0,0,0,0C389.3,386,389.2,386.1,389.1,386.1z"></path><path class="st3" d="M369,358.4c-0.9,0-1.6-0.7-1.7-1.6c0-0.7,0.4-1.3,1.1-1.6c12.1-4.6,7.2-20.4,7-21.1c-0.2-0.9,0.3-1.8,1.1-2
		c0.8-0.2,1.7,0.2,2,1c2.1,6.7,3,20.5-9,25.1C369.3,358.3,369.2,358.4,369,358.4z"></path><path class="st3" d="M327,431.1c-0.7,0-1.4-0.5-1.6-1.2c-0.1-0.2-6-21.1,10.6-31.6c0.7-0.5,1.7-0.4,2.3,0.3
		c0.5,0.7,0.4,1.7-0.3,2.3c-0.1,0-0.1,0.1-0.2,0.1c-6,3.9-9.4,9.7-10.1,17.3c-0.3,3.6,0,7.2,0.9,10.7c0.2,0.9-0.2,1.7-1.1,2
		C327.3,431.1,327.2,431.1,327,431.1z"></path><path class="st3" d="M369.2,310.5c-0.9,0-1.7-0.7-1.7-1.5c0-0.9,0.7-1.7,1.5-1.7c24.9-2.4,30.9-24.3,31.2-25.3
		c0.2-0.9,1.1-1.4,2-1.2c0.9,0.2,1.4,1.1,1.2,2l0,0c-0.1,0.2-6.9,25.1-34,27.7L369.2,310.5z"></path><path class="st3" d="M378,206.7c-0.5,0-0.9-0.2-1.2-0.6c-0.5-0.6-13.3-15.2-39.6-7c-0.9,0.3-1.8-0.2-2.1-1.1
		c-0.3-0.9,0.2-1.8,1.1-2.1c28.5-8.9,42.5,7.3,43,8c0.6,0.7,0.5,1.7-0.2,2.3c0,0,0,0,0,0C378.7,206.5,378.4,206.7,378,206.7z"></path><path class="st3" d="M343.1,209.9c-0.8,0-1.4-0.5-1.6-1.3c-0.1-0.6-3.4-14.9-23.6-11.4c-0.9,0.1-1.7-0.6-1.8-1.5
		c-0.1-0.8,0.4-1.5,1.2-1.7c23.5-4.1,27.4,13.7,27.4,13.9c0.2,0.9-0.4,1.7-1.3,1.9c0,0,0,0,0,0C343.3,209.8,343.2,209.9,343.1,209.9
		z"></path></g><g id="light"><path class="st4" d="M64.9,333.5c-5.1,0.1-10.1-0.3-15.1-1.1c-17-2.9-26.2-8.6-27.5-16.9c-4.1-26.4,77.6-69.1,81.1-70.9
		c0.8-0.4,1.8-0.1,2.2,0.7c0.4,0.8,0.1,1.8-0.7,2.2l0,0c-14.2,7.6-28.1,15.9-41.4,25C37,290.6,23.9,305.3,25.4,315
		c1.1,6.8,9.4,11.5,24.9,14.2c33.7,5.8,129.5-14.4,233-49.2c108.3-36.3,187.2-75.7,201.2-100.3c3.2-5.6,3-10.2-0.4-14.2
		c-18.2-21.2-101.9-7.1-102.8-7c-0.9,0.2-1.7-0.4-1.9-1.3c-0.2-0.9,0.4-1.7,1.3-1.9l0,0c3.5-0.6,86.4-14.5,105.8,8.1
		c4.4,5.1,4.6,11.1,0.7,17.9C469.9,212,371,254,284.3,283.1C205.9,309.4,112.6,333.5,64.9,333.5z"></path><path class="st4" d="M436.6,374.7c-47.1,0-123.1-15.7-189.5-33.7C123,307.3,46,271.9,24.7,251.7c-12.5-11.8-17-21.7-13.5-29.3
		c11.2-24.2,102.8-14.4,106.8-14c0.9,0.1,1.5,0.9,1.4,1.8c-0.1,0.9-0.9,1.5-1.7,1.4c-16.1-1.6-32.2-2.4-48.3-2.2
		c-31.9,0.4-51,5.4-55.2,14.4c-2.9,6.2,1.4,14.8,12.8,25.6c24.8,23.5,115.7,59.9,221.1,88.5c110.2,29.9,197.8,41,223,28.3
		c5.7-2.9,8.2-6.8,7.6-12c-1.6-13.3-21.7-31.1-56.6-50.3c-0.8-0.4-1.1-1.4-0.6-2.2c0.4-0.8,1.4-1.1,2.2-0.6c0,0,0,0,0,0
		c25.3,13.9,56,34.3,58.2,52.7c0.8,6.6-2.3,11.8-9.3,15.3C464.6,373,452.2,374.7,436.6,374.7z"></path><g id="light-2"><path class="st4" d="M378.8,120.2c12.9,0.9,23.2,11,24.5,23.8c1.3-12.8,11.6-22.9,24.5-23.8c-12.9-1-23.2-11-24.5-23.8
			C401.9,109.2,391.6,119.3,378.8,120.2z"></path><path class="st4" d="M82.4,176.7c12.9,0.9,23.2,11,24.5,23.8c1.3-12.8,11.6-22.9,24.5-23.8c-12.9-1-23.2-11-24.5-23.8
			C105.6,165.7,95.3,175.7,82.4,176.7L82.4,176.7z"></path><path class="st4" d="M356.7,141.8c6.9,0.5,12.4,5.9,13.1,12.8c0.7-6.9,6.2-12.2,13.1-12.8c-6.9-0.5-12.4-5.9-13.1-12.8
			C369.1,135.9,363.6,141.3,356.7,141.8z"></path><path class="st4" d="M57.9,357c6.9,0.5,12.4,5.9,13.1,12.7c0.7-6.9,6.2-12.2,13.1-12.7c-6.9-0.5-12.5-5.9-13.1-12.8
			C70.3,351.1,64.8,356.5,57.9,357z"></path></g><path class="st3" d="M345.8,107.1c-11.5,0-15.2-4.3-16.2-8.1c-0.3-1.1-0.4-2.3-0.3-3.5c-3.3,1.4-6.9,2-10.4,1.8
		c-4.5-0.4-6.4-2.7-7.1-4.5c-4.4-10,12.6-32.8,14.6-35.4c0.6-0.7,1.6-0.8,2.3-0.3c0.7,0.6,0.8,1.6,0.3,2.3l0,0
		c-5,6.6-17.2,25.1-14.2,32.1c0.7,1.5,2.1,2.4,4.5,2.6c3,0.3,6.8-0.6,10.9-2.4c2.6-7.9,11.2-16.6,20-21.3c3.9-2.1,5.9-2.4,7.2-1.2
		c0.6,0.6,1.1,1.7,0.3,3.6c-2.1,4.7-13.3,15.7-24.7,21.3c-0.4,1.4-0.4,2.8-0.1,4.2c1.4,5.1,8.9,5.9,15,5.7c0.9,0,1.6,0.8,1.6,1.7
		c0,0.8-0.6,1.5-1.5,1.6C347.2,107.1,346.5,107.1,345.8,107.1z M354.3,72c-0.9,0.4-1.8,0.8-2.6,1.2c-7.3,3.9-13.7,10.2-16.9,16
		c3.4-2,6.6-4.3,9.6-6.8C349.9,77.8,353.1,74,354.3,72z"></path></g></svg>