<svg transform="scale(1)" version="1.1" id="Layer_1" xmlns="http://www.w3.org/2000/svg" xmlns:xlink="http://www.w3.org/1999/xlink" x="0px" y="0px" viewBox="0 0 500 500" xml:space="preserve" class="show_show__wrapper__graphic__5Waiy "><title>React</title><style type="text/css">
	.st0{fill:#FFFFFF;}
	.st1{fill:#231F20;}
	.st2{fill:none;}
	.st3{fill:#D1D3D4;}
	.st4{fill:#460AF9;}
</style><g id="Hands"><path class="st0" d="M138.1,360.2c-2.7,24.2-10.3,56.6-13.8,68.7h35.4l21.8-2.6c0,0,5-47.2,8.2-57.6s0.7-109.1,0.8-110
		s-53.3,23.2-58.6,46.3C129.9,313.9,139.1,352,138.1,360.2z"></path><path class="st1" d="M124.4,429.6c-0.2,0-0.4-0.1-0.6-0.3c-0.1-0.2-0.2-0.4-0.1-0.6c3.5-12.1,11.1-44.6,13.8-68.6l0,0
		c0.4-3.5-1.2-13.1-2.9-23.2c-2.2-13.3-4.5-27-3.3-32.1c5.1-22.2,55.9-46.9,59.3-46.9h0.1c0.4,0.1,0.6,0.4,0.6,0.8
		c0,0.2,0,2.9,0.1,6.6c0.4,23.4,1.8,94.7-0.9,103.6c-3.1,10.2-8.1,57-8.2,57.5c0,0.3-0.3,0.6-0.6,0.6l-21.7,2.6L124.4,429.6z
		 M125.3,428.2h34.5l21.1-2.6c0.6-5.6,5.2-47.4,8.2-57.2c1.8-5.8,2.1-40.5,0.9-103.2c-0.1-3.2-0.1-4.9-0.1-5.8
		c-6.4,2.4-52.3,24.2-57.2,45.6c-1.1,4.9,1.2,19.1,3.3,31.6c1.7,10.2,3.3,19.9,2.9,23.6l-0.7-0.1l0.7,0.1
		C136.2,383.7,128.9,415.4,125.3,428.2z"></path><polygon class="st0" points="123.4,392.7 126.6,371.8 190.8,383 188.2,405.7 	"></polygon><path class="st1" d="M188.2,406.4h-0.1l-64.8-13c-0.4-0.1-0.6-0.4-0.6-0.8l3.2-21c0-0.2,0.1-0.4,0.3-0.5c0.2-0.1,0.3-0.2,0.5-0.1
		l64.2,11.3c0.4,0.1,0.6,0.4,0.6,0.8l-2.6,22.7c0,0.2-0.1,0.4-0.3,0.5C188.5,406.4,188.4,406.4,188.2,406.4z M124.2,392.2l63.4,12.7
		l2.4-21.3l-62.8-11.1L124.2,392.2z"></path><polygon class="st1" points="192.4,428.9 193.8,396.7 120.5,382.4 110.8,428.9 	"></polygon><path class="st1" d="M192.4,429.6h-81.7c-0.4,0-0.7-0.3-0.7-0.7c0,0,0-0.1,0-0.1l9.8-46.5c0.1-0.4,0.4-0.6,0.8-0.5L194,396
		c0.3,0.1,0.6,0.4,0.6,0.7l-1.4,32.1C193.2,429.3,192.9,429.6,192.4,429.6C192.5,429.6,192.5,429.6,192.4,429.6z M111.6,428.2h80.1
		l1.3-30.9l-72-14.1L111.6,428.2z"></path><circle class="st1" cx="182" cy="387.2" r="3"></circle></g><g id="Documents"><rect class="st0" x="154.9" y="103.7" transform="matrix(0.9404 -0.3401 0.3401 0.9404 -65.4149 100.9899)" width="200.9" height="266.8"></rect><path class="st1" d="M207,396.9c-0.3,0-0.6-0.2-0.6-0.5L115,145.6c-0.1-0.4,0.1-0.8,0.4-0.9L304.3,76c0.4-0.1,0.8,0.1,0.9,0.4
		c0,0,0,0,0,0l91.4,250.8c0.1,0.2,0.1,0.4,0,0.5c-0.1,0.2-0.2,0.3-0.4,0.4l-188.9,68.8C207.2,396.9,207.1,396.9,207,396.9z
		 M116.6,145.8l90.9,249.5L395,327L304.1,77.5L116.6,145.8z"></path><rect class="st0" x="149.6" y="101.9" transform="matrix(0.9396 -0.3422 0.3422 0.9396 -65.4436 99.787)" width="201" height="266.9"></rect><path class="st1" d="M201.4,395.9c-0.3,0-0.6-0.2-0.7-0.5l-91.4-250.8c-0.1-0.4,0.1-0.8,0.4-0.9c0,0,0,0,0,0l188.8-68.8
		c0.2-0.1,0.4-0.1,0.5,0c0.2,0.1,0.3,0.2,0.4,0.4l91.4,250.8c0.1,0.2,0.1,0.4,0,0.5c-0.1,0.2-0.2,0.3-0.4,0.4l-188.9,68.8
		C201.5,395.8,201.4,395.9,201.4,395.9z M110.9,144.8l90.9,249.5L389.3,326L298.4,76.4L110.9,144.8z"></path><rect class="st0" x="143.3" y="98.1" transform="matrix(0.9404 -0.3401 0.3401 0.9404 -64.2214 96.7324)" width="200.9" height="266.8"></rect><path class="st1" d="M195.5,391.4c-0.3,0-0.6-0.2-0.7-0.5l-91.4-250.8c-0.1-0.4,0.1-0.8,0.4-0.9l188.9-68.8c0.2-0.1,0.4-0.1,0.5,0
		c0.2,0.1,0.3,0.2,0.4,0.4L385,321.7c0.1,0.4-0.1,0.8-0.4,0.9l-188.9,68.8C195.6,391.4,195.6,391.4,195.5,391.4z M105,140.3
		l90.9,249.5l187.5-68.3L292.6,72L105,140.3z"></path><line class="st2" x1="214.4" y1="134.5" x2="253.1" y2="120.5"></line><path class="st1" d="M214.4,135.2c-0.3,0-0.6-0.2-0.7-0.5c-0.1-0.4,0.1-0.8,0.4-0.9l38.6-14.1c0.4-0.1,0.8,0.1,0.9,0.4
		c0.1,0.4-0.1,0.8-0.4,0.9l-38.6,14.1C214.6,135.2,214.5,135.2,214.4,135.2z"></path><line class="st2" x1="219.8" y1="149.2" x2="275" y2="129.1"></line><path class="st1" d="M219.8,149.9c-0.4,0-0.7-0.3-0.7-0.7c0-0.3,0.2-0.6,0.5-0.7l55.2-20.1c0.4-0.1,0.8,0.1,0.9,0.4c0,0,0,0,0,0
		c0.1,0.4,0,0.8-0.4,0.9L220,149.9C219.9,149.9,219.9,149.9,219.8,149.9z"></path><line class="st2" x1="225.1" y1="163.9" x2="250" y2="154.8"></line><path class="st1" d="M225.1,164.6c-0.4,0-0.7-0.3-0.7-0.7c0-0.3,0.2-0.5,0.4-0.6l24.9-9.1c0.4-0.1,0.8,0.1,0.9,0.4
		c0.1,0.4-0.1,0.8-0.4,0.9l-24.9,9.1C225.3,164.5,225.2,164.6,225.1,164.6z"></path><line class="st2" x1="259.8" y1="151.2" x2="284.7" y2="142.1"></line><path class="st1" d="M259.8,151.9c-0.4,0-0.7-0.3-0.7-0.7c0-0.3,0.2-0.6,0.5-0.7l24.9-9.1c0.4-0.1,0.8,0.1,0.9,0.4c0,0,0,0,0,0
		c0.1,0.4-0.1,0.8-0.4,0.9c0,0,0,0,0,0l-24.9,9.1C260,151.9,259.9,151.9,259.8,151.9z"></path><path class="st3" d="M230.5,179.2c-0.3,0-0.6-0.2-0.6-0.5c-0.1-0.4,0.1-0.8,0.4-0.9c0,0,0,0,0,0l38.6-14c0.4-0.1,0.8,0,0.9,0.4
		c0.1,0.4-0.1,0.8-0.4,0.9c0,0,0,0,0,0l-38.6,14.1C230.6,179.2,230.5,179.2,230.5,179.2z"></path><path class="st3" d="M192.9,225c-0.3,0-0.6-0.2-0.6-0.5c-0.1-0.4,0-0.8,0.4-0.9c0,0,0,0,0,0l38.1-13.9c0.4-0.1,0.8,0.1,0.9,0.4
		c0.1,0.4-0.1,0.8-0.4,0.9L193.1,225C193.1,225,193,225,192.9,225z"></path><rect class="st0" x="175.8" y="245.9" transform="matrix(0.9396 -0.3422 0.3422 0.9396 -75.488 78.5537)" width="18.2" height="14.6"></rect><path class="st1" d="M178.8,263.9c-0.1,0-0.2,0-0.3-0.1c-0.2-0.1-0.3-0.2-0.4-0.4l-5-13.7c-0.1-0.4,0.1-0.8,0.4-0.9c0,0,0,0,0,0
		l17.1-6.2c0.2-0.1,0.4-0.1,0.5,0c0.2,0.1,0.3,0.2,0.4,0.4l5,13.7c0.1,0.4-0.1,0.8-0.4,0.9c0,0,0,0,0,0l-17.1,6.2
		C179,263.8,178.9,263.9,178.8,263.9z M174.8,249.9l4.5,12.4l15.7-5.7l-4.5-12.4L174.8,249.9z"></path><rect class="st0" x="166.4" y="221.4" transform="matrix(0.9396 -0.3422 0.3422 0.9396 -67.6653 73.8738)" width="18.2" height="14.6"></rect><path class="st1" d="M169.5,239.4c-0.3,0-0.6-0.2-0.7-0.5l-5-13.7c-0.1-0.4,0.1-0.8,0.4-0.9c0,0,0,0,0,0l17.1-6.2
		c0.4-0.1,0.8,0.1,0.9,0.4l5,13.7c0.1,0.4-0.1,0.8-0.4,0.9l-17.1,6.2C169.6,239.3,169.6,239.4,169.5,239.4z M165.4,225.4l4.5,12.4
		l15.8-5.7l-4.5-12.4L165.4,225.4z"></path><path class="st3" d="M201.3,248c-0.3,0-0.6-0.2-0.7-0.5c-0.1-0.4,0.1-0.8,0.4-0.9l38.1-13.9c0.4-0.1,0.8,0.1,0.9,0.4
		c0.1,0.4-0.1,0.8-0.4,0.9L201.5,248C201.4,248,201.4,248,201.3,248z"></path><rect class="st0" x="247.3" y="193.9" transform="matrix(0.9396 -0.3422 0.3422 0.9396 -53.3564 99.8835)" width="18.2" height="14.6"></rect><path class="st1" d="M250.4,211.8c-0.3,0-0.6-0.2-0.7-0.5l-5-13.7c-0.1-0.2-0.1-0.4,0-0.5c0.1-0.2,0.2-0.3,0.4-0.4l17.1-6.2
		c0.4-0.1,0.8,0.1,0.9,0.4l5,13.7c0.1,0.2,0.1,0.4,0,0.5c-0.1,0.2-0.2,0.3-0.4,0.4l-17.1,6.2C250.5,211.8,250.4,211.8,250.4,211.8z
		 M246.3,197.8l4.5,12.4l15.8-5.8l-4.5-12.4L246.3,197.8z"></path><path class="st3" d="M272.8,195.9c-0.4,0-0.7-0.3-0.7-0.7c0-0.3,0.2-0.5,0.4-0.6l38.1-13.9c0.3-0.1,0.7,0,0.9,0.4c0,0,0,0,0,0
		c0.1,0.4,0,0.8-0.4,0.9c0,0,0,0,0,0L273,195.9C272.9,195.9,272.9,195.9,272.8,195.9z"></path><rect class="st0" x="255.7" y="216.9" transform="matrix(0.9396 -0.3422 0.3422 0.9396 -60.7124 104.1328)" width="18.2" height="14.6"></rect><path class="st1" d="M258.7,234.8c-0.3,0-0.6-0.2-0.6-0.5l-5-13.7c-0.1-0.4,0.1-0.8,0.4-0.9l17.1-6.2c0.4-0.1,0.8,0,0.9,0.4
		c0,0,0,0,0,0l5,13.7c0.1,0.4,0,0.8-0.4,0.9c0,0,0,0,0,0l-17.1,6.2C258.9,234.8,258.8,234.8,258.7,234.8z M254.6,220.8l4.5,12.4
		l15.8-5.7l-4.5-12.4L254.6,220.8z"></path><path class="st3" d="M281.1,218.9c-0.3,0-0.6-0.2-0.7-0.5c-0.1-0.4,0.1-0.8,0.4-0.9c0,0,0,0,0,0l38.1-13.9c0.4-0.2,0.8,0,0.9,0.3
		c0.2,0.4,0,0.8-0.3,0.9c0,0-0.1,0-0.1,0l-38.1,13.9C281.3,218.8,281.2,218.9,281.1,218.9z"></path><rect class="st0" x="188.9" y="254.3" transform="matrix(0.9396 -0.3422 0.3422 0.9396 -78.909 107.397)" width="152.1" height="46"></rect><path class="st1" d="M201.4,325.7c-0.1,0-0.2,0-0.3-0.1c-0.2-0.1-0.3-0.2-0.4-0.4L185,282c-0.1-0.2-0.1-0.4,0-0.5
		c0.1-0.2,0.2-0.3,0.4-0.4l142.9-52c0.4-0.1,0.8,0,0.9,0.4c0,0,0,0,0,0l15.8,43.2c0.1,0.2,0.1,0.4,0,0.5c-0.1,0.2-0.2,0.3-0.4,0.4
		l-143,52C201.5,325.7,201.4,325.7,201.4,325.7z M186.5,282.1l15.3,41.9l141.6-51.6l-15.3-41.9L186.5,282.1z"></path><line class="st2" x1="189" y1="291" x2="331.9" y2="239"></line><path class="st1" d="M189,291.7c-0.4,0-0.7-0.3-0.7-0.7c0-0.3,0.2-0.5,0.4-0.6l142.9-52.1c0.4-0.2,0.8,0,0.9,0.3
		c0.2,0.4,0,0.8-0.3,0.9c0,0-0.1,0-0.1,0l-142.9,52.1C189.1,291.7,189.1,291.7,189,291.7z"></path><line class="st2" x1="225.2" y1="267.3" x2="240.9" y2="310.6"></line><path class="st1" d="M240.9,311.3c-0.3,0-0.6-0.2-0.7-0.5l-15.8-43.2c-0.1-0.4,0.1-0.8,0.4-0.9c0.4-0.1,0.8,0.1,0.9,0.4l0,0
		l15.8,43.2c0.1,0.4-0.1,0.8-0.4,0.9C241.1,311.2,241,311.3,240.9,311.3z"></path><path class="st3" d="M300.6,333c-0.3,0-0.6-0.2-0.7-0.5c-0.1-0.4,0.1-0.8,0.4-0.9l57.6-21c0.4-0.2,0.8,0,0.9,0.3
		c0.2,0.4,0,0.8-0.3,0.9c0,0-0.1,0-0.1,0l-57.6,21C300.7,333,300.7,333,300.6,333z"></path><path class="st3" d="M206.2,339.1c-0.4,0-0.7-0.3-0.7-0.7c0-0.3,0.2-0.6,0.5-0.7l142.9-52c0.3-0.2,0.8,0,0.9,0.3
		c0.2,0.3,0,0.8-0.3,0.9c0,0-0.1,0-0.1,0.1l-142.9,52C206.4,339.1,206.3,339.1,206.2,339.1z"></path><path class="st1" d="M267,112.1c-1.7,0-3.2-1-3.8-2.6L256.9,92c-0.2-0.4,0-0.8,0.3-0.9s0.8,0,0.9,0.3c0,0,0,0.1,0,0.1l6.4,17.5
		c0.5,1.3,2,2,3.3,1.5c1.3-0.5,2-2,1.5-3.3L260.3,82c-0.4-1.2-1.3-2.2-2.5-2.7c-1.2-0.5-2.5-0.6-3.7-0.2c-2.5,0.9-3.8,3.7-2.9,6.2
		c0,0,0,0,0,0l0.4,1c0.1,0.4-0.1,0.8-0.4,0.9c-0.4,0.1-0.8,0-0.9-0.4c0,0,0,0,0,0l-0.4-1c-1.1-3.3,0.7-6.8,4-7.9
		c3.1-1,6.5,0.6,7.7,3.6l9.2,25.2c0.8,2.1-0.3,4.4-2.4,5.1C267.9,112,267.5,112.1,267,112.1z"></path></g><g id="Thumb"><path class="st0" d="M140.9,316.6c7.7-12.6,17.5-32,24-45.2c3.1-6.5,14.8-2.9,15.6,2.6c1.2,7.7-12.4,47.4-12.5,47.2
		c10.6,12.6,12.5,31.8,4.5,46.1"></path><path class="st1" d="M172.5,368.2c-0.4,0-0.7-0.3-0.7-0.7c0-0.1,0-0.2,0.1-0.3c7.7-14,5.9-33.1-4.4-45.4c-0.2-0.2-0.2-0.5-0.1-0.7
		l0.1-0.1c0.8-1.8,13.5-39.5,12.4-46.8c-0.4-2.5-3.5-4.8-7.2-5.4c-3.3-0.5-5.9,0.6-7.1,3c-3.3,6.8-14.9,30.2-24,45.2
		c-0.2,0.3-0.6,0.5-1,0.3c0,0,0,0,0,0c-0.3-0.2-0.5-0.6-0.3-1c0,0,0,0,0,0c9.1-15,20.6-38.3,23.9-45.1c1.4-2.9,4.6-4.3,8.5-3.7
		c3.6,0.5,7.8,3,8.4,6.5c1,6.6-9.8,41.4-12.4,47.2c10.7,13.3,12.4,31.6,4.4,46.6C172.9,368.1,172.7,368.2,172.5,368.2z"></path></g><g id="ID_Photo"><rect class="st0" x="148" y="140.3" transform="matrix(0.9396 -0.3422 0.3422 0.9396 -48.8124 70.551)" width="55.1" height="66.6"></rect><path class="st1" d="M190.1,132.9l22.8,62.5L161,214.3l-22.8-62.5L190.1,132.9 M190,131.5c-0.2,0-0.3,0-0.5,0.1l-51.8,18.9
		c-0.4,0.1-0.6,0.4-0.8,0.7c-0.2,0.3-0.2,0.7-0.1,1.1l22.8,62.5c0.1,0.3,0.4,0.6,0.7,0.8c0.2,0.1,0.4,0.1,0.6,0.1
		c0.2,0,0.3,0,0.5-0.1l51.8-18.9c0.7-0.3,1.1-1.1,0.8-1.8l-22.8-62.5C191.1,131.9,190.6,131.5,190,131.5L190,131.5z"></path><path class="st4" d="M206.2,177.4l6.6,18.1L161,214.3l-6.6-18.1c3.4-6.9,10.3-11.3,16.5-14.2c2.4-1.1,4.7-2,6.6-2.7l0.4-0.2
		c1.8-0.7,4-1.4,6.3-2c0,0,0.1,0,0.1,0C191.1,175.4,199.2,174.3,206.2,177.4z"></path><path class="st1" d="M185.9,180.5L185.9,180.5l1.3,18.6l0.4,5.4l-1.2,0.4l-3.2-4.4l-11-15l0,0l0,0
		C175,183.4,182.2,180.8,185.9,180.5z"></path><path class="st0" d="M180.1,161c-0.8-4.1,5.2-7.3,6.6-2.7c0.5,1.6,0.5,3.3-0.1,4.9c-0.7,1.6-2.2,2.6-3.9,2.6"></path><path class="st1" d="M182.9,166.4h-0.3c-0.4,0-0.7-0.4-0.7-0.8c0-0.4,0.4-0.7,0.8-0.7c1.4,0,2.6-0.8,3.2-2.1
		c0.5-1.4,0.6-2.9,0.1-4.4c-0.5-1.8-1.8-1.8-2.5-1.7c-1.8,0.5-2.9,2.2-2.7,4c0.1,0.4-0.2,0.8-0.6,0.8s-0.8-0.2-0.8-0.6
		c-0.4-2.6,1.2-5.1,3.8-5.7c1.8-0.5,3.7,0.6,4.2,2.5c0,0.1,0,0.1,0,0.2c0.6,1.8,0.5,3.7-0.2,5.4
		C186.4,165.2,184.8,166.3,182.9,166.4z"></path><path class="st0" d="M164.3,166.7c-2-3.6-8.7-2.2-6.8,2.2c0.6,1.6,1.8,2.8,3.2,3.6c1.5,0.8,3.3,0.5,4.6-0.6"></path><path class="st1" d="M162.7,173.7c-0.8,0-1.6-0.2-2.3-0.5c-1.6-0.9-2.9-2.3-3.6-4c-0.9-1.6-0.4-3.7,1.3-4.6c0.1,0,0.1-0.1,0.2-0.1
		c2.4-1.1,5.2-0.3,6.6,1.9c0.2,0.3,0.1,0.8-0.3,1s-0.8,0.1-1-0.3l0,0c-1-1.6-3-2.1-4.6-1.4c-0.6,0.3-1.6,1.1-0.8,2.9
		c0.6,1.4,1.6,2.5,2.9,3.3c1.2,0.6,2.7,0.5,3.8-0.4c0.3-0.3,0.7-0.3,1,0c0.3,0.3,0.3,0.7,0,1C165,173.2,163.9,173.7,162.7,173.7z"></path><path class="st0" d="M172.1,185.6c2.2,1.9,5.4,2.4,8.1,1.3c2.9-1,5-3.4,5.7-6.3l-6-14.5l-12.4,4.5L172.1,185.6z"></path><path class="st1" d="M177.1,188.2c-2,0-4-0.7-5.5-2.1c-0.1-0.1-0.1-0.2-0.2-0.3l-4.7-15c-0.1-0.4,0.1-0.8,0.4-0.9l12.4-4.5
		c0.4-0.1,0.8,0,0.9,0.4l6,14.5c0.1,0.1,0.1,0.3,0.1,0.4c-0.7,3.2-3,5.8-6.2,6.9C179.4,187.9,178.2,188.1,177.1,188.2z M172.7,185.2
		c2,1.6,4.8,2,7.2,1c2.6-0.9,4.5-3,5.2-5.6l-5.7-13.6l-11.2,4.1L172.7,185.2z"></path><path class="st1" d="M169.7,176.9c1.5,1.1,3.2,1.7,5,1.9c3,0.5,7.2,0.7,10-0.9l-2.8-6c-2.1,1.1-4.3,1.9-6.6,2.4c-2,0.6-4,1-6.1,1
		C168.9,175.3,169.1,176.4,169.7,176.9z"></path><path class="st1" d="M178.8,179.9c-1.4,0-2.8-0.1-4.2-0.4c-1.9-0.2-3.7-0.9-5.3-2.1c-0.7-0.5-1-1.4-0.8-2.3
		c0.1-0.4,0.5-0.6,0.9-0.6c2,0,4-0.3,5.9-0.9c2.2-0.5,4.4-1.3,6.4-2.4c0.2-0.1,0.4-0.1,0.6,0c0.2,0.1,0.3,0.2,0.4,0.4l2.8,6
		c0.2,0.3,0,0.7-0.3,0.9C183.1,179.5,180.9,179.9,178.8,179.9z M169.9,176c0.1,0.1,0.1,0.2,0.2,0.3l0,0c1.4,1,3,1.6,4.6,1.8
		c1.8,0.3,6,0.8,9-0.5l-2.2-4.8c-2,0.9-4,1.7-6.1,2.2C173.7,175.6,171.8,175.9,169.9,176z M169.2,176L169.2,176z"></path><path class="st0" d="M176,175.7l1-0.4c4.9-1.8,7.4-7.1,5.6-12l-5.1-13.9c-7-3.1-15.2-0.1-18.6,6.8l5.1,13.9
		C165.7,175,171.1,177.5,176,175.7C176,175.8,176,175.7,176,175.7z"></path><path class="st1" d="M171.9,148.2c1.9,0,3.9,0.4,5.6,1.3l5.1,13.9c1.8,4.9-0.7,10.2-5.6,12l-1,0.4c-1,0.4-2.1,0.6-3.2,0.6
		c-3.9,0-7.4-2.5-8.8-6.1l-5.1-13.9c1.5-3.4,4.4-6,7.9-7.1C168.5,148.5,170.2,148.2,171.9,148.2 M171.9,146.8c-1.9,0-3.8,0.3-5.6,1
		c-6.8,2.5-8.7,7.8-8.8,8c-0.1,0.3-0.1,0.7,0,1l5.1,13.9c2,5.6,8.2,8.5,13.8,6.4l1-0.4c5.6-2,8.5-8.2,6.4-13.8l-5.1-13.9
		c-0.1-0.3-0.3-0.6-0.6-0.8C176.3,147.2,174.1,146.7,171.9,146.8L171.9,146.8z"></path><polygon class="st0" points="181.8,190.7 178.7,189.7 180.4,187 183.5,188 	"></polygon><polygon class="st0" points="187.2,199.2 187.5,204.7 186.4,205.1 183.1,200.7 180.7,190.4 180.7,190.3 180.6,190 180.6,189.8 
		182.1,189.2 182.2,189.4 182.4,189.7 182.4,189.7 	"></polygon><path class="st1" d="M167.5,212.7c-0.3,0-0.5-0.2-0.6-0.4l-7.1-14.6c-0.2-0.3-0.1-0.8,0.3-1c0,0,0,0,0.1,0c0.3-0.2,0.8-0.1,1,0.3
		c0,0,0,0,0,0l7.1,14.6c0.2,0.4,0,0.8-0.3,1c0,0,0,0,0,0C167.7,212.6,167.6,212.7,167.5,212.7z"></path><path class="st1" d="M206.4,198.5c-0.3,0-0.6-0.2-0.7-0.5l-4-15.7c-0.1-0.4,0.1-0.8,0.5-0.9s0.8,0.1,0.9,0.5l4,15.7
		c0.1,0.4-0.1,0.8-0.5,0.9c0,0,0,0,0,0C206.5,198.5,206.4,198.5,206.4,198.5z"></path><path class="st0" d="M163.1,168.3c-1.3-4.4-3.6-9.6-2.9-10.8s1.6,0,2.3-1.3s0.1-1.4,0.1-1.4s3.1-2.4,4.8-2.7s5.6-0.5,7.1-2.6
		c0,0,3.8,2.3,4.6,4.1s2.1,7,2.5,6.8s1.1-4.9,0.9-7.1c-0.4-4-3.4-7.3-7.4-7.9c0,0-0.5-2.3-6.2-1.7s-10.6,4.4-11.6,6.6
		c-1.2,3.2-1.4,6.7-0.5,10.1c0.8,2.5,1.8,2.5,1.8,2.5L163.1,168.3z"></path><path class="st1" d="M163.1,169c-0.2,0-0.4-0.1-0.6-0.2l-4.5-5.3c-0.5-0.2-1.4-0.8-2.1-2.9c-0.9-3.5-0.7-7.2,0.6-10.6
		c1.2-2.5,6.2-6.4,12.2-7c4.8-0.5,6.3,1,6.8,1.8c4.1,0.8,7.2,4.3,7.6,8.5c0.1,1.1-0.3,7.1-1.3,7.7c-0.2,0.1-0.4,0.1-0.7,0.1
		c-0.5-0.2-0.7-0.6-1.7-3.9c-0.4-1.2-0.8-2.5-1.1-3.2c-0.5-1.1-2.5-2.6-3.8-3.4c-1.6,1.6-4.5,2-6.3,2.3l-0.8,0.1
		c-1.4,0.5-2.8,1.2-4,2.2c0,0.6-0.1,1.1-0.4,1.6c-0.3,0.7-1,1.1-1.8,1.1c-0.3,0-0.4,0-0.5,0.2c-0.3,0.6,0.9,4.1,1.7,6.4
		c0.4,1.3,0.9,2.6,1.3,3.8c0.1,0.3,0,0.7-0.3,0.8C163.3,169,163.2,169,163.1,169z M158.5,162.1c0.2,0,0.3,0.1,0.4,0.2l2.3,2.7
		c0-0.1-0.1-0.2-0.1-0.2c-1.5-4.3-2.2-6.6-1.6-7.6c0.3-0.6,1-1,1.7-0.9c0.4,0,0.4,0,0.6-0.3c0.1-0.2,0.2-0.4,0.2-0.6
		c-0.1-0.1-0.2-0.2-0.2-0.4c-0.1-0.3,0-0.5,0.3-0.7c0.3-0.3,3.3-2.5,5.1-2.9l0.8-0.1c1.7-0.2,4.6-0.7,5.8-2.2c0.2-0.3,0.7-0.4,1-0.2
		c0,0,0,0,0,0c0.4,0.2,4,2.4,4.8,4.4c0.3,0.8,0.7,2.1,1.1,3.4c0.1,0.5,0.3,1,0.5,1.5c0.3-1.6,0.4-3.2,0.4-4.8
		c-0.3-3.7-3.1-6.7-6.8-7.2c-0.3,0-0.5-0.3-0.6-0.5l0,0c0,0-0.6-1.6-5.5-1.2c-5.6,0.6-10.2,4.3-11.1,6.2c-1.1,3.1-1.3,6.4-0.5,9.5
		C157.9,161.9,158.5,162.1,158.5,162.1L158.5,162.1z"></path></g></svg>