<svg transform="scale(1)" version="1.1" id="Layer_1" xmlns="http://www.w3.org/2000/svg" xmlns:xlink="http://www.w3.org/1999/xlink" x="0px" y="0px" viewBox="0 0 500 500" xml:space="preserve" class="show_show__wrapper__graphic__5Waiy "><title>React</title><style type="text/css">
	.st0{fill:#000111;}
	.st1{fill:#FED490;}
	.st2{fill:url(#SVGID_1_);}
	.st3{fill:url(#SVGID_00000029732563594423278780000008231108923248734122_);}
	.st4{fill:#FFC2A7;}
	.st5{fill:#D88260;}
	.st6{fill:#FFFFFF;}
	.st7{fill:#005045;}
	.st8{fill:url(#SVGID_00000127016274887647001470000015987006006712328355_);}
	.st9{fill:url(#SVGID_00000074440125213252603450000016219101529692623493_);}
	.st10{fill:url(#SVGID_00000043440742681706956540000003705121473431697852_);}
	.st11{fill:url(#SVGID_00000005229272259573799330000004697270031539600265_);}
	.st12{fill:#C64234;}
	.st13{fill:url(#SVGID_00000065783739280187776800000012488932067779287954_);}
	.st14{fill:url(#SVGID_00000083809494192925752010000003138132366854133936_);}
</style><g id="stair"><path class="st0" d="M413.7,402h-79.5c-0.6,0-1-0.4-1-1v-19.9c0-0.6,0.5-1,1-1s1,0.5,1,1V400H413l20.2-53.4l-0.1-19.5
		c0-0.6,0.4-1,1-1l0,0c0.6,0,1,0.4,1,1l0.1,19.7c0,0.1,0,0.3-0.1,0.4l-20.5,54.3C414.5,401.7,414.1,402,413.7,402z"></path><polygon class="st1" points="413.4,381.1 334.2,381.1 354.9,327 434.1,327 	"></polygon><path class="st0" d="M413.5,402c-0.6,0-1-0.4-1-1l-0.1-19.9c0-0.6,0.4-1,1-1l0,0c0.6,0,1,0.4,1,1l0.1,19.9
		C414.5,401.6,414.1,402,413.5,402z"></path><path class="st0" d="M468.5,290.6H389c-0.6,0-1-0.4-1-1v-19.9c0-0.6,0.5-1,1-1s1,0.5,1,1v18.9h77.8l20.2-53.4l-0.1-19.5
		c0-0.6,0.4-1,1-1l0,0c0.6,0,1,0.4,1,1l0.1,19.7c0,0.1,0,0.3-0.1,0.4L469.4,290C469.3,290.4,468.9,290.6,468.5,290.6z"></path><linearGradient id="SVGID_1_" gradientUnits="userSpaceOnUse" x1="406.1017" y1="292.9717" x2="494.1517" y2="202.6317" gradientTransform="matrix(1 0 0 -1 0 502)"><stop offset="0" style="stop-color: rgb(243, 131, 116);"></stop><stop offset="1" style="stop-color: rgb(198, 66, 52);"></stop></linearGradient><polygon class="st2" points="468.1,269.7 389,269.7 409.7,215.7 488.9,215.7 	"></polygon><path class="st0" d="M468.2,290.6c-0.6,0-1-0.4-1-1l-0.1-19.9c0-0.6,0.4-1,1-1l0,0c0.6,0,1,0.4,1,1l0.1,19.9
		C469.2,290.2,468.8,290.6,468.2,290.6z"></path><path class="st0" d="M362.7,232.2h-79.5c-0.6,0-1-0.4-1-1v-19.9c0-0.6,0.5-1,1-1s1,0.5,1,1v18.9H362l20.2-53.4l-0.1-19.5
		c0-0.6,0.4-1,1-1l0,0c0.6,0,1,0.4,1,1l0.1,19.7c0,0.1,0,0.3-0.1,0.4l-20.5,54.3C363.5,231.9,363.1,232.2,362.7,232.2z"></path><polygon class="st1" points="362.4,211.3 283.2,211.3 303.9,157.2 383.1,157.2 	"></polygon><path class="st0" d="M362.5,232.2c-0.6,0-1-0.4-1-1l-0.1-19.9c0-0.6,0.4-1,1-1l0,0c0.6,0,1,0.4,1,1l0.1,19.9
		C363.5,231.7,363.1,232.2,362.5,232.2L362.5,232.2z"></path><path class="st0" d="M461.3,142.7h-79.5c-0.6,0-1-0.4-1-1v-19.9c0-0.6,0.5-1,1-1s1,0.5,1,1v18.9h77.8l20.2-53.4l-0.1-19.5
		c0-0.6,0.4-1,1-1l0,0c0.6,0,1,0.4,1,1l0.1,19.7c0,0.1,0,0.3-0.1,0.4L462.2,142C462.1,142.4,461.7,142.7,461.3,142.7z"></path><linearGradient id="SVGID_00000066487000360240254060000005399814112498581916_" gradientUnits="userSpaceOnUse" x1="398.9385" y1="440.8885" x2="486.9785" y2="350.5486" gradientTransform="matrix(1 0 0 -1 0 502)"><stop offset="0" style="stop-color: rgb(243, 131, 116);"></stop><stop offset="1" style="stop-color: rgb(198, 66, 52);"></stop></linearGradient><polygon points="461,121.8 381.8,121.8 
		402.5,67.8 481.7,67.8 	" style="fill: url(&quot;#SVGID_00000066487000360240254060000005399814112498581916_&quot;);"></polygon><path class="st0" d="M461.1,142.7c-0.6,0-1-0.4-1-1l-0.1-19.9c0-0.6,0.4-1,1-1l0,0c0.6,0,1,0.4,1,1l0.1,19.9
		C462.1,142.2,461.6,142.7,461.1,142.7L461.1,142.7z"></path></g><g id="bag"><path class="st0" d="M149,122c-2.2,0.5-3.6,2.6-3.2,4.8c0,0,0,0,0,0l0.1,0.7c1.3,6.4-2.7,12.6-9.1,13.9l-52,11
		c-6.4,1.3-12.6-2.7-13.9-9.1l-0.2-0.7c-0.6-2.2-2.9-3.4-5.1-2.8c-1.9,0.6-3.2,2.5-2.9,4.5l0.2,0.7c2.3,10.8,12.9,17.7,23.7,15.4
		l52-11c10.8-2.3,17.7-12.9,15.4-23.7l-0.1-0.7C153.4,122.9,151.2,121.5,149,122z"></path><path class="st0" d="M17.2,59.4L137.8,34c4.9-1,9.7,2.1,10.7,7l15.5,73.6c1,4.9-2.1,9.7-7,10.7L36.4,150.7c-4.9,1-9.7-2.1-10.7-7
		L10.2,70.1C9.2,65.2,12.3,60.4,17.2,59.4z"></path><path class="st1" d="M28.9,56.9l120.6-25.4c4.9-1,9.7,2.1,10.7,7l15.5,73.6c1,4.9-2.1,9.7-7,10.7L48.1,148.2c-4.9,1-9.7-2.1-10.7-7
		L21.9,67.7C20.9,62.8,24,58,28.9,56.9z"></path><path class="st0" d="M46.3,144.3c-2.3,0-4.3-1.6-4.8-3.9L25.9,66.8c-0.5-2.7,1.2-5.3,3.8-5.8l120.6-25.5c2.7-0.6,5.3,1.1,5.8,3.8
		c0,0,0,0,0,0l15.5,73.6c0.5,2.7-1.2,5.3-3.8,5.9L47.3,144.2C47,144.3,46.6,144.3,46.3,144.3z M151.4,37.5c-0.2,0-0.4,0-0.6,0.1
		L30.2,63c-1.5,0.4-2.5,1.9-2.2,3.4l0,0L43.5,140c0.2,0.7,0.6,1.4,1.2,1.8c0.6,0.4,1.4,0.6,2.2,0.4l120.6-25.4
		c1.6-0.3,2.6-1.9,2.2-3.4l-15.5-73.6C153.9,38.5,152.7,37.5,151.4,37.5L151.4,37.5z"></path><path class="st0" d="M89.2,135.3c-0.5,0-0.9-0.3-1-0.8L77,81.4c-2.2-10.6,4.5-21,15.1-23.3l0,0c10.6-2.2,21,4.6,23.2,15.2
		l11.2,53.1c0.1,0.5-0.2,1.1-0.7,1.2c0,0,0,0-0.1,0l-36.4,7.7L89.2,135.3z M92.6,60.2L92.6,60.2C83.1,62.2,77,71.5,79,81l11,52.1
		l34.4-7.2l-11-52.1C111.4,64.3,102.1,58.2,92.6,60.2z"></path><path class="st0" d="M96.1,83.7c-3.8,0-6.9-3.1-6.9-6.8s3.1-6.9,6.8-6.9s6.9,3.1,6.9,6.8c0,3.2-2.3,6-5.4,6.7
		C97,83.7,96.5,83.7,96.1,83.7z M96.1,72.1c-0.3,0-0.7,0-1,0.1c-2.6,0.5-4.3,3.1-3.7,5.7c0.5,2.6,3.1,4.3,5.7,3.7
		c2.6-0.5,4.3-3.1,3.7-5.7C100.3,73.7,98.3,72.1,96.1,72.1z"></path></g><g id="character"><path class="st4" d="M321.6,208c0,0,3.8-19.3,8.6-27.2c2.7-4.6,6.7-8.1,11.6-10.2c6.2-5.7,13.5-10.3,21.3-13.3
		c13.1-5.1,24.8-3.9,26.2,1.9s-14,9.1-17.4,10.9c-1.8,1-3.5,2.1-5.1,3.5c0,0,9.9,0,14.6,7.9c0,0,9.7,2,11.2,8.6
		c0,0,6.9,7.2,7.1,16.3s-4,18.7-9.1,21.2c-3.2,1.3-6.9-0.3-8.2-3.5c-0.1-0.2-0.2-0.5-0.2-0.7c-0.9-2.8-2.1-5.4-3.6-7.9
		c0,0-4.2,10.1-12,8.3L321.6,208z"></path><path class="st5" d="M332.8,181.6c-0.1,0-0.3,0-0.4-0.1c-0.5-0.2-0.7-0.8-0.5-1.3c0,0,0,0,0,0c2.1-4.3,5.3-7.9,9.4-10.4
		c0.5-0.3,1.1-0.1,1.4,0.4c0.3,0.5,0.1,1.1-0.4,1.4c-3.7,2.3-6.6,5.6-8.5,9.5C333.6,181.4,333.2,181.6,332.8,181.6z"></path><path class="st5" d="M356.4,181.6c-0.6,0-1-0.4-1.1-0.9c0-0.3,0.1-0.5,0.2-0.7c5.5-7.6,11.8-7.7,12-7.7c0.6,0,1,0.4,1,1s-0.4,1-1,1
		c-0.2,0-5.5,0.1-10.3,6.8C357.1,181.5,356.8,181.6,356.4,181.6z"></path><path class="st5" d="M369.1,188.1c-0.3,0-0.6-0.1-0.8-0.3c-0.4-0.4-0.4-1,0-1.4c0,0,0,0,0,0c6.3-5.9,12.8-5.9,13-5.9
		c0.6,0,1,0.5,1,1s-0.5,1-1,1l0,0c-0.2,0-6,0.1-11.6,5.3C369.6,188,369.4,188.1,369.1,188.1z"></path><path class="st5" d="M379.1,194.7c-0.5,0.1-1-0.3-1.1-0.9c0-0.4,0.2-0.8,0.5-1c5.1-3.4,13.7-3.8,14-3.8c0.6,0,1,0.4,1,1s-0.4,1-1,1
		c-0.1,0-8.3,0.3-13,3.4C379.5,194.6,379.3,194.7,379.1,194.7z"></path><path class="st5" d="M378.6,216.5c-0.5,0.1-1.1-0.3-1.1-0.9c-0.1-0.4,0.2-0.9,0.6-1.1c0.1,0,7.3-4.5,6.2-9.4
		c-0.1-0.6,0.2-1.1,0.8-1.2s1.1,0.2,1.2,0.8c1.4,6.4-6.9,11.4-7.2,11.6C379,216.5,378.8,216.5,378.6,216.5z"></path><path class="st4" d="M80.2,191l2.7-16.5c0,0,22.8,5.6,32.9,3.1s13.5-4.1,13.5-4.1l-2.6,15.1L80.2,191z"></path><path class="st4" d="M134.6,441.9c0,0-1.4-11,5.7-18.8H219c0,0-18.9,8.8-18.1,15.7c0.7,4.6,2.5,8.9,5.2,12.7c0,0,7.4,8.8-8.4,12.3
		S134.6,441.9,134.6,441.9z"></path><path class="st4" d="M212.3,123.1c-0.8,6.6,1.2,13.3,5.5,18.5l0,0c8.6,10.3,23.9,11.6,34.1,3s11.6-23.9,3-34.1s-23.9-11.6-34.1-3
		C216,111.3,213,116.9,212.3,123.1L212.3,123.1z"></path><path class="st0" d="M262.6,139.7h-0.1c-1.4-0.1-2.4-1.4-2.9-4c-0.5-2.5-0.7-5.1-0.5-7.7c0.1-2.6,0.6-5.1,1.4-7.6
		c0.9-2.4,2.1-3.7,3.4-3.6c2.8,0.2,3.8,6.2,3.4,11.7c-0.1,2.6-0.6,5.1-1.4,7.6C265,138.5,263.9,139.7,262.6,139.7z M263.7,119
		c-0.6,0.1-2.3,3.1-2.6,9.2s0.9,9.3,1.5,9.5c0.6-0.1,2.3-3.1,2.6-9.2S264.3,119.1,263.7,119z"></path><ellipse class="st4" transform="matrix(0.379 -0.9254 0.9254 0.379 36.0919 325.3588)" cx="260.5" cy="135.8" rx="3.4" ry="7.5"></ellipse><path class="st0" d="M212.3,123.1c-0.8,6.6,1.2,13.3,5.5,18.5l0,0c5.3-1.8,2.1-11.3,2.1-11.3c-6.2-1.3-4.8-14.3,2-14.1
		s6.3,8.1,6.3,8.1c19.4,8.6,30.6-6.7,30.8-6.8c-4.7-12.5-18.7-18.9-31.2-14.2C219.3,106.4,213.3,114.1,212.3,123.1L212.3,123.1z"></path><path class="st5" d="M222.8,126.4c-0.5-0.1-1-0.3-1.4-0.8c-0.3-0.4-0.5-1-0.3-1.5c0.3-1,1.3-1.6,2.3-1.4c0.1,0,0.2,0.1,0.3,0.1
		c0.7,0.3,1.2-0.4,1.3-1c0.2-1.9-1.2-3.5-3-3.7c-1.3-0.1-2.5,0.5-3.2,1.6c-0.3,0.5-0.1,1.1,0.3,1.4c0,0,0,0,0,0
		c0.5,0.3,1.1,0.1,1.4-0.4c0.2-0.2,0.4-0.4,0.7-0.5c0.3-0.1,0.7-0.1,1,0c-0.1,0,0.1,0.1,0.1,0.1c0.1,0.1,0,0,0.1,0.1
		c0.1,0.1,0.2,0.2,0.3,0.4c0.2,0.3,0.2,0.7,0.2,1l1.3-1c-2-0.8-4.3,0.2-5,2.2c-0.8,2,0.2,4.3,2.2,5c0.3,0.1,0.5,0.2,0.8,0.2
		c0.5,0.1,1.1-0.2,1.3-0.7c0.2-0.5-0.1-1.1-0.7-1.2C222.9,126.4,222.9,126.4,222.8,126.4L222.8,126.4z"></path><ellipse class="st6" transform="matrix(0.9957 -9.219680e-02 9.219680e-02 0.9957 -10.8016 23.7673)" cx="251.8" cy="128.8" rx="3" ry="3.5"></ellipse><ellipse class="st7" transform="matrix(0.9957 -9.219680e-02 9.219680e-02 0.9957 -10.8909 23.7696)" cx="251.8" cy="129.8" rx="2" ry="2.3"></ellipse><path class="st5" d="M240,144.9c-0.2,0-0.4,0-0.5-0.1c-1.7-0.9-2.9-2.4-3.3-4.3c-0.7-3.5,2-6.9,2.1-7.1c0.3-0.4,1-0.5,1.4-0.2
		c0,0,0,0,0,0c0.4,0.3,0.5,1,0.2,1.4c0,0,0,0,0,0c0,0-2.2,2.8-1.7,5.4c0.3,1.3,1.2,2.3,2.3,2.9c0.5,0.3,0.7,0.9,0.4,1.4c0,0,0,0,0,0
		C240.7,144.7,240.4,144.9,240,144.9z"></path><path class="st5" d="M240.3,135.1c-0.6,0-1.3-0.1-1.9-0.4c-1.1-0.6-2-1.6-2.2-2.9c-0.2-0.5,0.1-1.1,0.6-1.3c0,0,0,0,0.1,0
		c0.5-0.2,1.1,0.1,1.3,0.6c0,0,0,0,0,0.1c0.1,0.7,0.6,1.3,1.1,1.6c0.7,0.3,1.6,0.3,2.3,0c0.5-0.2,1.1,0,1.3,0.6
		c0.2,0.5,0,1.1-0.6,1.3l0,0C241.7,135,241,135.2,240.3,135.1z"></path><path class="st0" d="M250.6,141h-0.3c-2-0.1-3.7-1.6-4.9-4c-1.1-2.6-1.6-5.5-1.3-8.3c0.4-6.7,3.8-11.8,7.7-11.5
		c2,0.1,3.7,1.6,4.8,4c1.1,2.6,1.6,5.5,1.4,8.3C257.6,136,254.4,141,250.6,141z M251.6,119.2c-2.3,0-5,3.8-5.4,9.6
		c-0.2,2.5,0.2,5,1.2,7.3c0.8,1.7,1.9,2.8,3.1,2.9c2.3,0.2,5.1-3.7,5.5-9.6c0.2-2.5-0.2-5-1.2-7.3c-0.8-1.7-1.9-2.8-3.1-2.9
		L251.6,119.2z"></path><linearGradient id="SVGID_00000119820649328785986910000014954589683615109536_" gradientUnits="userSpaceOnUse" x1="218.1791" y1="278.0298" x2="279.6691" y2="9.8898" gradientTransform="matrix(1 0 0 -1 0 502)"><stop offset="0" style="stop-color: rgb(10, 107, 91);"></stop><stop offset="0.78" style="stop-color: rgb(0, 81, 70);"></stop><stop offset="0.91" style="stop-color: rgb(0, 80, 69);"></stop></linearGradient><path d="M232.3,239.4L232.3,239.4
		c19.7-2.4,37.8,9.1,41.6,39L300.3,423h-60l-50.8-133.9C182.4,257.2,209.2,239.4,232.3,239.4z" style="fill: url(&quot;#SVGID_00000119820649328785986910000014954589683615109536_&quot;);"></path><path class="st4" d="M300.3,423c1.5,10.3,9.6,20.5,17.1,28.1c2.6,21.2-72-9.5-72-9.5l-5.1-18.6H300.3z"></path><path class="st0" d="M245.9,441.5l6.1,35.8h10.5c-0.5-1.7,0.5-3.5,2.2-4c0.8-0.2,1.7-0.1,2.4,0.3l7,3.8l60.2,0.1l-17-26.4
		c0,0,1.8,10.6-21.9,2.8C265.4,444.1,247.1,433.3,245.9,441.5z"></path><path class="st0" d="M134.6,441.9l6.1,35.8h10.5c-0.5-1.7,0.5-3.5,2.2-4c0.8-0.2,1.7-0.1,2.4,0.3l7,3.8l60.2,0.1l-17-26.4
		c0,0,1.8,10.6-21.9,2.8C154.1,444.4,135.8,433.6,134.6,441.9z"></path><path class="st6" d="M297.5,415h-58.6c-0.6,0-1-0.5-1-1s0.5-1,1-1h58.6c0.6,0,1,0.5,1,1S298,415,297.5,415L297.5,415z"></path><path class="st5" d="M302.4,433.4c-0.2,0-0.3,0-0.5-0.1l-9.8-5.2c-0.5-0.2-0.7-0.8-0.4-1.3c0,0,0,0,0,0c0.2-0.5,0.8-0.7,1.3-0.5
		c0,0,0,0,0.1,0l9.8,5.2c0.5,0.2,0.7,0.8,0.4,1.3c0,0,0,0,0,0C303.1,433.2,302.7,433.4,302.4,433.4z"></path><linearGradient id="SVGID_00000067922709654934496580000009896665430794191289_" gradientUnits="userSpaceOnUse" x1="182.8802" y1="272.5901" x2="241.4502" y2="17.1401" gradientTransform="matrix(1 0 0 -1 0 502)"><stop offset="0" style="stop-color: rgb(10, 107, 91);"></stop><stop offset="0.78" style="stop-color: rgb(0, 81, 70);"></stop><stop offset="0.91" style="stop-color: rgb(0, 80, 69);"></stop></linearGradient><path d="M272.2,269.6c0,0,4.8,11.6,17.5,48.2
		c11.2,32.4-6.7,50-22.7,65.3c-15.1,14.3-31.2,27.6-48,39.9h-78.7l70.2-86.7L272.2,269.6z" style="fill: url(&quot;#SVGID_00000067922709654934496580000009896665430794191289_&quot;);"></path><path class="st6" d="M227.8,415h-78.9c-0.6,0-1-0.5-1-1s0.5-1,1-1h78.9c0.6,0,1,0.5,1,1S228.4,415,227.8,415L227.8,415z"></path><path class="st0" d="M208,340.4h-0.2c-0.5-0.1-0.9-0.6-0.8-1.2c0,0,0,0,0-0.1c0.1-0.6,3.5-15.6,12.3-21.3c0.5-0.3,1.1-0.2,1.4,0.3
		c0.3,0.5,0.2,1.1-0.3,1.4c-8.1,5.2-11.4,19.9-11.4,20C208.9,340,208.5,340.4,208,340.4z"></path><linearGradient id="SVGID_00000138545209115741140610000003048152024675358612_" gradientUnits="userSpaceOnUse" x1="169.6158" y1="450.9642" x2="394.1658" y2="107.9942" gradientTransform="matrix(1 0 0 -1 0 502)"><stop offset="0" style="stop-color: rgb(243, 131, 116);"></stop><stop offset="1" style="stop-color: rgb(198, 66, 52);"></stop></linearGradient><path d="M218.2,154.8l43.7,6.5
		c2.6,0.4,5,1.2,7.3,2.3c7.3,3.7,21.5,13.3,24.8,33.2c4.5,27.1,12.5,62.2,12.5,62.2l15-54.2l51.7,18.1c0,0-5.5,80.8-29.6,100.8
		s-79.8,19.7-89.8-31.1c-6-30.3-10-56.7-10-56.7h-34.7c-9,0-16.5-6.8-17.4-15.7c-1.7-16.3-3.4-40.9,0.4-50.5l0.2-0.4
		C196.6,159.2,207.2,153.1,218.2,154.8z" style="fill: url(&quot;#SVGID_00000138545209115741140610000003048152024675358612_&quot;);"></path><path class="st5" d="M139.3,161.2c1.9,3.5,1.5,7.8-1.1,10.9c-4.3,5.6-21.4,12-21.4,12L139.3,161.2z"></path><path class="st4" d="M131.4,174c0,0,9.3-10.6,10.8-16.8s-6.8-14.8-11.5-17.2s-7.7,3-7.7,3s-1.5-4.3-7.9-3.9s-8.3,3.8-8.3,3.8
		s-8.3-2.3-12.7,1.8c-0.1-0.4-8.3,0.7-9.6,12.6c-1.4,12.6-2.3,23.1,0.8,27.4S112.1,194.2,131.4,174z"></path><path class="st5" d="M83.8,173c-0.1,0-0.3,0-0.4-0.1c-0.5-0.2-0.8-0.8-0.6-1.3c0,0,0,0,0-0.1c2.9-6.6,0.6-11.3,0.5-11.5
		c-0.3-0.5-0.1-1.1,0.4-1.4c0,0,0,0,0,0c0.5-0.3,1.1-0.1,1.4,0.4c0,0,0,0,0,0c0.1,0.2,2.9,5.8-0.4,13.3
		C84.6,172.8,84.2,173,83.8,173z"></path><path class="st5" d="M123.6,167.8c-0.3,0-0.5-0.1-0.7-0.3c-0.4-0.4-0.4-1,0-1.4c0,0,0,0,0,0c2-3.5,3.5-7.4,4.3-11.3
		c1.5-6.1-4.7-10.9-4.8-11c-0.4-0.3-0.6-0.9-0.2-1.4c0,0,0,0,0,0c0.3-0.4,0.9-0.5,1.4-0.2c0,0,0,0,0,0c0.3,0.2,7.3,5.7,5.5,13.1
		c-1.6,6.8-4.1,11.5-4.9,12.3C124.1,167.7,123.8,167.8,123.6,167.8z"></path><path class="st5" d="M111,159.6c-0.1,0-0.2,0-0.3-0.1c-0.5-0.2-0.8-0.7-0.6-1.3c0,0,0,0,0-0.1c2.7-7.3-3.9-14.6-4-14.6
		c-0.4-0.4-0.4-1.1,0.1-1.4c0.4-0.4,1.1-0.4,1.4,0.1l0,0c0.3,0.3,7.5,8.2,4.4,16.7C111.8,159.4,111.4,159.6,111,159.6z"></path><path class="st5" d="M95.6,160.3c-0.5,0-0.9-0.3-1-0.8l-3.1-13.2c-0.1-0.6,0.2-1.1,0.8-1.2s1.1,0.2,1.2,0.8l3.1,13.2
		c0.1,0.5-0.2,1.1-0.7,1.2c0,0,0,0,0,0L95.6,160.3z"></path><linearGradient id="SVGID_00000129167670638229272860000000389628550037247646_" gradientUnits="userSpaceOnUse" x1="75.8161" y1="389.4909" x2="300.256" y2="46.6809" gradientTransform="matrix(1 0 0 -1 0 502)"><stop offset="0" style="stop-color: rgb(243, 131, 116);"></stop><stop offset="1" style="stop-color: rgb(198, 66, 52);"></stop></linearGradient><path d="M80.2,191l-8.4,68.2c0,0-8.1,37.5,35,34.7
		s92.1-63.9,92.1-63.9l15.9-75.6c0,0-22.2-0.5-35.5,12.3c-8.9,8.5-49.6,40.6-49.6,40.6l3.4-20.1L80.2,191z" style="fill: url(&quot;#SVGID_00000129167670638229272860000000389628550037247646_&quot;);"></path><path class="st6" d="M191.6,415.1c-0.3,0-0.5-0.1-0.7-0.3c-0.4-0.4-0.5-1-0.1-1.4c0,0,0,0,0,0l44.6-50l0.1-0.1
		c0.2-0.1,20.2-15.6,14.4-36.6l-37.7-81.5c-0.2-0.5,0-1.1,0.5-1.4c0.5-0.2,1.1,0,1.4,0.5l37.8,81.7c0,0,0,0.1,0.1,0.1
		c2.6,9.3,0.8,18.9-5.2,28c-2.7,4.1-6,7.7-9.8,10.8l-44.5,49.9C192.1,415,191.8,415.2,191.6,415.1z"></path><path class="st6" d="M273.8,415c-0.5,0-0.9-0.3-1-0.7c0-0.2,0-0.3,0-0.5c-0.3-2-5.5-18-8.8-27.8c-0.2-0.5,0.1-1.1,0.7-1.3
		c0.5-0.2,1.1,0.1,1.3,0.6c9.4,27.9,9,28.6,8.8,29c-0.1,0.2-0.3,0.4-0.6,0.5C274,415,273.9,415,273.8,415z M272.8,413.9L272.8,413.9
		z M273.4,413L273.4,413L273.4,413z M273.4,413L273.4,413z"></path><path class="st0" d="M234.9,410.9c-0.5,0.1-1-0.3-1.1-0.9c0-0.4,0.2-0.8,0.5-1c0.5-0.4,48.1-34.9,53.2-51.8
		c0.2-0.6,0.7-0.9,1.3-0.7c0.6,0.2,0.9,0.7,0.7,1.3c-5.3,17.6-52,51.5-53.9,52.9C235.3,410.8,235.1,410.9,234.9,410.9z"></path><path class="st0" d="M370.7,242.4c-0.2,0-0.6,0-53.8-18.7c-0.5-0.2-0.8-0.8-0.6-1.3s0.8-0.8,1.3-0.6l0,0
		c14.3,5,51.5,18.2,53.3,18.6c0.6,0.1,1,0.5,0.9,1.1S371.2,242.4,370.7,242.4L370.7,242.4z"></path><path class="st0" d="M293,287c-0.5,0-0.9-0.3-1-0.8c-1.5-5.9,0.4-12.6,5.6-19.4c2-2.6,4.3-5,6.7-7.2l-11.1-3
		c-0.5-0.1-0.9-0.7-0.7-1.2c0,0,0,0,0,0c0.1-0.5,0.7-0.9,1.2-0.7c0,0,0,0,0.1,0l13,3.5c0.4,0.1,0.7,0.4,0.8,0.8
		c0.1,0.4-0.1,0.8-0.4,1c-0.2,0.1-16.5,13-13.1,25.8c0.2,0.5-0.2,1.1-0.7,1.2c0,0,0,0,0,0C293.2,286.9,293.1,287,293,287z"></path><circle class="st0" cx="252.6" cy="102" r="16.3"></circle><path class="st12" d="M255.3,116.6c-14.9,0-19.1-14.6-19.2-14.7c-0.2-0.6,0.2-1.1,0.7-1.3c0.6-0.2,1.1,0.2,1.3,0.7
		c0.2,0.6,4.3,15,20,13.1c0.5-0.1,1.1,0.3,1.1,0.8c0,0,0,0,0,0c0.1,0.5-0.3,1.1-0.8,1.1c0,0,0,0-0.1,0
		C257.4,116.6,256.3,116.6,255.3,116.6z"></path><path class="st0" d="M95.3,242.2c-0.1,0-0.2,0-0.3-0.1c-0.5-0.2-0.8-0.7-0.7-1.2c0,0,0,0,0,0c3.4-10.6,12.7-19.4,20-24.9
		c4.7-3.6,9.7-6.8,15-9.4c0.5-0.2,1.1,0,1.4,0.5s0,1.1-0.5,1.4c-0.3,0.1-27.8,13.7-33.9,33.2C96.1,241.9,95.7,242.2,95.3,242.2z"></path><path class="st0" d="M79.8,203.8c-0.6,0-1-0.5-1-1c0-0.6,0.5-1,1-1l51.5-3c0.6,0,1,0.4,1.1,0.9s-0.4,1-0.9,1.1l-51.5,3.1H79.8z"></path><path class="st1" d="M149.9,231.3c-6.8,0-11.3-1.9-13.2-5.8c-5.6-11.3,13.8-35.1,14.6-36.1c0.4-0.4,1-0.5,1.4-0.1s0.5,1,0.1,1.4
		c-3.4,4.2-6.4,8.7-9.2,13.3c-5.4,9.3-7.2,16.4-5.2,20.6c1.6,3.3,5.9,4.9,12.7,4.6c11.8-0.4,25.1-8.7,36.1-18.4
		c-1.3-1.7-2.3-3.7-2.9-5.8c-2.5-8.9,1.9-21.2,17.6-27.4c4.3-1.7,7.2-1.8,8.7-0.2c1.4,1.4,1.4,3.8,0.1,7.3
		c-2.7,6.9-10.5,17.2-20.5,26.4c3.4,3.3,8.8,5.4,16.6,4c24.7-4.3,58.3-51.5,58.7-52c0.3-0.5,0.9-0.6,1.4-0.3c0,0,0,0,0,0
		c0.5,0.3,0.6,0.9,0.3,1.4c0,0,0,0,0,0c-1.4,2-34.5,48.3-60,52.8c-6.6,1.1-13.8-0.1-18.6-4.6c-11.4,10.1-25.2,18.4-37.4,18.9
		L149.9,231.3z M207.7,178.3c-1.7,0.1-3.3,0.5-4.9,1.2c-14.5,5.7-18.6,17-16.4,25c0.5,1.8,1.4,3.5,2.5,4.9
		c9.9-9.2,17.6-19.4,20-25.5c1-2.5,1.1-4.4,0.4-5.1C208.9,178.4,208.3,178.2,207.7,178.3L207.7,178.3z"></path><path class="st0" d="M197.3,231.8c-0.5,0-1-0.4-1-0.9c-0.8-7.9-5-47.2-5-48v-0.2c-0.3-4.5,0.2-15.7,10.5-23.2
		c0.4-0.3,1.1-0.2,1.4,0.2c0,0,0,0,0,0c0.3,0.4,0.3,1.1-0.2,1.4c0,0,0,0-0.1,0c-9.4,6.8-9.9,17.2-9.6,21.4c0,0.1,0,0.2,0,0.3
		c0.1,1,3.3,31.7,5,47.7c0.1,0.5-0.3,1.1-0.9,1.1c0,0,0,0-0.1,0L197.3,231.8z"></path><path class="st0" d="M243.8,237c-0.5,0-0.9-0.4-1-0.9l-7.1-43.5c0,0,0-0.1,0-0.1c0-0.1-0.7-14.9,14.7-23.2c0.5-0.3,1.1-0.1,1.4,0.4
		s0.1,1.1-0.4,1.4c-13.9,7.5-13.7,20.2-13.6,21.2l7.1,43.4c0.1,0.5-0.2,1.1-0.8,1.2c0,0-0.1,0-0.1,0H243.8z"></path><circle class="st1" cx="164" cy="225.1" r="6.7"></circle><path class="st1" d="M83.2,289.7c-0.5,0.1-1-0.4-1.1-0.9c0-0.4,0.1-0.7,0.5-0.9c1.7-1.3,42.3-32,57-24c4,2.2,5.7,6.9,5.1,14.1
		c0,0.6-0.5,1-1.1,0.9c0,0,0,0-0.1,0c-0.6,0-1-0.5-0.9-1.1c0,0,0,0,0-0.1c0.5-6.3-0.9-10.3-4.1-12.1c-5.5-3-16.7,0.1-32.3,9
		c-7.8,4.5-15.3,9.5-22.5,14.8C83.7,289.7,83.5,289.7,83.2,289.7z"></path><path class="st1" d="M311.5,338.2L311.5,338.2c-0.6,0-1-0.4-1-1c0,0,0,0,0-0.1c0.1-5.5,2.7-10.7,6.7-15.5
		c-5.1-0.8-9.4-2.8-12.4-5.9c-6.4-6.6-5.6-16.9,2.1-26.8c19.7-25.3,58.6-23.4,59-23.4c0.6,0,1,0.4,1,1c0,0,0,0.1,0,0.1
		c0,0.6-0.5,1-1.1,1c-7.2-0.2-14.5,0.5-21.5,2c-10.9,2.4-25.9,7.8-35.8,20.6c-7.1,9.2-8,18.2-2.3,24.1c2.9,3,7.2,4.9,12.5,5.4
		c10.9-11.8,29.8-20.6,39.2-22.4c3.7-0.7,5.9-0.4,6.5,1.2s0.1,4.1-9.8,11.2c-10,7.2-20.4,11.4-29.8,12.1c-1.8,0.1-3.5,0.1-5.3,0
		c-4.2,4.8-7,10-7.1,15.3C312.6,337.7,312.1,338.2,311.5,338.2C311.6,338.2,311.5,338.2,311.5,338.2z M321.5,319.9
		c8.9,0.1,20.1-3.4,32-11.9c9.4-6.8,9.1-8.7,9.1-8.7c-0.2-0.2-2.1-0.8-8,1C345.3,303.2,330.8,310.5,321.5,319.9L321.5,319.9z"></path><path class="st5" d="M200.9,439.8c-0.3,0-0.5-0.1-0.7-0.3l-9.6-9.6c-0.4-0.4-0.4-1,0-1.4s1-0.4,1.4,0l0,0l9.6,9.6
		c0.4,0.4,0.4,1,0,1.4c0,0,0,0,0,0C201.4,439.7,201.1,439.8,200.9,439.8z"></path></g><g id="flag"><linearGradient id="SVGID_00000032625823020961061780000017727891155472538284_" gradientUnits="userSpaceOnUse" x1="431.51" y1="460.3003" x2="478.76" y2="460.3003" gradientTransform="matrix(1 0 0 -1 0 502)"><stop offset="0" style="stop-color: rgb(243, 131, 116);"></stop><stop offset="1" style="stop-color: rgb(198, 66, 52);"></stop></linearGradient><path d="M432.2,30.3c0,0,7.7,6.4,22.3,3.6
		s21.8-2.9,24.3,3.8c0,0-12.6-1.7-18.1,8.4c-4.4,8.2-21.3,9.4-29.1,3.2L432.2,30.3z" style="fill: url(&quot;#SVGID_00000032625823020961061780000017727891155472538284_&quot;);"></path><path class="st0" d="M412.3,94.7c-0.6,0-1-0.4-1-1V77.3c0-0.6,0.4-1,1-1h37.8c0.6,0,1,0.4,1,1v15.4c0,0.6-0.5,1-1,1s-1-0.5-1-1
		V78.3h-35.7v15.4C413.4,94.2,413,94.7,412.3,94.7C412.4,94.7,412.4,94.7,412.3,94.7z"></path><path class="st0" d="M444.1,78.3c-0.6,0-1-0.4-1-1v-13h-22.8v12.8c0,0.6-0.5,1-1,1s-1-0.5-1-1V63.3c0-0.6,0.4-1,1-1h24.8
		c0.6,0,1,0.4,1,1v14C445.1,77.8,444.7,78.3,444.1,78.3z"></path><path class="st0" d="M431.2,64.5c-0.6,0-1-0.4-1-1V28.2c0-0.6,0.5-1,1-1s1,0.5,1,1v35.4C432.3,64.1,431.9,64.5,431.2,64.5
		C431.3,64.5,431.3,64.5,431.2,64.5z"></path><linearGradient id="SVGID_00000179640745935220032520000002493699169765825441_" gradientUnits="userSpaceOnUse" x1="427.8723" y1="484.6313" x2="445.8224" y2="451.9513" gradientTransform="matrix(1 0 0 -1 0 502)"><stop offset="0" style="stop-color: rgb(243, 131, 116);"></stop><stop offset="1" style="stop-color: rgb(198, 66, 52);"></stop></linearGradient><circle cx="432.4" cy="25.6" r="4.3" style="fill: url(&quot;#SVGID_00000179640745935220032520000002493699169765825441_&quot;);"></circle></g><g id="light"><path class="st0" d="M387.5,355.7c-0.3,0-0.6-0.1-0.8-0.4c-21.8-25.9-51.4-12.6-51.7-12.4c-0.5,0.2-1.1,0-1.4-0.5s0-1.1,0.5-1.4
		c0.3-0.1,29.9-13.5,52.5,11.2c0.6-6.2,2.5-23.9,5.9-43c5.5-31.8,12.1-52.1,19.6-60.3c15.1-16.6,28.9-14.6,33.3-13.4
		c0.3-5.8,2-27.5,13.6-32c0.5-0.2,1.1,0,1.3,0.5c0,0,0,0,0,0c0.2,0.5,0,1.1-0.5,1.3c0,0,0,0,0,0c-11.9,4.6-12.4,31.2-12.4,31.5
		c0,0.6-0.4,1-1,1c-0.2,0-0.3,0-0.5-0.1c-0.6-0.2-15.5-6.1-32.3,12.4c-17.2,18.9-25,103.6-25.1,104.5c0,0.4-0.3,0.8-0.7,0.9
		C387.7,355.6,387.6,355.7,387.5,355.7z"></path><path class="st0" d="M439,230.5c-0.2,0-0.4-0.1-0.6-0.2l-9.9-7.1c-0.5-0.3-0.6-1-0.2-1.4c0.3-0.5,1-0.6,1.4-0.2l9.9,7
		c0.5,0.3,0.6,0.9,0.4,1.4C439.8,230.3,439.4,230.5,439,230.5L439,230.5z"></path><path class="st1" d="M482.5,196.7c-7.5,0.6-13.5,6.4-14.2,13.9c-0.8-7.5-6.8-13.3-14.2-13.9c7.5-0.5,13.5-6.4,14.3-13.9
		C469,190.3,475,196.1,482.5,196.7L482.5,196.7z"></path><path class="st1" d="M450.3,184.9c-4,0.3-7.2,3.4-7.6,7.4c-0.4-4-3.6-7.1-7.6-7.4c4-0.3,7.2-3.4,7.6-7.4
		C443.1,181.4,446.3,184.6,450.3,184.9z"></path><path class="st1" d="M422.6,31.4c-4,0.3-7.2,3.4-7.6,7.4c-0.4-4-3.6-7.1-7.6-7.4c2-0.1,3.8-1,5.2-2.4c1.3-1.3,2.2-3.1,2.4-5
		C415.4,28,418.6,31.1,422.6,31.4L422.6,31.4z"></path></g><g id="line"><path class="st0" d="M230.8,478.6c-43.6,0-87.2,0-127.8-0.1c-0.6,0-1-0.5-1-1s0.5-1,1-1l0,0c81.2,0.2,174.3,0.2,255.5,0l0,0
		c0.6,0,1,0.5,1,1s-0.5,1-1,1C317.9,478.6,274.4,478.6,230.8,478.6z"></path><path class="st0" d="M377.4,478.6c-3.9,0-7.8,0-11.5-0.1c-0.6,0-1-0.4-1-1c0,0,0,0,0-0.1c0-0.6,0.4-1,1-1c0,0,0,0,0.1,0
		c7.3,0.2,15.5,0.2,23.1,0c0.6,0,1,0.4,1,0.9c0,0,0,0,0,0.1c0,0.6-0.4,1-0.9,1c0,0,0,0-0.1,0C385.3,478.6,381.3,478.6,377.4,478.6z"></path></g></svg>