<svg transform="scale(1)" version="1.1" id="Layer_1" xmlns="http://www.w3.org/2000/svg" xmlns:xlink="http://www.w3.org/1999/xlink" x="0px" y="0px" viewBox="0 0 500 500" xml:space="preserve" class="show_show__wrapper__graphic__5Waiy "><title>React</title><style type="text/css">
	.st0{fill:#FEF1E0;}
	.st1{fill:url(#SVGID_1_);}
	.st2{fill:#FFC2A7;}
	.st3{fill:#000111;}
	.st4{fill:url(#SVGID_00000181053103004342983660000006332779708783179186_);}
	.st5{fill:#D88260;}
	.st6{fill:#FFFFFF;}
	.st7{fill:#005045;}
	.st8{fill:url(#SVGID_00000019674197484503875950000000941879083333204134_);}
	.st9{fill:url(#SVGID_00000182520978072179341930000002603770835425018774_);}
	.st10{fill:url(#SVGID_00000045608908640343060070000017509572260903214733_);}
	.st11{fill:#FED490;}
	.st12{fill:url(#SVGID_00000013893795187598537240000012129620630542662301_);}
	.st13{fill:url(#SVGID_00000002347613644070036070000000489818705151070620_);}
</style><g id="cloud"><path class="st0" d="M482.3,365.9l-354.1-0.1H25.3c0-89.1,75.3-89.9,75.3-89.9s27.5-147.4,133.6-134.4c19.6,2.4,35.5,8.2,48.2,16.1
		c6.9,4.2,13.2,9.3,18.8,15.1c1,1,2,2.1,2.9,3.1c1.1,1.3,2.2,2.5,3.2,3.8l0,0c1.9,2.4,3.7,4.8,5.4,7.2c1.4,2.1,2.7,4.1,3.9,6.2
		c6.8,11.9,11.8,24.7,14.7,38.1c0,0.1,0,0.2,0.1,0.3c2.7,11.6,4,23.5,3.9,35.4c5.3-4.9,10.9-9.4,16.8-13.5
		c6.2-4.4,12.7-8.5,19.5-12.1c16.2-8.6,36-15.4,55.6-12.9c10.8,1.4,21.1,5.8,29.6,12.6C508.7,281.6,482.3,365.9,482.3,365.9z"></path><path class="st0" d="M234.7,111.8H55.4c0-34.9,29.5-35.3,29.5-35.3s10.8-57.8,52.4-52.7c6.7,0.7,13.2,2.9,18.9,6.3
		c2.7,1.7,5.2,3.6,7.4,5.9c0.4,0.4,0.8,0.8,1.1,1.2s0.9,1,1.3,1.5l0,0c0.8,0.9,1.5,1.9,2.1,2.8c0.6,0.8,1.1,1.6,1.5,2.5
		c2.7,4.7,4.6,9.7,5.8,15v0.1c1.1,4.5,1.6,9.2,1.6,13.8c2.1-1.9,4.3-3.7,6.6-5.3c2.4-1.7,5-3.3,7.6-4.7c6.4-3.4,14.1-6.1,21.8-5
		c4.2,0.6,8.3,2.3,11.6,4.9C245,78.7,234.7,111.8,234.7,111.8z"></path><path class="st0" d="M189.3,476.6l-179.3,0c0-34.9,29.5-35.3,29.5-35.3s10.8-57.8,52.4-52.7c6.7,0.7,13.2,2.9,18.9,6.3
		c2.7,1.7,5.2,3.6,7.4,5.9c0.4,0.4,0.8,0.8,1.1,1.2s0.9,1,1.3,1.5l0,0c0.8,0.9,1.5,1.9,2.1,2.8s1.1,1.6,1.5,2.5
		c2.7,4.7,4.6,9.7,5.8,15v0.1c1.1,4.6,1.6,9.2,1.5,13.9c2.1-1.9,4.3-3.7,6.6-5.3c2.4-1.7,5-3.3,7.6-4.8c6.4-3.4,14.1-6,21.8-5
		c4.2,0.6,8.3,2.3,11.6,4.9C199.6,443.5,189.3,476.6,189.3,476.6z"></path></g><g id="character"><linearGradient id="SVGID_1_" gradientUnits="userSpaceOnUse" x1="397.1375" y1="557.5925" x2="451.7875" y2="430.6425" gradientTransform="matrix(0.8993 0.4373 0.4373 -0.8993 -235.1289 412.167)"><stop offset="0" style="stop-color: rgb(10, 107, 91);"></stop><stop offset="0.78" style="stop-color: rgb(0, 81, 70);"></stop><stop offset="0.91" style="stop-color: rgb(0, 80, 69);"></stop></linearGradient><path class="st1" d="M340.9,179.8c0,0,0.2,25,19,30.5c24.8,7.3,74.1,31.3,65.7,76.1c-9.9,52.5-73.5,66.5-121.5,14.8
		C276.2,271.3,286.1,158.7,340.9,179.8z"></path><path class="st2" d="M340.1,194.3c-2.5,7.7-8.1,14.1-15.4,17.5l0,0c-14.7,6.9-32.2,0.6-39.1-14.1c-6.9-14.7-0.6-32.2,14.1-39.1
		c14.7-6.9,32.2-0.6,39.1,14.1C342,179.5,342.5,187.2,340.1,194.3L340.1,194.3z"></path><path class="st3" d="M277.4,187.4c-0.3,0-0.6-0.1-0.9-0.2c-3.7-1.4-1.6-10,0.3-14.8s6-12.6,9.8-11.1c1.6,0.6,2.2,2.5,2,5.7
		c-0.3,3.1-1.1,6.2-2.3,9.1l0,0C284.5,180.5,280.9,187.4,277.4,187.4z M285.6,163.7c-0.7,0-3.7,2.8-6.4,9.6s-2.4,11-1.8,11.4l0,0
		c0.7,0,3.7-2.8,6.3-9.7l0,0C286.5,168.3,286.1,164.1,285.6,163.7L285.6,163.7z"></path><ellipse class="st2" transform="matrix(4.396806e-02 -0.999 0.999 4.396806e-02 84.698 456.0931)" cx="280.7" cy="183.8" rx="4.1" ry="9.1"></ellipse><linearGradient id="SVGID_00000119091769165071814750000009138141400756828848_" gradientUnits="userSpaceOnUse" x1="355.7784" y1="539.7972" x2="410.4284" y2="412.8372" gradientTransform="matrix(0.8993 0.4373 0.4373 -0.8993 -235.1289 412.167)"><stop offset="0" style="stop-color: rgb(10, 107, 91);"></stop><stop offset="0.78" style="stop-color: rgb(0, 81, 70);"></stop><stop offset="0.91" style="stop-color: rgb(0, 80, 69);"></stop></linearGradient><path d="M340.1,194.3c-2.5,7.7-8.1,14.1-15.4,17.5
		l0,0c-4.9-4.7,3.4-13.5,3.4-13.5c7.5,1.7,12.6-13.4,4.9-16.5s-11.1,5.7-11.1,5.7c-25.8-0.4-30.3-22.9-30.4-23.1
		c11.5-11.4,30.1-11.3,41.5,0.2C340.8,172.4,343.5,183.9,340.1,194.3L340.1,194.3z" style="fill: url(&quot;#SVGID_00000119091769165071814750000009138141400756828848_&quot;);"></path><path class="st5" d="M326.3,195.1c2.5,0.8,5.2-0.7,6-3.2s-0.7-5.2-3.2-6c-0.4-0.1-0.8-0.2-1.2-0.2l1.3,1.7c0-0.1,0-0.2,0,0
		c0-0.1,0-0.1,0.1-0.2c0,0,0.3-0.4,0.1-0.2l0.3-0.3c0.2-0.2-0.1,0,0.1-0.1c0,0,0.5-0.2,0.2-0.2c0.1,0,0.2-0.1,0.4-0.1
		c0,0,0.4,0,0.1,0c0,0,0.5,0,0.3,0s0.2,0.1,0.3,0.1c0.2,0.1-0.1-0.1,0.1,0.1l0.3,0.2c-0.2-0.1,0.1,0.1,0.2,0.1s0.3,0.4,0.1,0.1
		c0.1,0.1,0.1,0.2,0.2,0.3s0-0.1,0.1,0.1s0.1,0.3,0.1,0.5c0.2,0.7,0.9,1.1,1.6,0.9c0.7-0.2,1.1-0.9,0.9-1.6
		c-0.4-2.3-2.6-3.8-4.8-3.4c-1.6,0.3-2.8,1.4-3.3,2.9c-0.2,0.7,0.2,1.4,1,1.6c0.1,0,0.2,0,0.3,0c0.4,0-0.1,0,0.1,0l0.3,0.1l0.3,0.1
		c0.2,0.1-0.2-0.1,0.1,0.1c0.3,0.1,0.6,0.4,0.8,0.6c0.1,0.2-0.1-0.2,0.1,0.1l0.1,0.2c0,0,0.2,0.4,0.1,0.1c0,0.1,0.1,0.2,0.1,0.2
		s0.1,0.2,0.1,0.3s0-0.1,0,0.1s0,0.2,0,0.3s0,0.3,0,0.1c0,0.2-0.1,0.4-0.1,0.6c0,0.1,0.1-0.1,0,0.1c0,0.1-0.1,0.2-0.2,0.3
		c0,0-0.2,0.3-0.1,0.1l-0.2,0.2l-0.2,0.2c0.1-0.1,0,0-0.1,0c-0.3,0.2-0.6,0.3-1,0.4c0.1,0,0,0,0,0h-0.3c-0.1,0-0.3,0-0.1,0
		c-0.1,0-0.3-0.1-0.4-0.1c-0.7-0.2-1.4,0.2-1.6,0.9C325.3,194.3,325.7,195,326.3,195.1L326.3,195.1z"></path><ellipse class="st6" transform="matrix(0.5014 -0.8652 0.8652 0.5014 -9.6816 344.1353)" cx="293.7" cy="180.5" rx="4.3" ry="3.6"></ellipse><ellipse class="st7" transform="matrix(0.4983 -0.867 0.867 0.4983 -7.4991 343.6958)" cx="293.2" cy="178.3" rx="2.8" ry="2.4"></ellipse><path class="st5" d="M299.1,204.4c-0.7,0-1.3-0.5-1.4-1.2s0.5-1.3,1.2-1.4l0,0c1.6,0,3-0.8,4-2c1.8-2.5,0.9-6.7,0.9-6.8
		c-0.2-0.7,0.3-1.4,1-1.6c0.7-0.2,1.4,0.3,1.6,1c0,0.2,1.2,5.4-1.3,8.9c-1.4,1.9-3.6,3-5.9,3.1L299.1,204.4z"></path><path class="st5" d="M305.4,193.9c-1.7-0.1-3.2-0.8-4.4-2c-0.5-0.5-0.5-1.4,0.1-1.9c0.5-0.5,1.4-0.5,1.9,0.1
		c0.6,0.7,1.5,1.1,2.4,1.2l0,0c0.8-0.1,1.5-0.5,2-1.1c0.5-0.6,1.3-0.6,1.9-0.1c0.6,0.5,0.6,1.3,0.1,1.9
		C308.5,193.1,307,193.9,305.4,193.9L305.4,193.9z"></path><path class="st3" d="M291,195.1c-0.7,0-1.4-0.1-2-0.4c-4.4-1.7-5.6-9-2.6-16.6s8.8-12.2,13.2-10.5c2.2,0.9,3.7,3.2,4.1,6.5
		c0.3,3.4-0.2,6.9-1.5,10.1C299.7,190.7,295.1,195.1,291,195.1z M297.7,169.9c-2.7,0-6.6,3.4-8.8,9.1c-2.5,6.5-1.5,12.2,1.1,13.2
		s7.2-2.4,9.8-9c1.2-2.8,1.6-5.8,1.4-8.8c-0.3-2.3-1.2-3.9-2.5-4.4C298.4,169.9,298,169.9,297.7,169.9z"></path><linearGradient id="SVGID_00000100382614593626124540000001668133252501826705_" gradientUnits="userSpaceOnUse" x1="235.7023" y1="342.8247" x2="328.6523" y2="208.2847" gradientTransform="matrix(1 0 0 -1 0 502)"><stop offset="0" style="stop-color: rgb(243, 131, 116);"></stop><stop offset="0.4" style="stop-color: rgb(225, 105, 90);"></stop><stop offset="1" style="stop-color: rgb(198, 66, 52);"></stop></linearGradient><path d="M333.5,320l-24.8,2.7
		c-12.8,1.4-24.8-6.2-29.1-18.3l-16.4-46.8c0,0-8.8-19.9,19.2-24.6l47.7-5.2c0,0,19-3,23.1,28.1l4.6,32.9c2.1,15.1-8.5,29-23.6,31.1
		C334,319.9,333.7,320,333.5,320z" style="fill: url(&quot;#SVGID_00000100382614593626124540000001668133252501826705_&quot;);"></path><linearGradient id="SVGID_00000143610873885594408980000013978900298646980794_" gradientUnits="userSpaceOnUse" x1="157.7776" y1="286.9783" x2="247.0075" y2="157.8183" gradientTransform="matrix(1 0 0 -1 0 502)"><stop offset="0" style="stop-color: rgb(243, 131, 116);"></stop><stop offset="1" style="stop-color: rgb(198, 66, 52);"></stop></linearGradient><path d="M299.1,314.7l-5,5.7l-9.9,11.1l-30.3,34.1
		H149.5L120.1,308l33.9-42l47,36l30.3-46.1c14.6-23,36.7-21.3,36.7-21.3l14.4-1.6L299.1,314.7z" style="fill: url(&quot;#SVGID_00000143610873885594408980000013978900298646980794_&quot;);"></path><linearGradient id="SVGID_00000171711098357884420380000016364671678505142189_" gradientUnits="userSpaceOnUse" x1="225.977" y1="322.5848" x2="307.667" y2="204.3548" gradientTransform="matrix(1 0 0 -1 0 502)"><stop offset="0" style="stop-color: rgb(243, 131, 116);"></stop><stop offset="1" style="stop-color: rgb(198, 66, 52);"></stop></linearGradient><path d="M398.2,290.5l-1.7,9.2l-12,65.8H243.6
		l5.3-41.2l35.3,7.1l22.5,4.5l0.7-13.1l2-39.5l0.4-7.8c0.5-27.3,16.6-37.9,16.6-37.9s2.4-8,5.3-9.6c0.3-0.2,0.6-0.3,1-0.3h0
		c17,0.5,29.7,4.5,39.1,10.2C401,255.7,398.2,290.5,398.2,290.5z" style="fill: url(&quot;#SVGID_00000171711098357884420380000016364671678505142189_&quot;);"></path><path class="st2" d="M244.8,365.5c0,0-36.8,0.1-45.6,0c-4.8-3.8-2.4-12.1,4.8-10.9c0,0,6.8,1.4,8.3,0.8s-5.9-7.5-9.5-9.8
		s-15.6,1.5-20,0.5s-7.1-5.9-5.1-8.6c0,0-6.3-3-6.1-9.5c-0.1-3.6,2.3-6.8,5.8-7.7l17.6-3.5l-6.1-7.4c0,0-1.9-5.1,5-6.4
		c0,0,7.6,3,10.2,3.8s16.7-0.1,25.6,3.2s34.3,17.6,34.3,17.6L244.8,365.5z"></path><path class="st5" d="M196.2,317.2c-0.7,0-1.3-0.6-1.3-1.3c0-0.5,0.3-1,0.8-1.2c0.5-0.2,12.4-4.9,22.6-5.6c0.7-0.1,1.3,0.4,1.4,1.2
		c0,0,0,0,0,0.1c0.1,0.7-0.5,1.3-1.2,1.4c0,0,0,0,0,0c-9.7,0.7-21.7,5.4-21.8,5.5C196.6,317.2,196.4,317.2,196.2,317.2z"></path><path class="st5" d="M177.8,338.7c-0.7,0-1.3-0.6-1.3-1.3c0-0.5,0.3-1,0.7-1.2c0.7-0.4,16.7-8.4,23.2-9.1s15.8,2.4,16.2,2.5
		c0.7,0.2,1.1,1,0.8,1.7c-0.2,0.7-1,1.1-1.7,0.8c-0.1,0-9.1-3-15.1-2.4s-22.2,8.8-22.3,8.9C178.2,338.7,178,338.7,177.8,338.7z"></path><path class="st5" d="M220.7,359.2c-3.2-0.2-6.3-1.1-9-2.8c-0.6-0.4-0.8-1.2-0.4-1.8s1.2-0.8,1.8-0.4c0.1,0,5.9,3.6,10.4,1.9
		c0.7-0.3,1.4,0,1.7,0.7s0,1.4-0.7,1.7C223.3,359,222,359.2,220.7,359.2z"></path><path class="st2" d="M154,266.2l-15.8-18.1c0,0-4.9-17.8-11.2-23s-16.4-3.6-16.4-3.6l-21.5-17.4l-20.6-9.8
		c-8.4-3.9-17.3,4.4-8.2,12.1l14.4,9.3l9.3,13c0,0-13.6,7.1-8.9,17.4c0,0-9.8,4.9-6.6,15.6c0,0-5.5,6.1-1.8,16.8L79.2,301
		c3.2,3.5,13.5,2.9,10.8-12.8c0,0,5.6,9.9,16.7,8.9l13.5,10.9L154,266.2z"></path><path class="st5" d="M108.4,267.2c-0.5,0-0.9-0.3-1.2-0.7c-4.9-8.8-0.9-19.1,0.9-22.9l-9.9-2.6l-0.2-0.1c-3.6-1.6-5.8-3.9-6.8-6.8
		c-0.8-2.8-0.5-5.9,0.9-8.5c0.2-0.3,0.5-0.5,0.8-0.6l17.3-4.6c0.7-0.2,1.4,0.2,1.6,0.9c0.2,0.7-0.2,1.4-0.9,1.6l-16.8,4.5
		c-0.8,1.9-1,4-0.4,6c0.7,2.1,2.5,3.9,5.3,5.2l11.3,3c0.4,0.1,0.7,0.4,0.9,0.8c0.2,0.4,0.1,0.8-0.1,1.2c-0.1,0.1-6.9,12.4-1.6,21.8
		c0.3,0.6,0.1,1.4-0.5,1.7C108.8,267.1,108.6,267.2,108.4,267.2z"></path><path class="st5" d="M100.4,277.2c-2.1,0-4.1-0.7-5.6-2.1l-12.3-12.7c-0.1-0.1-0.2-0.2-0.2-0.3l-8.3-15.5c-0.3-0.6-0.1-1.4,0.5-1.8
		c0.6-0.3,1.4-0.1,1.8,0.5l8.2,15.4l12.1,12.5c1.6,1.3,3.9,1.6,5.8,0.8c2.4-1.1,3.4-4.5,2.8-9.5l-10.4-14.4c0-0.1-0.1-0.1-0.1-0.2
		l-8.6-17c-0.3-0.6-0.1-1.4,0.6-1.8s1.4-0.1,1.8,0.6l8.5,16.9l10.6,14.6c0.1,0.2,0.2,0.4,0.2,0.6c0.9,8.1-1.8,11.3-4.3,12.5
		C102.6,277,101.5,277.3,100.4,277.2z"></path><path class="st5" d="M91.2,287.1c-3.1,0-6.1-1.4-8.2-3.8l-15.5-20.9c-0.5-0.5-0.4-1.4,0.1-1.9s1.4-0.4,1.9,0.1
		c0.1,0.1,0.1,0.1,0.1,0.2l15.5,20.9c1.6,2,5.3,3.4,8,2.4c3.1-1.1,3.5-5.1,3.4-8.2c0-0.7,0.5-1.3,1.3-1.4c0.7,0,1.3,0.5,1.4,1.2
		c0.3,7.6-3.1,10-5.1,10.8C93.1,286.9,92.2,287.1,91.2,287.1z"></path><path class="st5" d="M108.4,297.7c-0.7,0-1.3-0.5-1.4-1.3c0-0.7,0.5-1.3,1.3-1.4c2.8-0.3,5.5-1,8.1-2.2c0.7-0.3,1.4,0,1.8,0.6
		s0,1.4-0.6,1.8l0,0C114.7,296.6,111.6,297.4,108.4,297.7L108.4,297.7z"></path><path class="st11" d="M293.7,276.9c-4.2,0.1-8.4-0.7-12.2-2.5c-5.6-2.9-8.6-6.8-8.9-11.5c-0.8-13.8,22.6-29.8,23.6-30.5
		c0.6-0.4,1.4-0.2,1.8,0.4c0.4,0.6,0.2,1.4-0.4,1.8c-0.2,0.2-23.2,15.8-22.5,28.2c0.2,3.7,2.7,6.8,7.4,9.3c3.4,1.6,7.2,2.4,11,2.2
		c29.3,0,82.3-32.7,83-33.1c0.6-0.4,1.4-0.2,1.8,0.4c0.4,0.6,0.2,1.4-0.4,1.8c-12.4,7.5-25.3,14.3-38.5,20.4
		C320.2,272.5,304.8,276.9,293.7,276.9z"></path><path class="st11" d="M145.5,357.6c-0.3,0-0.5-0.1-0.7-0.2c-0.6-0.4-0.8-1.2-0.4-1.8c7-10.3,24.3-38.9,20.2-47.5
		c-0.7-1.4-1.9-2.1-3.8-2.3c-18-1.5-34,12.8-34.2,12.9c-0.5,0.5-1.4,0.4-1.9-0.1c-0.5-0.5-0.4-1.4,0.1-1.9
		c0.7-0.6,17.1-15.2,36.2-13.6c3.6,0.3,5.2,2.2,6,3.8c5.5,11.5-17.7,46.2-20.4,50.1C146.3,357.4,145.9,357.6,145.5,357.6z"></path><circle class="st11" cx="279.3" cy="270.9" r="8.7"></circle><path class="st3" d="M308.1,326.1L308.1,326.1c-0.8,0-1.3-0.6-1.3-1.4c0,0,0,0,0,0l1.7-37.3c0-1.1,1.3-27.2,14.7-35
		c0.6-0.4,1.4-0.2,1.8,0.5c0,0,0,0,0,0c0.4,0.6,0.2,1.4-0.5,1.8c-12.1,7.1-13.4,32.6-13.4,32.8l-1.7,37.3
		C309.3,325.5,308.8,326.1,308.1,326.1z"></path><path class="st3" d="M291.8,320.5c-0.1,0-0.2,0-0.3,0l-0.3-0.1c-9.7-2.2-17.7-9.1-21.2-18.4l-0.8-2.2c-2.7-1.9-18.1-13.6-9.8-34.5
		c0.1-3.9-0.4-13.6-3.9-16c-0.6-0.4-0.9-1.2-0.5-1.8c0.4-0.6,1.2-0.9,1.8-0.5c0.1,0,0.1,0.1,0.2,0.1c5.5,3.7,5.1,17,5.1,18.5
		c0,0.2,0,0.3-0.1,0.4c-8.4,20.8,8.3,31.3,9,31.8c0.2,0.1,0.4,0.4,0.5,0.6l1,2.6c3.2,8.5,10.5,14.8,19.4,16.7l0.2,0.1
		c0.7,0.2,1.1,0.9,1,1.6C292.9,320,292.4,320.4,291.8,320.5L291.8,320.5z"></path><path class="st3" d="M360.3,340.3c-0.3,0-0.6-0.1-0.8-0.3c-13.6-10.6-52.2-3-52.6-2.9c-0.2,0-0.3,0-0.5,0l-42.6-8.4
		c-0.7-0.2-1.1-0.8-1-1.5c0.1-0.7,0.8-1.1,1.5-1l42.4,8.3c3.8-0.7,40.4-7.5,54.5,3.4c0.6,0.4,0.7,1.3,0.2,1.8c0,0,0,0,0,0
		C361.2,340.2,360.8,340.4,360.3,340.3z"></path></g><g id="line"><rect class="st3" x="11.8" y="364.5" width="478.2" height="2.6"></rect></g><g id="box_2"><linearGradient id="SVGID_00000097490206290287368340000011500252481578398351_" gradientUnits="userSpaceOnUse" x1="93.6399" y1="466.9399" x2="154.4199" y2="408.5399" gradientTransform="matrix(1 0 0 -1 0 502)"><stop offset="0" style="stop-color: rgb(243, 131, 116);"></stop><stop offset="1" style="stop-color: rgb(198, 66, 52);"></stop></linearGradient><rect x="98.9" y="78.3" width="102.9" height="22.5" style="fill: url(&quot;#SVGID_00000097490206290287368340000011500252481578398351_&quot;);"></rect><path class="st3" d="M98.9,97.1h-14c-0.7,0-1.3-0.6-1.3-1.3c0,0,0,0,0,0V83.3c0-0.7,0.6-1.3,1.3-1.3h14c0.7,0,1.3,0.6,1.3,1.3v12.5
		C100.2,96.5,99.6,97.1,98.9,97.1z M86.2,94.5h11.4v-9.9H86.2V94.5z"></path><path class="st3" d="M215.4,97.1h-14c-0.7,0-1.3-0.5-1.4-1.2c0,0,0,0,0-0.1V83.3c0-0.7,0.6-1.3,1.4-1.3c0,0,0,0,0,0h14
		c0.7,0,1.3,0.6,1.3,1.3v12.5C216.7,96.5,216.1,97.1,215.4,97.1z M202.7,94.5h11.4v-9.9h-11.4V94.5z"></path></g><g id="box_1"><linearGradient id="SVGID_00000123398656249037817870000017952829961133457329_" gradientUnits="userSpaceOnUse" x1="55.8795" y1="100.9595" x2="116.6595" y2="42.5495" gradientTransform="matrix(1 0 0 -1 0 502)"><stop offset="0" style="stop-color: rgb(243, 131, 116);"></stop><stop offset="1" style="stop-color: rgb(198, 66, 52);"></stop></linearGradient><rect x="61.1" y="444.3" width="102.9" height="22.5" style="fill: url(&quot;#SVGID_00000123398656249037817870000017952829961133457329_&quot;);"></rect><path class="st3" d="M61.1,463.1h-14c-0.7,0-1.3-0.6-1.3-1.3c0,0,0,0,0,0v-12.5c0-0.7,0.6-1.3,1.3-1.3h14c0.7,0,1.3,0.6,1.3,1.3
		v12.5C62.4,462.5,61.8,463.1,61.1,463.1z M48.4,460.5h11.4v-9.9H48.4L48.4,460.5z"></path><path class="st3" d="M177.6,463.1h-14c-0.7,0-1.3-0.6-1.3-1.3v-12.5c0-0.7,0.6-1.3,1.3-1.3h14c0.7,0,1.3,0.6,1.3,1.3v12.5
		C178.9,462.5,178.3,463.1,177.6,463.1z M164.9,460.5h11.4v-9.9h-11.4L164.9,460.5z"></path></g><g id="cable"><path class="st3" d="M227.4,264.7h-21.8c-15.1,0-27.4-12.3-27.4-27.4v-83.7c0-15.1,12.3-27.4,27.4-27.4h128.3
		c9.9,0,17.9-8,17.9-17.9s-8-17.9-17.9-17.9h-119c-0.7,0-1.3-0.6-1.3-1.3c0-0.7,0.6-1.3,1.3-1.3h119c11.4,0,20.6,9.2,20.6,20.6
		s-9.2,20.6-20.6,20.6H205.6c-13.7,0-24.8,11.1-24.8,24.8v83.7c0,13.7,11.1,24.8,24.8,24.8h21.8c0.7,0,1.3,0.6,1.3,1.3
		C228.7,264.1,228.1,264.7,227.4,264.7C227.4,264.7,227.4,264.7,227.4,264.7z"></path><path class="st3" d="M224.6,457.3h-47c-0.7,0.1-1.4-0.5-1.4-1.2c-0.1-0.7,0.5-1.4,1.2-1.4c0.1,0,0.2,0,0.2,0h47
		c11.9,0,21.5-9.6,21.5-21.5c0-13.3,10.8-24.1,24.2-24.1h91.3c11.9,0,21.5-9.6,21.5-21.5v-22c0.1-0.7,0.7-1.3,1.4-1.2
		c0.6,0.1,1.1,0.6,1.2,1.2v21.9c0,13.3-10.8,24.1-24.2,24.2h-91.3c-11.9,0-21.5,9.6-21.5,21.5C248.7,446.5,237.9,457.3,224.6,457.3z
		"></path><circle class="st6" cx="283.7" cy="412" r="9"></circle><path class="st3" d="M283.7,422.3c-5.7,0-10.3-4.6-10.3-10.3s4.6-10.3,10.3-10.3s10.3,4.6,10.3,10.3c0,0,0,0,0,0
		C293.9,417.7,289.3,422.3,283.7,422.3z M283.7,404.3c-4.2,0-7.6,3.4-7.6,7.6c0,4.2,3.4,7.6,7.6,7.6c4.2,0,7.6-3.4,7.6-7.6l0,0
		C291.3,407.8,287.9,404.4,283.7,404.3L283.7,404.3z"></path><circle class="st6" cx="179.2" cy="182.9" r="9"></circle><path class="st3" d="M179.2,193.2c-5.7,0-10.3-4.6-10.3-10.3c0-5.7,4.6-10.3,10.3-10.3c5.7,0,10.3,4.6,10.3,10.3c0,0,0,0,0,0
		C189.4,188.6,184.8,193.2,179.2,193.2z M179.2,175.3c-4.2,0-7.6,3.4-7.6,7.6c0,4.2,3.4,7.7,7.6,7.7s7.6-3.4,7.6-7.7c0,0,0,0,0,0
		C186.8,178.7,183.4,175.3,179.2,175.3z"></path><circle class="st6" cx="331.3" cy="89.7" r="9"></circle><path class="st3" d="M331.3,100c-5.7,0-10.3-4.6-10.3-10.3c0-5.7,4.6-10.3,10.3-10.3s10.3,4.6,10.3,10.3c0,0,0,0,0,0
		C341.5,95.4,336.9,100,331.3,100z M331.3,82.1c-4.2,0-7.7,3.4-7.7,7.6s3.4,7.7,7.6,7.7s7.7-3.4,7.7-7.6c0,0,0,0,0,0
		C338.9,85.5,335.5,82.1,331.3,82.1L331.3,82.1z"></path></g><g id="light"><path class="st11" d="M388.2,161.5c-10.4,0.8-18.7,8.9-19.8,19.3c-1.1-10.4-9.4-18.5-19.8-19.2c10.4-0.8,18.7-8.9,19.8-19.3
		C369.5,152.6,377.8,160.7,388.2,161.5z"></path><path class="st11" d="M402,137.7c-5.5,0.4-10,4.8-10.5,10.3c-0.6-5.5-5-9.9-10.6-10.3c5.6-0.4,10-4.8,10.6-10.3
		C392,132.9,396.5,137.3,402,137.7z"></path><path class="st11" d="M80.3,61.2c-5.6,0.4-10,4.8-10.6,10.3c-0.6-5.5-5-9.9-10.6-10.3c5.6-0.4,10-4.8,10.6-10.3
		C70.3,56.5,74.8,60.8,80.3,61.2z"></path><path class="st11" d="M210.1,422.1c-5.6,0.4-10,4.8-10.6,10.3c-0.6-5.5-5-9.9-10.6-10.3c5.6-0.4,10-4.8,10.6-10.3
		C200,417.3,204.5,421.7,210.1,422.1z"></path></g></svg>