<svg transform="scale(1)" version="1.1" id="Layer_1" xmlns="http://www.w3.org/2000/svg" xmlns:xlink="http://www.w3.org/1999/xlink" x="0px" y="0px" viewBox="0 0 500 500" xml:space="preserve" class="show_show__wrapper__graphic__5Waiy "><title>React</title><style type="text/css">
	.st0{fill:#FFFFFF;}
	.st1{fill:#231F20;}
	.st2{fill:#460AF9;}
	.st3{fill:#D1D3D4;}
</style><g id="Screen_2"><path class="st0" d="M237.5,97.3v268c0,4.8-3.9,8.6-8.6,8.6c0,0,0,0,0,0H81.7c-4.8,0-8.6-3.9-8.6-8.6l0,0v-268
		c0-4.8,3.9-8.6,8.6-8.6c0,0,0,0,0,0h147.1C233.6,88.7,237.5,92.5,237.5,97.3L237.5,97.3z"></path><path class="st1" d="M228.8,88.7c4.8,0,8.6,3.9,8.6,8.6l0,0v268c0,4.8-3.9,8.6-8.6,8.6c0,0,0,0,0,0H81.7c-4.8,0-8.6-3.9-8.6-8.6
		l0,0v-268c0-4.8,3.9-8.6,8.6-8.6c0,0,0,0,0,0L228.8,88.7 M228.8,87.3H81.7c-5.5,0-10,4.5-10,10v268c0,5.5,4.5,10,10,10h147.1
		c5.5,0,10-4.5,10-10v-268C238.8,91.7,234.4,87.3,228.8,87.3z"></path><path class="st2" d="M237.5,97.3v99.4c-4.1,3.3-8.4,6.4-12.9,9.2c-0.1,0.1-0.2,0.2-0.4,0.2c-1.9,1.2-3.9,2.4-5.9,3.4
		c-1.6,0.9-3.2,1.7-4.8,2.5h-0.1l-0.6,0.3l0,0l-0.7,0.3c-1.1,0.5-2.1,1-3.2,1.5l-0.2,0.1l-0.5,0.2l-0.6,0.3l-0.2,0.1l-0.2,0.1
		l-0.2,0.1l-0.3,0.1l-0.3,0.1c-0.1,0.1-0.3,0.1-0.4,0.2l-0.3,0.1c-0.6,0.2-1.1,0.5-1.7,0.7s-0.9,0.4-1.3,0.5l-0.6,0.2l-0.6,0.2
		c-5.1,1.9-10.4,3.6-15.8,4.8c-0.8,0.2-1.6,0.4-2.4,0.5l-0.7,0.1c-0.7,0.1-1.4,0.3-2.1,0.4c-8.4,1.7-16.9,2.5-25.4,2.5
		c-6,0-12-0.4-18-1.2c-0.8-0.1-1.7-0.2-2.5-0.4c-0.4-0.1-0.8-0.1-1.2-0.2l-0.7-0.1l-0.7-0.1h-0.1l-1.4-0.3c-0.3,0-0.5-0.1-0.8-0.1
		c-0.3,0-0.5-0.1-0.8-0.2c-0.4-0.1-0.8-0.1-1.2-0.2c-0.2,0-0.5-0.1-0.7-0.1c0,0-0.1,0-0.1,0c-0.2,0-0.4-0.1-0.6-0.1l-0.2-0.1
		c-0.2,0-0.3-0.1-0.5-0.1c-0.8-0.2-1.5-0.4-2.3-0.6l-0.8-0.2l-0.8-0.2c-0.4-0.1-0.8-0.2-1.2-0.3s-0.6-0.1-0.8-0.2l-0.8-0.2
		c-16.7-4.8-32.3-13-45.9-24V97.3c0-4.8,3.9-8.6,8.6-8.6c0,0,0,0,0,0h147.1C233.7,88.7,237.5,92.5,237.5,97.3z"></path><path class="st1" d="M98.4,101.5h-9.8c-0.4,0-0.7-0.3-0.7-0.7c0-0.4,0.3-0.7,0.7-0.7h9.8c0.4,0,0.7,0.3,0.7,0.7
		C99.1,101.1,98.8,101.5,98.4,101.5z"></path><path class="st1" d="M98.4,105.3h-9.8c-0.4,0-0.7-0.3-0.7-0.7c0-0.4,0.3-0.7,0.7-0.7h9.8c0.4,0,0.7,0.3,0.7,0.7
		C99.1,105,98.8,105.3,98.4,105.3z"></path><path class="st1" d="M98.4,109.2h-9.8c-0.4,0-0.7-0.3-0.7-0.7c0-0.4,0.3-0.7,0.7-0.7h9.8c0.4,0,0.7,0.3,0.7,0.7
		C99.1,108.9,98.8,109.2,98.4,109.2z"></path><path class="st3" d="M196.4,252.9h-82.3c-3.5,0-6.3-2.8-6.3-6.3s2.8-6.3,6.3-6.3h82.3c3.5,0,6.3,2.8,6.3,6.3
		S199.9,252.9,196.4,252.9L196.4,252.9z"></path><path class="st3" d="M210.2,275H100.4c-3.5,0-6.3-2.8-6.3-6.3c0-3.5,2.8-6.3,6.3-6.3h109.8c3.5,0,6.3,2.8,6.3,6.3
		C216.5,272.2,213.7,275,210.2,275z"></path><path class="st3" d="M202.4,287.4h-94.1c-0.4,0-0.7-0.3-0.7-0.7c0-0.4,0.3-0.7,0.7-0.7h94.1c0.4,0,0.7,0.3,0.7,0.7
		C203.1,287.1,202.8,287.4,202.4,287.4C202.4,287.4,202.4,287.4,202.4,287.4z"></path><path class="st3" d="M202.4,296.4h-94.1c-0.4,0-0.7-0.3-0.7-0.7c0-0.4,0.3-0.7,0.7-0.7h94.1c0.4,0,0.7,0.3,0.7,0.7
		C203.1,296.1,202.8,296.4,202.4,296.4C202.4,296.4,202.4,296.4,202.4,296.4z"></path><path class="st3" d="M193.4,305.4h-76.1c-0.4,0-0.7-0.3-0.7-0.7c0-0.4,0.3-0.7,0.7-0.7h76.1c0.4,0,0.7,0.3,0.7,0.7
		C194.1,305.1,193.8,305.4,193.4,305.4C193.4,305.4,193.4,305.4,193.4,305.4z"></path><path class="st2" d="M114.2,322h82.2c3.3,0,5.9,2.7,5.9,6v8.5c0,3.3-2.7,6-5.9,6h-82.2c-3.3,0-5.9-2.7-5.9-6V328
		C108.2,324.7,110.9,322,114.2,322z"></path><circle class="st1" cx="148.4" cy="359.3" r="3"></circle><path class="st1" d="M148.4,362.9c-2,0-3.7-1.6-3.7-3.7c0-2,1.6-3.7,3.7-3.7c2,0,3.7,1.6,3.7,3.7c0,0,0,0,0,0
		C152.1,361.3,150.4,362.9,148.4,362.9z M148.4,357c-1.2,0-2.3,1-2.3,2.3c0,1.2,1,2.3,2.3,2.3c1.2,0,2.3-1,2.3-2.3
		C150.7,358,149.7,357,148.4,357C148.4,357,148.4,357,148.4,357L148.4,357z"></path><path class="st3" d="M162.2,362.9c-2,0-3.7-1.6-3.7-3.6c0-2,1.6-3.7,3.6-3.7c2,0,3.7,1.6,3.7,3.6c0,0,0,0,0,0
		C165.8,361.3,164.2,362.9,162.2,362.9z M162.2,357c-1.2,0-2.3,1-2.3,2.2c0,1.2,1,2.3,2.2,2.3s2.3-1,2.3-2.2c0,0,0,0,0,0
		C164.4,358,163.4,357,162.2,357C162.2,357,162.2,357,162.2,357L162.2,357z"></path><path class="st0" d="M173.2,105.3h-35.7c-0.4,0-0.7-0.3-0.7-0.7c0-0.4,0.3-0.7,0.7-0.7h35.7c0.4,0,0.7,0.3,0.7,0.7
		C173.9,105,173.5,105.3,173.2,105.3L173.2,105.3z"></path><path class="st1" d="M104.2,139c0,0,2-3.3,5.2-7.7c0,0,8.9,7.5,8.8,7.1S104.2,139,104.2,139z"></path><path class="st1" d="M118.4,137.7c-0.1-0.1-0.3-0.2-0.6-0.4s-0.6-0.5-1-0.7s-0.6-0.5-0.9-0.7c-1.5-1.3-3.6-2.9-5.5-4.6l-0.6-0.5
		l0,0c-0.2-0.1-0.4-0.2-0.6-0.1c-0.1,0-0.2,0-0.2,0.1c-0.1,0-0.2,0.1-0.3,0.2c-2.3,3.3-4.1,5.9-4.8,7.1c0,0,0,0.1,0,0.1s0,0,0,0
		c-0.1,0.1-0.2,0.2-0.2,0.4c-0.1,0.1-0.1,0.1-0.2,0.2s0,0.1-0.1,0.2c0,0.2,0,0.4,0.1,0.6c0.1,0.1,0.2,0.2,0.3,0.3
		c0.1,0,0.2,0.1,0.2,0.1h0.1c0.1,0,0.3,0,0.4,0c1.5-0.1,3.1-0.2,4.6-0.3l0.8-0.1c0.3,0,0.5,0,0.8,0c3.6-0.2,6.5-0.4,7.2-0.3
		c0.2,0.1,0.5,0.1,0.7,0c0.3-0.2,0.4-0.5,0.4-0.8C119,138,118.9,137.8,118.4,137.7z M109.7,137.9c-0.2,0-0.5,0-0.8,0.1l-2.9,0.2
		h-0.4c0.2-0.3,0.4-0.6,0.7-1s0.4-0.7,0.7-1c0.4-0.6,0.8-1.2,1.2-1.9l0.7-1c0.2-0.3,0.4-0.5,0.6-0.8l0.3,0.2l3.8,3.2
		c0.3,0.2,0.6,0.5,0.9,0.7s0.6,0.5,0.9,0.8c0.1,0.1,0.2,0.2,0.3,0.3c-1.2,0-2.9,0.1-5.3,0.3L109.7,137.9z"></path><path class="st1" d="M206.5,215.4c-0.1,0.1-0.3,0.1-0.4,0.2l-0.3,0.1c-0.6,0.2-1.1,0.5-1.7,0.7s-0.9,0.4-1.3,0.5l-0.6,0.2l-0.6,0.2
		c-5.1,1.9-10.4,3.6-15.8,4.8c-0.8,0.2-1.6,0.4-2.4,0.5l-0.7,0.1c-0.7,0.1-1.4,0.3-2.1,0.4c-8.4,1.7-16.9,2.5-25.4,2.5
		c-6,0-12-0.4-18-1.2c-0.8-0.1-1.7-0.2-2.5-0.4c-0.4-0.1-0.8-0.1-1.2-0.2l-0.7-0.1l-0.7-0.1h-0.1l-1.4-0.3c-0.3,0-0.5-0.1-0.8-0.1
		c-0.3,0-0.5-0.1-0.8-0.2c-0.4-0.1-0.8-0.1-1.2-0.2c-0.2,0-0.5-0.1-0.7-0.1c0,0-0.1,0-0.1,0c-0.2,0-0.4-0.1-0.6-0.1l-0.2-0.1
		c-0.2,0-0.3-0.1-0.5-0.1c-0.8-0.2-1.5-0.4-2.3-0.6l-0.8-0.2l-0.8-0.2c-0.4-0.1-0.8-0.2-1.2-0.3s-0.6-0.1-0.8-0.2l-16.1-78.6
		c-0.2-0.9-0.1-1.8,0.2-2.6c0.1-0.2,0.2-0.5,0.3-0.7l0,0l0,0c0,0,0-0.1,0-0.1l0.1-0.2l0,0c0.5-0.7,1.1-1.2,1.9-1.5
		c0.6-0.3,1.3-0.4,2.1-0.4h0.3h1.5l4.3-0.1h1.2h1.2l21.9-0.5l0,0l23.8-0.5l0,0l1.7-0.1l4.4-0.1l0,0l16.2-0.4
		c3.1,0.1,5.8,2.2,6.5,5.2l0.5,2.2L206.5,215.4z"></path><path class="st1" d="M192.5,142.5l-0.5-2.4c-0.8-3.4-3.8-5.8-7.2-5.8l-16.3,0.3l-4,0.1l0,0l-2,0.1l0,0l-23.4,0.5l0,0l-23,0.5H115
		l0,0h-1.2h-3.6h-0.8h-0.8h-0.2c-0.5,0-0.9,0-1.3,0.1c-0.4,0.1-0.8,0.2-1.2,0.4c-0.8,0.4-1.4,0.9-1.9,1.6c0,0,0,0.1,0,0.1s0,0,0,0
		c-0.1,0.1-0.2,0.2-0.2,0.4c-0.1,0.1-0.1,0.1-0.2,0.2s0,0.1-0.1,0.2c-0.6,1.1-0.8,2.4-0.5,3.7l16,78.2l0.8,0.2
		c0.3,0.1,0.6,0.2,0.8,0.2l-16.2-79c-0.2-0.8-0.1-1.7,0.2-2.4c0.1-0.3,0.3-0.6,0.5-0.8l0,0l0,0c0.2-0.3,0.5-0.6,0.9-0.8
		c0.7-0.5,1.5-0.7,2.3-0.7h0.5h0.8h0.8l5-0.1h1.2l0,0h1.2l67-1.4c0.1,0,0.3,0,0.4,0c2.6,0.2,4.7,2.1,5.3,4.6l0.4,2.1l14.8,73.1
		l0.3-0.1c0.1-0.1,0.3-0.1,0.4-0.2l0.3-0.1l0.3-0.1l0.2-0.1L192.5,142.5z"></path><path class="st0" d="M212.8,212.5L212.8,212.5l-0.7,0.3c-1.1,0.5-2.1,1-3.2,1.5l-0.2,0.1l-0.5,0.2l-0.6,0.3l-0.2,0.1l-0.2,0.1
		l-0.2,0.1l-0.3,0.1l-0.3,0.1c-0.1,0.1-0.3,0.1-0.4,0.2l-0.3,0.1c-0.6,0.2-1.1,0.5-1.7,0.7s-0.9,0.4-1.3,0.5l-0.6,0.2l-0.6,0.2
		c-5.1,1.9-10.4,3.6-15.8,4.8c-0.8,0.2-1.6,0.4-2.4,0.5l-0.7,0.1c-0.7,0.1-1.4,0.3-2.1,0.4c-8.4,1.7-16.9,2.5-25.4,2.5
		c-6,0-12-0.4-18-1.2c-0.8-0.1-1.7-0.2-2.5-0.4c-0.4-0.1-0.8-0.1-1.2-0.2l-0.7-0.1l-0.7-0.1h-0.1l-1.4-0.3c-0.3,0-0.5-0.1-0.8-0.1
		c-0.3,0-0.5-0.1-0.8-0.2c-0.4-0.1-0.8-0.1-1.2-0.2c-0.2,0-0.5-0.1-0.7-0.1c0,0-0.1,0-0.1,0l-17-83.3l-0.2-0.8l0,0l-0.2-0.8
		l-0.1-0.4l-0.2-0.8l-0.2-0.8l-0.2-1.3c-0.1-0.5-0.2-0.9-0.1-1.4c0-0.6,0.2-1.3,0.5-1.8l0,0c0.1-0.2,0.3-0.4,0.4-0.6
		c0.9-1.1,2.2-1.8,3.6-1.8l76.4-1.6c3.1,0,5.8,2.2,6.5,5.2L212.8,212.5z"></path><path class="st1" d="M197.4,132.5c-0.8-3.4-3.8-5.8-7.2-5.8l-76.4,1.6c-1.7,0-3.3,0.7-4.3,2c-0.1,0.1-0.2,0.2-0.2,0.3
		c-0.5,0.7-0.8,1.5-0.9,2.3c-0.1,0.4-0.1,0.9,0,1.3c0,0.2,0,0.4,0.1,0.6l0.2,1.1l0.1,0.7l0.2,0.8l0.1,0.5l0.2,0.8l0,0l0.2,0.8
		l17,83.1l0.2,0.1c0.2,0,0.4,0.1,0.6,0.1c0,0,0.1,0,0.1,0c0.2,0.1,0.5,0.1,0.7,0.1l-17.1-83.5l-0.2-0.8l-0.2-0.8l-0.1-0.4l-0.2-0.8
		l-0.2-0.8l-0.3-1.4c-0.1-0.6-0.1-1.3,0-1.9c0.1-0.3,0.1-0.5,0.3-0.7c0.1-0.2,0.2-0.5,0.4-0.7c0.8-0.9,2-1.5,3.2-1.4l76.4-1.6
		c0.1,0,0.3,0,0.4,0c2.6,0.2,4.7,2.1,5.3,4.6l16.2,80.1l0.7-0.3l0,0l0.6-0.3h0.1L197.4,132.5z"></path><path class="st2" d="M208.7,214.4l-0.5,0.2l-0.6,0.3l-0.2,0.1l-0.2,0.1l-0.2,0.1l-0.3,0.1l-0.3,0.1c-0.1,0.1-0.3,0.1-0.4,0.2
		l-0.3,0.1c-0.6,0.2-1.1,0.5-1.7,0.7s-0.9,0.4-1.3,0.5l-0.6,0.2l-0.6,0.2c-5.1,1.9-10.4,3.6-15.8,4.8c-0.8,0.2-1.6,0.4-2.4,0.5
		l-0.7,0.1c-0.7,0.1-1.4,0.3-2.1,0.4c-8.4,1.7-16.9,2.5-25.4,2.5c-6,0-12-0.4-18-1.2c-0.8-0.1-1.7-0.2-2.5-0.4
		c-0.4-0.1-0.8-0.1-1.2-0.2l-0.7-0.1l-0.7-0.1h-0.1l-16.2-79.2l75.1-2h0.8h0.8h1.6L208.7,214.4z"></path><path class="st3" d="M139.5,136.6c-0.4,0-0.7-0.4-0.7-0.8c0-0.4,0.3-0.6,0.7-0.7l22.4-0.5c0.4,0,0.8,0.3,0.8,0.7c0,0,0,0,0,0
		c0,0.4-0.3,0.8-0.7,0.8L139.5,136.6L139.5,136.6z"></path><path class="st3" d="M164.9,136c-0.4,0-0.8-0.3-0.8-0.8s0.3-0.8,0.8-0.8l3-0.1c0.4,0,0.8,0.3,0.8,0.7c0,0.4-0.3,0.8-0.7,0.8
		c0,0,0,0,0,0L164.9,136L164.9,136z"></path><path class="st0" d="M140.5,200.9c-0.1,0-0.3-0.1-0.4-0.2c-0.3-0.3-0.4-0.7-0.1-1.1l38.3-49.3c0.3-0.3,0.7-0.4,1.1-0.1c0,0,0,0,0,0
		c0.3,0.2,0.4,0.7,0.1,1l-38.3,49.4C140.9,200.8,140.7,200.9,140.5,200.9z"></path><path class="st0" d="M190.2,216.7l-4.4,5.5c-0.8,0.2-1.6,0.4-2.4,0.5l5.6-7c0.3-0.3,0.7-0.3,1-0.1
		C190.3,215.9,190.4,216.3,190.2,216.7z"></path><path class="st0" d="M162.4,217c-0.1,0-0.3-0.1-0.4-0.1c-0.3-0.2-0.4-0.7-0.1-1.1c0,0,0,0,0,0l9-11.8c0.3-0.3,0.7-0.4,1.1-0.1
		c0.3,0.2,0.4,0.7,0.1,1.1c0,0,0,0,0,0l-9,11.8C162.9,216.9,162.7,217,162.4,217z"></path><path class="st1" d="M99,213.1c-9.2-4.4-17.9-9.9-25.9-16.4v-39c1.7,1.3,3,2.9,3.9,4.8c3.3,6.4,4.1,13.6,4,20.9
		c0.6-6,2.1-11.9,5.7-16.7c0.5-0.8,1.3-1.5,2.3-1.9c2.6-0.7,4.3,2.5,4.8,5.1c2.3,12.1,1.1,24.6-3.6,35.9c3.2-6.7,6.7-13.8,13-17.5
		c0.9-0.5,2.1-1,3-0.4c0.6,0.6,0.9,1.4,0.9,2.3C107.3,198.6,104.1,206.6,99,213.1z"></path><path class="st1" d="M237.5,166.4v30.3c-4.1,3.3-8.4,6.4-12.9,9.2c-0.1,0.1-0.2,0.2-0.4,0.2c-1.8-2.6-3.5-5.4-5.1-8.1
		c-0.9-1.4-1.6-2.9-2.1-4.5c-0.4-1.6-0.1-3.4,0.9-4.7c0.2-0.3,0.4-0.4,0.7-0.5c0.4,0,0.8,0.2,1.1,0.5c2.7,2.3,5.1,5.1,6.9,8.2
		c-2.9-5.3-5.5-10.8-7.7-16.5c-0.9-2-1.5-4.2-1.6-6.4c-0.1-2.5,1.9-8.6,5.4-6.1c1,0.9,1.8,2,2.2,3.3c0.9,2.2,1.8,4.4,2.8,6.6
		c-2.6-7.2-3.2-14.9-1.8-22.4c0.4-2.3,2.6-8.2,6.1-6c1.2,1,2,2.3,2.3,3.8c0.1,0.2,0.1,0.5,0.2,0.7
		C235.4,158.2,236.4,162.3,237.5,166.4z"></path></g><g id="Screen_1"><path class="st0" d="M271.2,126.1h147.1c4.8,0,8.6,3.9,8.6,8.6v268c0,4.8-3.9,8.6-8.6,8.6H271.2c-4.8,0-8.6-3.9-8.6-8.6v-268
		C262.5,129.9,266.4,126.1,271.2,126.1z"></path><path class="st1" d="M418.3,126.1c4.8,0,8.6,3.9,8.6,8.6v0v268c0,4.8-3.9,8.6-8.6,8.6h0H271.1c-4.8,0-8.6-3.9-8.6-8.6v0v-268
		c0-4.8,3.9-8.6,8.6-8.6l0,0H418.3 M418.3,124.7H271.1c-5.5,0-10,4.5-10,10v268c0,5.5,4.5,10,10,10h147.1c5.5,0,10-4.5,10-10v-268
		C428.2,129.2,423.8,124.7,418.3,124.7z"></path><path class="st1" d="M287.8,138.9H278c-0.4,0-0.7-0.3-0.7-0.7s0.3-0.7,0.7-0.7c0,0,0,0,0,0h9.9c0.4,0,0.7,0.3,0.7,0.7
		C288.5,138.6,288.2,138.9,287.8,138.9L287.8,138.9z"></path><path class="st1" d="M287.8,142.8H278c-0.4,0-0.7-0.3-0.7-0.7s0.3-0.7,0.7-0.7c0,0,0,0,0,0h9.9c0.4,0,0.7,0.3,0.7,0.7
		S288.2,142.8,287.8,142.8C287.9,142.8,287.9,142.8,287.8,142.8L287.8,142.8z"></path><path class="st1" d="M287.8,146.6H278c-0.4,0-0.7-0.3-0.7-0.7s0.3-0.7,0.7-0.7c0,0,0,0,0,0h9.9c0.4,0,0.7,0.3,0.7,0.7
		S288.2,146.6,287.8,146.6C287.9,146.6,287.9,146.6,287.8,146.6L287.8,146.6z"></path><path class="st2" d="M303.6,359.5h82.2c3.3,0,6,2.7,6,6v8.5c0,3.3-2.7,6-6,6h-82.2c-3.3,0-6-2.7-6-6v-8.5
		C297.6,362.1,300.3,359.5,303.6,359.5z"></path><path class="st3" d="M309.8,197.4h-25.3c-3.5,0-6.3-2.8-6.3-6.3s2.8-6.3,6.3-6.3h25.3c3.5,0,6.3,2.8,6.3,6.3
		S313.2,197.4,309.8,197.4z"></path><path class="st3" d="M405.6,200.3h-76.8c-2.8,0-5.1-2.3-5.1-5.1v-7.4c0-2.8,2.3-5.1,5.1-5.1h76.8c2.8,0,5.1,2.3,5.1,5.1v0v7.4
		C410.8,198,408.5,200.3,405.6,200.3z M328.9,184c-2.1,0-3.7,1.7-3.8,3.7c0,0,0,0,0,0v7.4c0,2.1,1.7,3.8,3.8,3.8l0,0h76.8
		c2.1,0,3.7-1.7,3.7-3.8v-7.4c0-2.1-1.7-3.7-3.7-3.7H328.9z"></path><path class="st3" d="M301.9,230.5h-17.4c-3.5,0-6.3-2.8-6.3-6.3s2.8-6.3,6.3-6.3h17.4c3.5,0,6.3,2.8,6.3,6.3
		S305.4,230.5,301.9,230.5L301.9,230.5z"></path><path class="st3" d="M389.9,233.4h-61c-2.8,0-5.1-2.3-5.1-5.1v-7.4c0-2.8,2.3-5.1,5.1-5.1h61c2.8,0,5.1,2.3,5.1,5.1v7.4
		C395,231,392.7,233.3,389.9,233.4z M328.9,217.1c-2.1,0-3.7,1.7-3.8,3.7v7.4c0,2.1,1.7,3.7,3.8,3.7h61c2.1,0,3.7-1.7,3.7-3.7v-7.4
		c0-2.1-1.7-3.7-3.7-3.7H328.9z"></path><path class="st3" d="M299.9,263.6h-15.4c-3.5,0-6.3-2.8-6.3-6.3c0-3.5,2.8-6.3,6.3-6.3h15.4c3.5,0,6.3,2.8,6.3,6.3
		C306.2,260.8,303.4,263.6,299.9,263.6L299.9,263.6z"></path><path class="st3" d="M398.6,266.4h-69.8c-2.8,0-5.1-2.3-5.1-5.1v-7.4c0-2.8,2.3-5.1,5.1-5.1h69.8c2.8,0,5.1,2.3,5.1,5.1v7.4
		C403.8,264.1,401.5,266.4,398.6,266.4z M328.9,250.1c-2.1,0-3.7,1.7-3.8,3.7v7.4c0,2.1,1.7,3.7,3.8,3.7h69.8c2.1,0,3.7-1.7,3.7-3.7
		v-7.4c0-2.1-1.7-3.7-3.7-3.7L328.9,250.1z"></path><path class="st3" d="M309.8,296.7h-25.3c-3.5,0-6.3-2.8-6.3-6.3c0-3.5,2.8-6.3,6.3-6.3h25.3c3.5,0,6.3,2.8,6.3,6.3
		C316.1,293.9,313.2,296.7,309.8,296.7z"></path><path class="st3" d="M405.6,299.5h-76.8c-2.8,0-5.1-2.3-5.1-5.1V287c0-2.8,2.3-5.1,5.1-5.1h76.8c2.8,0,5.1,2.3,5.1,5.1v7.4
		C410.8,297.2,408.5,299.5,405.6,299.5z M328.9,283.2c-2.1,0-3.8,1.7-3.8,3.8v7.4c0,2.1,1.7,3.8,3.8,3.8h76.8c2.1,0,3.7-1.7,3.7-3.8
		V287c0-2.1-1.7-3.7-3.7-3.8L328.9,283.2z"></path><path class="st3" d="M301.9,329.8h-17.4c-3.5,0-6.3-2.8-6.3-6.3c0-3.5,2.8-6.3,6.3-6.3h17.4c3.5,0,6.3,2.8,6.3,6.3
		C308.2,327,305.4,329.8,301.9,329.8L301.9,329.8z"></path><path class="st3" d="M378.6,332.6h-49.8c-2.8,0-5.1-2.3-5.1-5.1v-7.4c0-2.8,2.3-5.1,5.1-5.1h49.8c2.8,0,5.1,2.3,5.1,5.1v7.4
		C383.8,330.3,381.5,332.6,378.6,332.6z M328.9,316.3c-2.1,0-3.7,1.7-3.8,3.7v7.4c0,2.1,1.7,3.7,3.8,3.7h49.8c2.1,0,3.7-1.7,3.8-3.7
		v-7.4c0-2.1-1.7-3.7-3.8-3.7H328.9z"></path><circle class="st1" cx="351.6" cy="396.7" r="3"></circle><path class="st1" d="M351.6,400.4c-2,0-3.7-1.6-3.7-3.7s1.6-3.7,3.7-3.7s3.7,1.6,3.7,3.7S353.6,400.4,351.6,400.4L351.6,400.4z
		 M351.6,394.4c-1.2,0-2.3,1-2.3,2.3c0,1.2,1,2.3,2.3,2.3c1.2,0,2.3-1,2.3-2.3c0,0,0,0,0,0C353.9,395.5,352.8,394.4,351.6,394.4
		C351.6,394.4,351.6,394.5,351.6,394.4L351.6,394.4z"></path><path class="st3" d="M337.8,400.4c-2,0-3.7-1.6-3.7-3.6c0-2,1.6-3.7,3.6-3.7s3.7,1.6,3.7,3.6c0,0,0,0,0,0
		C341.5,398.7,339.8,400.4,337.8,400.4z M337.8,394.4c-1.2,0-2.3,1-2.3,2.2c0,1.2,1,2.3,2.2,2.3c1.2,0,2.3-1,2.3-2.2c0,0,0,0,0,0
		C340.1,395.5,339.1,394.5,337.8,394.4L337.8,394.4z"></path><path class="st1" d="M362.6,142.8h-35.7c-0.4,0-0.7-0.3-0.7-0.7c0-0.4,0.3-0.7,0.7-0.7h35.7c0.4,0,0.7,0.3,0.7,0.7
		C363.3,142.4,363,142.8,362.6,142.8z"></path></g></svg>