<svg transform="scale(1)" version="1.1" id="Layer_1" xmlns="http://www.w3.org/2000/svg" xmlns:xlink="http://www.w3.org/1999/xlink" x="0px" y="0px" viewBox="0 0 500 500" xml:space="preserve" class="show_show__wrapper__graphic__5Waiy "><title>React</title><style type="text/css">
	.st0{fill:url(#SVGID_1_);}
	.st1{fill:url(#SVGID_00000164503911989568567520000006301442389362714766_);}
	.st2{fill:#000111;}
	.st3{fill:#FFFFFF;}
	.st4{fill:url(#SVGID_00000161592112160861505150000017709569403830017922_);}
	.st5{fill:#FFC2A7;}
	.st6{fill:#D88260;}
	.st7{fill:url(#SVGID_00000012455820254955610080000014352559652583659404_);}
</style><g id="number"><linearGradient id="SVGID_1_" gradientUnits="userSpaceOnUse" x1="266.8609" y1="547.7004" x2="372.5409" y2="283.0204" gradientTransform="matrix(1 0 0 -1 0 502)"><stop offset="0" style="stop-color: rgb(243, 131, 116);"></stop><stop offset="1" style="stop-color: rgb(198, 66, 52);"></stop></linearGradient><polygon class="st0" points="395.5,86.7 329.4,197.2 393.6,197.2 393.6,161.7 418.2,161.7 418.2,262.3 383.7,262.3 383.7,221.9 
		297.9,221.9 297.9,189.9 364.5,86.4 	"></polygon><linearGradient id="SVGID_00000058554065999361962470000008085710141605735048_" gradientUnits="userSpaceOnUse" x1="57.6621" y1="464.1708" x2="163.3421" y2="199.4908" gradientTransform="matrix(1 0 0 -1 0 502)"><stop offset="0" style="stop-color: rgb(243, 131, 116);"></stop><stop offset="1" style="stop-color: rgb(198, 66, 52);"></stop></linearGradient><polygon points="153,86.7 86.9,197.2 151,197.2 
		151,161.7 175.7,161.7 175.7,262.3 141.2,262.3 141.2,221.9 55.3,221.9 55.3,189.9 122,86.4 	" style="fill: url(&quot;#SVGID_00000058554065999361962470000008085710141605735048_&quot;);"></polygon></g><g id="magnifying_glass"><ellipse class="st2" transform="matrix(0.9677 -0.2522 0.2522 0.9677 -30.9044 67.3682)" cx="247.3" cy="154.2" rx="76.5" ry="93.6"></ellipse><path class="st2" d="M254.8,248.6c-15.1,0-30.4-5.2-44.2-15.3c-18.8-13.7-32.6-34.8-39-59.3c-13.3-50.8,9.9-101.1,51.7-112
		s86.5,21.6,99.8,72.5s-9.9,101.1-51.7,111.9C265.9,247.9,260.4,248.6,254.8,248.6z M239.7,63.3c-5.3,0-10.5,0.7-15.6,2
		c-39.9,10.4-62,58.8-49.2,107.8c6.2,23.8,19.6,44.2,37.7,57.4s38.6,17.6,57.9,12.6c39.9-10.4,62-58.8,49.2-107.8
		C308.6,92.7,274.6,63.3,239.7,63.3z"></path><rect class="st2" x="262.2" y="241.3" transform="matrix(0.9677 -0.2522 0.2522 0.9677 -61.6871 77.7284)" width="20.3" height="76.3"></rect><path class="st3" d="M247.1,242.7l29.3-7.6l0,0l1.3,4.8c2.1,8.1-2.7,16.3-10.8,18.4c0,0,0,0,0,0l-0.1,0
		c-8.1,2.1-16.3-2.7-18.4-10.8v0L247.1,242.7L247.1,242.7z"></path><path class="st2" d="M262.9,260.6c-7.6,0-14.3-5.2-16.2-12.6l-1.2-4.8c-0.2-0.9,0.3-1.8,1.2-2.1c0,0,0,0,0,0l29.3-7.6
		c0.9-0.2,1.8,0.3,2.1,1.2l1.2,4.8c2.3,9-3,18.1-12,20.5l0,0h-0.1C265.8,260.3,264.3,260.5,262.9,260.6z M249.2,244l0.8,3.2
		c1.9,7.1,9.2,11.4,16.3,9.6h0.1c7.1-1.9,11.4-9.2,9.6-16.3l-0.8-3.1L249.2,244z"></path><linearGradient id="SVGID_00000013180546723829476020000005770785804318484115_" gradientUnits="userSpaceOnUse" x1="154.2676" y1="455.7285" x2="263.5176" y2="302.9886" gradientTransform="matrix(0.9677 -0.2522 -0.2522 -0.9677 153.4949 754.1727)"><stop offset="0" style="stop-color: rgb(243, 131, 116);"></stop><stop offset="1" style="stop-color: rgb(198, 66, 52);"></stop></linearGradient><path d="M273.7,284.9L273.7,284.9
		c9.2-2.4,18.6,3.1,21,12.3l31.9,122.5c2.4,9.2-3.1,18.6-12.3,21h0c-9.2,2.4-18.6-3.1-21-12.3l-31.9-122.5
		C259,296.7,264.6,287.3,273.7,284.9z" style="fill: url(&quot;#SVGID_00000013180546723829476020000005770785804318484115_&quot;);"></path><ellipse class="st3" transform="matrix(0.9677 -0.2522 0.2522 0.9677 -31.1524 65.4429)" cx="239.7" cy="154.2" rx="76.5" ry="93.6"></ellipse><path class="st2" d="M247.2,248.6c-15.1,0-30.4-5.2-44.2-15.3c-18.8-13.7-32.6-34.8-39-59.3c-13.3-50.8,9.9-101.1,51.7-112
		s86.5,21.6,99.8,72.5s-9.9,101.1-51.7,111.9C258.3,247.9,252.7,248.6,247.2,248.6z M232.1,63.3c-5.3,0-10.5,0.7-15.6,2
		c-39.9,10.4-62,58.8-49.2,107.8c6.2,23.8,19.6,44.2,37.7,57.4s38.6,17.6,57.9,12.6c39.9-10.4,62-58.8,49.2-107.8
		C301,92.7,267,63.3,232.1,63.3z"></path><ellipse class="st3" transform="matrix(0.9677 -0.2522 0.2522 0.9677 -31.1524 65.443)" cx="239.7" cy="154.2" rx="56.1" ry="68.6"></ellipse><path class="st2" d="M245.3,223.8c-26.9,0-53-22.4-61.5-55c-9.8-37.5,7.4-74.5,38.2-82.6s63.9,15.9,73.6,53.4l0,0
		c9.8,37.5-7.4,74.6-38.2,82.6C253.5,223.3,249.4,223.8,245.3,223.8z M234.1,88.1c-3.8,0-7.6,0.5-11.3,1.4
		c-29,7.6-45.1,42.7-35.8,78.4s40.5,58.6,69.5,51s45.1-42.7,35.8-78.4C284.2,109.4,259.5,88.1,234.1,88.1z"></path><ellipse class="st2" transform="matrix(0.9677 -0.2522 0.2522 0.9677 -35.6491 62.8495)" cx="227.3" cy="170.5" rx="12.8" ry="23.7"></ellipse><ellipse class="st3" transform="matrix(0.9684 -0.2496 0.2496 0.9684 -35.6124 60.7707)" cx="221.8" cy="170.8" rx="4.3" ry="7.9"></ellipse><path class="st2" d="M202.2,138.2c0,0-6.5,26.7,10.7,25.1s36.2-41,55.3-39.9s1-15.3-16.3-9.7s-34.3,30.9-37,24.7
		S205.8,131.4,202.2,138.2z"></path><path class="st2" d="M291.8,424.2c-0.9,0-1.7-0.8-1.7-1.7c0-0.8,0.5-1.5,1.3-1.6l33-8c0.9-0.2,1.8,0.3,2.1,1.3s-0.3,1.8-1.3,2.1
		l-33,8C292.1,424.2,292,424.2,291.8,424.2z"></path><path class="st2" d="M261.4,307.6c-0.9,0-1.7-0.7-1.7-1.7c0-0.8,0.5-1.5,1.3-1.7l33.3-8.7c0.9-0.2,1.8,0.4,2,1.4
		c0.2,0.8-0.3,1.6-1.1,1.9l-33.3,8.7C261.7,307.6,261.6,307.6,261.4,307.6z"></path></g><g id="hand"><path class="st5" d="M338.4,310.3c0,0-31.2-34.4-45.9-25.8c-10.6,6.1,4.9,26.4,4.9,26.4s-20.2-6.3-34.4-3.1
		c-21,4.7-1.9,26.2-1.9,26.2s-8,14.7,4.2,24.4c0,0-6.2,14.4,5,22.5c0,0,14.4,22.2,27.4,27.6s19.5-7.9,19.5-7.9s16.5,4.1,25.8,4.3
		c12.6,0.3,28.1-8,30.2-20.9C374.2,377.4,374.2,341.6,338.4,310.3z"></path><path class="st6" d="M286.7,337.3h-0.1l-25.6-1.7c-0.9-0.1-1.7-0.9-1.6-1.8s0.9-1.7,1.8-1.6l25.5,1.7c0.9,0.1,1.6,0.9,1.5,1.9
		C288.2,336.6,287.5,337.2,286.7,337.3L286.7,337.3z"></path><path class="st6" d="M297,361.2L297,361.2l-31.7-1.2c-0.9-0.1-1.6-0.9-1.5-1.9c0.1-0.9,0.8-1.5,1.7-1.5l31.6,1.2
		c0.9,0.1,1.6,0.9,1.5,1.9C298.5,360.5,297.8,361.2,297,361.2L297,361.2z"></path><path class="st6" d="M310.9,392.2L310.9,392.2c-0.8,0-18.4-0.6-28.7-6.8c-0.8-0.5-1-1.6-0.5-2.4c0.5-0.8,1.5-1,2.3-0.6
		c9.5,5.7,26.8,6.3,27,6.3c0.9,0.1,1.6,0.9,1.5,1.9C312.4,391.5,311.7,392.2,310.9,392.2L310.9,392.2z"></path><path class="st6" d="M309.7,400.6c-0.5,0-1-0.2-1.3-0.6l-7.8-9.3c-0.6-0.7-0.5-1.8,0.2-2.4c0.7-0.6,1.8-0.5,2.4,0.2l7.8,9.3
		c0.6,0.7,0.5,1.8-0.2,2.4C310.5,400.4,310.1,400.6,309.7,400.6z"></path><path class="st6" d="M328.7,315.1c-0.2,0-0.3,0-0.5-0.1c-12.2-3.3-30.5-2.5-30.7-2.5c-0.9,0.1-1.8-0.6-1.9-1.5s0.6-1.8,1.5-1.9
		c0.1,0,0.1,0,0.2,0c0.8,0,19.1-0.8,31.8,2.7c0.9,0.3,1.4,1.2,1.2,2.1C330.1,314.6,329.4,315.1,328.7,315.1z"></path><path class="st5" d="M360.9,338.1l48.6,59.4l-65.6,47.3l-26.7-44.2C317.2,400.5,367.5,372.9,360.9,338.1z"></path><path class="st6" d="M372.9,372.3c-0.9,0-1.7-0.7-1.7-1.7c-0.2-12.9-6.9-24.5-7-24.6c-0.5-0.8-0.3-1.8,0.5-2.4
		c0.8-0.5,1.8-0.3,2.4,0.5c0,0.1,0.1,0.1,0.1,0.2c0.3,0.5,7.2,12.5,7.4,26.2C374.6,371.5,373.9,372.3,372.9,372.3
		C372.9,372.3,372.9,372.3,372.9,372.3L372.9,372.3z"></path><path class="st6" d="M337.7,409.7c-8.4,0-16.4-4.1-16.8-4.3c-0.8-0.5-1-1.6-0.5-2.4c0.4-0.7,1.3-0.9,2-0.6c0.1,0,9.1,4.6,17.2,3.8
		c0.9-0.1,1.8,0.6,1.9,1.5c0.1,0.9-0.6,1.8-1.5,1.9C339.3,409.7,338.5,409.7,337.7,409.7z"></path><linearGradient id="SVGID_00000092434818716779788210000012049707133462668678_" gradientUnits="userSpaceOnUse" x1="394.4761" y1="210.8899" x2="390.4561" y2="31.6999" gradientTransform="matrix(1 0 0 -1 0 502)"><stop offset="0" style="stop-color: rgb(10, 107, 91);"></stop><stop offset="0.78" style="stop-color: rgb(0, 81, 70);"></stop><stop offset="0.91" style="stop-color: rgb(0, 80, 69);"></stop></linearGradient><polygon points="337.7,434.8 400.3,384.7 
		444.7,440 356.4,490 	" style="fill: url(&quot;#SVGID_00000092434818716779788210000012049707133462668678_&quot;);"></polygon><path class="st2" d="M345.7,453.4c-0.9,0-1.7-0.7-1.7-1.7c0-0.6,0.3-1.1,0.7-1.4c11.2-7.6,66.9-45.5,68.4-46.2
		c0.9-0.4,1.9,0,2.2,0.9c0.3,0.8,0,1.7-0.7,2.1c-1.9,1-49.8,33.6-68,46C346.4,453.3,346.1,453.4,345.7,453.4z"></path></g><g id="line"><path class="st2" d="M327.9,84.3c-18.4,0-23.6-7.4-24.7-13.7c-0.3-1.7-0.3-3.4-0.1-5.1c-3.9,0.8-7.9,0.6-11.7-0.5
		c-4.9-1.5-8-4.3-9.1-8.5c-4.3-15.6,22.2-44.7,23.4-45.9c0.7-0.6,1.8-0.6,2.4,0.1c0.6,0.6,0.6,1.6,0.1,2.2
		c-7.3,8-25.7,31.2-22.6,42.7c0.8,3,3,5,6.8,6.1c3.7,1.1,7.6,1.1,11.3,0.2c3.3-12.9,16.5-27.1,25.8-30.2c3.2-1,5.4-0.8,6.6,0.9
		c2.3,3.1-1.1,8.9-3.4,12.2c-5.1,7.2-15.1,16.5-26.1,19.9c-0.3,1.8-0.3,3.6,0,5.4c1.6,9.4,13.4,11.1,23,10.9c0.9,0,1.7,0.7,1.7,1.6
		c0,0,0,0.1,0,0.1c0,0.9-0.7,1.7-1.7,1.8L327.9,84.3z M332.8,34.5c-0.7,0-1.5,0.2-2.2,0.4c-7.9,2.6-19.3,14.6-23,25.8
		c9.4-3.6,17.9-11.6,22.4-18c3.5-5,3.8-7.7,3.4-8.1C333.2,34.4,333,34.4,332.8,34.5z"></path><path class="st2" d="M272.6,46c-0.8,0-1.5-0.6-1.6-1.4l-4.3-22.7c-0.2-0.9,0.4-1.8,1.4-2c0.9-0.2,1.8,0.4,2,1.4l4.3,22.7
		c0.2,0.9-0.4,1.8-1.3,2c0,0,0,0,0,0C272.9,46,272.8,46,272.6,46z"></path></g></svg>