<svg transform="scale(1)" version="1.1" id="Layer_1" xmlns="http://www.w3.org/2000/svg" xmlns:xlink="http://www.w3.org/1999/xlink" x="0px" y="0px" viewBox="0 0 500 500" xml:space="preserve" class="show_show__wrapper__graphic__5Waiy "><title>React</title><style type="text/css">
	.st0{fill:#FFFFFF;}
	.st1{fill:#231F20;}
	.st2{fill:#D1D3D4;}
	.st3{fill:#460AF9;}
</style><g id="wallnote"><rect class="st0" x="75" y="98.3" width="359.1" height="216.2"></rect><path class="st1" d="M434,315.2H75c-0.4,0-0.7-0.3-0.7-0.7V98.3c0-0.4,0.3-0.7,0.7-0.7h359c0.4,0,0.7,0.3,0.7,0.7v0v216.2
		C434.8,314.9,434.4,315.2,434,315.2L434,315.2z M75.7,313.8h357.7V99.1H75.7V313.8z"></path><rect class="st0" x="364.9" y="140.9" width="31.2" height="31.2"></rect><path class="st2" d="M396.1,172.8h-31.2c-0.4,0-0.7-0.3-0.7-0.7c0,0,0,0,0,0v-31.2c0-0.4,0.3-0.7,0.7-0.7l0,0h31.2
		c0.4,0,0.7,0.3,0.7,0.7c0,0,0,0,0,0v31.2C396.8,172.5,396.5,172.8,396.1,172.8L396.1,172.8z M365.6,171.4h29.8v-29.8h-29.8V171.4z"></path><path class="st2" d="M390.4,148.3h-19.9c-0.4,0-0.7-0.3-0.7-0.7c0-0.4,0.3-0.7,0.7-0.7h19.9c0.4,0,0.7,0.3,0.7,0.7
		C391.1,147.9,390.8,148.3,390.4,148.3z"></path><path class="st2" d="M390.4,154.1h-19.9c-0.4,0-0.7-0.3-0.7-0.7s0.3-0.7,0.7-0.7c0,0,0,0,0,0h19.9c0.4,0,0.7,0.3,0.7,0.7
		C391.1,153.8,390.8,154.1,390.4,154.1z"></path><path class="st2" d="M390.4,159.9h-19.9c-0.4,0-0.7-0.3-0.7-0.7s0.3-0.7,0.7-0.7c0,0,0,0,0,0h19.9c0.4,0,0.7,0.3,0.7,0.7
		C391.1,159.6,390.8,159.9,390.4,159.9z"></path><path class="st2" d="M382.6,165.8h-12c-0.4,0-0.7-0.3-0.7-0.7s0.3-0.7,0.7-0.7c0,0,0,0,0,0h12c0.4,0,0.7,0.3,0.7,0.7
		C383.3,165.5,383,165.8,382.6,165.8z"></path><rect class="st0" x="89.4" y="144.3" width="31.2" height="31.2"></rect><path class="st2" d="M120.7,176.2H89.4c-0.4,0-0.7-0.3-0.7-0.7v-31.2c0-0.4,0.3-0.7,0.7-0.7h31.2c0.4,0,0.7,0.3,0.7,0.7v31.2
		C121.4,175.9,121.1,176.2,120.7,176.2z M90.1,174.8H120V145H90.1V174.8z"></path><path class="st2" d="M115,151.7H95.1c-0.4,0-0.7-0.3-0.7-0.7c0-0.4,0.3-0.7,0.7-0.7H115c0.4,0,0.7,0.3,0.7,0.7
		C115.7,151.4,115.4,151.7,115,151.7C115,151.7,115,151.7,115,151.7z"></path><path class="st2" d="M115,157.5H95.1c-0.4,0-0.7-0.3-0.7-0.7c0-0.4,0.3-0.7,0.7-0.7c0,0,0,0,0,0H115c0.4,0,0.7,0.3,0.7,0.7
		C115.7,157.2,115.4,157.5,115,157.5C115,157.5,115,157.5,115,157.5z"></path><path class="st2" d="M115,163.4H95.1c-0.4,0-0.7-0.3-0.7-0.7c0-0.4,0.3-0.7,0.7-0.7H115c0.4,0,0.7,0.3,0.7,0.7
		C115.7,163,115.4,163.3,115,163.4z"></path><path class="st2" d="M107.2,169.2h-12c-0.4,0-0.7-0.3-0.7-0.7c0-0.4,0.3-0.7,0.7-0.7h12c0.4,0,0.7,0.3,0.7,0.7
		C107.9,168.9,107.6,169.2,107.2,169.2z"></path><rect class="st2" x="122.9" y="195.4" width="31.2" height="31.2"></rect><path class="st0" d="M148.4,203.8h-19.9c-0.4,0-0.7-0.3-0.7-0.7c0-0.4,0.3-0.7,0.7-0.7h19.9c0.4,0,0.7,0.3,0.7,0.7
		C149.1,203.5,148.8,203.8,148.4,203.8C148.4,203.8,148.4,203.8,148.4,203.8L148.4,203.8z"></path><path class="st0" d="M148.4,212.1h-19.9c-0.4,0-0.7-0.3-0.7-0.7c0-0.4,0.3-0.7,0.7-0.7h19.9c0.4,0,0.7,0.3,0.7,0.7
		C149.1,211.7,148.8,212.1,148.4,212.1C148.4,212.1,148.4,212.1,148.4,212.1L148.4,212.1z"></path><path class="st0" d="M140.6,220.3h-12c-0.4,0-0.7-0.3-0.7-0.7c0-0.4,0.3-0.7,0.7-0.7h12.1c0.4,0,0.7,0.3,0.7,0.7
		C141.3,220,141,220.3,140.6,220.3C140.6,220.3,140.6,220.3,140.6,220.3L140.6,220.3z"></path><path class="st2" d="M161.1,300.8c-0.4,0-0.7-0.3-0.7-0.7l0,0V104.9c0-0.4,0.3-0.7,0.7-0.7c0.4,0,0.7,0.3,0.7,0.7c0,0,0,0,0,0
		v195.2C161.8,300.5,161.4,300.8,161.1,300.8C161.1,300.8,161.1,300.8,161.1,300.8z"></path><path class="st2" d="M254.5,300.8c-0.4,0-0.7-0.3-0.7-0.7l0,0V104.9c0-0.4,0.3-0.7,0.7-0.7c0.4,0,0.7,0.3,0.7,0.7c0,0,0,0,0,0
		v195.2C255.2,300.5,254.9,300.8,254.5,300.8C254.5,300.8,254.5,300.8,254.5,300.8z"></path><path class="st2" d="M348,300.8c-0.4,0-0.7-0.3-0.7-0.7v0V104.9c0-0.4,0.3-0.7,0.7-0.7c0.4,0,0.7,0.3,0.7,0.7c0,0,0,0,0,0v195.2
		C348.7,300.5,348.4,300.8,348,300.8z"></path><rect class="st0" x="197.4" y="211.8" width="30.4" height="30.4"></rect><path class="st2" d="M227.7,242.8h-30.3c-0.4,0-0.7-0.3-0.7-0.7v-30.4c0-0.4,0.3-0.7,0.7-0.7h30.4c0.4,0,0.7,0.3,0.7,0.7v30.4
		C228.4,242.5,228.1,242.8,227.7,242.8C227.7,242.8,227.7,242.8,227.7,242.8z M198.1,241.4H227v-29h-28.9V241.4z"></path><path class="st2" d="M222.2,219h-19.3c-0.4,0-0.7-0.3-0.7-0.7c0-0.4,0.3-0.7,0.7-0.7h19.3c0.4,0,0.7,0.3,0.7,0.7
		C222.9,218.7,222.6,219,222.2,219z"></path><path class="st2" d="M222.2,224.6h-19.3c-0.4,0-0.7-0.3-0.7-0.7c0-0.4,0.3-0.7,0.7-0.7h19.3c0.4,0,0.7,0.3,0.7,0.7
		C222.9,224.3,222.6,224.6,222.2,224.6z"></path><path class="st2" d="M222.2,230.3h-19.3c-0.4,0-0.7-0.3-0.7-0.7c0-0.4,0.3-0.7,0.7-0.7h19.3c0.4,0,0.7,0.3,0.7,0.7
		C222.9,230,222.6,230.3,222.2,230.3z"></path><path class="st2" d="M214.6,236h-11.7c-0.4,0-0.7-0.3-0.7-0.7c0-0.4,0.3-0.7,0.7-0.7h11.7c0.4,0,0.7,0.3,0.7,0.7
		C215.3,235.7,215,236,214.6,236C214.6,236,214.6,236,214.6,236z"></path><rect class="st0" x="211.8" y="259.1" width="31.2" height="31.2"></rect><path class="st2" d="M243.1,291.1h-31.2c-0.4,0-0.7-0.3-0.7-0.7l0,0v-31.2c0-0.4,0.3-0.7,0.7-0.7c0,0,0,0,0,0h31.2
		c0.4,0,0.7,0.3,0.7,0.7l0,0v31.2C243.8,290.8,243.5,291.1,243.1,291.1z M212.5,289.7h29.8v-29.8h-29.8L212.5,289.7z"></path><path class="st2" d="M237.4,266.5h-19.9c-0.4,0-0.7-0.3-0.7-0.7c0-0.4,0.3-0.7,0.7-0.7c0,0,0,0,0,0h19.9c0.4,0,0.7,0.3,0.7,0.7
		C238.1,266.2,237.8,266.5,237.4,266.5z"></path><path class="st2" d="M237.4,272.4h-19.9c-0.4,0-0.7-0.3-0.7-0.7c0-0.4,0.3-0.7,0.7-0.7c0,0,0,0,0,0h19.9c0.4,0,0.7,0.3,0.7,0.7
		C238.1,272.1,237.8,272.4,237.4,272.4z"></path><path class="st2" d="M237.4,278.2h-19.9c-0.4,0-0.7-0.3-0.7-0.7c0-0.4,0.3-0.7,0.7-0.7h19.9c0.4,0,0.7,0.3,0.7,0.7
		C238.1,277.9,237.8,278.2,237.4,278.2C237.4,278.2,237.4,278.2,237.4,278.2z"></path><path class="st2" d="M229.6,284h-12.1c-0.4,0-0.7-0.3-0.7-0.7c0-0.4,0.3-0.7,0.7-0.7h12.1c0.4,0,0.7,0.3,0.7,0.7
		C230.3,283.7,230,284,229.6,284z"></path><rect class="st0" x="287.1" y="211.5" width="31.2" height="31.2"></rect><path class="st2" d="M318.3,243.4h-31.2c-0.4,0-0.7-0.3-0.7-0.7c0,0,0,0,0,0v-31.2c0-0.4,0.3-0.7,0.7-0.7l0,0h31.2
		c0.4,0,0.7,0.3,0.7,0.7c0,0,0,0,0,0v31.2C319,243.1,318.7,243.4,318.3,243.4L318.3,243.4z M287.8,242h29.8v-29.8h-29.8V242z"></path><path class="st2" d="M312.6,218.9h-19.9c-0.4,0-0.7-0.3-0.7-0.7c0-0.4,0.3-0.7,0.7-0.7h19.9c0.4,0,0.7,0.3,0.7,0.7
		S313,218.9,312.6,218.9C312.6,218.9,312.6,218.9,312.6,218.9z"></path><path class="st2" d="M312.6,224.7h-19.9c-0.4,0-0.7-0.3-0.7-0.7s0.3-0.7,0.7-0.7c0,0,0,0,0,0h19.9c0.4,0,0.7,0.3,0.7,0.7
		S313,224.7,312.6,224.7C312.6,224.7,312.6,224.7,312.6,224.7z"></path><path class="st2" d="M312.6,230.6h-19.9c-0.4,0-0.7-0.3-0.7-0.7s0.3-0.7,0.7-0.7c0,0,0,0,0,0h19.9c0.4,0,0.7,0.3,0.7,0.7
		S313,230.6,312.6,230.6C312.6,230.6,312.6,230.6,312.6,230.6z"></path><path class="st2" d="M304.8,236.4h-12c-0.4,0-0.7-0.3-0.7-0.7c0-0.4,0.3-0.7,0.7-0.7h12c0.4,0,0.7,0.3,0.7,0.7
		C305.5,236.1,305.2,236.4,304.8,236.4z"></path><path class="st2" d="M431.5,127.5h-354c-0.4,0-0.7-0.3-0.7-0.7c0-0.4,0.3-0.7,0.7-0.7h354c0.4,0,0.7,0.3,0.7,0.7
		C432.2,127.2,431.9,127.5,431.5,127.5z"></path><path class="st2" d="M236.5,116.2h-57.1c-0.8,0-1.4-0.6-1.4-1.4s0.6-1.4,1.4-1.4l0,0h57.1c0.8,0,1.4,0.6,1.4,1.4
		S237.3,116.2,236.5,116.2L236.5,116.2z"></path><path class="st2" d="M149.2,116.2H92.1c-0.8,0-1.4-0.6-1.4-1.4s0.6-1.4,1.4-1.4h57.1c0.8,0,1.4,0.6,1.4,1.4S150,116.2,149.2,116.2z
		"></path><path class="st2" d="M329.9,116.2h-57.1c-0.8,0-1.4-0.6-1.4-1.4s0.6-1.4,1.4-1.4h57.1c0.8,0,1.4,0.6,1.4,1.4
		S330.7,116.2,329.9,116.2L329.9,116.2L329.9,116.2z"></path><path class="st2" d="M419.9,116.2h-57.1c-0.8,0-1.4-0.6-1.4-1.4s0.6-1.4,1.4-1.4h57.1c0.8,0,1.4,0.6,1.4,1.4
		S420.7,116.2,419.9,116.2z"></path><rect class="st0" x="173.5" y="159.6" width="31.2" height="31.2"></rect><path class="st2" d="M204.8,191.5h-31.2c-0.4,0-0.7-0.3-0.7-0.7v-31.2c0-0.4,0.3-0.7,0.7-0.7h31.2c0.4,0,0.7,0.3,0.7,0.7v31.2
		C205.4,191.2,205.1,191.5,204.8,191.5z M174.2,190.1h29.8v-29.8h-29.8V190.1z"></path><path class="st2" d="M199.1,167h-19.9c-0.4,0-0.7-0.3-0.7-0.7c0-0.4,0.3-0.7,0.7-0.7h19.9c0.4,0,0.7,0.3,0.7,0.7
		C199.8,166.7,199.5,167,199.1,167z"></path><path class="st2" d="M199.1,172.8h-19.9c-0.4,0-0.7-0.3-0.7-0.7c0-0.4,0.3-0.7,0.7-0.7c0,0,0,0,0,0h19.9c0.4,0,0.7,0.3,0.7,0.7
		C199.8,172.5,199.5,172.8,199.1,172.8z"></path><path class="st2" d="M199.1,178.6h-19.9c-0.4,0-0.7-0.3-0.7-0.7c0-0.4,0.3-0.7,0.7-0.7c0,0,0,0,0,0h19.9c0.4,0,0.7,0.3,0.7,0.7
		C199.8,178.3,199.5,178.6,199.1,178.6C199.1,178.6,199.1,178.6,199.1,178.6z"></path><path class="st2" d="M191.3,184.5h-12c-0.4,0-0.7-0.3-0.7-0.7c0-0.4,0.3-0.7,0.7-0.7c0,0,0,0,0,0h12c0.4,0,0.7,0.3,0.7,0.7
		C192,184.2,191.7,184.5,191.3,184.5C191.3,184.5,191.3,184.5,191.3,184.5z"></path><rect class="st2" x="214" y="138.9" width="31.2" height="31.2"></rect><path class="st0" d="M239.5,147.6h-19.9c-0.4,0-0.7-0.3-0.7-0.7c0-0.4,0.3-0.7,0.7-0.7c0,0,0,0,0,0h19.9c0.4,0,0.7,0.3,0.7,0.7
		C240.2,147.3,239.9,147.6,239.5,147.6C239.5,147.6,239.5,147.6,239.5,147.6z"></path><path class="st0" d="M239.5,153.4h-19.9c-0.4,0-0.7-0.3-0.7-0.7c0-0.4,0.3-0.7,0.7-0.7c0,0,0,0,0,0h19.9c0.4,0,0.7,0.3,0.7,0.7
		C240.2,153.1,239.9,153.4,239.5,153.4C239.5,153.4,239.5,153.4,239.5,153.4z"></path><path class="st0" d="M234.5,159.2h-14.8c-0.4,0-0.7-0.3-0.7-0.7c0-0.4,0.3-0.7,0.7-0.7c0,0,0,0,0,0h14.8c0.4,0,0.7,0.3,0.7,0.7
		C235.2,158.9,234.9,159.2,234.5,159.2C234.5,159.2,234.5,159.2,234.5,159.2L234.5,159.2z"></path><rect class="st0" x="270.1" y="135.4" width="31.2" height="31.2"></rect><path class="st2" d="M301.4,167.3h-31.2c-0.4,0-0.7-0.3-0.7-0.7c0,0,0,0,0,0v-31.2c0-0.4,0.3-0.7,0.7-0.7l0,0h31.2
		c0.4,0,0.7,0.3,0.7,0.7c0,0,0,0,0,0v31.2C302.1,167,301.7,167.3,301.4,167.3L301.4,167.3z M270.8,165.9h29.8v-29.8h-29.8V165.9z"></path><path class="st2" d="M295.7,142.8h-19.9c-0.4,0-0.7-0.3-0.7-0.7s0.3-0.7,0.7-0.7c0,0,0,0,0,0h19.9c0.4,0,0.7,0.3,0.7,0.7
		S296.1,142.7,295.7,142.8C295.7,142.8,295.7,142.8,295.7,142.8z"></path><path class="st2" d="M295.7,148.6h-19.9c-0.4,0-0.7-0.3-0.7-0.7c0-0.4,0.3-0.7,0.7-0.7h19.9c0.4,0,0.7,0.3,0.7,0.7
		C296.4,148.3,296.1,148.6,295.7,148.6z"></path><path class="st2" d="M295.7,154.4h-19.9c-0.4,0-0.7-0.3-0.7-0.7c0-0.4,0.3-0.7,0.7-0.7h19.9c0.4,0,0.7,0.3,0.7,0.7
		C296.4,154.1,296.1,154.4,295.7,154.4z"></path><path class="st2" d="M287.9,160.3h-12c-0.4,0-0.7-0.3-0.7-0.7c0-0.4,0.3-0.7,0.7-0.7h12c0.4,0,0.7,0.3,0.7,0.7
		S288.3,160.3,287.9,160.3C287.9,160.3,287.9,160.3,287.9,160.3z"></path><rect class="st2" x="308.8" y="162.3" width="31.2" height="31.2"></rect><path class="st0" d="M334.3,169.7h-19.9c-0.4,0-0.7-0.3-0.7-0.7c0-0.4,0.3-0.7,0.7-0.7h19.9c0.4,0,0.7,0.3,0.7,0.7
		C335,169.4,334.7,169.7,334.3,169.7z"></path><path class="st0" d="M334.3,175.6h-19.9c-0.4,0-0.7-0.3-0.7-0.7c0-0.4,0.3-0.7,0.7-0.7h19.9c0.4,0,0.7,0.3,0.7,0.7
		C335,175.2,334.7,175.5,334.3,175.6z"></path><path class="st0" d="M334.3,181.4h-19.9c-0.4,0-0.7-0.3-0.7-0.7s0.3-0.7,0.7-0.7c0,0,0,0,0,0h19.9c0.4,0,0.7,0.3,0.7,0.7
		C335,181.1,334.7,181.4,334.3,181.4z"></path><path class="st0" d="M326.5,187.2h-12.1c-0.4,0-0.7-0.3-0.7-0.7c0-0.4,0.3-0.7,0.7-0.7h12c0.4,0,0.7,0.3,0.7,0.7
		C327.2,186.9,326.9,187.2,326.5,187.2L326.5,187.2z"></path></g><g id="Character_female"><path class="st0" d="M365.2,350.3c0,0-16-8.1-24.1-4.1s-12.9,4.1-12.5,7s4.1,3,4.1,3s-4.8,2.2-1.9,4.2c1.7,1.2,3.8,1.8,5.9,1.7
		c0,0-7.7,2.6-4,4.8s11.6,1.6,14.3,2.1s26.7,8.3,26.7,8.3L365.2,350.3z"></path><path class="st1" d="M373.5,377.9h-0.2c-0.2-0.1-24-7.7-26.6-8.2c-1.2-0.2-2.4-0.2-3.6-0.2c-3.6-0.1-8.2-0.3-10.9-1.9
		c-1.2-0.7-1.4-1.5-1.3-2.1c0.1-1.2,1.5-2.2,2.9-2.9c-1.2-0.3-2.4-0.8-3.5-1.6c-0.8-0.4-1.3-1.3-1.2-2.2c0.2-0.9,0.7-1.7,1.5-2.2
		c-1.5-0.4-2.6-1.7-2.8-3.2c-0.3-2.4,1.9-3.2,5.5-4.6c2.5-0.9,5-2,7.4-3.1c8.3-4.2,24.1,3.7,24.8,4.1c0.2,0.1,0.3,0.2,0.4,0.4
		l8.3,26.9c0.1,0.2,0,0.5-0.2,0.7C373.9,377.8,373.7,377.9,373.5,377.9z M336.6,361.4c0.3,0,0.6,0.2,0.7,0.5
		c0.1,0.4-0.1,0.7-0.5,0.8c-2.1,0.7-4.5,2-4.6,2.8c0,0.3,0.5,0.6,0.7,0.7c2.4,1.4,6.9,1.6,10.2,1.7c1.3,0,2.5,0.1,3.8,0.3
		c2.4,0.4,20.4,6.2,25.5,7.9l-7.9-25.4c-2.1-1-16.1-7.5-23.2-3.9c-2.5,1.2-5,2.3-7.6,3.2c-3.6,1.3-4.8,1.9-4.6,3.1
		c0.3,2.3,3.2,2.3,3.4,2.3c0.4,0,0.7,0.3,0.7,0.7c0,0.3-0.2,0.5-0.4,0.6c-1,0.4-2.3,1.4-2.4,2.1c0,0.3,0.2,0.6,0.7,0.9
		C332.7,361,334.6,361.5,336.6,361.4L336.6,361.4z"></path><polygon class="st0" points="347.4,373.5 338.6,337.6 306.8,344.5 313.8,381.7 	"></polygon><path class="st2" d="M313.8,382.4c-0.1,0-0.3,0-0.4-0.1c-0.2-0.1-0.3-0.3-0.3-0.5l-7-37.1c-0.1-0.4,0.2-0.7,0.5-0.8l31.8-6.9
		c0.4-0.1,0.7,0.1,0.8,0.5l8.9,35.9c0,0.2,0,0.4-0.1,0.5c-0.1,0.2-0.2,0.3-0.4,0.3l-33.6,8.1L313.8,382.4z M307.6,345.1l6.7,35.7
		l32.2-7.8l-8.6-34.5L307.6,345.1z"></path><path class="st0" d="M347,348.2c0,0-18,1.6-16.2,5s13.2,2.6,13.2,2.6s0.2,7.5,6.3,6.5"></path><path class="st1" d="M349.2,363.1c-1.2,0-2.4-0.3-3.4-1.1c-1.8-1.5-2.4-4.1-2.5-5.4c-2.7,0.1-11.5,0.2-13.2-3
		c-0.3-0.5-0.3-1.1,0-1.6c1.6-2.9,14.3-4.2,16.8-4.4c0.4,0,0.7,0.2,0.8,0.6c0,0.4-0.2,0.7-0.6,0.8c0,0,0,0,0,0
		c-6,0.5-14.8,2-15.7,3.7c0,0.1,0,0.2,0,0.3c1.1,2.2,8.3,2.5,12.6,2.3c0.2,0,0.4,0,0.5,0.2c0.1,0.1,0.2,0.3,0.2,0.5
		c0,0,0.1,3.4,2.1,5c1,0.7,2.2,1,3.4,0.8c0.4,0,0.7,0.2,0.8,0.6c0,0.4-0.2,0.7-0.5,0.8C350,363.1,349.6,363.1,349.2,363.1z"></path><path class="st0" d="M461.2,309.1c0,0,21.5,58.6,6.1,64.6s-74.5-13.2-74.5-13.2l5.7-28.1L461.2,309.1z"></path><path class="st1" d="M459,375.5c-21.6,0-64.2-13.7-66.3-14.4c-0.3-0.1-0.5-0.5-0.5-0.8l5.7-28.1c0.1-0.2,0.2-0.4,0.4-0.5l62.6-23.2
		c0.2-0.1,0.4-0.1,0.5,0c0.2,0.1,0.3,0.2,0.4,0.4c0.9,2.4,21.5,59.3,5.7,65.5C464.8,375.2,461.9,375.6,459,375.5z M393.7,360.1
		c6.2,2,59.3,18.5,73.4,13c5.9-2.3,6.7-13.9,2.3-33.7c-2.3-9.9-5.2-19.7-8.6-29.4l-61.6,22.9L393.7,360.1z"></path><path class="st3" d="M440.9,253.2c0,0,10.2,5.6,27.6,66.5l-31.4,11.4L440.9,253.2z"></path><path class="st0" d="M362.3,304.9c0,0-28.2,22.5-42.6,18.4s-25.1-56.5-34.9-75.7c-10.6-21-2.5-29,1.4-31.6
		c2.7-1.9,5.2,12.2,7.8,15.3c0.9-4.1-0.6-7.6,2.9-5.2c2.5,1.7,3.8,19.3,3.8,19.3s33.5,42.4,35.1,42.5l12.5-9.2"></path><path class="st1" d="M323.6,324.5c-1.4,0-2.8-0.2-4.1-0.5c-9.9-2.9-17.6-26.1-25.1-48.5c-3.6-10.9-7-21.1-10.3-27.6
		c-10.3-20.3-3.4-29.1,1.6-32.5c0.4-0.3,0.9-0.4,1.4-0.2c1.6,0.5,2.7,3.6,4.4,8.5c0.7,2,1.4,4.1,2.1,5.6c0-0.5,0.1-1,0.1-1.5
		c0.1-1.5,0.1-2.6,0.9-3s1.8,0.1,2.7,0.8c2.5,1.8,3.8,16.2,4.1,19.6c12.5,15.8,31.4,39.3,34.4,41.9l12.1-8.9c0.3-0.2,0.7-0.2,1,0.1
		c0,0,0,0,0,0c0.2,0.3,0.2,0.7-0.1,1c0,0,0,0,0,0l-12.5,9.2c-0.1,0.1-0.3,0.1-0.5,0.1c-1.5-0.1-20.2-23.3-35.5-42.8
		c-0.1-0.1-0.1-0.2-0.1-0.4c-0.5-7.2-2-17.7-3.5-18.8c-1-0.7-1.3-0.7-1.3-0.7c-0.1,0.6-0.1,1.2-0.1,1.8c0,1.2-0.1,2.4-0.4,3.6
		c-0.1,0.4-0.5,0.6-0.8,0.5c-0.2,0-0.3-0.1-0.4-0.2c-1.1-1.4-2.2-4.4-3.3-7.6c-1-3.1-2.5-7.3-3.5-7.6c0,0-0.1,0-0.1,0.1
		c-4.6,3.2-10.9,11.4-1.1,30.7c3.3,6.6,6.8,16.8,10.4,27.8c7,21.1,14.9,45,24.1,47.6c13.9,4,41.7-18,42-18.2c0.3-0.2,0.7-0.2,1,0.1
		c0,0,0,0,0,0c0.2,0.3,0.2,0.8-0.1,1c0,0,0,0,0,0C361.7,306.3,338.7,324.5,323.6,324.5z"></path><path class="st0" d="M385.3,206.4c0,0-7.9,11.5-6.3,14s6.9,0.9,6.9,0.9"></path><path class="st1" d="M382.5,222.4c-1.6,0-3.3-0.4-4.1-1.7c-1.7-2.6,4.4-11.9,6.3-14.7c0.2-0.3,0.7-0.4,1-0.2c0,0,0,0,0,0
		c0.3,0.2,0.4,0.6,0.2,1c0,0,0,0,0,0c-3.7,5.4-7.1,11.9-6.3,13.2c1,1.6,4.8,1,6.1,0.6c0.4-0.1,0.8,0,0.9,0.4c0.1,0.4,0,0.8-0.4,0.9
		c0,0-0.1,0-0.1,0C384.9,222.3,383.7,222.4,382.5,222.4z"></path><path class="st0" d="M387.2,191c-5,3.9-3.7,12.4-3.7,17.9c-0.1,7.7,0,15.5,0.3,23.2c0.2,4.9,12.9,5.2,15.1,3.8l-2.3,19.4l26.9-9.8
		l-0.5-22.4c0,0-8.4-0.1-13.2-10.1s-4.4-25.4-4.4-25.4S392,187.2,387.2,191z"></path><path class="st1" d="M396.6,256c-0.2,0-0.3-0.1-0.4-0.1c-0.2-0.2-0.3-0.4-0.3-0.6l2.2-18.2c-2.9,0.7-9,0.5-12.4-1.3
		c-2.1-1.1-2.6-2.5-2.6-3.5c-0.3-7.7-0.4-15.5-0.3-23.2c0-0.9,0-1.9-0.1-3c-0.2-5.4-0.4-12,4-15.5c5-3.9,18.2-3.7,18.7-3.7
		c0.2,0,0.4,0.1,0.5,0.2c0.1,0.1,0.2,0.3,0.2,0.5c0,0.1-0.4,15.3,4.3,25.1c4.6,9.6,12.5,9.8,12.6,9.8c0.4,0,0.7,0.3,0.7,0.7
		l0.5,22.4c0,0.3-0.2,0.6-0.5,0.7l-26.9,9.8C396.8,256,396.7,256,396.6,256z M398.9,235.2c0.4,0,0.7,0.3,0.7,0.7c0,0,0,0.1,0,0.1
		l-2.2,18.2l25.3-9.2l-0.5-21.2c-2.2-0.2-9-1.7-13.1-10.5c-4.3-9-4.5-21.9-4.4-25c-2.8,0-13.1,0.2-17.1,3.4l0,0
		c-3.9,3-3.7,9.3-3.5,14.3c0,1.1,0.1,2.1,0.1,3c-0.1,7.7,0,15.5,0.3,23.2c0,0.9,0.7,1.7,1.9,2.4c3.6,1.9,10.7,1.8,12.2,0.9
		C398.7,235.3,398.8,235.2,398.9,235.2L398.9,235.2z M387.2,191L387.2,191z"></path><polygon class="st1" points="450.6,401.6 450.6,362.3 361.5,361.9 352.3,401.6 	"></polygon><path class="st1" d="M450.6,402.4h-98.3c-0.2,0-0.4-0.1-0.5-0.3c-0.1-0.2-0.2-0.4-0.1-0.6l9.2-39.8c0.1-0.3,0.4-0.5,0.7-0.5l0,0
		l89.2,0.5c0.4,0,0.7,0.3,0.7,0.7v0v39.3C451.3,402,451,402.4,450.6,402.4C450.6,402.4,450.6,402.4,450.6,402.4z M353.2,401h96.7
		v-37.9l-87.9-0.5L353.2,401z"></path><path class="st3" d="M381.9,250.5c12.7-10.9,53.7-12.8,59.1,2.8s13.4,112.6,13.4,112.6C424.4,376,356,366,356,366l9.6-46.8
		C365.6,319.2,368.2,262.3,381.9,250.5z"></path><path class="st1" d="M399,235.9c0,0,6.5-0.2,9.7-4.7c0,0-0.4,7.8-10.6,11L399,235.9z"></path><path class="st1" d="M398,243c-0.2,0-0.3-0.1-0.5-0.2c-0.2-0.2-0.3-0.4-0.2-0.6l0.9-6.4c0-0.3,0.3-0.6,0.7-0.6
		c0.1,0,6.2-0.3,9.1-4.4c0.2-0.3,0.7-0.4,1-0.2c0.2,0.1,0.3,0.4,0.3,0.6c0,0.3-0.6,8.3-11,11.7C398.2,243,398.1,243,398,243z
		 M399.6,236.6l-0.7,4.7c5.3-2,7.5-5.3,8.4-7.6C405,235.3,402.4,236.3,399.6,236.6L399.6,236.6z"></path><ellipse class="st1" transform="matrix(0.9985 -5.407881e-02 5.407881e-02 0.9985 -10.3915 21.2782)" cx="388" cy="202.7" rx="1.1" ry="2.8"></ellipse><polygon class="st3" points="381.9,250.5 336.4,279.6 353.8,326.5 388.2,312.5 	"></polygon><path class="st1" d="M364.5,322.3c-0.3,0-0.5-0.1-0.6-0.4c-0.2-0.3-0.1-0.8,0.2-1c0,0,0,0,0.1,0c0.2-0.1,21.2-12.4,31.2-23.9
		c0.2-0.3,0.7-0.3,1-0.1c0,0,0,0,0,0c0.3,0.3,0.3,0.7,0.1,1c-10.1,11.6-31.4,24-31.6,24.1C364.7,322.3,364.6,322.3,364.5,322.3z"></path><path class="st1" d="M452.2,342.2c-0.4,0-0.7-0.3-0.7-0.6c-1.5-16.1-6.5-58.9-6.5-59.4c0-0.4,0.3-0.7,0.6-0.8
		c0.4,0,0.7,0.2,0.7,0.6c0,0.4,5.1,43.2,6.5,59.4C452.9,341.8,452.7,342.1,452.2,342.2C452.3,342.2,452.3,342.2,452.2,342.2
		L452.2,342.2z"></path><path class="st1" d="M383.6,224.4c0,0,10.1-0.4,10.1,0c-1.1,2.3-3.2,4.1-5.6,5c-3.4,0.9-4.4-2.5-4.4-2.5L383.6,224.4z"></path><path class="st1" d="M387,230.2c-1.9-0.1-3.5-1.3-4-3.1c0-0.1,0-0.1,0-0.2l-0.1-2.5c0-0.4,0.3-0.7,0.7-0.7c0,0,0,0,0,0
		c10.1-0.4,10.4-0.1,10.6,0.1c0.1,0.1,0.2,0.3,0.2,0.5c0,0.7-2.5,4.7-6.1,5.7C387.9,230.2,387.4,230.2,387,230.2z M384.4,226.8
		c0.4,1.5,2,2.4,3.5,2c0,0,0,0,0,0c1.9-0.7,3.6-2,4.7-3.8c-1.6,0-5,0-8.3,0.1L384.4,226.8z"></path><path class="st0" d="M439.3,180.1c9,9.3,12,22.9,13.1,35.9s0.7,26.2,4.6,38.6c3.5,11,10.3,21.9,8,33.2c-1.4,6.7-5.8,12.4-11.4,16.3
		s-12.1,6.2-18.7,7.8c-8.5,2.1-22.2,4.6-29.9-1.4c-2.7-2.3-4.8-5.2-6.1-8.4c-4-9.4-4-20.1-1.5-30.1c3.1-12.2,11-22,14.6-33.9
		c0.9-3,1.7-6.3,0.9-9.4c-0.9-3.2-3.4-5.7-5.3-8.5c-6-8.2-6.5-17.7-4.6-27.3c-5.2-0.4-18.8,1.2-17.2-8c0.5-3,2.8-5.4,5.1-7.3
		c1.3-1,2.6-2,4.1-2.9C408.6,166.8,428.1,168.5,439.3,180.1z"></path><path class="st1" d="M418.7,315c-5.1,0-10.3-0.9-14-3.9c-2.8-2.3-5-5.3-6.3-8.7c-3.8-8.7-4.4-19.6-1.6-30.6
		c1.7-6.6,4.8-12.6,7.7-18.4c2.8-5,5.1-10.2,6.9-15.6c0.9-2.9,1.6-6,0.9-8.9c-0.6-2.4-2.1-4.3-3.8-6.3c-0.5-0.6-1-1.3-1.5-1.9
		c-5.3-7.2-6.9-16.1-4.9-27c-0.6,0-1.3,0-2.1,0c-4.7,0-11-0.1-13.8-3.4c-1.2-1.5-1.6-3.5-1.2-5.4c0.6-3.5,3.4-6.1,5.4-7.7
		c1.3-1.1,2.7-2,4.1-2.9c14.3-8.5,34.2-6.2,45.2,5.3c7.6,7.9,11.9,19.4,13.3,36.3c0.3,3.3,0.5,6.7,0.6,10c0.5,9.5,1,19.3,3.9,28.4
		c0.9,2.9,2.1,6,3.3,8.9c3.2,8,6.5,16.2,4.8,24.7c-1.3,6.4-5.4,12.4-11.7,16.8c-4.9,3.5-10.9,6-18.9,7.9
		C429.8,314.1,424.3,314.9,418.7,315z M413.8,170.7c-6.5,0-12.9,1.7-18.5,4.9c-1.4,0.8-2.7,1.8-4,2.8c-2.9,2.4-4.5,4.5-4.9,6.8
		c-0.4,1.5,0,3,0.9,4.2c2.4,2.8,8.6,2.9,12.8,2.9c1.1,0,2.2,0,3,0.1c0.2,0,0.4,0.1,0.5,0.3c0.1,0.2,0.2,0.4,0.1,0.6
		c-2.1,10.9-0.7,19.6,4.5,26.7c0.5,0.6,1,1.2,1.4,1.9c1.6,2.1,3.3,4.2,4,6.8c0.9,3.2,0.1,6.6-0.9,9.7c-1.9,5.5-4.2,10.8-7,15.8
		c-3,5.7-6,11.6-7.6,18c-2.7,10.7-2.1,21.2,1.5,29.7c1.2,3.2,3.2,6,5.9,8.1c8.2,6.4,24,2.5,29.3,1.2c7.9-1.9,13.8-4.4,18.5-7.7
		c5.9-4.1,9.9-9.9,11.1-15.9c1.6-8.1-1.6-16.1-4.7-23.9c-1.2-2.9-2.4-6-3.3-9c-2.9-9.3-3.5-19.2-4-28.8c-0.2-3.3-0.4-6.6-0.6-9.9
		c-1.4-16.5-5.5-27.8-12.9-35.4l0,0C432.5,174.1,423.2,170.6,413.8,170.7L413.8,170.7z"></path><path class="st0" d="M400,211.1c0.1-1.9,1.2-3.7,2.3-5.3c0.8-1.3,1.7-2.5,2.9-3.5c1.1-1,2.7-1.5,4.2-1.2c1.3,0.3,2.4,1.2,3,2.4
		c0.6,1.2,0.9,2.5,0.9,3.9c0.2,5.9-2.8,11.5-7.9,14.6l0.4-0.4"></path><path class="st1" d="M405.3,222.7c-0.2,0-0.4-0.1-0.5-0.3c-0.2-0.3-0.2-0.7,0-0.9l0.4-0.5c0.1-0.2,0.4-0.2,0.6-0.2
		c4.3-3.1,6.8-8.1,6.7-13.4c0-1.2-0.3-2.4-0.8-3.6c-0.5-1-1.4-1.8-2.5-2.1c-1.3-0.2-2.6,0.2-3.6,1.1c-1.1,1-2,2.1-2.7,3.3
		c-0.9,1.4-2.1,3.1-2.1,4.9c0,0.4-0.3,0.7-0.7,0.7c0,0,0,0,0,0c-0.4,0-0.7-0.3-0.7-0.7c0,0,0,0,0,0c0.1-2.2,1.4-4.1,2.4-5.6
		c0.8-1.4,1.8-2.6,3-3.6c1.3-1.2,3.1-1.6,4.8-1.3c1.5,0.4,2.8,1.4,3.5,2.8c0.6,1.3,1,2.7,1,4.2c0.2,6.2-3,12-8.2,15.2
		C405.6,222.7,405.4,222.7,405.3,222.7z"></path></g><g id="Character_Male"><path class="st0" d="M152.6,328.4c0,0,29.8,18,38.6,17.5s17.4-97.6,17.9-101.1c0.3-2.5,5.2-11.8,6.3-14.3c1.3-3.3,1.9-6.8,1.7-10.3
		c-0.3-3.5-6.6-6.2-8.2-5.9c-5,1-7.4,8.5-10.4,12.6c-0.9-0.9-0.9-5.8-1.5-7c-6.3,6.7-4.5,16.1-4,24.3c0.2,4-17.6,56-17.6,56
		l-8.2-4.8"></path><path class="st1" d="M190.8,346.7c-9.3,0-37.4-16.9-38.6-17.6c-0.3-0.2-0.5-0.6-0.3-1c0,0,0,0,0,0c0.2-0.3,0.6-0.5,1-0.3
		c0,0,0,0,0,0c0.3,0.2,29.7,17.9,38.2,17.5c1.7-0.1,8.1-7.4,16.9-97.2c0.2-1.8,0.3-3,0.3-3.3c0.2-1.8,2.4-6.5,4.9-11.5
		c0.6-1.3,1.1-2.4,1.4-3c1.3-3.2,1.9-6.6,1.7-10c-0.3-1.3-1.1-2.4-2.2-3.1c-2.1-1.5-4.5-2.2-5.2-2.1c-3.2,0.6-5.4,4.4-7.4,8.1
		c-0.8,1.4-1.6,2.8-2.6,4.2c-0.1,0.2-0.3,0.3-0.5,0.3c-0.2,0-0.4-0.1-0.6-0.2c-0.6-0.6-0.9-2.1-1.1-4.5c-0.1-0.5-0.1-1-0.2-1.5
		c-4.3,5.4-3.8,12.6-3.2,19.5c0.1,1.1,0.2,2.2,0.2,3.3c0.2,4.1-15.8,51-17.6,56.3c-0.1,0.2-0.2,0.4-0.4,0.4c-0.2,0.1-0.4,0.1-0.6,0
		l-8.2-4.8c-0.3-0.2-0.5-0.6-0.3-1c0,0,0,0,0,0c0.2-0.3,0.6-0.5,1-0.3c0,0,0,0,0,0l7.5,4.4c7.1-20.9,17.4-52.1,17.3-54.9
		c-0.1-1.1-0.1-2.2-0.2-3.3c-0.6-7.3-1.2-15.6,4.5-21.6c0.2-0.2,0.4-0.2,0.6-0.2c0.2,0,0.4,0.2,0.5,0.4c0.3,1,0.5,2.1,0.6,3.1
		c0.1,0.7,0.2,1.9,0.4,2.7c0.6-0.9,1.2-1.9,1.8-3c2.1-3.8,4.5-8,8.4-8.8c1.3-0.3,4.2,0.8,6.3,2.4c1.5,0.9,2.5,2.4,2.8,4.1
		c0.2,3.6-0.4,7.3-1.8,10.7c-0.3,0.6-0.8,1.7-1.4,3c-1.7,3.5-4.5,9.3-4.8,11.1c0,0.3-0.1,1.5-0.3,3.3c-9.6,98-16.1,98.3-18.2,98.5
		L190.8,346.7z"></path><polygon class="st0" points="63.1,401.6 65.7,318.2 35.2,324.8 33.9,401.6 	"></polygon><path class="st1" d="M63.1,402.4H33.9c-0.2,0-0.4-0.1-0.5-0.2c-0.1-0.1-0.2-0.3-0.2-0.5l1.3-76.9c0-0.3,0.2-0.6,0.6-0.7l30.5-6.5
		c0.2,0,0.4,0,0.6,0.1c0.2,0.1,0.3,0.3,0.2,0.6l-2.5,83.4C63.8,402,63.5,402.4,63.1,402.4z M34.6,401h27.8l2.5-81.9l-29.1,6.2
		L34.6,401z"></path><path class="st3" d="M55,257.8c0,0-15,13.5-18.8,26.6s-9.7,44-9.7,44l50.5,5.4L55,257.8z"></path><path class="st1" d="M110.7,210c-3.9,0-7.1-3.2-7.1-7.2s3.2-7.1,7.2-7.1c3.5,0,6.5,2.6,7.1,6.1l0,0c0.6,3.9-2.1,7.6-6,8.2
		c0,0,0,0,0,0C111.4,210,111.1,210,110.7,210z M110.7,197.1c-0.3,0-0.6,0-0.9,0.1c-3.1,0.5-5.3,3.4-4.8,6.6c0.5,3.1,3.4,5.3,6.6,4.8
		c3.1-0.5,5.3-3.4,4.8-6.6l0,0C116,199.2,113.6,197.1,110.7,197.1L110.7,197.1z"></path><path class="st0" d="M69.2,237.6c-2.9,0.3-5.8,0.3-9.2,0.5c-3.1,0.2-7.3-0.3-7.8-3.4c-0.5-2.7,2.4-5.3,1.3-7.8
		c-0.4-0.7-0.8-1.2-1.4-1.7c-9.6-9.5-13.3-26.3-7.1-38.5c2.7-5.2,7-9.5,12.2-12.1c9.8-5,21.3-6.4,32.2-4.9c8.4,1.1,19.1,6,19.5,15.9
		c0.2,3.6-2,7.4-5.5,8.1c-0.2,10.7-4.5,18.6-10.2,27.2c-3.8,5.9-9,10.7-15,14.1C75.3,236.4,72.3,237.3,69.2,237.6z"></path><path class="st1" d="M58.7,238.8c-4.1,0-6.8-1.5-7.3-4c-0.1-1.4,0.2-2.8,0.8-4.1c0.5-1.4,1-2.5,0.5-3.6c-0.3-0.5-0.7-1-1.1-1.4
		l-0.1-0.1c-10.2-10-13.4-27.3-7.2-39.3c2.8-5.4,7.2-9.7,12.5-12.4c9.4-4.8,21-6.6,32.6-5c9.7,1.3,19.7,6.9,20.1,16.6
		c0.2,3.5-1.9,7.6-5.6,8.7c-0.3,11.1-5.1,19.1-10.3,27c-3.9,6-9.1,10.9-15.4,14.3c-2.8,1.5-5.8,2.4-9,2.7l0,0
		c-1.7,0.2-3.4,0.2-5.2,0.3c-1.3,0-2.6,0.1-4,0.2C59.6,238.8,59.1,238.8,58.7,238.8z M81.3,169.8c-8.2-0.1-16.4,1.8-23.8,5.4
		c-5.1,2.6-9.3,6.7-11.9,11.8c-5.9,11.5-2.8,28,6.9,37.6l0.1,0.1c0.6,0.5,1.1,1.1,1.4,1.8c0.7,1.6,0.1,3.2-0.5,4.7
		c-0.5,1-0.8,2.1-0.7,3.3c0.5,3,5.6,2.9,7.1,2.9s2.8-0.1,4.1-0.2c1.8-0.1,3.5-0.1,5.1-0.3l0,0c3-0.3,5.9-1.2,8.6-2.6
		c6-3.3,11.1-8.1,14.9-13.9c6.3-9.5,9.9-16.9,10.1-26.8c0-0.3,0.2-0.6,0.6-0.7c3.2-0.6,5.1-4.3,5-7.4c-0.4-10.1-12.1-14.3-18.9-15.2
		C86.7,170,84,169.8,81.3,169.8L81.3,169.8z"></path><path class="st0" d="M108.4,208.3c0,0,9.3,11.1,8,13.8s-7,1.7-7,1.7"></path><path class="st1" d="M111.7,224.6c-0.8,0-1.6-0.1-2.4-0.2c-0.4-0.1-0.6-0.4-0.6-0.8c0,0,0,0,0,0c0.1-0.4,0.4-0.6,0.8-0.6
		c0,0,0,0,0,0c1.4,0.3,5.3,0.5,6.2-1.3c0.7-1.4-3.5-7.8-7.9-13c-0.3-0.3-0.2-0.7,0.1-1c0,0,0,0,0,0c0.3-0.3,0.7-0.2,1,0.1
		c0,0,0,0,0,0c2.3,2.7,9.5,11.7,8,14.5C116.1,224.2,113.6,224.6,111.7,224.6z"></path><path class="st0" d="M104.9,192.6c5.5,3.5,5.1,12.4,5.7,18.1c0.8,8,1.5,16,2,24c0.3,5.1-12.7,6.7-15.2,5.4l4.3,19.7L73,252.5
		l-0.8-16.6c0,0,8.9-1,12.8-11.8s0.6-33.1,0.6-33.1S99.5,189.2,104.9,192.6z"></path><path class="st1" d="M101.7,260.5h-0.2l-28.7-7.4c-0.3-0.1-0.5-0.3-0.5-0.6l-0.8-16.6c0-0.4,0.3-0.7,0.6-0.7
		c0.3,0,8.5-1.1,12.2-11.4c3.8-10.6,0.6-32.6,0.6-32.8c0-0.2,0-0.4,0.1-0.5c0.1-0.1,0.3-0.2,0.5-0.3c0.6-0.1,14.1-1.7,19.7,1.9
		c4.9,3.1,5.4,10,5.7,15.5c0.1,1.1,0.2,2.1,0.2,3.1c0.9,7.9,1.5,16,2,24c0.1,1-0.3,2.5-2.4,3.9c-3.3,2.2-9.6,3-12.6,2.6l4.1,18.6
		c0.1,0.2,0,0.5-0.2,0.6C102.1,260.5,101.9,260.5,101.7,260.5z M73.7,251.9l27.1,7l-4.1-18.6c-0.1-0.3,0-0.5,0.3-0.7
		c0.2-0.2,0.5-0.2,0.7-0.1c1.6,0.8,9,0.2,12.5-2.1c1.2-0.8,1.8-1.7,1.7-2.6c-0.5-8-1.2-16-2-23.9c-0.1-1-0.2-2-0.2-3.1
		c-0.4-5.2-0.8-11.7-5.1-14.4l0,0c-4.4-2.8-15.2-2-18-1.7c0.5,4,2.8,22.8-0.8,32.8c-3.5,9.5-10.6,11.7-12.8,12.1L73.7,251.9z"></path><path class="st0" d="M111.7,228.8c0,0-5.7,4.5-9.8-1.5"></path><path class="st1" d="M107.1,231.1c-0.3,0-0.7,0-1-0.1c-2-0.4-3.7-1.6-4.8-3.4c-0.2-0.3-0.2-0.8,0.2-1c0,0,0,0,0,0
		c0.3-0.2,0.7-0.2,1,0.1c0,0,0,0,0,0.1c0.8,1.4,2.2,2.4,3.8,2.8c1.8,0.1,3.5-0.4,4.9-1.4c0.3-0.2,0.7-0.2,1,0.1s0.2,0.7-0.1,1
		C110.7,230.4,109,231,107.1,231.1z"></path><path class="st1" d="M76.4,217.6L76.4,217.6c-0.5,0-0.7-0.4-0.7-0.8c0,0,0,0,0,0c0.5-4.1,1.3-4.3,1.7-4.4
		c0.7-0.2,26.2-7.4,39.6-11.2c0.4-0.1,0.8,0,0.9,0.4c0.1,0.4,0,0.8-0.4,0.9c0,0-0.1,0-0.1,0c-3.9,1.1-36.8,10.4-39.5,11.2
		c-0.4,1-0.6,2.1-0.7,3.2C77,217.3,76.7,217.6,76.4,217.6z M77.6,213.8L77.6,213.8z"></path><path class="st0" d="M93.8,215.2c-0.3-2-1.6-3.7-2.9-5.2c-0.9-1.3-2-2.4-3.3-3.3c-1.3-0.9-2.9-1.2-4.4-0.8
		c-1.3,0.5-2.3,1.5-2.8,2.8c-0.5,1.3-0.7,2.7-0.6,4.1c0.4,6.1,4.1,11.6,9.6,14.2l-0.5-0.4"></path><path class="st1" d="M89.4,227.7c-0.1,0-0.2,0-0.3-0.1c-5.7-2.8-9.5-8.5-10-14.8c-0.1-1.5,0.1-3,0.6-4.4c0.6-1.5,1.8-2.7,3.3-3.2
		c1.7-0.5,3.6-0.1,5,0.9c1.3,1,2.5,2.1,3.5,3.4c1.2,1.5,2.7,3.3,3,5.6c0.1,0.4-0.2,0.7-0.6,0.8c-0.4,0.1-0.7-0.2-0.8-0.6l0,0
		c-0.2-1.9-1.6-3.5-2.7-4.9c-0.9-1.2-2-2.3-3.2-3.1c-1.1-0.8-2.5-1.1-3.8-0.7c-1.1,0.5-2,1.4-2.3,2.5c-0.4,1.2-0.6,2.5-0.5,3.8
		c0.4,5.5,3.5,10.4,8.3,13.2c0.2,0,0.4,0,0.6,0.2l0.5,0.4c0.3,0.3,0.3,0.7,0.1,1C89.8,227.7,89.6,227.7,89.4,227.7L89.4,227.7z"></path><ellipse class="st1" transform="matrix(0.9858 -0.1681 0.1681 0.9858 -32.5253 20.6015)" cx="105.4" cy="202.4" rx="1.1" ry="2.9"></ellipse><path class="st0" d="M68.1,258l1.3-9l35.3-2l5.3,12.6C110.1,259.6,91.1,266,68.1,258z"></path><path class="st1" d="M91.8,262.7c-8.2,0-16.3-1.3-24-4c-0.3-0.1-0.5-0.4-0.5-0.8l1.3-9.1c0-0.3,0.3-0.6,0.7-0.6l35.3-2
		c0.3,0,0.6,0.2,0.7,0.4l5.3,12.6c0.1,0.2,0.1,0.4,0,0.6c-0.1,0.2-0.2,0.3-0.4,0.4C104.3,262,98,262.8,91.8,262.7z M68.8,257.5
		c13,4.4,27,5,40.3,1.6l-4.8-11.4l-34.3,2L68.8,257.5z"></path><polygon class="st1" points="146.6,401.6 144.3,379.5 53.3,381.2 53,401.6 	"></polygon><path class="st1" d="M146.6,402.4H53c-0.2,0-0.4-0.1-0.5-0.2c-0.1-0.1-0.2-0.3-0.2-0.5l0.3-20.4c0-0.4,0.3-0.7,0.7-0.7l91-1.7
		c0.4,0,0.7,0.3,0.7,0.6l2.3,22.2c0,0.2,0,0.4-0.2,0.5C147,402.3,146.8,402.4,146.6,402.4z M53.7,401h92.2l-2.1-20.8L54,381.9
		L53.7,401z"></path><path class="st3" d="M140,270.4c0,0-4.6-15.6-51.8-18.5c-12.7-0.8-24.9,1.8-33.2,5.9c-0.9,7.3-3.3,87.9-5.2,126.2
		c33.1,2.3,66.4,1.6,99.5-2.1C149.3,381.9,136.7,278.5,140,270.4z"></path><path class="st3" d="M134.1,263.8c0,0,30.6,26.2,40.9,32.6c0,0-5.5,12.6-20.2,41.9c-21.2-14.2-52.3-37.4-52.3-37.4L134.1,263.8z"></path><path class="st1" d="M50,373.1L50,373.1c-0.4,0-0.7-0.4-0.7-0.7c0,0,0,0,0,0c1.1-14.6,3.3-87.2,3.3-88c0-0.4,0.3-0.7,0.7-0.7
		c0.4,0,0.7,0.3,0.7,0.7c0,0,0,0,0,0c0,0.7-2.2,73.4-3.3,88C50.7,372.9,50.4,373.2,50,373.1z"></path><path class="st1" d="M154.8,339c-0.1,0-0.3,0-0.4-0.1l-42.8-29.3c-0.3-0.2-0.4-0.7-0.2-1c0,0,0,0,0,0c0.2-0.3,0.6-0.4,1-0.2
		c0,0,0,0,0,0l42.8,29.3c0.3,0.2,0.4,0.7,0.2,1c0,0,0,0,0,0C155.2,338.9,155,339,154.8,339z"></path><path class="st1" d="M97.4,240.1c0,0-10.7-2.3-13.4-5.2c0.9,2.8,2.8,5.2,5.3,6.7c2.9,1.8,6,3.2,9.3,4.1L97.4,240.1z"></path><path class="st1" d="M98.6,246.4c-0.1,0-0.1,0-0.2,0c-3.3-1-6.5-2.4-9.5-4.2c-2.7-1.6-4.7-4.1-5.6-7.1c-0.1-0.3,0.1-0.6,0.3-0.8
		c0.3-0.2,0.6-0.1,0.8,0.1c2.1,2.3,10.1,4.4,13,5c0.3,0.1,0.5,0.3,0.5,0.5l1.2,5.6c0.1,0.2,0,0.5-0.2,0.7
		C99,246.3,98.8,246.4,98.6,246.4z M85.7,237c1,1.6,2.4,3,4,4c2.5,1.5,5.2,2.8,8,3.7l-0.9-4C95.1,240.3,89.3,238.9,85.7,237z"></path></g></svg>