<svg transform="scale(1)" version="1.1" id="Layer_1" xmlns="http://www.w3.org/2000/svg" xmlns:xlink="http://www.w3.org/1999/xlink" x="0px" y="0px" viewBox="0 0 500 500" xml:space="preserve" class="show_show__wrapper__graphic__5Waiy "><title>React</title><style type="text/css">
	.st0{fill:#FED490;}
	.st1{fill:#FFFFFF;}
	.st2{fill:#000111;}
	.st3{fill:url(#SVGID_1_);}
	.st4{fill:url(#SVGID_00000013903610030812286890000000856338765275902624_);}
	.st5{fill:#FFC2A7;}
	.st6{fill:#D88260;}
	.st7{fill:#005045;}
	.st8{fill:url(#SVGID_00000163763160509932966400000007033884000055309716_);}
	.st9{fill:url(#SVGID_00000020393592522902702180000012738187489307360922_);}
	.st10{fill:#C64234;}
	.st11{fill:url(#SVGID_00000081631036252006913480000004393099368027859584_);}
</style><g id="light"><path class="st0" d="M379.6,57.3c8.6,0.6,15.5,7.4,16.4,16c0.8-8.6,7.8-15.4,16.4-16c-8.6-0.6-15.5-7.4-16.4-15.9
		C395.1,50,388.2,56.7,379.6,57.3L379.6,57.3z"></path><path class="st0" d="M406.8,39.7c4.6,0.3,8.3,3.9,8.8,8.5c0.5-4.6,4.2-8.2,8.8-8.5c-4.6-0.3-8.3-3.9-8.8-8.5
		C415.1,35.8,411.4,39.4,406.8,39.7z"></path></g><g id="podium"><rect class="st1" x="42.5" y="430.8" width="105" height="59.2"></rect><path class="st2" d="M147.5,491.1h-105c-0.6,0-1.1-0.5-1.1-1c0,0,0,0,0,0v-59.2c0-0.6,0.5-1.1,1.1-1.1c0,0,0,0,0,0h105
		c0.6,0,1.1,0.5,1.1,1.1V490C148.6,490.6,148.1,491.1,147.5,491.1z M43.6,488.9h102.8v-57H43.6V488.9z"></path><rect class="st0" x="159.2" y="354.6" width="105" height="135.4"></rect><linearGradient id="SVGID_1_" gradientUnits="userSpaceOnUse" x1="403.7164" y1="299.6471" x2="336.6864" y2="152.5571" gradientTransform="matrix(1 0 0 -1 0 502)"><stop offset="0" style="stop-color: rgb(243, 131, 116);"></stop><stop offset="1" style="stop-color: rgb(198, 66, 52);"></stop></linearGradient><rect class="st3" x="276" y="244.9" width="105" height="245.1"></rect><path class="st2" d="M131,490.3c-0.6,0-1.1-0.5-1.1-1.1V431c0-0.6,0.5-1.1,1.1-1.1c0.6,0,1.1,0.5,1.1,1.1v58.2
		C132.1,489.8,131.6,490.3,131,490.3C131,490.3,131,490.3,131,490.3z"></path><path class="st2" d="M245.9,490.3c-0.6,0-1.1-0.5-1.1-1.1V355.4c0-0.6,0.5-1.1,1.1-1.1c0.6,0,1.1,0.5,1.1,1.1v133.8
		C247,489.8,246.5,490.3,245.9,490.3z"></path><path class="st2" d="M361.4,490.3c-0.6,0-1.1-0.5-1.1-1.1c0,0,0,0,0,0V246.3c0.1-0.6,0.6-1,1.2-1c0.5,0,0.9,0.5,1,1v242.9
		C362.5,489.8,362,490.3,361.4,490.3L361.4,490.3z"></path><path class="st1" d="M321.5,425.1c2.2,0,3.8-0.4,4.8-1.2c1-0.8,1.5-1.9,1.5-3.1v-0.4c0.1-1.3-0.5-2.6-1.4-3.6
		c-1.1-1-2.6-1.4-4.1-1.3c-1.6,0-3.2,0.4-4.6,1.2c-1.5,0.9-2.7,2.1-3.7,3.6l-5.5-5.1c0.8-1,1.6-1.9,2.5-2.8c0.9-0.8,1.9-1.6,3-2.1
		c1.2-0.6,2.5-1.1,3.8-1.4c1.5-0.3,3.1-0.5,4.7-0.5c2,0,4,0.2,5.9,0.8c1.6,0.4,3.2,1.2,4.5,2.2c1.2,0.9,2.2,2.1,2.9,3.4
		c1.2,2.5,1.4,5.3,0.4,7.9c-0.4,1-1,1.9-1.7,2.8c-0.7,0.8-1.5,1.4-2.5,1.9c-0.9,0.5-2,0.8-3,1v0.3c1.2,0.2,2.3,0.6,3.4,1.1
		c1,0.5,1.9,1.2,2.7,2c0.8,0.8,1.4,1.8,1.8,2.9c0.4,1.2,0.7,2.5,0.6,3.8c0.1,3.4-1.5,6.7-4.3,8.8c-1.5,1.1-3.1,1.9-4.9,2.4
		c-2,0.6-4.2,0.9-6.3,0.9c-1.8,0-3.7-0.2-5.5-0.6c-1.5-0.4-2.9-1-4.2-1.7c-1.1-0.7-2.2-1.5-3.1-2.5c-0.9-0.9-1.6-1.9-2.3-3l6.5-5
		c0.8,1.6,1.9,3,3.3,4.1c1.5,1.1,3.4,1.7,5.3,1.6c1.7,0.1,3.3-0.4,4.6-1.5c1.1-1,1.7-2.5,1.7-4v-0.4c0.1-1.5-0.6-2.9-1.9-3.8
		c-1.6-0.9-3.4-1.3-5.2-1.2h-3.7v-7.3L321.5,425.1z"></path></g><g id="character"><linearGradient id="SVGID_00000124844284823242970300000013404074410397570230_" gradientUnits="userSpaceOnUse" x1="204.4737" y1="458.0214" x2="245.8237" y2="345.4713" gradientTransform="matrix(1 0 0 -1 0 502)"><stop offset="0" style="stop-color: rgb(243, 131, 116);"></stop><stop offset="1" style="stop-color: rgb(198, 66, 52);"></stop></linearGradient><path d="M252.9,98.3l-53.2-7.4l-28.8,97.2
		c-12.6,32.5,18.5,89.3,87.8,52.5l56.4-90.2l3.2-64.1c-11.3,0.5-22.1,4.6-30.8,11.8l-40.9,33.5L252.9,98.3z" style="fill: url(&quot;#SVGID_00000124844284823242970300000013404074410397570230_&quot;);"></path><path class="st5" d="M252.4,98.5c3.4-8.4,5.9-17.1,7.7-26c2.7-14.2-0.2-23.8-3.5-26.7c-3.8-3.3-8.2,2.2-9.7,4.1
		c0,0,2.9-17.5-0.4-23s-7.1-5.7-7.1-5.7s-0.5-2.9-6-5s-10.8,5.3-10.8,5.3s-4.4-5-8.7-0.5s-6.1,20.8-6.1,20.8s-3.6-2.5-6.5,0.6
		s-4,22.3-4.7,29.3s3.1,19.3,3.1,19.3L252.4,98.5z"></path><path class="st2" d="M243.1,189l-40.5,24.8c-24.5,15.5-20.1,73,21.3,80.7l90.3,19.1L243.1,189z"></path><path class="st5" d="M312.6,35.1c3,2.1,6.5,3.3,10.2,3.5c4.4,0.2,8.6-1.4,11.9-4.3c0.8,6.1,7.9,11.8,10.2,9.8c0,0-0.2-8.3,7.2-8.2
		c6.2,0.1,7.7,10.6,3.6,14c-0.6,0.5-1.4,0.9-2.3,1c0,0-3.9,9.9,1.6,12.1c-9.7,10.4-26,10.9-36.3,1.2
		C310.6,56.7,308.2,45.1,312.6,35.1L312.6,35.1z"></path><path class="st5" d="M312.6,35.1c3,2.1,6.5,3.3,10.2,3.5c4.4,0.2,8.6-1.4,11.9-4.3c0.8,6.1,7.9,11.8,10.2,9.8c0,0-0.2-8.3,7.2-8.2
		c6.2,0.1,7.7,10.6,3.6,14c-0.6,0.5-1.4,0.9-2.3,1c0,0-3.9,9.9,1.6,12.1l0,0c3-3.2,5.1-7,6.1-11.2c0.7-2.6,0.9-5.3,0.7-8
		c-0.9-14.2-13.2-24.9-27.3-23.9C324.8,20.5,316.4,26.4,312.6,35.1L312.6,35.1z"></path><ellipse class="st5" transform="matrix(0.9448 -0.3275 0.3275 0.9448 -0.7263 104.5586)" cx="310" cy="54.4" rx="8" ry="3.6"></ellipse><path class="st2" d="M297.3,24.5C302.7,5.8,326,8,326.5,15.3c0,0,21.1-2.6,31.7,6.8c8.5,7.5,15.4,24.2-3.3,40.8l0,0
		c-5.5-2.2-1.6-12.1-1.6-12.1c0.8-0.1,1.6-0.5,2.3-1c4.1-3.4,2.7-13.9-3.6-14c-7.4-0.1-7.2,8.2-7.2,8.2c-2.2,2-9.4-3.7-10.2-9.8
		C317.6,44.6,292.6,40.5,297.3,24.5z"></path><path class="st6" d="M350.6,48.8c2.3-0.1,4.1-2,4-4.3s-2-4.1-4.3-4c-0.4,0-0.9,0.1-1.3,0.3l1.4,1c-0.1-0.7,0.3-1.4,1-1.6
		c0,0,0.3-0.1,0.1,0c0.1,0,0.2,0,0.4,0c0.3,0-0.1,0,0.2,0l0.3,0.1c-0.1,0,0.2,0.1,0.2,0.1s0.3,0.2,0.2,0.1c0.1,0.1,0.3,0.3,0.4,0.4
		c0.3,0.5,1,0.7,1.5,0.4c0.5-0.3,0.7-1,0.4-1.5c-1-1.7-3.1-2.4-4.9-1.4c-1.2,0.7-1.9,2-1.8,3.4c0,0.6,0.5,1.1,1.1,1.1
		c0.1,0,0.2,0,0.3,0c1-0.4,2.2,0.2,2.6,1.2c0,0.1,0.1,0.2,0.1,0.3c0.1,0.5,0,1.1-0.3,1.5c-0.2,0.2-0.4,0.4-0.6,0.5l-0.2,0.1h-0.1
		l-0.3,0.1c0,0-0.3,0-0.1,0c-0.6,0-1.1,0.5-1.1,1.1C349.6,48.3,350,48.8,350.6,48.8L350.6,48.8z"></path><path class="st6" d="M327.4,64.4c3.4-0.1,6.1-2.9,6.1-6.3c0-0.6-0.5-1.1-1.1-1.1c-0.6,0-1.1,0.5-1.1,1.1c0,0.2,0,0.3,0,0.5
		c0,0,0,0.3,0,0.1s0,0.1,0,0.1c-0.1,0.3-0.1,0.6-0.2,0.9c-0.1,0.3,0.1-0.2,0,0.1c0,0.1-0.1,0.2-0.1,0.2l-0.2,0.4l-0.1,0.2
		c0,0-0.2,0.3,0,0c-0.1,0.1-0.2,0.2-0.3,0.4l-0.3,0.3c0,0-0.2,0.2-0.1,0.1s-0.1,0.1-0.1,0.1c-0.3,0.2-0.5,0.3-0.8,0.5
		c-0.2,0.1,0,0.1,0,0s-0.2,0.1-0.2,0.1l-0.4,0.1l-0.5,0.1h-0.3c-0.6,0-1.1,0.5-1.1,1.1c0,0.6,0.5,1.1,1.1,1.1L327.4,64.4z"></path><path class="st6" d="M335.5,56.3c0.2-0.1-0.2,0.1-0.2,0.1l-0.4,0.1c-0.3,0.1-0.5,0.1-0.8,0.2H334h-0.3c-0.3,0-0.5,0-0.8,0h-0.2
		c0.1,0,0.1,0,0,0l-0.4-0.1c-0.2,0-0.4-0.1-0.7-0.2l-0.4-0.1l-0.2-0.1c-0.2-0.1-0.5-0.2-0.7-0.4c-0.5-0.3-1.2-0.1-1.5,0.4
		c-0.3,0.5-0.1,1.2,0.4,1.5c2.2,1.4,4.9,1.6,7.3,0.6c0.5-0.3,0.7-1,0.4-1.5C336.7,56.2,336.1,56,335.5,56.3L335.5,56.3z"></path><ellipse class="st1" transform="matrix(0.1468 -0.9892 0.9892 0.1468 225.6892 356.6273)" cx="319.6" cy="47.5" rx="3.7" ry="3.2"></ellipse><ellipse class="st7" transform="matrix(0.1468 -0.9892 0.9892 0.1468 225.0213 356.0509)" cx="318.9" cy="47.6" rx="2.5" ry="2.1"></ellipse><path class="st6" d="M314.8,58.1c1.4-0.7,2.5-1.9,3.2-3.3c0.1-0.3,0.2-0.6,0.1-0.8c-0.1-0.3-0.3-0.5-0.5-0.7
		c-0.3-0.2-0.6-0.2-0.8-0.1c-0.3,0.1-0.5,0.2-0.6,0.5c-0.2,0.4-0.4,0.9-0.7,1.2l0.2-0.2c-0.3,0.4-0.7,0.7-1,1l0.2-0.2
		c-0.3,0.2-0.6,0.4-1,0.6c-0.2,0.1-0.4,0.4-0.5,0.7c-0.2,0.6,0.2,1.2,0.8,1.3C314.2,58.2,314.5,58.2,314.8,58.1L314.8,58.1z"></path><linearGradient id="SVGID_00000035524107811175041580000003240460697467529893_" gradientUnits="userSpaceOnUse" x1="309.2387" y1="496.5195" x2="350.5988" y2="383.9695" gradientTransform="matrix(1 0 0 -1 0 502)"><stop offset="0" style="stop-color: rgb(243, 131, 116);"></stop><stop offset="1" style="stop-color: rgb(198, 66, 52);"></stop></linearGradient><path d="M361.7,152.9h-41
		c-10.6,0-12.5-6.5-14.5-18.8l-5.6-34.7c0,0,2.1-12.1,17.3-13h64.5c4.4-0.4,15.1,2.4,10.3,17.5c-3.1,9.8-7.8,25.9-13.7,37.9
		C375.8,148.5,369.1,152.8,361.7,152.9z" style="fill: url(&quot;#SVGID_00000035524107811175041580000003240460697467529893_&quot;);"></path><path class="st5" d="M347.7,300c1.4,5.5,2.4,11.1,2.8,16.8c0,0-98.6,36.5-83.2,10.3c4.5-5.9,9.3-12.3,4.5-27.1
		C296.3,300.1,329.5,299.9,347.7,300z"></path><path class="st2" d="M350.4,316.5l0.9,38l-97.8,0.1l14.1-27.9c0,0,12.5,11.2,34.8,3C330.6,319.2,346.1,307.8,350.4,316.5z"></path><linearGradient id="SVGID_00000025408909090825136900000004577247134189000103_" gradientUnits="userSpaceOnUse" x1="-87.0547" y1="330.4531" x2="-103.9847" y2="268.893" gradientTransform="matrix(-1 0 0 -1 206.33 502)"><stop offset="0" style="stop-color: rgb(10, 107, 91);"></stop><stop offset="0.78" style="stop-color: rgb(0, 81, 70);"></stop><stop offset="0.91" style="stop-color: rgb(0, 80, 69);"></stop></linearGradient><path d="M397.8,197.4L397.8,197.4
		c3.7,33.3-19.2,47.5-40.6,47.5h-52.1l42.6,55.1h-76l-49.1-49.1c-8.5-8.5-13.2-19.9-13.2-31.9l0,0c0-25.1,20.4-40.2,45.7-45.1
		L353,159c21.2-3.3,41.1,11.3,44.3,32.5C397.6,193.5,397.8,195.4,397.8,197.4z" style="fill: url(&quot;#SVGID_00000025408909090825136900000004577247134189000103_&quot;);"></path><path class="st2" d="M324.6,300.7c-0.4,0-0.7-0.2-0.9-0.5l-6.9-11.3c-0.3-0.5-0.1-1.2,0.4-1.5s1.2-0.1,1.5,0.4l6.8,11.3
		c0.3,0.5,0.1,1.2-0.4,1.5C325,300.6,324.8,300.7,324.6,300.7z"></path><path class="st2" d="M297.6,300.4c-0.4,0-0.8-0.2-1-0.6l-4.7-10.5c-0.2-0.6,0-1.2,0.6-1.4c0.6-0.2,1.2,0,1.4,0.5l4.8,10.5
		c0.2,0.5,0,1.2-0.5,1.4c0,0,0,0,0,0C297.9,300.4,297.7,300.4,297.6,300.4z"></path><path class="st2" d="M279,300.8c-0.4,0-0.8-0.2-1-0.6l-5.8-10.9c-0.2-0.6,0-1.2,0.6-1.4c0.5-0.2,1.1,0,1.4,0.4l5.9,10.9
		c0.3,0.5,0.1,1.2-0.4,1.5c0,0,0,0,0,0C279.4,300.8,279.2,300.8,279,300.8z"></path><path class="st1" d="M291.7,289.1c-0.3,0-0.6-0.2-0.8-0.4l-40.6-50.2c0,0-0.1-0.1-0.1-0.1c-6.6-10.6-8.2-19.4-4.9-26.1
		c5.1-10.2,19.6-11.6,20.2-11.7l131.9-7c0.6,0,1.1,0.4,1.1,1c0,0.6-0.4,1.1-1,1.1l-131.9,7c-0.1,0-13.9,1.4-18.4,10.5
		c-3,6-1.4,14,4.8,24l40.5,50.2c0.4,0.5,0.3,1.2-0.2,1.5C292.2,289,292,289.1,291.7,289.1L291.7,289.1z"></path><path class="st2" d="M339.9,289.6h-79.8c-0.6,0-1.1-0.5-1.1-1.1c0-0.6,0.5-1.1,1.1-1.1h79.8c0.6,0,1.1,0.5,1.1,1.1
		C341,289.1,340.5,289.6,339.9,289.6z"></path><path class="st10" d="M268,344.6c-1,0-2-0.4-2.8-1c-2.2-1.8-3.9-4.1-5.1-6.7c-3.8-0.4-6.8,0.3-8.1,2c-0.4,0.5-1.1,0.5-1.5,0.1
		c-0.4-0.4-0.5-1-0.2-1.4c1.6-2.1,4.8-3.2,8.8-3c-1.6-3.8-2.3-7.8-1.4-10.2c0.7-1.6,2.4-2.4,4.1-2c9,1.5,18.9,12.4,19.4,12.8
		c0.4,0.4,0.4,1.1-0.1,1.5c0,0,0,0,0,0c-0.4,0.4-1.1,0.4-1.5-0.1c0,0,0,0,0,0c-0.1-0.1-9.8-10.8-18.1-12.1c-1.2-0.2-1.5,0.2-1.7,0.7
		c-0.8,1.9,0.2,5.9,1.9,9.6l0.8,0.1c4,0.8,8.4,2.8,9,5.5c0.3,1.3-0.2,2.6-1.3,3.3C269.5,344.3,268.8,344.6,268,344.6z M262.9,337.3
		c0.9,1.7,2.1,3.2,3.6,4.5c1.4,1,2,0.5,2.2,0.3c0.7-0.6,0.6-1,0.6-1.1C269,339.9,266.6,338.2,262.9,337.3L262.9,337.3z"></path><linearGradient id="SVGID_00000002367276857262435970000015547940493920761219_" gradientUnits="userSpaceOnUse" x1="346.5238" y1="511.5777" x2="388.4138" y2="397.5677" gradientTransform="matrix(1 0 0 -1 0 502)"><stop offset="0" style="stop-color: rgb(243, 131, 116);"></stop><stop offset="1" style="stop-color: rgb(198, 66, 52);"></stop></linearGradient><path d="M373.8,86.5h25.3c0,0,22.3,1,37.4,31.1
		l34.9,65.3c22.5,31-13.6,100-63.4,67.8c0,0-31.3-29.6-34.2-35c1.1-2.8,12.5-50.8,12.5-50.8l7.9,3.6L375.6,145L373.8,86.5z" style="fill: url(&quot;#SVGID_00000002367276857262435970000015547940493920761219_&quot;);"></path><g id="hand-1"><path class="st5" d="M315.1,150.5c0,0,33.7,0.1,71.2,14.4c-2.5,14.8-5.2,32.2-12.5,50.8c-10.8-6.4-22.7-12.3-30.7-12.4
			L315.1,150.5z"></path><g id="hand"><path class="st5" d="M325.1,152.4c0,0-10.7-1-17.1,4.4c-4.8,4-8.9,12.8-8.7,25c0.2,9.4,1.7,26.7,5.6,32.8s11.2,6.8,13.6,0.9
				c0,0,8.6,13.1,19.1,6.5c0,0,6.4,6.7,13.8,1.9s-0.3-18.5,16.9-18.5c5.1,0,7.2-14.7-3.5-29S325.1,152.4,325.1,152.4z"></path><path class="st5" d="M322.8,152.4c0,0-23.1-8.8-32.1-0.6s-0.8,15.6,2.7,17.6s8.4,4,13.1-0.6S322.8,152.4,322.8,152.4z"></path><path class="st6" d="M300.7,170.1h-0.2c-0.6-0.1-1-0.6-0.9-1.2c0,0,0,0,0,0c0-0.3,1-6.4,8.2-11.6s16.8-5.9,17.2-6
				c0.6-0.1,1.1,0.4,1.2,1c0,0,0,0,0,0c0,0.6-0.4,1.1-1,1.2c-0.1,0-9.5,0.8-16.1,5.6c-6.4,4.6-7.4,10.1-7.4,10.1
				C301.7,169.7,301.2,170.1,300.7,170.1z"></path><path class="st6" d="M318.5,216.5c-0.4,0-0.8-0.3-1-0.7c0-0.1-4.6-12.4-6.4-19.4c-1.2-4.6-0.9-9.5,0.8-14
				c0.2-0.6,0.8-0.9,1.4-0.7c0.6,0.2,0.9,0.8,0.7,1.4c0,0.1,0,0.1-0.1,0.2c-1.5,4-1.7,8.4-0.7,12.6c1.9,6.9,6.3,19.1,6.4,19.2
				c0.2,0.6-0.1,1.2-0.6,1.4C318.8,216.4,318.7,216.5,318.5,216.5z"></path><path class="st6" d="M337.7,222.9c-0.5,0-0.8-0.3-1-0.7c-0.2-0.5-4.3-12.1-3.5-21.3s3.6-13.6,3.7-13.8c0.4-0.5,1-0.6,1.5-0.2
				c0.4,0.3,0.6,0.9,0.3,1.4c0,0-2.6,4.2-3.4,12.8s3.4,20.2,3.4,20.4c0.2,0.6-0.1,1.2-0.7,1.4C337.9,222.9,337.8,222.9,337.7,222.9z
				"></path><path class="st6" d="M356.7,211.1h-0.2c-0.6-0.1-1-0.6-0.9-1.2c0.1-0.3,1.3-8.5,5.2-12.2c0.4-0.4,1.1-0.4,1.5,0.1
				c0.4,0.4,0.4,1.1,0,1.5c-3.4,3.3-4.6,10.9-4.6,11C357.7,210.7,357.3,211.1,356.7,211.1z"></path></g><path class="st6" d="M370.2,192.1c-0.1,0-0.2,0-0.4-0.1c-0.6-0.2-0.9-0.8-0.7-1.4c0.3-0.9,7.4-22.2-14.1-32.4
			c-0.6-0.3-0.8-0.9-0.5-1.5s0.9-0.8,1.5-0.5c23.3,11.1,15.3,34.9,15.2,35.1C371.1,191.8,370.7,192.1,370.2,192.1z"></path></g><path class="st0" d="M358.2,140.2c-1.1,0-2.2-0.1-3.2-0.2c-8.5-1-9.7-6.2-9.8-9.2c0-1.6,0.3-3.2,0.8-4.7
		c-13.2,4.9-27.6,7.6-40.2,4.9c-8.1-1.7-12.5-4.8-13-9c-1.6-13.2,36.5-32.4,40.9-34.6c0.5-0.3,1.2,0,1.5,0.5
		c0.3,0.5,0.1,1.2-0.5,1.4c0,0,0,0,0,0c-11.4,5.7-40.9,22.5-39.7,32.4c0.4,3.2,4.2,5.6,11.3,7.1c12.6,2.7,27.4-0.4,40.8-5.7
		c5.4-12.2,21.7-27.4,35.7-29.2c2.9-0.4,4.7,0.1,5.5,1.4s0.3,2.8-1.1,4.8c-4.4,6.1-20.1,17.5-38.6,24.8c-0.8,1.8-1.2,3.7-1.2,5.7
		c0,4,2.7,6.4,7.8,7c23.2,2.7,75.1-29.6,75.6-29.9c0.5-0.3,1.2-0.2,1.5,0.3c0.3,0.5,0.2,1.2-0.3,1.5l0,0
		C430,111.1,383.2,140.2,358.2,140.2z M384.7,96.2c-0.5,0-1.1,0-1.6,0.1c-12.3,1.6-27.1,14.7-33,25.8c17.1-7.2,31.4-17.5,35.4-23
		c1.1-1.5,1.1-2.3,1-2.5C386.5,96.6,386.2,96.2,384.7,96.2L384.7,96.2z"></path><path class="st0" d="M408.7,255c-0.6,0-1.1-0.5-1.1-1.1c0-0.3,0.1-0.5,0.3-0.7c21-23,22.4-31.7,19.9-34.9c-6.3-8-42,6.5-44.2,7.7
		c-0.5,0.3-1.2,0.1-1.5-0.4c-0.3-0.5-0.2-1.1,0.3-1.5c0.3-0.2,38.7-16.9,46.9-7.4c4.8,5.6-1.7,18-19.8,37.9
		C409.3,254.9,409,255,408.7,255z"></path><circle class="st0" cx="394" cy="129.2" r="7.5"></circle><path class="st2" d="M242,173.6h-0.1c-0.6,0-1-0.6-1-1.2c0,0,0,0,0,0l4.5-40.9c0-0.6,0.6-1,1.2-1c0,0,0,0,0,0
		c0.6,0.1,1.1,0.6,1,1.2l-4.5,40.9C243,173.2,242.6,173.6,242,173.6z"></path><path class="st2" d="M304.8,148.4c-0.5,0-0.9-0.3-1-0.8l-9.4-36.4c-0.1-0.6,0.2-1.2,0.8-1.3c0.6-0.1,1.2,0.2,1.3,0.8l0,0l9.4,36.4
		c0.1,0.6-0.2,1.2-0.8,1.3c0,0,0,0,0,0C305,148.4,304.9,148.4,304.8,148.4z"></path><path class="st2" d="M375.6,146c-0.2,0-0.3,0-0.5-0.1c-0.5-0.3-0.8-0.9-0.5-1.4l15.1-31.7c0.3-0.6,0.9-0.8,1.5-0.5s0.8,0.9,0.5,1.5
		l-15.2,31.7C376.4,145.8,376,146,375.6,146z"></path><path class="st2" d="M445.6,194.2c-0.4,0-0.7-0.2-0.9-0.5c-8.1-13-25.2-11-25.4-11c-0.2,0-0.4,0-0.6-0.1l-25-13.1
		c-0.6-0.2-0.8-0.9-0.6-1.4c0.2-0.6,0.9-0.8,1.4-0.6c0.1,0,0.1,0,0.1,0.1l24.7,12.9c2.6-0.2,19-1,27.2,12c0.3,0.5,0.2,1.2-0.3,1.5
		c0,0,0,0,0,0C446,194.1,445.8,194.2,445.6,194.2z"></path><path class="st2" d="M419.1,182.7c-0.6,0-1.1-0.5-1.1-1.1c0-0.4,0.2-0.8,0.6-1l16.9-8.3c0.6-0.3,1.2-0.1,1.5,0.5s0.1,1.2-0.5,1.5
		l-16.9,8.3C419.4,182.7,419.3,182.8,419.1,182.7z"></path><path class="st2" d="M251.3,115.1c-0.1,0-0.1,0-0.2,0l-55-10.6c-0.6-0.1-1-0.7-0.9-1.3c0.1-0.6,0.7-1,1.3-0.9l0,0l55,10.6
		c0.6,0.1,1,0.6,0.9,1.2C252.4,114.7,251.9,115.1,251.3,115.1L251.3,115.1z"></path><path class="st2" d="M387.2,231.3c-0.1,0-0.1,0-0.2,0c-0.6-0.1-1-0.7-0.9-1.3l11.4-60.3c0.1-0.6,0.7-1,1.3-0.9
		c0.6,0.1,1,0.7,0.9,1.3c0,0,0,0,0,0l-11.4,60.3C388.1,231,387.7,231.3,387.2,231.3z"></path><path class="st6" d="M206.8,71.7c-0.3,0-0.6-0.1-0.8-0.3c-0.4-0.4-0.4-1.1,0-1.5c0,0,0,0,0,0c8.1-7.8,16.4-9.3,22-9.1
		c3.1,0.1,6.2,0.6,9.2,1.7c4.2-13,9.6-14.8,9.8-14.9c0.6-0.1,1.2,0.2,1.3,0.8c0.1,0.5-0.2,1.1-0.7,1.3c-0.1,0-4.9,1.9-8.7,14.5
		c-0.1,0.3-0.3,0.6-0.6,0.7c-0.3,0.1-0.6,0.1-0.9,0c-0.6-0.3-15.5-7.3-29.8,6.6C207.4,71.6,207.1,71.7,206.8,71.7z"></path><path class="st6" d="M233.5,50.8h-0.2c-0.6-0.1-1-0.7-0.9-1.3c0,0,0,0,0,0l5.9-28.5c0.1-0.6,0.6-1,1.2-0.9c0.6,0.1,1,0.6,0.9,1.2
		c0,0,0,0.1,0,0.1l-5.9,28.5C234.5,50.4,234,50.8,233.5,50.8z"></path><path class="st6" d="M208.1,57.5c-0.6,0-1.1-0.5-1.1-1.1c0-0.4,0.2-0.8,0.6-1c0.8-0.4,20.1-8.9,30.7-6.2c0.6,0.2,0.9,0.8,0.7,1.4
		c-0.2,0.5-0.7,0.9-1.3,0.8c-9.9-2.5-29.1,6-29.3,6C208.4,57.5,208.2,57.5,208.1,57.5z"></path><path class="st6" d="M220.2,52.5L220.2,52.5c-0.7,0-1.1-0.6-1.1-1.2l2.3-30c0-0.6,0.5-1.1,1.1-1.1c0.6,0,1.1,0.5,1.1,1.1
		c0,0,0,0.1,0,0.1l-2.3,30C221.3,52.1,220.8,52.5,220.2,52.5z"></path><path class="st6" d="M209.4,56.7c-0.6,0-1-0.4-1.1-1l-1.4-12.6c-0.1-0.6,0.4-1.1,1-1.2c0,0,0,0,0,0c0.6-0.1,1.1,0.3,1.2,0.9
		c0,0,0,0.1,0,0.1l1.4,12.6c0.1,0.6-0.4,1.1-1,1.2c0,0,0,0,0,0L209.4,56.7z"></path><path class="st2" d="M365.2,245.5h-60.1c-0.4,0-0.8-0.3-1-0.7c-10-26.4-23-53.4-27.5-52.7c-0.6,0.1-1.1-0.4-1.2-1
		c0-0.5,0.3-1,0.8-1.2c2.5-0.4,7.2,2,18.6,26.8c5.3,11.6,9.9,23.6,11.1,26.5h59.4c0.6,0,1.1,0.5,1.1,1.1
		C366.3,245,365.8,245.5,365.2,245.5C365.2,245.5,365.2,245.5,365.2,245.5L365.2,245.5z"></path></g><path class="st2" id="line" d="M400.4,491.1H21.7c-0.6,0-1.1-0.5-1.1-1.1c0-0.6,0.5-1.1,1.1-1.1h377.9c2.9-7.9,26.9-70.7,50.5-74.4
	c5.3-0.8,7.6,1.7,8.7,4c2,4.5,0.9,12.2-1.9,20.7c4.2-0.9,8.6-0.7,12.8,0.4c0.6,0.1,1,0.7,0.8,1.3c-0.1,0.6-0.7,1-1.3,0.8
	c0,0-0.1,0-0.1,0c-4.3-1.1-8.7-1.2-13-0.1c-4.8,13.6-13.4,28.2-19.9,33.6c-3.5,2.9-5.8,2.5-7.1,1.6c-3.5-2.5-3.7-7.9-0.6-14.5
	c4.1-8.6,13.9-19,25.9-22.4c3.2-9.2,4.1-16.6,2.4-20.4c-1-2.4-3.1-3.2-6.3-2.7c-23.4,3.7-48.8,73-49,73.8
	C401.3,490.8,400.8,491.1,400.4,491.1z M453.5,442.3c-10.6,3.6-19.3,13-23,20.8c-2.6,5.5-2.7,10-0.1,11.8c1.2,0.8,3.1-0.3,4.5-1.5
	c5-4.1,11.8-14.7,16.7-26.3C452.3,445.5,452.9,443.9,453.5,442.3z"></path></svg>