<svg transform="scale(1)" version="1.1" id="Layer_1" xmlns="http://www.w3.org/2000/svg" xmlns:xlink="http://www.w3.org/1999/xlink" x="0px" y="0px" viewBox="0 0 500 500" xml:space="preserve" class="show_show__wrapper__graphic__5Waiy "><title>React</title><style type="text/css">
	.st0{fill:#FFFFFF;}
	.st1{fill:#231F20;}
	.st2{fill:#D1D3D4;}
	.st3{fill:#460AF9;}
</style><g id="Jetpack"><path class="st0" d="M406.6,279.8l-22.1-9.2l29.6-71.2c2.9-6.9,15.3-17.6,19.6-15.9s5.4,18.2,2.6,25.1L406.6,279.8z"></path><path class="st1" d="M406.6,280.5c-0.1,0-0.2,0-0.3,0l-22.1-9.2c-0.2-0.1-0.3-0.2-0.4-0.4c-0.1-0.2-0.1-0.4,0-0.5l29.6-71.2
		c2.8-6.6,15.5-18.3,20.5-16.2s5.7,19.4,2.9,26l-29.6,71.2C407.2,280.4,406.9,280.5,406.6,280.5z M385.4,270.2l20.8,8.7l29.4-70.6
		c2.9-6.8,1.4-22.6-2.2-24.1s-15.8,8.6-18.7,15.5L385.4,270.2z"></path><rect class="st0" x="393.1" y="265.8" transform="matrix(0.3818 -0.9243 0.9243 0.3818 -9.5415 534.8275)" width="3.8" height="17.5"></rect><path class="st1" d="M402.5,283c-0.1,0-0.2,0-0.3,0l-16.2-6.9c-0.4-0.1-0.5-0.5-0.4-0.9c0,0,0,0,0,0l1.5-3.5
		c0.1-0.2,0.2-0.3,0.4-0.4c0.2-0.1,0.4-0.1,0.5,0l16.3,6.8c0.4,0.1,0.5,0.5,0.4,0.9c0,0,0,0,0,0l-1.5,3.5c-0.1,0.2-0.2,0.3-0.4,0.4
		C402.7,283,402.6,283,402.5,283z M387.2,275.2l15,6.2l0.9-2.2l-15-6.2L387.2,275.2z"></path><rect class="st2" x="386.2" y="224.8" transform="matrix(0.3841 -0.9233 0.9233 0.3841 34.8983 525.8383)" width="50.8" height="24"></rect><path class="st1" d="M412.9,265.5c-0.1,0-0.2,0-0.3-0.1l-22.1-9.2c-0.2-0.1-0.3-0.2-0.4-0.4c-0.1-0.2-0.1-0.4,0-0.5l19.5-46.9
		c0.1-0.2,0.2-0.3,0.4-0.4c0.2-0.1,0.4-0.1,0.5,0l22.1,9.2c0.4,0.2,0.5,0.6,0.4,0.9l-19.5,46.9C413.4,265.4,413.2,265.5,412.9,265.5
		z M391.7,255.2l20.8,8.7l19-45.6l-20.8-8.7L391.7,255.2z"></path><polygon class="st0" points="375.4,268 385.6,268 390,257.4 377.9,262 	"></polygon><path class="st1" d="M375.4,268.7c-0.2,0-0.5-0.1-0.6-0.3c-0.1-0.2-0.2-0.4-0.1-0.6l2.5-6c0.1-0.2,0.2-0.3,0.4-0.4l12.1-4.6
		c0.3-0.1,0.6,0,0.8,0.2c0.2,0.2,0.2,0.5,0.1,0.8l-4.4,10.6c-0.1,0.3-0.4,0.4-0.6,0.4L375.4,268.7L375.4,268.7z M378.4,262.6l-2,4.7
		l8.7,0l3.6-8.6L378.4,262.6z"></path><polygon class="st0" points="414.9,284.5 407.8,277.2 412.2,266.6 417.4,278.5 	"></polygon><path class="st1" d="M414.9,285.2c-0.2,0-0.4-0.1-0.5-0.2l-7.2-7.3c-0.2-0.2-0.3-0.5-0.1-0.8l4.4-10.6c0.1-0.3,0.4-0.4,0.6-0.4l0,0
		c0.3,0,0.5,0.2,0.6,0.4l5.3,11.9c0.1,0.2,0.1,0.4,0,0.5l-2.5,6c-0.1,0.2-0.3,0.4-0.5,0.4L414.9,285.2z M408.6,277l6.1,6.2l2-4.7
		l-4.5-10.1L408.6,277z"></path><polygon class="st0" points="188.7,121.2 322.5,125.2 419.7,217.3 402,259.9 171,163.8 	"></polygon><path class="st1" d="M402,260.6c-0.1,0-0.2,0-0.3-0.1l-230.9-96.1c-0.2-0.1-0.3-0.2-0.4-0.4c-0.1-0.2-0.1-0.4,0-0.5l17.7-42.5
		c0.1-0.3,0.4-0.4,0.7-0.4l133.8,4c0.2,0,0.3,0.1,0.5,0.2l97.1,92.1c0.2,0.2,0.3,0.5,0.2,0.8l-17.7,42.6c-0.1,0.2-0.2,0.3-0.4,0.4
		C402.2,260.6,402.1,260.6,402,260.6z M172,163.4L401.6,259l17.2-41.5l-96.6-91.6l-133.1-4L172,163.4z"></path><path class="st2" d="M297.7,110l53.1,22.1c9.2,3.8,13.5,14.4,9.7,23.6l-26.3,63.1c-3.8,9.2-14.4,13.5-23.6,9.7l-53.1-22.1
		c-9.2-3.8-13.5-14.4-9.7-23.6l26.3-63.1C278,110.6,288.6,106.2,297.7,110z"></path><path class="st1" d="M313.7,228.4c-3.4,0-6.8-0.7-10-2L264,209.8c-13.2-5.5-19.5-20.7-14-33.9c0,0,0,0,0,0l20.7-49.8
		c5.5-13.2,20.6-19.5,33.8-14c0,0,0,0,0.1,0l39.8,16.5c13.2,5.5,19.5,20.7,14,33.9l-20.7,49.8C333.6,222,324.2,228.3,313.7,228.4
		L313.7,228.4z M294.7,111.6c-9.9,0-18.8,6-22.6,15.1l-20.7,49.8c-5.2,12.5,0.7,26.9,13.2,32.1c0,0,0,0,0,0l39.8,16.5l0,0
		c12.5,5.2,26.9-0.7,32.1-13.2c0,0,0,0,0,0l20.7-49.8c5.2-12.5-0.7-26.9-13.3-32.1l-39.8-16.5C301.1,112.2,297.9,111.6,294.7,111.6
		L294.7,111.6z"></path><path class="st0" d="M174.8,183.4l-22.1-9.2l29.6-71.2c2.9-6.9,15.3-17.6,19.6-15.8s5.4,18.2,2.6,25.1L174.8,183.4z"></path><path class="st1" d="M174.8,184.1c-0.1,0-0.2,0-0.3-0.1l-22.1-9.2c-0.2-0.1-0.3-0.2-0.4-0.4c-0.1-0.2-0.1-0.4,0-0.5l29.6-71.2
		c1.4-3.3,5.1-7.8,9.4-11.4c2.3-1.9,7.9-6.1,11-4.8s4.1,8.3,4.4,11.2c0.5,5.7-0.1,11.4-1.4,14.8l-29.6,71.2
		C175.3,183.9,175.1,184.1,174.8,184.1z M153.6,173.8l20.8,8.7l29.4-70.6c1.3-3.1,1.8-8.7,1.4-14.1s-1.9-9.3-3.5-10
		s-5.4,1.1-9.6,4.6s-7.8,7.8-9.1,10.9L153.6,173.8z"></path><rect class="st0" x="161.4" y="171.8" transform="matrix(0.3841 -0.9233 0.9233 0.3841 -66.1887 262.0574)" width="3.8" height="17.6"></rect><path class="st1" d="M170.7,186.5c-0.1,0-0.2,0-0.3-0.1l-16.3-6.8c-0.4-0.1-0.5-0.6-0.4-0.9c0,0,0,0,0,0l1.5-3.5
		c0.1-0.2,0.2-0.3,0.4-0.4c0.2-0.1,0.4-0.1,0.5,0l16.3,6.8c0.2,0.1,0.3,0.2,0.4,0.4c0.1,0.2,0.1,0.4,0,0.5l-1.5,3.5
		c-0.1,0.2-0.2,0.3-0.4,0.4C170.9,186.5,170.8,186.5,170.7,186.5z M155.4,178.7l15,6.2l0.9-2.2l-15-6.2L155.4,178.7z"></path><rect class="st2" x="154.4" y="128.3" transform="matrix(0.3841 -0.9233 0.9233 0.3841 -18.8136 252.4142)" width="50.8" height="24"></rect><path class="st1" d="M181.1,169.1c-0.1,0-0.2,0-0.3-0.1l-22.1-9.2c-0.2-0.1-0.3-0.2-0.4-0.4c-0.1-0.2-0.1-0.4,0-0.5l19.5-46.9
		c0.1-0.2,0.2-0.3,0.4-0.4c0.2-0.1,0.4-0.1,0.5,0l22.1,9.2c0.4,0.1,0.5,0.6,0.4,0.9c0,0,0,0,0,0l-19.5,46.9
		C181.6,168.9,181.4,169.1,181.1,169.1z M159.9,158.8l20.8,8.7l19-45.6l-20.8-8.7L159.9,158.8z"></path><polygon class="st0" points="143.6,171.6 153.8,171.5 158.2,160.9 146.1,165.6 	"></polygon><path class="st1" d="M143.6,172.2c-0.2,0-0.5-0.1-0.6-0.3c-0.1-0.2-0.2-0.4-0.1-0.7l2.5-6c0.1-0.2,0.2-0.3,0.4-0.4l12.2-4.6
		c0.3-0.1,0.6,0,0.8,0.2c0.2,0.2,0.3,0.5,0.1,0.8l-4.4,10.6c-0.1,0.3-0.4,0.4-0.6,0.4L143.6,172.2L143.6,172.2z M146.6,166.1l-2,4.7
		h8.7l3.6-8.6L146.6,166.1z"></path><polygon class="st0" points="183.1,188 175.9,180.7 180.4,170.1 185.6,182 	"></polygon><path class="st1" d="M183.1,188.7c-0.2,0-0.4-0.1-0.5-0.2l-7.2-7.3c-0.2-0.2-0.3-0.5-0.1-0.8l4.4-10.6c0.1-0.3,0.4-0.4,0.6-0.4l0,0
		c0.3,0,0.5,0.2,0.6,0.4l5.2,11.9c0.1,0.2,0.1,0.4,0,0.6l-2.5,6c-0.1,0.2-0.3,0.4-0.5,0.4L183.1,188.7z M176.8,180.5l6.1,6.2l2-4.7
		l-4.5-10.1L176.8,180.5z"></path><path class="st2" d="M262.5,132.1L262.5,132.1l-59.1-2.7c-0.4,0-0.7-0.3-0.7-0.7s0.3-0.7,0.7-0.7l59.1,2.7c0.4,0,0.7,0.3,0.7,0.7
		C263.3,131.8,263,132.1,262.5,132.1L262.5,132.1z"></path><path class="st2" d="M411.8,219.2c-0.2,0-0.4-0.1-0.5-0.2l-50.2-46.6c-0.3-0.3-0.3-0.7,0-1s0.7-0.3,1,0l50.2,46.7
		c0.3,0.3,0.3,0.7,0,1c0,0,0,0,0,0C412.2,219.1,412,219.2,411.8,219.2z"></path></g><g id="Character"><path class="st0" d="M261.2,349.7l-13.1,10.9c0,0,27.7,49.2,31.7,41.9c1.9-3.5-2.5-28-2.5-28"></path><path class="st1" d="M278.6,403.9c-6.8,0-28.6-38.6-31.1-43c-0.2-0.3-0.1-0.7,0.2-0.9l13-10.9c0.3-0.2,0.8-0.1,1,0.2
		c0.2,0.3,0.1,0.6-0.1,0.9L249,360.7c9.2,16.4,25.2,41.7,29.6,41.7c0.1,0,0.4,0,0.5-0.4c1.3-2.4-0.8-17.8-2.6-27.5
		c-0.1-0.4,0.1-0.8,0.5-0.9c0.4-0.1,0.8,0.1,0.9,0.5c0,0,0,0.1,0,0.1c0.5,2.5,4.5,24.8,2.5,28.4
		C280.1,403.4,279.4,403.9,278.6,403.9L278.6,403.9z"></path><path class="st3" d="M351.5,161.9c0,0,77.4,63.6,45.2,68.3c-26.9,3.9-51.3-10.4-51.3-10.4l7.6-16.9c0,0,24.8,11.5,23.9,6.4
		s-34.5-25.2-34.5-25.2L351.5,161.9z"></path><path class="st3" d="M282.5,136.3c0,0-77.9-8.6-80,3.3s31.5,38.2,32.4,36.5s18.7-12.1,18.7-12.1L238,151.6l37.3,8.4L282.5,136.3z"></path><path class="st0" d="M349.2,119.2c2.2-4.2,0.7-9.5-1.9-13.5c-6.6-10.2-18.4-15.8-30.5-14.4c-5.4,0.7-11,3.1-13.8,7.8
		c3-0.6,6-0.7,9-0.3c-6.7,2.9-11.8,8.5-14.1,15.4c-0.3,0.7-0.3,1.5-0.1,2.2c0.5,1.2,2.3,1.2,3.5,0.9s2.7-0.9,3.9-0.3
		c-3.8,1.5-6.9,4.5-8.5,8.3c-0.8,1.6-1.1,3.5-0.7,5.3c0.4,1.3,1.1,2.4,2.1,3.3c2.3,2.2,5.4,3.3,8.5,4.3c5.5,1.8,11.2,3.3,16.9,2.6
		c6.9-0.9,12.5-5,17.5-9.5c2.3-2.1,4.5-2.1,7-3.7c1.5-1,2.4-2.5,2.6-4.3C350.3,121.9,349.8,120.5,349.2,119.2z"></path><path class="st1" d="M320.6,141.6c-4.9,0-9.6-1.4-14.1-2.8c-3.2-1.1-6.4-2.2-8.7-4.4c-1.1-1-1.9-2.2-2.3-3.6c-0.4-2-0.2-4,0.7-5.8
		c1.3-3,3.4-5.5,6.2-7.2l-0.2,0.1l-0.5,0.1c-1.5,0.4-3.6,0.4-4.4-1.2c-0.3-0.9-0.3-1.8,0.1-2.7c2.1-6.2,6.4-11.5,12.1-14.7
		c-2.1-0.1-4.2,0.1-6.2,0.5c-0.3,0.1-0.5-0.1-0.7-0.3c-0.1-0.2-0.1-0.5,0-0.8c2.6-4.3,7.8-7.3,14.3-8.2c12.3-1.5,24.4,4.3,31.2,14.7
		c1.5,2.4,4.7,8.5,2,13.9c0.6,1.3,1,2.7,1.3,4.1c-0.2,2-1.3,3.7-2.9,4.8c-1,0.6-2,1.1-3.1,1.5c-1.4,0.5-2.7,1.2-3.8,2.1
		c-4.4,4-10.5,8.7-17.9,9.6C322.6,141.5,321.6,141.6,320.6,141.6z M304.1,116c0.5,0,1.1,0.1,1.5,0.4c0.3,0.2,0.5,0.6,0.3,0.9
		c-0.1,0.1-0.2,0.3-0.4,0.3c-3.6,1.5-6.6,4.3-8.1,7.9c-0.8,1.5-1,3.2-0.6,4.9c0.4,1.1,1,2.2,1.9,2.9c2.1,2.1,5.1,3.1,8.2,4.1
		c5.3,1.7,10.9,3.3,16.5,2.6c7-0.9,12.6-5.2,17.1-9.3c1.2-1.1,2.7-1.9,4.2-2.4c1-0.4,1.9-0.8,2.8-1.3c1.3-0.8,2.1-2.2,2.3-3.7
		c-0.3-1.3-0.8-2.5-1.3-3.7c-0.1-0.2-0.1-0.5,0-0.7c2.6-4.8-0.4-10.6-1.8-12.8c-6.5-9.9-18-15.4-29.8-14.1
		c-5.4,0.7-9.8,2.9-12.4,6.2c2.5-0.3,5-0.4,7.5-0.1c0.3,0,0.6,0.3,0.6,0.6c0,0.3-0.1,0.6-0.4,0.7c-6.5,2.8-11.5,8.2-13.7,14.9
		c-0.2,0.5-0.3,1.1-0.1,1.7c0.4,0.8,1.7,0.8,2.7,0.5l0.5-0.1C302.5,116.2,303.3,116,304.1,116z"></path><path class="st1" d="M303,241.6c0,0,25.3,56,21,67s-46.8,65.9-46.8,65.9l-22.6-19.1c0,0,39.7-52.4,38.1-56s-21.3-41.5-21.3-41.5
		L164.5,374.4l-10.8-28L240.4,222L303,241.6z"></path><path class="st1" d="M277.2,375.2c-0.2,0-0.3-0.1-0.5-0.2l-22.6-19.1c-0.3-0.2-0.4-0.7-0.1-1c0,0,0,0,0,0
		c15-19.7,38.5-52.2,38-55.4c-1.5-3.2-17.8-34.9-20.8-40.6L165.1,374.8c-0.2,0.2-0.4,0.3-0.6,0.2c-0.2,0-0.4-0.2-0.5-0.4l-10.8-28
		c-0.1-0.2-0.1-0.5,0.1-0.6l86.7-124.4c0.2-0.2,0.5-0.4,0.8-0.3l62.6,19.6c0.2,0.1,0.3,0.2,0.4,0.4c1,2.3,25.4,56.4,21,67.5
		c-4.3,11-45.2,63.9-46.9,66.1C277.6,375,277.5,375.1,277.2,375.2L277.2,375.2z M255.6,355.2l21.5,18.2c4.6-5.9,42.3-55,46.3-65.2
		s-18.9-61.8-20.9-66.1l-61.8-19.3l-86.2,123.6l10.2,26.5l106.2-115.7c0.2-0.2,0.4-0.2,0.6-0.2c0.2,0,0.4,0.2,0.5,0.4
		c0.8,1.5,19.7,38,21.3,41.6S265.4,342.3,255.6,355.2L255.6,355.2z"></path><path class="st0" d="M303,241.6L240.4,222l58.7-76.7c0,0,29.2,14.1,32.8,19.8S303,241.6,303,241.6z"></path><path class="st1" d="M303,242.3c-0.1,0-0.1,0-0.2,0l-62.6-19.6c-0.2-0.1-0.4-0.2-0.5-0.4c-0.1-0.2,0-0.5,0.1-0.6l58.7-76.7
		c0.2-0.3,0.6-0.4,0.9-0.2c1.2,0.6,29.5,14.3,33.1,20s-25.5,69.9-28.8,77.2C303.5,242.1,303.3,242.3,303,242.3z M241.6,221.6
		l61.1,19.1c12.5-27.3,31.1-71.4,28.7-75.3c-3.2-5-28.1-17.4-32-19.3L241.6,221.6z"></path><path class="st3" d="M314.9,144.6c-1.1-0.1-6.9,12.9-7.4,14c-5.6,10.4-10.8,21.3-16.7,31.4c-11.6,20.1-36.9,32.2-56.5,42.6
		c-2.6,1.4-5.5,2.8-8.4,2.3c-2.1-0.6-3.9-1.7-5.4-3.2c-6.7-6-12.1-13.3-15.8-21.5c-0.6-1.1-0.9-2.2-0.8-3.4c0.3-2,1.8-3.6,3.8-4.1
		c10.4-1.8,25.7-3,34.1-8.4c14-8.9,30.1-35.1,40.8-58.1C295.5,139.4,306.8,142.7,314.9,144.6z"></path><path class="st3" d="M351.5,161.9c0.3,0.2-12.6,31.1-13.2,32.6c-4.8,11.3-21.7,32-31.8,38.5c6.5-11.6,8.4-29.9,8.9-43
		c0.2-6.4,5.5-17.5,7.9-23.4c0.2-0.6,2.3-18.9,2-19.1C325.2,147.5,343.4,155.4,351.5,161.9z"></path><path class="st0" d="M329.3,149.1l-3.6,12.4c0,0-3.3,5.2-11,0.8s-7.3-10.4-7.3-10.4l7.6-22.8c0,0,6.2-2.1,8.2-15.9
		c0,0,11.6,7.6,24.4,9.5c0,0-4.1,15.1-6.9,21.2S329.3,149.1,329.3,149.1z"></path><path class="st1" d="M320.4,164.7c-2.1-0.1-4.2-0.7-6-1.8c-8-4.5-7.7-10.8-7.7-11c0-0.1,0-0.1,0-0.2l7.6-22.8
		c0.1-0.2,0.2-0.4,0.4-0.4c0,0,5.8-2.2,7.7-15.3c0-0.2,0.2-0.4,0.4-0.5c0.2-0.1,0.5-0.1,0.7,0c0.1,0.1,11.7,7.5,24.1,9.4
		c0.2,0,0.4,0.1,0.5,0.3c0.1,0.2,0.1,0.4,0.1,0.6c-0.2,0.6-4.1,15.2-7,21.3c-2.6,5.6-9.4,5.7-11.5,5.6l-3.5,11.8
		c0,0.1,0,0.1-0.1,0.2C324.9,163.7,322.7,164.8,320.4,164.7z M308.1,152c0,0.7,0.1,5.8,7,9.6c6.6,3.7,9.5,0.1,10-0.5l3.6-12.2
		c0.1-0.3,0.4-0.5,0.8-0.5c0.1,0,8.1,0.8,10.6-4.8c2.4-5.2,5.8-17.2,6.7-20.4c-10.4-1.8-20-7.2-23-8.9c-1.9,11.5-6.8,14.6-8.1,15.2
		L308.1,152z M325.7,161.4L325.7,161.4z"></path><path class="st0" d="M319.1,129.6c0-1.2-0.3-2.4-1-3.4c-0.7-0.9-1.5-1.7-2.5-2.3c-0.5-0.4-1-0.7-1.6-0.8c-0.4,0-0.9,0-1.3,0.1
		c-1,0.2-1.9,0.7-2.6,1.5c-0.4,0.7-0.7,1.5-0.8,2.3c-0.2,0.9-0.2,1.8-0.1,2.7c0.5,3.7,3.9,6.4,7.6,5.9c0,0,0.1,0,0.1,0"></path><path class="st1" d="M316,136.4c-3.8,0-7-2.8-7.5-6.6c-0.1-1-0.1-1.9,0.1-2.9c0.1-0.9,0.4-1.9,0.9-2.7c0.8-0.9,1.8-1.6,3-1.8
		c0.5-0.1,1-0.2,1.6-0.1c0.7,0.2,1.4,0.5,2,0.9c1,0.7,1.9,1.5,2.6,2.4c0.8,1.1,1.2,2.5,1.1,3.8c0,0.4-0.3,0.7-0.7,0.7
		c-0.4,0-0.7-0.3-0.7-0.7c0-1.1-0.3-2.1-0.9-3c-0.6-0.8-1.4-1.5-2.3-2.1c-0.4-0.3-0.9-0.6-1.4-0.7c-0.3,0-0.7,0-1,0.1
		c-0.9,0.1-1.6,0.6-2.2,1.2c-0.4,0.6-0.6,1.3-0.6,2c-0.1,0.8-0.2,1.7-0.1,2.5c0.4,3.3,3.5,5.7,6.8,5.3c0,0,0.1,0,0.1,0
		c0.4-0.1,0.7,0.2,0.8,0.6c0.1,0.4-0.2,0.7-0.6,0.8c0,0,0,0,0,0C316.8,136.4,316.4,136.4,316,136.4z"></path><path class="st0" d="M334.6,128.5c0,0,2.8,7.6,1.5,8.5s-4-0.6-4-0.6"></path><path class="st1" d="M334.9,138c-1.1-0.1-2.3-0.4-3.3-0.9c-0.4-0.2-0.5-0.6-0.4-0.9c0.2-0.4,0.6-0.5,0.9-0.4c0,0,0.1,0,0.1,0.1
		c0.8,0.4,2.6,1.1,3.3,0.6c0.4-0.5-0.4-4.1-1.7-7.7c-0.1-0.4,0.1-0.8,0.4-0.9c0.4-0.1,0.8,0.1,0.9,0.4c1.4,3.7,2.6,8.3,1.2,9.3
		C336,137.9,335.4,138,334.9,138z"></path><path class="st1" d="M329.3,149.1c0,0-6.4-2-8.8-4.7c0,0,0.1,8.1,6.5,12.1L329.3,149.1z"></path><path class="st1" d="M327,157.2c-0.1,0-0.3,0-0.4-0.1c-6.6-4.2-6.8-12.3-6.8-12.7c0-0.3,0.2-0.6,0.4-0.7c0.3-0.1,0.6,0,0.8,0.2
		c2.2,2.5,8.4,4.5,8.5,4.5c0.4,0.1,0.6,0.5,0.5,0.9l-2.3,7.4c-0.1,0.2-0.2,0.4-0.4,0.4C327.2,157.2,327.1,157.2,327,157.2z
		 M321.4,146.1c0.5,3.6,2.4,6.9,5.2,9.2l1.8-5.8C326,148.7,323.6,147.6,321.4,146.1L321.4,146.1z"></path><path class="st0" d="M326.7,123.4c0,0,3.3-2.4,4.9,1.9"></path><path class="st1" d="M331.6,126c-0.3,0-0.6-0.2-0.6-0.5c-0.2-0.9-0.8-1.6-1.6-2c-0.8-0.1-1.5,0-2.2,0.4c-0.3,0.2-0.8,0.1-1-0.2
		c-0.2-0.3-0.1-0.7,0.2-0.9c1-0.7,2.2-0.9,3.4-0.7c1.3,0.5,2.2,1.6,2.5,2.9c0.1,0.4-0.1,0.8-0.4,0.9c0,0,0,0,0,0
		C331.7,126,331.7,126,331.6,126z"></path><path class="st0" d="M337.7,128.7c0,0,3-3.6,4.9,0.7"></path><path class="st1" d="M342.6,130.1c-0.3,0-0.5-0.2-0.6-0.4c-0.3-0.7-0.8-1.6-1.5-1.7s-1.8,0.8-2.1,1.2c-0.2,0.3-0.7,0.3-1,0.1
		c0,0,0,0,0,0c-0.3-0.3-0.3-0.7-0.1-1c0.2-0.2,1.6-1.9,3.4-1.7c1.1,0.2,2,1,2.6,2.5c0.1,0.4,0,0.8-0.4,0.9
		C342.8,130,342.7,130.1,342.6,130.1z"></path><path class="st0" d="M338.7,140c0,0-14,8.2-14-6.4"></path><path class="st1" d="M331.1,143c-1.2,0-2.4-0.3-3.5-0.9c-2.4-1.4-3.6-4.2-3.6-8.5c0-0.4,0.3-0.7,0.7-0.7l0,0c0.4,0,0.7,0.3,0.7,0.7
		c0,0,0,0,0,0c0,3.8,1,6.2,2.9,7.3c3.7,2.1,10-1.5,10.1-1.5c0.3-0.2,0.8,0,0.9,0.3c0.1,0.3,0.1,0.7-0.2,0.9
		C336.6,142,333.9,142.8,331.1,143z"></path><path class="st1" d="M315.9,165.3l-6.6,1.9l2.2,4.3c0,0-16.8,21.5-27.3,22.4c-6.1,0.4-12.1-1-17.4-4.1l-11.2,5.2
		c0,0,10.2,8.7,10.8,9.4s17.5,5.6,29-7.1c6.8-7.4,12.9-15.5,18.3-24l3.9-1.7L315.9,165.3z"></path><path class="st1" d="M287.8,188.8c-0.3,0-0.6-0.3-0.7-0.6l-3.1-20.8c-0.1-0.3,0.2-0.7,0.5-0.8l10.5-3.4l-7.3-6.7
		c-0.2-0.2-0.3-0.4-0.2-0.7c0.1-0.2,0.2-0.4,0.5-0.5l15.8-5.4c0.4-0.1,0.8,0.1,0.9,0.4c0,0,0,0,0,0c0.1,0.4-0.1,0.8-0.4,0.9
		l-14.6,5.1l7.3,6.7c0.2,0.2,0.3,0.4,0.2,0.7c-0.1,0.2-0.2,0.4-0.5,0.5l-11,3.6l3,20.2c0.1,0.4-0.2,0.7-0.6,0.8L287.8,188.8z"></path><path class="st1" d="M249.7,211.3h-0.1c-0.1,0-14.5-2.9-22.3-4.7c-0.4-0.1-0.6-0.5-0.5-0.8s0.5-0.6,0.8-0.5l0,0
		c7.8,1.8,22.1,4.6,22.3,4.7c0.4,0.1,0.6,0.5,0.5,0.8C250.3,211.1,250,211.3,249.7,211.3L249.7,211.3z"></path><path class="st1" d="M322,190.4c-0.4,0-0.7-0.3-0.7-0.7c0-0.2,0.1-0.4,0.2-0.5l15.8-14.4l-7-6.2c-0.2-0.1-0.3-0.4-0.2-0.6
		c0-0.2,0.1-0.4,0.3-0.5l9.9-5.7l-6.4-5.2c-0.3-0.2-0.3-0.7-0.1-1c0.2-0.3,0.7-0.3,1-0.1l7.2,5.9c0.2,0.1,0.3,0.4,0.3,0.6
		c0,0.2-0.2,0.4-0.4,0.6l-9.9,5.7l6.9,6.1c0.1,0.1,0.2,0.3,0.2,0.5c0,0.2-0.1,0.4-0.2,0.5l-16.3,14.9
		C322.4,190.3,322.2,190.4,322,190.4z"></path><path class="st2" d="M284.5,229.5c-0.4,0-0.7-0.3-0.7-0.7c0-0.1,0-0.2,0.1-0.3c0.1-0.3,15.5-28,23-43c0.2-0.3,0.6-0.5,0.9-0.3
		c0.3,0.2,0.5,0.6,0.3,0.9c-7.5,15-22.9,42.7-23,43C285,229.4,284.7,229.5,284.5,229.5z"></path><path class="st0" d="M153.8,346.4l-12.4,15.4c0,0,8.7,40.7,14.2,36.1s9-23.5,9-23.5L153.8,346.4z"></path><path class="st1" d="M154.6,398.9c-0.2,0-0.5,0-0.7-0.1c-5.7-2-12.5-33.3-13.3-36.9c-0.1-0.2,0-0.4,0.1-0.6l12.4-15.4
		c0.2-0.2,0.4-0.3,0.6-0.2c0.3,0,0.5,0.2,0.6,0.4l10.8,28c0,0.1,0,0.3,0,0.4c-0.1,0.8-3.7,19.2-9.3,23.9
		C155.5,398.7,155.1,398.9,154.6,398.9z M142.1,361.9c2.8,13.2,8.6,34.3,12.3,35.5c0.2,0.1,0.5,0,0.7-0.1c4.9-4.1,8.4-20.9,8.8-22.9
		l-10.3-26.7L142.1,361.9z"></path><path class="st1" d="M290.4,133.2c0,0-10.6,36-20.4,45.5s-30.8,21.2-28.2,15.6s14.8-10,23.4-25.8s14.2-37.8,14.2-37.8
		s-0.8-3.9,5-2.6S290.4,133.2,290.4,133.2z"></path><path class="st1" d="M324.6,215.2c6.9-6.7,12.8-14.4,17.6-22.7c6.1-10.7,10.8-25.6,12.5-31.3c0.4-1.4-0.2-2.8-1.5-3.5l-1.9-1
		c-1.5-0.7-3.3-0.1-4,1.4c-0.1,0.2-0.1,0.3-0.2,0.5C344.4,168.3,336.1,196.1,324.6,215.2z"></path><path class="st0" d="M248.2,165.5c1,1.1,10.2,7,10.2,7s4.1-5.7,8.1-6.6l-2.6,4.6l12.9,0.2c0,0,0,12.2-11.3,14.6s-30.5-9.3-30.5-9.3
		"></path><path class="st1" d="M262.1,186.4c-11.4,0-26.8-9.3-27.5-9.7c-0.3-0.2-0.4-0.7-0.2-1c0.2-0.3,0.6-0.4,0.9-0.2
		c0.2,0.1,19.2,11.6,30.1,9.2c9.3-2,10.5-10.7,10.7-13.3l-12.2-0.2c-0.2,0-0.5-0.1-0.6-0.4c-0.1-0.2-0.1-0.5,0-0.7l1.6-2.9
		c-3.1,1.7-6,5.6-6,5.6c-0.2,0.3-0.6,0.4-1,0.2c-1-0.6-9.4-6-10.4-7.1c-0.3-0.3-0.2-0.7,0-1c0,0,0,0,0,0c0.3-0.3,0.7-0.2,1,0
		c0,0,0,0,0,0c0.6,0.7,6,4.2,9.5,6.5c1.1-1.5,4.6-5.5,8.1-6.3c0.4-0.1,0.7,0.2,0.8,0.5c0,0.2,0,0.3-0.1,0.5l-2,3.5l11.7,0.2
		c0.4,0,0.7,0.3,0.7,0.7c0,0.1-0.1,12.8-11.9,15.3C264.5,186.3,263.3,186.4,262.1,186.4z"></path><path class="st0" d="M352.6,205.1l-8.4-5.1l-2-7.5l-3.9,4.4c0,0-5.5-4.6-9.1-2.9c-2.9,1.3-4.1,8.6-1.4,12.2s18.9,12.2,18.9,12.2"></path><path class="st1" d="M346.7,219.1c-0.1,0-0.2,0-0.3-0.1c-0.7-0.4-16.4-8.7-19.2-12.4c-1.9-2.5-1.9-6.3-1.3-8.7
		c0.5-2.2,1.6-3.9,3-4.5c3.3-1.5,7.8,1.5,9.4,2.6l3.5-3.9c0.3-0.3,0.7-0.3,1-0.1c0.1,0.1,0.2,0.2,0.2,0.3l1.9,7.2l8.1,5
		c0.3,0.2,0.5,0.6,0.3,1c0,0,0,0,0,0c-0.2,0.3-0.6,0.5-0.9,0.3c0,0,0,0-0.1,0l-8.4-5.1c-0.2-0.1-0.3-0.2-0.3-0.4l-1.6-6.3l-3,3.4
		c-0.2,0.3-0.7,0.3-1,0.1c0,0,0,0,0,0c-1.5-1.2-5.8-4-8.4-2.8c-0.9,0.4-1.7,1.8-2.2,3.6c-0.6,2.3-0.5,5.6,1,7.6
		c2.6,3.4,18.5,11.9,18.7,12c0.4,0.2,0.5,0.6,0.3,1c0,0,0,0,0,0C347.2,219,346.9,219.1,346.7,219.1z"></path></g><g id="Thrust_lines"><path class="st2" d="M62.2,326.3c-0.1,0-0.3,0-0.4-0.1c-0.3-0.2-0.4-0.7-0.2-1l87.1-137.8c0.2-0.3,0.7-0.4,1-0.2c0,0,0,0,0,0
		c0.3,0.2,0.4,0.7,0.2,1L62.8,325.9C62.6,326.1,62.4,326.3,62.2,326.3z"></path><path class="st2" d="M118.5,318c-0.4,0-0.7-0.3-0.7-0.7c0-0.1,0-0.2,0.1-0.3l47.1-122.7c0.1-0.4,0.6-0.6,0.9-0.4c0,0,0,0,0,0
		c0.4,0.1,0.6,0.6,0.4,0.9l-47.1,122.7C119.1,317.8,118.8,318,118.5,318z"></path><path class="st2" d="M305.6,413.1c-0.1,0-0.3,0-0.4-0.1c-0.3-0.2-0.4-0.7-0.2-1l76.6-126.3c0.2-0.4,0.6-0.5,1-0.3
		c0.4,0.2,0.5,0.6,0.3,1c0,0,0,0.1-0.1,0.1l-76.6,126.3C306.1,413,305.9,413.1,305.6,413.1z"></path><path class="st2" d="M362.9,408.4h-0.2c-0.4-0.1-0.6-0.5-0.5-0.9c3.6-12,35.7-116.7,36.2-117.9c0.2-0.4,0.6-0.5,1-0.3c0,0,0,0,0,0
		c0.3,0.2,0.5,0.6,0.3,0.9c-0.7,1.8-24,77.7-36.2,117.7C363.5,408.2,363.2,408.4,362.9,408.4z"></path><path class="st2" d="M345.2,401.9c-0.1,0-0.2,0-0.3-0.1c-0.4-0.1-0.5-0.6-0.4-0.9c0,0,0,0,0,0l27-67.2c0.1-0.4,0.6-0.5,0.9-0.4
		s0.5,0.6,0.4,0.9l-27,67.2C345.7,401.7,345.5,401.9,345.2,401.9z"></path><path class="st2" d="M102,295c-0.4,0-0.7-0.3-0.7-0.7c0-0.1,0-0.3,0.1-0.4l33.5-60c0.2-0.4,0.6-0.5,1-0.3c0,0,0,0,0,0
		c0.4,0.2,0.5,0.6,0.3,1c0,0,0,0,0,0l-33.5,60C102.5,294.9,102.3,295,102,295z"></path><path class="st2" d="M95.7,340.2c-0.1,0-0.2,0-0.3-0.1c-0.4-0.2-0.5-0.6-0.4-0.9l8.8-21c0.2-0.4,0.6-0.5,1-0.4
		c0.3,0.2,0.5,0.6,0.4,0.9l-8.8,21C96.2,340,96,340.2,95.7,340.2z"></path><path class="st2" d="M320.9,413.8c-0.4,0-0.7-0.3-0.7-0.7c0-0.1,0-0.2,0.1-0.3l14.4-26.1c0.2-0.3,0.6-0.5,1-0.3s0.5,0.6,0.3,1l0,0
		l-14.4,26.1C321.4,413.7,321.2,413.8,320.9,413.8z"></path></g></svg>