<svg transform="scale(1)" version="1.1" id="Layer_1" xmlns="http://www.w3.org/2000/svg" xmlns:xlink="http://www.w3.org/1999/xlink" x="0px" y="0px" viewBox="0 0 500 500" xml:space="preserve" class="show_show__wrapper__graphic__5Waiy "><title>React</title><style type="text/css">
	.st0{fill:#000111;}
	.st1{fill:url(#SVGID_1_);}
	.st2{fill:#FEF1E0;}
	.st3{fill:#FED490;}
	.st4{fill:#FFC2A7;}
	.st5{fill:#D88260;}
	.st6{fill:#FFFFFF;}
	.st7{fill:#005045;}
	.st8{fill:url(#SVGID_00000180361824018120317530000014996927641766190242_);}
	.st9{fill:url(#SVGID_00000019637892742326931310000018215584859143733161_);}
	.st10{fill:url(#SVGID_00000067237682699032758360000011256122156225300633_);}
	.st11{fill:url(#SVGID_00000085209223698100347970000010732896921312545701_);}
	.st12{fill:none;}
	.st13{fill:url(#SVGID_00000093893289718505883210000015236314435605602731_);}
	.st14{fill:url(#SVGID_00000154401022575313779850000017906553496191790466_);}
</style><g id="bubble_text"><path class="st0" d="M386,189.4c-0.9,0-1.9-0.3-2.7-0.8c-1.7-1.1-2.6-3.1-2.2-5.1c0.1-0.7-0.1-1.4-0.5-2c-0.5-0.6-1.2-0.9-1.9-0.9
		h-8.9c-2.7,0-4.9-2.2-4.9-4.9v0v-29.9c0-2.7,2.2-4.9,4.9-4.9h65.9c2.7,0,4.9,2.2,4.9,4.9v29.8c0,2.7-2.2,4.9-4.9,4.9l0,0h-35
		c-0.5,0-1,0.2-1.4,0.5l-10.5,7.4C388,189.1,387,189.4,386,189.4z M369.8,143.4c-1.4,0-2.5,1.1-2.5,2.5v29.8c0,1.4,1.1,2.5,2.5,2.5
		h8.9c2.7,0,4.9,2.2,5,4.9c0,0.3,0,0.6-0.1,0.9c-0.3,1.3,0.6,2.6,2,2.9c0.7,0.1,1.4,0,1.9-0.4l10.5-7.5c0.8-0.6,1.8-0.9,2.9-0.9h35
		c1.4,0,2.5-1.1,2.5-2.5l0,0v-29.8c0-1.4-1.1-2.5-2.5-2.5l0,0L369.8,143.4z"></path><linearGradient id="SVGID_1_" gradientUnits="userSpaceOnUse" x1="817.508" y1="380.2189" x2="850.248" y2="322.0288" gradientTransform="matrix(1 0 0 -1 -436.87 502)"><stop offset="0" style="stop-color: rgb(243, 131, 116);"></stop><stop offset="1" style="stop-color: rgb(198, 66, 52);"></stop></linearGradient><path class="st1" d="M432.7,137.2h-65.8c-2,0-3.7,1.7-3.7,3.7v29.8c0,2,1.7,3.7,3.7,3.7l0,0h8.9c2,0,3.7,1.7,3.7,3.7
		c0,0.2,0,0.5-0.1,0.7l0,0c-0.4,2,0.9,3.9,2.9,4.3c1,0.2,2,0,2.9-0.6l10.5-7.4c0.6-0.4,1.4-0.7,2.1-0.7h34.9c2,0,3.7-1.7,3.7-3.7
		c0,0,0,0,0,0v-29.8C436.4,138.9,434.8,137.2,432.7,137.2C432.7,137.2,432.7,137.2,432.7,137.2z"></path><circle class="st2" cx="376.7" cy="155.7" r="5.1"></circle><circle class="st2" cx="392.7" cy="155.7" r="5.1"></circle><circle class="st2" cx="408.6" cy="155.7" r="5.1"></circle><circle class="st2" cx="424.5" cy="155.7" r="5.1"></circle></g><g id="light"><path class="st3" d="M99.7,210.6c-9.7,0.7-17.4,8.3-18.4,17.9c-1-9.6-8.7-17.2-18.4-17.9c9.7-0.7,17.4-8.3,18.4-17.9
		C82.3,202.3,90,209.9,99.7,210.6z"></path><path class="st3" d="M65.5,188c-5.2,0.4-9.3,4.4-9.8,9.6c-0.5-5.2-4.7-9.2-9.8-9.6c5.2-0.4,9.3-4.4,9.8-9.6
		C56.2,183.6,60.4,187.6,65.5,188z"></path></g><g id="character"><path class="st4" d="M200.3,262.4l-30.6,50.4l-53,25l8.3,19.6c6.5,15.2,21.4,25.1,37.9,25.1h68.1l44.1-89.2l-7.4-26.2L200.3,262.4z
		"></path><path class="st0" d="M209.9,384.4h152.4c0,0,6.6-51.9-32-72.5C310.5,301.4,248.3,306.3,209.9,384.4z"></path><path class="st4" d="M465.1,309.6l-13.7,34c-10,24.8-34,41-60.6,41h-14.6c-22.1,0-40-17.9-40.1-40l-0.1-70.2l40.8,2.3L465.1,309.6z
		"></path><path class="st0" d="M350.9,213.5c-0.1,0-0.3,0-0.4,0c-13.8-3.3-19.1-21.7-19.3-22.5c-0.3-1,0.3-2,1.3-2.3c1-0.3,2,0.3,2.3,1.3
		c0,0.2,4.9,17.1,16.6,19.9c1,0.2,1.6,1.2,1.4,2.2C352.4,213,351.7,213.5,350.9,213.5L350.9,213.5z"></path><path class="st0" d="M258.7,182.6c-2.7,0-5.4-0.8-7.7-2.3c-0.9-0.5-1.1-1.6-0.6-2.5s1.6-1.1,2.5-0.6c8.6,5.1,16-1.8,26.4-13.1
		l0.3-0.3c12-13,19.8-13.5,20.1-13.5c1-0.1,1.8,0.7,1.9,1.7c0,0,0,0,0,0.1c0,1-0.7,1.8-1.7,1.9c-0.2,0-6.9,0.8-17.6,12.4l-0.3,0.3
		C274.7,174.5,267.2,182.6,258.7,182.6z"></path><path class="st0" d="M342.5,174.6c0.3-0.1,0.5-0.3,0.7-0.6l9.9-3.7c0,0-5.2-12.5-24.9-20.6c-44.7-18.5-54.7,42.8-74.1,35.6
		c0,0,0.4,27.3,33.9,36.2s57.8-5.1,57.8-5.1S324.5,188.7,342.5,174.6z"></path><path class="st4" d="M308.2,208.7c-7.1-1.8-13.3-6.2-17.2-12.4c6.5-1.3,4.2-13,4.2-13c-7.2-2.5-3.5-17.6,4.5-16.3
		s6.3,10.5,6.3,10.5c1.4,5,14.6-11,17.6-11.9c1.4-0.4,3.2,0.1,0.8,10.4c5,3.2,17.5-0.1,19-2c3.7,15.5-5.9,31-21.3,34.7
		C317.4,209.9,312.7,209.9,308.2,208.7L308.2,208.7z"></path><ellipse class="st4" transform="matrix(0.4908 -0.8713 0.8713 0.4908 3.6048 397.8872)" cx="342.2" cy="195.9" rx="4" ry="9"></ellipse><path class="st5" d="M299,179.2c-1.2-0.3-1.9-1.5-1.5-2.7c0-0.1,0-0.1,0.1-0.2c0.1-0.3,0.2-0.5,0.4-0.7c0.2-0.2,0.5-0.4,0.7-0.5
		c0.6-0.3,1.4-0.2,2,0.1c0.6,0.3,1.3,0.1,1.7-0.5c0-0.1,0.1-0.2,0.1-0.3c0.7-2.1-0.5-4.4-2.6-5c-1.6-0.5-3.3,0-4.4,1.3
		c-0.5,0.5-0.4,1.3,0,1.7c0.5,0.5,1.2,0.5,1.7,0c0.3-0.3,0.6-0.5,1-0.6c0.3-0.1-0.1,0,0.2,0c0.1,0,0.3,0,0.4,0c-0.2,0,0.2,0,0.2,0.1
		s0.3,0.1,0.2,0.1c0.7,0.4,1,1.1,0.9,1.9l1.8-0.7c-2.2-1.3-5.1-0.5-6.3,1.8s-0.5,5.1,1.8,6.3c0.3,0.2,0.7,0.3,1,0.4
		c0.7,0.2,1.3-0.3,1.5-0.9C300,180.1,299.6,179.4,299,179.2L299,179.2z"></path><ellipse class="st6" transform="matrix(2.998651e-02 -0.9996 0.9996 2.998651e-02 136.8346 512.6004)" cx="332.5" cy="185.8" rx="4.2" ry="3.6"></ellipse><ellipse class="st7" transform="matrix(3.839736e-03 -1 1 3.839736e-03 146.452 519.6715)" cx="334.1" cy="186.3" rx="2.8" ry="2.4"></ellipse><path class="st5" d="M322,202.1c-2.1,0.1-4.1-0.5-5.8-1.7c-2-1.6-3.2-4-3.3-6.6c0-0.7,0.5-1.2,1.2-1.2c0.7,0,1.2,0.5,1.2,1.2
		c0.1,1.8,1,3.5,2.4,4.7c1.9,1.4,4.8,1.6,8.6,0.6c0.7-0.2,1.3,0.2,1.5,0.9c0.2,0.7-0.2,1.3-0.9,1.5
		C325.4,201.8,323.7,202.1,322,202.1z"></path><path class="st5" d="M312.2,195.1c-1.1,0-2.2-0.2-3.3-0.6c-0.6-0.3-0.9-1-0.6-1.6c0.2-0.6,0.9-0.9,1.5-0.7c2.7,1,5.8,0.2,7.7-1.9
		c0.4-0.5,1.2-0.6,1.7-0.2c0.5,0.4,0.6,1.2,0.2,1.7C317.6,193.9,315,195,312.2,195.1z"></path><path class="st5" d="M337.8,198.6c-0.2,0-0.4,0-0.6-0.1c-1-0.6-1.7-1.6-2.1-2.7c-0.2-0.6,0.1-1.3,0.8-1.5c0.6-0.2,1.3,0.1,1.5,0.8
		l0,0c0.2,0.5,0.5,1,1,1.4c0.6,0.3,0.8,1.1,0.5,1.7c0,0,0,0,0,0C338.7,198.3,338.3,198.6,337.8,198.6z"></path><linearGradient id="SVGID_00000167356078943849552080000010525673180354555023_" gradientUnits="userSpaceOnUse" x1="246.0464" y1="373.1342" x2="299.1364" y2="298.1542" gradientTransform="matrix(0.9973 7.323819e-02 7.323819e-02 -0.9973 -37.4506 500.9195)"><stop offset="0" style="stop-color: rgb(243, 131, 116);"></stop><stop offset="1" style="stop-color: rgb(198, 66, 52);"></stop></linearGradient><path d="M275.1,293.3l45.9,3.4
		c11.9,0.9,22.3-8.4,23.5-20.8l3.5-37.5c0,0-1.3-13.7-18.3-15.9l-80.4-5.9c-4.9-0.8-16.4,5.2-9.9,20.6c3,7.2,11.6,28.4,17.2,42.3
		C259.7,287.3,266.9,292.6,275.1,293.3z" style="fill: url(&quot;#SVGID_00000167356078943849552080000010525673180354555023_&quot;);"></path><linearGradient id="SVGID_00000125576405105922342540000010880182228092290725_" gradientUnits="userSpaceOnUse" x1="199.3764" y1="340.0941" x2="252.4664" y2="265.1141" gradientTransform="matrix(0.9973 7.323819e-02 7.323819e-02 -0.9973 -37.4506 500.9195)"><stop offset="0" style="stop-color: rgb(243, 131, 116);"></stop><stop offset="1" style="stop-color: rgb(198, 66, 52);"></stop></linearGradient><path d="M248.4,216.5c0,0-13.7-1.6-22.1,7.6
		s-26,38.3-26,38.3l55.5,4.1L248.4,216.5z" style="fill: url(&quot;#SVGID_00000125576405105922342540000010880182228092290725_&quot;);"></path><linearGradient id="SVGID_00000125596401554119455330000016362443162819480462_" gradientUnits="userSpaceOnUse" x1="281.629" y1="398.3318" x2="334.719" y2="323.3518" gradientTransform="matrix(0.9973 7.323819e-02 7.323819e-02 -0.9973 -37.4506 500.9195)"><stop offset="0" style="stop-color: rgb(243, 131, 116);"></stop><stop offset="1" style="stop-color: rgb(198, 66, 52);"></stop></linearGradient><path d="M329.6,222.5l18.1,1.3
		c0,0,15.4-1.9,23,20.1l11.5,34l-46.3-3.4L329.6,222.5z" style="fill: url(&quot;#SVGID_00000125596401554119455330000016362443162819480462_&quot;);"></path><path class="st3" d="M321,297.9c-0.2,0-0.5-0.1-0.7-0.2c-0.5-0.4-0.7-1.1-0.3-1.7c6-8.8,6.8-15.7,2.4-20c-2.3-2.3-6.1-3.7-10.6-4.2
		c-10.5,8.9-31.4,16.4-37.3,15.8c-1.7-0.2-2.3-1-2.5-1.6c-0.4-1.6,1-3.5,5.2-6.5c10.1-7.4,23.3-11,33.8-10.2
		c0.9-0.8,1.7-1.6,2.5-2.6c3.4-4.2,2-6.5,0.7-8c-5.4-5.8-18.1-6.1-36.7-1.1c-9.3,2.6-18.4,5.9-27.3,9.7c-0.6,0.3-1.3,0.1-1.6-0.5
		c-0.3-0.6-0.1-1.3,0.5-1.6c0,0,0.1,0,0.1-0.1c2.1-1,52.4-23.5,66.8-8.1c2.3,2.2,2.7,5.7,1.2,8.5c-0.8,1.5-1.8,2.9-3,4.1
		c3.7,0.5,7.2,2.1,10,4.6c3.1,3,7,10-2,23.2C321.8,297.7,321.4,297.9,321,297.9z M274.5,285.1c3.3,0.6,22.5-5.4,33.6-13.6
		c-9-0.1-20.1,3-29.5,9.9C275.7,283.5,274.8,284.6,274.5,285.1L274.5,285.1z"></path><path class="st3" d="M361.7,252.9c-11.6,0-18.8-2.6-21.5-7.7c-4.6-8.9,6.1-21.6,6.5-22.1c0.4-0.5,1.2-0.6,1.7-0.2
		c0.5,0.4,0.6,1.2,0.2,1.7c0,0,0,0,0,0c-0.1,0.1-10.1,12-6.2,19.4c2.9,5.5,13,7.5,29.4,5.9c0.7-0.1,1.3,0.4,1.3,1.1
		s-0.4,1.3-1.1,1.3l0,0C368.6,252.7,365.1,252.9,361.7,252.9z"></path><circle class="st3" cx="281.6" cy="254.7" r="7.3"></circle><path class="st0" d="M344.5,275.5c-0.6,0-1.2-0.5-1.2-1.1l-3-34.5c-0.1-0.7,0.4-1.3,1.1-1.3c0.7-0.1,1.3,0.4,1.3,1.1l3,34.5
		c0.1,0.7-0.4,1.3-1.1,1.3c0,0,0,0,0,0L344.5,275.5z"></path><path class="st0" d="M252.5,267.3c-0.1,0-0.2,0-0.3,0c-0.7-0.2-1.1-0.8-0.9-1.5c0,0,0,0,0,0l6.5-26.8c0.2-0.7,0.8-1.1,1.5-0.9
		c0.7,0.2,1.1,0.8,0.9,1.5c0,0,0,0,0,0l-6.5,26.7C253.6,266.9,253.1,267.3,252.5,267.3z"></path><path class="st4" d="M184.5,347.8c-9.8,7-27.5,17.6-55.8-0.3c-5.4-3.4-11.4-12.1-20.5-12.4s-17.4,2.5-20.4-5.5s4.2-14.9,17.9-14.3
		c0,0-8.7-6.2-15.1-6.2c-8.8,0-6.3-15.5,10.6-16.9c14.3-1.1,24,2.7,24,2.7s10.9-8.2,22.2-6.7s17.9,7.9,20.7,14.3
		c1.6,3.8,4.4,7,7.9,9.2c0,0,7.3-9,13.5-11.1c5.1-1.8,12.4-0.2,15.1,8.6s-9.1,14-11.2,23.1C191.7,338.1,188.7,343.4,184.5,347.8z"></path><path class="st5" d="M190,374.1c-0.7,0-1.2-0.5-1.2-1.2c0-0.3,0.1-0.6,0.3-0.9c8-8.6,6.1-16.3,4.4-23c-0.8-2.4-1.2-5-1.2-7.5
		c0.2-4,3.1-7.9,5.9-11.7c2.6-3.6,5.4-7.4,5.3-10.7c-0.1-4.7-1.4-8.3-3.9-10.6s-6.3-3.4-11.2-3.1c-3.9,0.2-4.8,3-5.7,5.9
		c-0.7,2.2-1.5,4.8-4.1,4.8c-5,0-7.5-6.5-7.6-6.8c-0.2-0.6,0.1-1.3,0.7-1.6c0.6-0.2,1.3,0.1,1.6,0.7c0.6,1.5,2.6,5.2,5.4,5.2
		c0.8,0,1.1-0.9,1.8-3c0.9-2.9,2.2-7.3,7.8-7.6s9.9,0.9,13,3.8s4.6,7,4.6,12.4c0,4.1-2.9,8.2-5.8,12.1c-2.6,3.5-5.2,7.1-5.4,10.4
		c0,2.3,0.4,4.6,1.1,6.8c1.7,6.6,4,15.7-4.9,25.3C190.7,374,190.3,374.1,190,374.1z"></path><path class="st5" d="M155.7,329.3c-0.4,0-0.8-0.2-1.1-0.6c-3.1-5.2-9.1-8.8-23-13.5c-4.1-1.4-6.9-3.8-8.3-7.2
		c-2.7-6.2,0.6-13.4,0.8-13.7c0.2-0.6,0.9-1,1.5-0.8c0.6,0.2,1,0.9,0.8,1.5c0,0.1-0.1,0.2-0.1,0.2c0,0.1-2.9,6.5-0.7,11.7
		c1.1,2.7,3.4,4.6,6.9,5.8c14.5,5,20.9,8.8,24.3,14.6c0.3,0.6,0.2,1.3-0.4,1.7C156.1,329.2,155.9,329.3,155.7,329.3z"></path><path class="st5" d="M123.8,338.9c-0.7,0-1.2-0.5-1.2-1.2c0-0.4,0.2-0.8,0.6-1c27-16.8,44.2-5.8,45-5.3c0.6,0.3,0.9,1,0.6,1.6
		c-0.3,0.6-1,0.9-1.6,0.6c-0.1-0.1-0.2-0.1-0.3-0.2l0,0c-0.2-0.1-16.8-10.6-42.3,5.3C124.2,338.8,124,338.9,123.8,338.9z"></path><path class="st5" d="M131.3,333.2c-0.4,0-0.8-0.2-1-0.6c-6.9-11-24.8-16.2-25-16.2c-0.6-0.2-1-0.9-0.8-1.5s0.9-1,1.5-0.8
		c0.8,0.2,19,5.5,26.4,17.3c0.3,0.6,0.2,1.3-0.4,1.7C131.8,333.1,131.6,333.2,131.3,333.2z"></path><path class="st5" d="M379.4,352.2c-0.7,0-1.2-0.5-1.2-1.2c-0.4-14.4,8.5-24.5,8.9-24.9c0.5-0.5,1.3-0.5,1.7,0
		c0.4,0.4,0.5,1.1,0.1,1.6c-0.1,0.1-8.6,9.8-8.3,23.2C380.7,351.6,380.1,352.2,379.4,352.2L379.4,352.2z"></path><path class="st6" d="M278,384.9c-0.1,0-0.3,0-0.4-0.1c-0.6-0.2-1-0.9-0.8-1.5c0,0,0,0,0,0l11.7-35.6c-9.8-3-14.8-11.6-15-12
		c-0.3-0.6-0.1-1.3,0.5-1.7c0.6-0.3,1.3-0.1,1.7,0.5c0,0.1,5.1,8.9,14.7,11.2c0.3,0.1,0.6,0.3,0.8,0.6c0.2,0.3,0.2,0.7,0.1,1
		l-12.1,36.8C279,384.6,278.5,384.9,278,384.9z"></path><path class="st5" d="M374.6,336.5c-0.7,0-1.2-0.5-1.3-1.2c0-0.6,0.4-1.1,0.9-1.2l9.7-2.8c0.6-0.2,1.3,0.2,1.5,0.8
		c0.2,0.6-0.2,1.3-0.8,1.5l-9.7,2.8C374.8,336.5,374.7,336.5,374.6,336.5z"></path></g><g id="tablet"><path class="st6" d="M74.6,382.6h100.5c4.4,0,8-3.6,7.9-8.1c0-0.9-0.2-1.8-0.5-2.6l-23.2-62.6c-1.2-3.1-4.1-5.2-7.5-5.2H51.5
		c-4.4,0-8,3.5-8,7.9c0,1,0.2,1.9,0.5,2.8l23.2,62.6C68.3,380.5,71.3,382.6,74.6,382.6z"></path><path class="st0" d="M175.2,383.8H74.6c-3.8,0-7.3-2.4-8.6-6l-23.1-62.6c-1.8-4.7,0.7-10,5.4-11.8c1-0.4,2.1-0.6,3.2-0.6H152
		c3.8,0,7.3,2.4,8.6,6l23.2,62.6c1.8,4.7-0.7,10-5.4,11.8C177.3,383.6,176.3,383.8,175.2,383.8L175.2,383.8z M51.5,305.3
		c-3.7,0-6.7,3-6.7,6.7c0,0.8,0.1,1.6,0.4,2.3L68.3,377c1,2.6,3.5,4.4,6.3,4.4h100.5c3.7,0,6.7-3,6.7-6.7c0-0.8-0.1-1.6-0.4-2.3
		l-23.2-62.6c-1-2.6-3.5-4.4-6.3-4.4H51.5z"></path><linearGradient id="SVGID_00000073689116423364963220000004286549006089914295_" gradientUnits="userSpaceOnUse" x1="132.5972" y1="218.0913" x2="91.3172" y2="125.4013" gradientTransform="matrix(1 0 0 -1 0 502)"><stop offset="0" style="stop-color: rgb(10, 107, 91);"></stop><stop offset="0.78" style="stop-color: rgb(0, 81, 70);"></stop><stop offset="0.91" style="stop-color: rgb(0, 80, 69);"></stop></linearGradient><path d="M138.4,382.6H31c-2,0-3.6-1.6-3.6-3.6
		c0-0.7,0.2-1.5,0.6-2.1l25.1-36.6h117.5l-27.2,39.6C142.3,381.6,140.4,382.6,138.4,382.6z" style="fill: url(&quot;#SVGID_00000073689116423364963220000004286549006089914295_&quot;);"></path><path class="st0" d="M162.3,337.7c-0.5,0-1-0.3-1.1-0.8l-7.6-19c-1.3-3.2-4.4-5.4-7.9-5.4H57.1c-0.7,0-1.2-0.5-1.2-1.2
		s0.5-1.2,1.2-1.2l0,0h88.6c4.5,0,8.5,2.7,10.2,6.9l7.6,19c0.3,0.6,0,1.3-0.7,1.6c0,0,0,0,0,0C162.6,337.6,162.5,337.7,162.3,337.7z
		"></path><line class="st12" x1="159.2" y1="344.7" x2="134" y2="381.5"></line><path class="st0" d="M134,382.7c-0.2,0-0.5-0.1-0.7-0.2c-0.6-0.4-0.7-1.1-0.3-1.7c0,0,0,0,0,0l25.2-36.8c0.3-0.6,1.1-0.8,1.7-0.5
		c0.6,0.3,0.8,1.1,0.5,1.7c0,0.1-0.1,0.1-0.1,0.2L135,382.2C134.8,382.5,134.4,382.7,134,382.7z"></path></g><g id="line"><path class="st0" d="M10,385.6c-0.7,0-1.2-0.6-1.2-1.3c0-0.5,0.3-0.9,0.8-1.1c4.6-1.6,431.7-0.2,480.4-0.1c0.7,0.1,1.2,0.7,1.1,1.3
		c-0.1,0.6-0.5,1.1-1.1,1.1l0,0c-162.9-0.6-472.5-1.3-479.7,0C10.2,385.6,10.1,385.6,10,385.6z"></path></g><g id="phone"><path class="st0" d="M412.2,329.1h-47.1c-6.4,0-11.6-5.2-11.6-11.6c0-1.1,0.2-2.1,0.4-3.2l26-91.1c1.4-5,6-8.4,11.2-8.4h47.1
		c6.4,0,11.6,5.2,11.6,11.6c0,1.1-0.2,2.1-0.4,3.2l-26,91.1C421.9,325.6,417.4,329.1,412.2,329.1z"></path><path class="st0" d="M412.2,330.3h-47.1c-7.1,0-12.9-5.8-12.9-12.8c0-1.2,0.2-2.4,0.5-3.5l26-91.1c1.6-5.5,6.6-9.3,12.4-9.3h47.1
		c7.1,0,12.8,5.8,12.8,12.9c0,1.2-0.2,2.4-0.5,3.5l-26,91.1C422.9,326.5,417.9,330.3,412.2,330.3z M391.1,215.9
		c-4.6,0-8.7,3.1-10,7.6l-26,91.1c-1.6,5.5,1.6,11.3,7.2,12.9c0.9,0.3,1.9,0.4,2.8,0.4h47.1c4.6,0,8.7-3.1,10-7.6l26-91.1
		c1.6-5.5-1.6-11.3-7.2-12.9c-0.9-0.3-1.9-0.4-2.8-0.4L391.1,215.9z"></path><path class="st6" d="M419.9,329.1h-47.1c-6.4,0-11.6-5.2-11.6-11.6c0-1.1,0.2-2.1,0.4-3.2l26-91.1c1.4-5,6-8.4,11.2-8.4h47.1
		c6.4,0,11.6,5.3,11.6,11.7c0,1.1-0.2,2.1-0.4,3.1l-26,91.1C429.6,325.6,425.1,329,419.9,329.1z"></path><path class="st0" d="M419.9,330.3h-47.1c-7.1,0-12.8-5.8-12.8-12.9c0-1.2,0.2-2.4,0.5-3.5l26-91.1c1.6-5.5,6.6-9.3,12.4-9.3h47.1
		c7.1,0,12.9,5.8,12.9,12.8c0,1.2-0.2,2.4-0.5,3.5l-26,91.1C430.7,326.5,425.6,330.3,419.9,330.3z M398.8,215.9
		c-4.6,0-8.7,3.1-10,7.6l-26,91.1c-1.6,5.5,1.6,11.3,7.2,12.9c0.9,0.3,1.9,0.4,2.8,0.4h47.1c4.6,0,8.7-3.1,10-7.6l26-91.1
		c1.6-5.5-1.6-11.3-7.2-12.9c-0.9-0.3-1.9-0.4-2.8-0.4L398.8,215.9z"></path><path class="st0" d="M419.2,233.4h-15.7c-3,0-5.5-2.4-5.5-5.4c0-0.6,0.1-1.2,0.3-1.7l0,0c0.7-2.2,2.8-3.7,5.2-3.7h15.7
		c3,0,5.5,2.5,5.5,5.5c0,0.6-0.1,1.2-0.3,1.7l0,0C423.7,231.9,421.6,233.4,419.2,233.4z"></path><path class="st6" d="M404.5,233.4h-1c-3,0-5.5-2.4-5.5-5.4c0-0.6,0.1-1.2,0.3-1.7l0,0c0.7-2.2,2.8-3.7,5.2-3.7h1
		c3,0,5.5,2.4,5.5,5.5c0,0.6-0.1,1.2-0.3,1.7l0,0C408.9,231.9,406.8,233.4,404.5,233.4z"></path><path class="st0" d="M404.5,234.6h-1c-3.7,0-6.7-3-6.7-6.7c0-3.7,3-6.7,6.7-6.7h1c3.7,0,6.7,3,6.7,6.7
		C411.1,231.6,408.1,234.6,404.5,234.6z M403.5,223.7c-2.3,0-4.2,1.9-4.2,4.2c0,2.3,1.9,4.2,4.2,4.2c0,0,0,0,0,0h1
		c2.3,0,4.2-1.9,4.2-4.2c0-2.3-1.9-4.2-4.2-4.2c0,0,0,0,0,0H403.5z"></path></g><g id="hand"><path class="st4" d="M480,262c0,0-1.8-12.9-9.9-19c-6.1-4.6-17.6-7-32-3.3c-11.1,2.8-31.1,9.4-37.2,15.8
		c-6.1,6.4-4.9,15.1,2.8,16.4c0,0-13.1,13.8-2.3,24.4c0,0-6.1,9.4,1.6,16.9s15.6,5.7,26.6,14.9c6.1,4.4,19.4,4.4,33.4-12.3
		S480,262,480,262z"></path><path class="st4" d="M479.4,259.3c0,0,4-29.8-8.2-38.1s-18.6,3.4-20.1,8.1s-2.4,11,4.4,15.3S479.4,259.3,479.4,259.3z"></path><path class="st5" d="M480,263.2c-0.5,0-1-0.3-1.2-0.9c0-0.1-3.6-11.1-11.1-17.5c-7.3-6.3-14-5.9-14.1-5.9c-0.7,0-1.2-0.5-1.3-1.1
		c-0.1-0.7,0.4-1.3,1.1-1.3c0.3,0,7.8-0.5,15.9,6.5s11.7,18.1,11.9,18.6c0.2,0.6-0.1,1.3-0.8,1.5C480.3,263.2,480.1,263.2,480,263.2
		z"></path><path class="st5" d="M403.6,273.1c-0.7,0-1.2-0.5-1.2-1.2c0-0.4,0.2-0.8,0.6-1c0.1-0.1,13.4-8.9,21.2-13c5.1-2.7,11-3.7,16.7-2.9
		c0.7,0.1,1.1,0.7,1,1.4s-0.7,1.1-1.4,1c-5.2-0.6-10.5,0.3-15.1,2.7c-7.7,4.1-20.9,12.8-21,12.9C404.1,273,403.8,273.1,403.6,273.1z
		"></path><path class="st5" d="M401.3,297.5c-0.4,0-0.8-0.2-1-0.5c-0.4-0.6-0.2-1.3,0.4-1.7c0,0,0,0,0,0c0.5-0.4,13.1-8.5,24.2-10.1
		s17.1,0.4,17.3,0.5c0.6,0.2,1,0.9,0.8,1.5s-0.9,1-1.5,0.8c0,0-0.1,0-0.1,0c0,0-5.7-2-16.1-0.4s-23.1,9.7-23.2,9.7
		C401.8,297.4,401.5,297.5,401.3,297.5z"></path><path class="st5" d="M435.7,319.3c-0.2,0-0.5-0.1-0.7-0.2c-4.8-3.1-14.3-2.4-14.4-2.4c-0.7,0.1-1.3-0.4-1.3-1.1c0,0,0,0,0,0
		c0-0.7,0.5-1.3,1.1-1.3c0.4,0,10.4-0.8,15.9,2.7c0.6,0.4,0.7,1.1,0.4,1.7C436.5,319.1,436.1,319.3,435.7,319.3z"></path></g><g id="paper_3"><path class="st3" d="M121.9,128.9l51.6-1.2c0,0-3.3,51.6,4.4,62.8l-57.5,7.1C120.4,197.7,113.6,140.5,121.9,128.9z"></path><path class="st0" d="M151.1,138.6c-0.1,0-0.2,0-0.3-0.1l-9.7-2.8c-0.3-0.1-0.6-0.3-0.7-0.6c-0.2-0.3-0.2-0.6-0.1-0.9l5.2-16.3
		c0.2-0.6,0.8-0.9,1.4-0.8l9.8,1.6c0.3,0.1,0.7,0.3,0.9,0.6c0.2,0.3,0.2,0.7,0.1,1l-5.4,17.4C152.1,138.2,151.6,138.6,151.1,138.6z
		 M143,133.8l7.3,2.1l4.6-14.9l-7.4-1.2L143,133.8z"></path></g><g id="paper_2"><path class="st0" d="M120.3,216.7l51.6-2c0,0-2.5,51.6,5.4,62.8l-57.4,8C119.9,285.4,112.2,228.4,120.3,216.7z"></path><path class="st3" d="M129.1,207.2l51.4,4.4c0,0-8.9,50.9-2.4,63l-57.9,0.8C120.2,275.5,119.6,217.8,129.1,207.2z"></path><linearGradient id="SVGID_00000121242172744193053460000005134474386978367914_" gradientUnits="userSpaceOnUse" x1="148.04" y1="293.245" x2="164.07" y2="293.245" gradientTransform="matrix(1 0 0 -1 0 502)"><stop offset="0" style="stop-color: rgb(243, 131, 116);"></stop><stop offset="1" style="stop-color: rgb(198, 66, 52);"></stop></linearGradient><polygon points="155,219.2 148,203.7 156.4,198.3 
		164.1,214.8 	" style="fill: url(&quot;#SVGID_00000121242172744193053460000005134474386978367914_&quot;);"></polygon></g><g id="paper_1"><linearGradient id="SVGID_00000096743585795963291540000014177670479666380930_" gradientUnits="userSpaceOnUse" x1="189.45" y1="334.9406" x2="247.5931" y2="334.9406" gradientTransform="matrix(1 0 0 -1 0 502)"><stop offset="0" style="stop-color: rgb(243, 131, 116);"></stop><stop offset="1" style="stop-color: rgb(198, 66, 52);"></stop></linearGradient><path d="M191,194.5l-1.6,7.9c0,0,40.6,3.3,53,2.4
		c0,0,8.1-36.8,4-57.6l-23.8-18.2L191,194.5z" style="fill: url(&quot;#SVGID_00000096743585795963291540000014177670479666380930_&quot;);"></path><path class="st6" d="M191.7,129.9c0,0-3.5,50.6-7.6,64.2l53.2,2.5c0,0,6.3-40.5,0.6-67.1L191.7,129.9z"></path><path class="st0" d="M237.3,197.9L237.3,197.9l-53.2-2.5c-0.4,0-0.7-0.2-0.9-0.5c-0.2-0.3-0.3-0.7-0.2-1.1c4-13.3,7.5-63.5,7.5-64
		c0-0.6,0.6-1.1,1.2-1.1l46.2-0.3l0,0c0.6,0,1.1,0.4,1.2,1c5.7,26.5-0.6,67.1-0.6,67.5C238.4,197.4,237.9,197.9,237.3,197.9z
		 M185.7,193l50.5,2.4c0.9-6.5,5.4-40.9,0.7-64.6l-44.1,0.3C192.4,138.6,189.4,178.8,185.7,193z"></path><polygon class="st3" points="214.7,125.1 250.6,152.7 257.8,141.1 224.5,115.3 	"></polygon></g><g id="line-2"><path class="st0" d="M94.7,202c-0.7,0-1.2-0.6-1.2-1.3c0-0.4,0.2-0.7,0.5-0.9c1.7-1.2,42.5-29.1,56-26.2c0.5,0.1,1,0.3,1.4,0.5
		c10.3-6.4,20.9-12.3,31.8-17.6c22.3-11,64-28.4,91.8-21.7c0.7,0.1,1.1,0.8,1,1.4c-0.1,0.7-0.8,1.1-1.4,1c0,0-0.1,0-0.1,0
		c-32.4-7.7-88.1,18.3-121,38.6c0.1,0.2,0.3,0.3,0.4,0.5c2.2,3.5,0.8,8-3.9,12.6c-6.7,6.6-20.1,13.1-24.2,10.5
		c-0.7-0.5-1.8-1.6-0.9-4.1c1.2-3.3,10.3-10.7,23.7-19.2c-13.4-1.2-52.8,25.7-53.2,26C95.2,202,94.9,202,94.7,202z M151.3,176.8
		c-13.8,8.6-23.1,16-24.2,19c-0.1,0.3-0.3,1-0.1,1.2c2.3,1.5,14.3-3.4,21.1-10.1c2.7-2.6,5.5-6.4,3.5-9.6
		C151.6,177.1,151.5,177,151.3,176.8L151.3,176.8z"></path></g></svg>