<svg width="228.518" height="228.518" viewBox="0 0 60.462 60.462" shape-rendering="crispEdges" xmlns:xlink="http://www.w3.org/1999/xlink" xmlns="http://www.w3.org/2000/svg"><defs><filter id="prefix__b" x="-.001" y="-.001" width="1.002" height="1.002" color-interpolation-filters="sRGB"><feGaussianBlur stdDeviation=".243"/></filter><filter id="prefix__d" x="-.003" y="-.002" width="1.005" height="1.005" color-interpolation-filters="sRGB"><feGaussianBlur stdDeviation=".026"/></filter><filter id="prefix__e" x="-.001" y="-.001" width="1.003" height="1.003" color-interpolation-filters="sRGB"><feGaussianBlur stdDeviation=".033"/></filter><pattern xlink:href="#prefix__a" preserveAspectRatio="xMidYMid" id="prefix__f" patternTransform="matrix(.61643 0 0 .67256 -5.546 -7.989)"/><pattern patternUnits="userSpaceOnUse" width="100" height="100" id="prefix__a" preserveAspectRatio="xMidYMid" patternTransform="scale(.5)" fill="#00f"><path fill-opacity=".5" d="M50 0h50v50H50z"/><path d="M50 50h50v50H50z"/><path fill-opacity=".5" d="M0 50h50v50H0z"/></pattern></defs><g transform="matrix(.8468 0 0 .80179 11.78 16.483)" stroke="#000"><rect width="60.462" height="60.462" x="3.636" y="-65.079" ry="2.341" transform="matrix(1.18092 0 0 -1.2472 -18.204 -26.317)" fill="#e7e8ff" paint-order="markers stroke fill" stroke="none"/><g style="mix-blend-mode:darken" transform="matrix(.07875 0 0 .083 -12.859 -19.373)" opacity=".083" filter="url(#prefix__b)"><g stroke="#4f269b" fill="none"><path d="M20.345 0H80v80H0V20.345A20.345 20.345 135 0120.345 0zM80 0h80v80H80zM160 0h80v80h-80zM240 0h80v80h-80zM320 0h80v80h-80zM400 0h80v80h-80zM480 0h80v80h-80zM560 0h80v80h-80zM640 0h80v80h-80zM720 0h80v80h-80zM800 0h56.745A23.255 23.255 45 01880 23.255V80h-80zM0 80h80v80H0zM80 80h80v80H80zM160 80h80v80h-80zM240 80h80v80h-80zM320 80h80v80h-80zM400 80h80v80h-80zM480 80h80v80h-80zM560 80h80v80h-80zM640 80h80v80h-80zM720 80h80v80h-80zM800 80h80v80h-80zM0 160h80v80H0zM80 160h80v80H80zM160 160h80v80h-80zM240 160h80v80h-80zM320 160h80v80h-80zM400 160h80v80h-80zM480 160h80v80h-80zM560 160h80v80h-80zM640 160h80v80h-80zM720 160h80v80h-80zM800 160h80v80h-80zM0 240h80v80H0zM80 240h80v80H80zM160 240h80v80h-80zM240 240h80v80h-80zM320 240h80v80h-80zM400 240h80v80h-80zM480 240h80v80h-80zM560 240h80v80h-80zM640 240h80v80h-80zM720 240h80v80h-80zM800 240h80v80h-80zM0 320h80v80H0zM80 320h80v80H80zM160 320h80v80h-80zM240 320h80v80h-80zM320 320h80v80h-80zM400 320h80v80h-80zM480 320h80v80h-80zM560 320h80v80h-80zM640 320h80v80h-80zM720 320h80v80h-80zM800 320h80v80h-80zM0 400h80v80H0zM80 400h80v80H80zM160 400h80v80h-80zM240 400h80v80h-80zM320 400h80v80h-80zM400 400h80v80h-80zM480 400h80v80h-80zM560 400h80v80h-80zM640 400h80v80h-80zM720 400h80v80h-80zM800 400h80v80h-80zM0 480h80v80H0zM80 480h80v80H80zM160 480h80v80h-80zM240 480h80v80h-80zM320 480h80v80h-80zM400 480h80v80h-80zM480 480h80v80h-80zM560 480h80v80h-80zM640 480h80v80h-80zM720 480h80v80h-80zM800 480h80v80h-80zM0 560h80v80H0zM80 560h80v80H80zM160 560h80v80h-80zM240 560h80v80h-80zM320 560h80v80h-80zM400 560h80v80h-80zM480 560h80v80h-80zM560 560h80v80h-80zM640 560h80v80h-80zM720 560h80v80h-80zM800 560h80v80h-80zM0 640h80v80H0zM80 640h80v80H80zM160 640h80v80h-80zM240 640h80v80h-80zM320 640h80v80h-80zM400 640h80v80h-80zM480 640h80v80h-80zM560 640h80v80h-80zM640 640h80v80h-80zM720 640h80v80h-80zM800 640h80v80h-80zM0 720h80v80H0zM80 720h80v80H80zM160 720h80v80h-80zM240 720h80v80h-80zM320 720h80v80h-80zM400 720h80v80h-80zM480 720h80v80h-80zM560 720h80v80h-80zM640 720h80v80h-80zM720 720h80v80h-80zM800 720h80v80h-80zM0 800h80v80H21.372A21.372 21.372 45 010 858.628zM80 800h80v80H80zM160 800h80v80h-80zM240 800h80v80h-80zM320 800h80v80h-80zM400 800h80v80h-80zM480 800h80v80h-80zM560 800h80v80h-80zM640 800h80v80h-80zM720 800h80v80h-80zM800 800h80v62a18 18 135 01-18 18h-62z"/></g></g><use xlink:href="#prefix__c" transform="translate(1.26)" opacity=".067" filter="url(#prefix__d)"/><g id="prefix__c" filter="url(#prefix__e)"><rect width="20.007" height="57.959" x="-5.223" y="-11.838" ry="2.415" fill="#5206ff" stroke="none" stroke-width="0" paint-order="markers stroke fill"/><rect width="30.878" height="34.466" x="17.924" y="11.665" ry="2.949" fill="url(#prefix__f)" stroke="none" stroke-width="5.518" paint-order="markers stroke fill"/><g transform="matrix(.75347 0 0 .7953 26.534 -10.454)"><g fill-rule="nonzero" stroke="none" fill="none"><path d="M24 0v24H0V0zM12.593 23.258l-.011.002-.071.035-.02.004-.014-.004-.071-.035c-.01-.004-.019 0-.024.005l-.004.01-.017.428.005.02.011.013.104.074.014.004.012-.004.104-.074.012-.016.004-.017-.017-.427c-.002-.01-.009-.017-.016-.018zm.265-.113l-.013.002-.185.093-.01.01-.003.011.018.43.005.012.008.007.201.093c.012.004.023 0 .029-.008l.004-.014-.034-.614c-.003-.012-.01-.02-.02-.022zm-.715.002a.023.023 0 00-.027.006l-.006.014-.034.614c0 .012.007.02.017.024l.015-.002.201-.092.01-.009.004-.011.017-.43-.003-.013-.01-.008z"/><path d="M6.385 13.004l.179.371a8.865 8.865 0 003.468 3.638l.278.155c.13.07.13.247 0 .316a8.864 8.864 0 00-3.746 3.793l-.179.372c-.07.15-.293.15-.363 0l-.179-.371a8.864 8.864 0 00-3.746-3.794.177.177 0 010-.316l.278-.155a8.865 8.865 0 003.468-3.638l.179-.371c.07-.15.293-.15.363 0zM15.744 2.73c.101.218.203.435.312.65 1.338 2.633 3.445 4.844 6.069 6.367.16.093.323.183.487.271a.31.31 0 010 .553c-.164.088-.327.178-.487.272-2.624 1.522-4.731 3.733-6.069 6.366-.109.215-.21.432-.312.65-.123.262-.514.262-.637 0a21.53 21.53 0 00-.312-.65c-1.338-2.633-3.445-4.844-6.069-6.367a16.22 16.22 0 00-.487-.271.31.31 0 010-.553c.164-.088.327-.178.487-.271 2.624-1.523 4.731-3.734 6.069-6.367a21.7 21.7 0 00.312-.65c.123-.262.514-.262.637 0z" fill="#5206ff" stroke-width="1.025"/></g></g></g></g></svg>