<?xml version="1.0" encoding="UTF-8" standalone="no"?>
<!-- Created with Inkscape (http://www.inkscape.org/) -->

<svg
   width="228.51837"
   height="228.51781"
   viewBox="0 0 60.462153 60.462003"
   version="1.1"
   id="svg1"
   xml:space="preserve"
   inkscape:version="1.3.2 (091e20e, 2023-11-25, custom)"
   sodipodi:docname="logo_track_drawing.svg"
   inkscape:export-filename="trackjobs_assets\trackjobs_new_logo\trackjobs_120.png"
   inkscape:export-xdpi="50.411697"
   inkscape:export-ydpi="50.411697"
   xmlns:inkscape="http://www.inkscape.org/namespaces/inkscape"
   xmlns:sodipodi="http://sodipodi.sourceforge.net/DTD/sodipodi-0.dtd"
   xmlns:xlink="http://www.w3.org/1999/xlink"
   xmlns="http://www.w3.org/2000/svg"
   xmlns:svg="http://www.w3.org/2000/svg"
   xmlns:rdf="http://www.w3.org/1999/02/22-rdf-syntax-ns#"
   xmlns:cc="http://creativecommons.org/ns#"
   xmlns:dc="http://purl.org/dc/elements/1.1/"><title
     id="title835">TrackJobs Logo</title><sodipodi:namedview
     id="namedview1"
     pagecolor="#ffffff"
     bordercolor="#000000"
     borderopacity="0.25"
     inkscape:showpageshadow="2"
     inkscape:pageopacity="0.0"
     inkscape:pagecheckerboard="0"
     inkscape:deskcolor="#d1d1d1"
     inkscape:document-units="mm"
     showguides="false"
     inkscape:zoom="1.24"
     inkscape:cx="75.806452"
     inkscape:cy="96.774193"
     inkscape:window-width="1600"
     inkscape:window-height="978"
     inkscape:window-x="-6"
     inkscape:window-y="-6"
     inkscape:window-maximized="1"
     inkscape:current-layer="g835"
     inkscape:export-bgcolor="#ffffff00"
     showgrid="true"
     inkscape:clip-to-page="false"><sodipodi:guide
       position="7.2863173,13.767171"
       orientation="1,0"
       id="guide2"
       inkscape:locked="false" /><sodipodi:guide
       position="-11.86442,14.216016"
       orientation="0,-1"
       id="guide3"
       inkscape:locked="false" /><sodipodi:guide
       position="26.885901,88.27551"
       orientation="1,0"
       id="guide4"
       inkscape:locked="false" /><sodipodi:guide
       position="24.192828,57.903637"
       orientation="1,0"
       id="guide5"
       inkscape:locked="false" /><sodipodi:guide
       position="-0.49366977,41.894817"
       orientation="0,-1"
       id="guide6"
       inkscape:locked="false" /><sodipodi:guide
       position="53.218165,76.605529"
       orientation="1,0"
       id="guide7"
       inkscape:locked="false" /></sodipodi:namedview><defs
     id="defs1"><inkscape:path-effect
       effect="fillet_chamfer"
       id="path-effect10"
       is_visible="true"
       lpeversion="1"
       nodesatellites_param="F,0,0,1,0,0,0,1 @ F,0,0,1,0,0,0,1 @ F,0,0,1,0,0,0,1 @ F,0,0,1,0,21.372271,0,1"
       radius="0"
       unit="px"
       method="auto"
       mode="F"
       chamfer_steps="1"
       flexible="false"
       use_knot_distance="true"
       apply_no_radius="true"
       apply_with_radius="true"
       only_selected="false"
       hide_knots="false" /><inkscape:path-effect
       effect="fillet_chamfer"
       id="path-effect9"
       is_visible="true"
       lpeversion="1"
       nodesatellites_param="F,0,0,1,0,0,0,1 @ F,0,0,1,0,0,0,1 @ F,0,0,1,0,17.999552,0,1 @ F,0,0,1,0,0,0,1"
       radius="0"
       unit="px"
       method="auto"
       mode="F"
       chamfer_steps="1"
       flexible="false"
       use_knot_distance="true"
       apply_no_radius="true"
       apply_with_radius="true"
       only_selected="false"
       hide_knots="false" /><inkscape:path-effect
       effect="fillet_chamfer"
       id="path-effect8"
       is_visible="true"
       lpeversion="1"
       nodesatellites_param="F,0,0,1,0,20.345215,0,1 @ F,0,0,1,0,0,0,1 @ F,0,0,1,0,0,0,1 @ F,0,0,1,0,0,0,1"
       radius="22"
       unit="px"
       method="auto"
       mode="F"
       chamfer_steps="1"
       flexible="false"
       use_knot_distance="true"
       apply_no_radius="true"
       apply_with_radius="true"
       only_selected="false"
       hide_knots="false" /><inkscape:path-effect
       effect="fillet_chamfer"
       id="path-effect7"
       is_visible="true"
       lpeversion="1"
       nodesatellites_param="F,0,0,1,0,0,0,1 @ F,0,0,1,0,23.25472,0,1 @ F,0,0,1,0,0,0,1 @ F,0,0,1,0,0,0,1"
       radius="22"
       unit="px"
       method="auto"
       mode="F"
       chamfer_steps="1"
       flexible="false"
       use_knot_distance="true"
       apply_no_radius="true"
       apply_with_radius="true"
       only_selected="false"
       hide_knots="false" /><pattern
       inkscape:collect="always"
       xlink:href="#Gingham"
       preserveAspectRatio="xMidYMid"
       id="pattern50"
       patternTransform="matrix(0.61642876,0,0,0.67256413,-5.5456856,-7.9886804)" /><pattern
       patternUnits="userSpaceOnUse"
       width="100"
       height="100"
       id="Gingham"
       preserveAspectRatio="xMidYMid"
       patternTransform="scale(0.5,0.5)"
       style="fill:#0000ff"
       inkscape:collect="always"
       inkscape:isstock="true"
       inkscape:label="Gingham">
      <rect
   style="fill-opacity:0.5;stroke:none"
   id="rect3"
   width="50"
   height="50"
   x="50"
   y="0" />
      <rect
   style="stroke:none"
   id="rect4"
   width="50"
   height="50"
   x="50"
   y="50" />
      <rect
   style="fill-opacity:0.5;stroke:none"
   id="rect5"
   width="50"
   height="50"
   x="0"
   y="50" />
    </pattern><filter
       inkscape:collect="always"
       style="color-interpolation-filters:sRGB"
       id="filter10"
       x="-0.0012313413"
       y="-0.0012313413"
       width="1.0024627"
       height="1.0024627"><feGaussianBlur
         inkscape:collect="always"
         stdDeviation="0.24315846"
         id="feGaussianBlur10" /></filter><filter
       inkscape:collect="always"
       style="color-interpolation-filters:sRGB"
       id="filter14"
       x="-0.0026421483"
       y="-0.0024624007"
       width="1.0052843"
       height="1.0049249"><feGaussianBlur
         inkscape:collect="always"
         stdDeviation="0.026444026"
         id="feGaussianBlur14" /></filter><filter
       inkscape:collect="always"
       style="color-interpolation-filters:sRGB"
       id="filter15"
       x="-0.0014674085"
       y="-0.0013675795"
       width="1.0029348"
       height="1.0027352"><feGaussianBlur
         inkscape:collect="always"
         stdDeviation="0.033032157"
         id="feGaussianBlur15" /></filter></defs><g
     inkscape:label="Layer 1"
     inkscape:groupmode="layer"
     id="layer1"
     transform="translate(-3.6355877,-3.6356664)"><g
       id="g835"
       transform="matrix(0.84679388,0,0,0.80178996,15.415316,20.119158)"
       style="stroke:#000000;stroke-opacity:1"><rect
         style="display:inline;fill:#e7e8ff;fill-opacity:1;stroke:none;stroke-width:3.54202;stroke-dasharray:none;stroke-opacity:1;paint-order:markers stroke fill"
         id="rect16"
         width="60.462158"
         height="60.462002"
         x="3.6355879"
         y="-65.079437"
         ry="2.3408842"
         transform="matrix(1.1809249,0,0,-1.2472094,-18.204331,-26.317275)"
         inkscape:export-filename="trackjobs_assets\trackjobs_new_logo\trackjobs_logo_128.png"
         inkscape:export-xdpi="62.523407"
         inkscape:export-ydpi="62.523407" /><g
         style="opacity:0.0831827;mix-blend-mode:darken;stroke:#000000;stroke-opacity:1;filter:url(#filter10)"
         id="g7"
         transform="matrix(0.07874625,0,0,0.08299837,-12.85869,-19.37326)"
         inkscape:label="grids"><g
           stroke-width="1"
           stroke="#4f269b"
           fill="none"
           id="g121"><path
             width="80"
             height="80"
             x="0"
             y="0"
             id="rect1"
             inkscape:path-effect="#path-effect8"
             sodipodi:type="rect"
             d="M 20.345215,0 H 80 V 80 H 0 V 20.345215 A 20.345215,20.345215 135 0 1 20.345215,0 Z" /><rect
             width="80"
             height="80"
             x="80"
             y="0"
             id="rect2" /><rect
             width="80"
             height="80"
             x="160"
             y="0"
             id="rect3-7" /><rect
             width="80"
             height="80"
             x="240"
             y="0"
             id="rect4-9" /><rect
             width="80"
             height="80"
             x="320"
             y="0"
             id="rect5-9" /><rect
             width="80"
             height="80"
             x="400"
             y="0"
             id="rect6" /><rect
             width="80"
             height="80"
             x="480"
             y="0"
             id="rect7" /><rect
             width="80"
             height="80"
             x="560"
             y="0"
             id="rect8" /><rect
             width="80"
             height="80"
             x="640"
             y="0"
             id="rect9" /><rect
             width="80"
             height="80"
             x="720"
             y="0"
             id="rect10" /><path
             width="80"
             height="80"
             x="800"
             y="0"
             id="rect11-6"
             inkscape:path-effect="#path-effect7"
             sodipodi:type="rect"
             d="m 800,0 h 56.74528 A 23.25472,23.25472 45 0 1 880,23.25472 V 80 h -80 z" /><rect
             width="80"
             height="80"
             x="0"
             y="80"
             id="rect12-4" /><rect
             width="80"
             height="80"
             x="80"
             y="80"
             id="rect13" /><rect
             width="80"
             height="80"
             x="160"
             y="80"
             id="rect14" /><rect
             width="80"
             height="80"
             x="240"
             y="80"
             id="rect15" /><rect
             width="80"
             height="80"
             x="320"
             y="80"
             id="rect16-4" /><rect
             width="80"
             height="80"
             x="400"
             y="80"
             id="rect17" /><rect
             width="80"
             height="80"
             x="480"
             y="80"
             id="rect18" /><rect
             width="80"
             height="80"
             x="560"
             y="80"
             id="rect19" /><rect
             width="80"
             height="80"
             x="640"
             y="80"
             id="rect20" /><rect
             width="80"
             height="80"
             x="720"
             y="80"
             id="rect21" /><rect
             width="80"
             height="80"
             x="800"
             y="80"
             id="rect22" /><rect
             width="80"
             height="80"
             x="0"
             y="160"
             id="rect23" /><rect
             width="80"
             height="80"
             x="80"
             y="160"
             id="rect24" /><rect
             width="80"
             height="80"
             x="160"
             y="160"
             id="rect25" /><rect
             width="80"
             height="80"
             x="240"
             y="160"
             id="rect26" /><rect
             width="80"
             height="80"
             x="320"
             y="160"
             id="rect27" /><rect
             width="80"
             height="80"
             x="400"
             y="160"
             id="rect28" /><rect
             width="80"
             height="80"
             x="480"
             y="160"
             id="rect29" /><rect
             width="80"
             height="80"
             x="560"
             y="160"
             id="rect30" /><rect
             width="80"
             height="80"
             x="640"
             y="160"
             id="rect31" /><rect
             width="80"
             height="80"
             x="720"
             y="160"
             id="rect32" /><rect
             width="80"
             height="80"
             x="800"
             y="160"
             id="rect33" /><rect
             width="80"
             height="80"
             x="0"
             y="240"
             id="rect34" /><rect
             width="80"
             height="80"
             x="80"
             y="240"
             id="rect35" /><rect
             width="80"
             height="80"
             x="160"
             y="240"
             id="rect36" /><rect
             width="80"
             height="80"
             x="240"
             y="240"
             id="rect37" /><rect
             width="80"
             height="80"
             x="320"
             y="240"
             id="rect38" /><rect
             width="80"
             height="80"
             x="400"
             y="240"
             id="rect39" /><rect
             width="80"
             height="80"
             x="480"
             y="240"
             id="rect40" /><rect
             width="80"
             height="80"
             x="560"
             y="240"
             id="rect41" /><rect
             width="80"
             height="80"
             x="640"
             y="240"
             id="rect42" /><rect
             width="80"
             height="80"
             x="720"
             y="240"
             id="rect43" /><rect
             width="80"
             height="80"
             x="800"
             y="240"
             id="rect44" /><rect
             width="80"
             height="80"
             x="0"
             y="320"
             id="rect45" /><rect
             width="80"
             height="80"
             x="80"
             y="320"
             id="rect46" /><rect
             width="80"
             height="80"
             x="160"
             y="320"
             id="rect47" /><rect
             width="80"
             height="80"
             x="240"
             y="320"
             id="rect48" /><rect
             width="80"
             height="80"
             x="320"
             y="320"
             id="rect49" /><rect
             width="80"
             height="80"
             x="400"
             y="320"
             id="rect50" /><rect
             width="80"
             height="80"
             x="480"
             y="320"
             id="rect51" /><rect
             width="80"
             height="80"
             x="560"
             y="320"
             id="rect52" /><rect
             width="80"
             height="80"
             x="640"
             y="320"
             id="rect53" /><rect
             width="80"
             height="80"
             x="720"
             y="320"
             id="rect54" /><rect
             width="80"
             height="80"
             x="800"
             y="320"
             id="rect55" /><rect
             width="80"
             height="80"
             x="0"
             y="400"
             id="rect56" /><rect
             width="80"
             height="80"
             x="80"
             y="400"
             id="rect57" /><rect
             width="80"
             height="80"
             x="160"
             y="400"
             id="rect58" /><rect
             width="80"
             height="80"
             x="240"
             y="400"
             id="rect59" /><rect
             width="80"
             height="80"
             x="320"
             y="400"
             id="rect60" /><rect
             width="80"
             height="80"
             x="400"
             y="400"
             id="rect61" /><rect
             width="80"
             height="80"
             x="480"
             y="400"
             id="rect62" /><rect
             width="80"
             height="80"
             x="560"
             y="400"
             id="rect63" /><rect
             width="80"
             height="80"
             x="640"
             y="400"
             id="rect64" /><rect
             width="80"
             height="80"
             x="720"
             y="400"
             id="rect65" /><rect
             width="80"
             height="80"
             x="800"
             y="400"
             id="rect66" /><rect
             width="80"
             height="80"
             x="0"
             y="480"
             id="rect67" /><rect
             width="80"
             height="80"
             x="80"
             y="480"
             id="rect68" /><rect
             width="80"
             height="80"
             x="160"
             y="480"
             id="rect69" /><rect
             width="80"
             height="80"
             x="240"
             y="480"
             id="rect70" /><rect
             width="80"
             height="80"
             x="320"
             y="480"
             id="rect71" /><rect
             width="80"
             height="80"
             x="400"
             y="480"
             id="rect72" /><rect
             width="80"
             height="80"
             x="480"
             y="480"
             id="rect73" /><rect
             width="80"
             height="80"
             x="560"
             y="480"
             id="rect74" /><rect
             width="80"
             height="80"
             x="640"
             y="480"
             id="rect75" /><rect
             width="80"
             height="80"
             x="720"
             y="480"
             id="rect76" /><rect
             width="80"
             height="80"
             x="800"
             y="480"
             id="rect77" /><rect
             width="80"
             height="80"
             x="0"
             y="560"
             id="rect78" /><rect
             width="80"
             height="80"
             x="80"
             y="560"
             id="rect79" /><rect
             width="80"
             height="80"
             x="160"
             y="560"
             id="rect80" /><rect
             width="80"
             height="80"
             x="240"
             y="560"
             id="rect81" /><rect
             width="80"
             height="80"
             x="320"
             y="560"
             id="rect82" /><rect
             width="80"
             height="80"
             x="400"
             y="560"
             id="rect83" /><rect
             width="80"
             height="80"
             x="480"
             y="560"
             id="rect84" /><rect
             width="80"
             height="80"
             x="560"
             y="560"
             id="rect85" /><rect
             width="80"
             height="80"
             x="640"
             y="560"
             id="rect86" /><rect
             width="80"
             height="80"
             x="720"
             y="560"
             id="rect87" /><rect
             width="80"
             height="80"
             x="800"
             y="560"
             id="rect88" /><rect
             width="80"
             height="80"
             x="0"
             y="640"
             id="rect89" /><rect
             width="80"
             height="80"
             x="80"
             y="640"
             id="rect90" /><rect
             width="80"
             height="80"
             x="160"
             y="640"
             id="rect91" /><rect
             width="80"
             height="80"
             x="240"
             y="640"
             id="rect92" /><rect
             width="80"
             height="80"
             x="320"
             y="640"
             id="rect93" /><rect
             width="80"
             height="80"
             x="400"
             y="640"
             id="rect94" /><rect
             width="80"
             height="80"
             x="480"
             y="640"
             id="rect95" /><rect
             width="80"
             height="80"
             x="560"
             y="640"
             id="rect96" /><rect
             width="80"
             height="80"
             x="640"
             y="640"
             id="rect97" /><rect
             width="80"
             height="80"
             x="720"
             y="640"
             id="rect98" /><rect
             width="80"
             height="80"
             x="800"
             y="640"
             id="rect99" /><rect
             width="80"
             height="80"
             x="0"
             y="720"
             id="rect100" /><rect
             width="80"
             height="80"
             x="80"
             y="720"
             id="rect101" /><rect
             width="80"
             height="80"
             x="160"
             y="720"
             id="rect102" /><rect
             width="80"
             height="80"
             x="240"
             y="720"
             id="rect103" /><rect
             width="80"
             height="80"
             x="320"
             y="720"
             id="rect104" /><rect
             width="80"
             height="80"
             x="400"
             y="720"
             id="rect105" /><rect
             width="80"
             height="80"
             x="480"
             y="720"
             id="rect106" /><rect
             width="80"
             height="80"
             x="560"
             y="720"
             id="rect107" /><rect
             width="80"
             height="80"
             x="640"
             y="720"
             id="rect108" /><rect
             width="80"
             height="80"
             x="720"
             y="720"
             id="rect109" /><rect
             width="80"
             height="80"
             x="800"
             y="720"
             id="rect110" /><path
             width="80"
             height="80"
             x="0"
             y="800"
             id="rect111"
             inkscape:path-effect="#path-effect10"
             sodipodi:type="rect"
             d="m 0,800 h 80 v 80 H 21.372271 A 21.372271,21.372271 45 0 1 0,858.62773 Z" /><rect
             width="80"
             height="80"
             x="80"
             y="800"
             id="rect112" /><rect
             width="80"
             height="80"
             x="160"
             y="800"
             id="rect113" /><rect
             width="80"
             height="80"
             x="240"
             y="800"
             id="rect114" /><rect
             width="80"
             height="80"
             x="320"
             y="800"
             id="rect115" /><rect
             width="80"
             height="80"
             x="400"
             y="800"
             id="rect116" /><rect
             width="80"
             height="80"
             x="480"
             y="800"
             id="rect117" /><rect
             width="80"
             height="80"
             x="560"
             y="800"
             id="rect118" /><rect
             width="80"
             height="80"
             x="640"
             y="800"
             id="rect119" /><rect
             width="80"
             height="80"
             x="720"
             y="800"
             id="rect120" /><path
             width="80"
             height="80"
             x="800"
             y="800"
             id="rect121"
             inkscape:path-effect="#path-effect9"
             sodipodi:type="rect"
             d="m 800,800 h 80 v 62.00045 A 17.999552,17.999552 135 0 1 862.00045,880 H 800 Z" /></g></g><use
         x="0"
         y="0"
         xlink:href="#g14"
         id="use14"
         transform="translate(1.2598914)"
         style="opacity:0.0669078;stroke:#000000;stroke-opacity:1;filter:url(#filter14)" /><g
         id="g14"
         style="filter:url(#filter15)"><rect
           style="opacity:1;fill:#5206ff;fill-opacity:1;stroke:none;stroke-width:0;stroke-dasharray:none;stroke-opacity:1;paint-order:markers stroke fill"
           id="rect11"
           width="20.006765"
           height="57.958992"
           x="-5.2229877"
           y="-11.838473"
           ry="2.414958" /><rect
           style="opacity:1;fill:url(#pattern50);fill-opacity:1;stroke:none;stroke-width:5.51754;stroke-dasharray:none;stroke-opacity:1;paint-order:markers stroke fill"
           id="rect12"
           width="30.877914"
           height="34.465733"
           x="17.924391"
           y="11.664764"
           ry="2.9489396" /><g
           style="fill:#000000"
           id="g1"
           transform="matrix(0.75347261,0,0,0.79530034,26.534436,-10.453886)"><g
             id="SVGRepo_bgCarrier"
             stroke-width="0" /><g
             id="SVGRepo_tracerCarrier"
             stroke-linecap="round"
             stroke-linejoin="round" /><g
             id="SVGRepo_iconCarrier"><title
               id="title1">sparkles_fill</title><g
               id="页面-1"
               stroke="none"
               stroke-width="1"
               fill="none"
               fill-rule="evenodd"><g
                 id="Weather"
                 transform="translate(-816,-48)"
                 fill-rule="nonzero"><g
                   id="sparkles_fill"
                   transform="translate(816,48)"><path
                     d="M 24,0 V 24 H 0 V 0 Z m -11.40651,23.257841 -0.01155,0.0017 -0.07106,0.03553 -0.019,0.0037 v 0 l -0.01516,-0.0037 -0.07106,-0.03553 c -0.0098,-0.0031 -0.01861,-4.89e-4 -0.02351,0.0054 l -0.0041,0.01092 -0.01709,0.427279 0.005,0.02039 0.01101,0.01222 0.103573,0.07398 0.01487,0.0039 v 0 l 0.01177,-0.0039 0.103575,-0.07398 0.0126,-0.01604 v 0 l 0.0034,-0.01656 -0.01709,-0.427279 c -0.002,-0.01013 -0.0085,-0.01653 -0.01607,-0.01799 z m 0.264901,-0.112555 -0.01384,0.002 -0.184705,0.09235 -0.01,0.01024 v 0 l -0.0027,0.01121 0.0179,0.429528 0.0048,0.01278 v 0 l 0.0085,0.0071 0.200954,0.09275 c 0.01209,0.0037 0.02289,-2.52e-4 0.02849,-0.008 l 0.004,-0.01406 -0.03415,-0.614631 c -0.0024,-0.01194 -0.01027,-0.01953 -0.01929,-0.02125 z m -0.715344,0.002 c -0.0098,-0.0049 -0.02087,-0.002 -0.02741,0.0053 l -0.0057,0.01394 -0.03415,0.614631 c -6.39e-4,0.0115 0.007,0.0207 0.01688,0.0234 l 0.01561,-0.0013 0.200955,-0.09275 0.0094,-0.0081 v 0 l 0.0039,-0.0118 0.0179,-0.429528 -0.0032,-0.01259 v 0 l -0.0095,-0.0089 z"
                     id="MingCute"
                     fill-rule="nonzero" /><path
                     d="m 6.3853511,13.0036 0.178663,0.3716 v 0 c 0.7644119,1.5048 1.9686138,2.7679 3.4677819,3.6381 l 0.278361,0.1552 v 0 c 0.129387,0.0692 0.129387,0.2464 0,0.3157 -0.09387,0.0502 -0.186671,0.102 -0.278361,0.1552 -1.4991681,0.8701 -2.70337,2.1333 -3.4677819,3.6381 l -0.178663,0.3715 v 0 c -0.07,0.1499 -0.2935261,0.1499 -0.3635263,0 l -0.178663,-0.3715 v 0 c -0.764412,-1.5048 -1.9686139,-2.768 -3.4677815,-3.6381 -0.091691,-0.0532 -0.1844955,-0.105 -0.2783616,-0.1552 -0.1293549,-0.0693 -0.1293549,-0.2465 0,-0.3157 l 0.2783616,-0.1552 v 0 C 3.8745479,16.1431 5.0787498,14.88 5.8431618,13.3752 l 0.178663,-0.3716 v 0 c 0.07,-0.1498 0.293526,-0.1498 0.3635263,0 z M 15.743526,2.72991 c 0.101727,0.21783 0.203559,0.43553 0.312642,0.65018 1.337687,2.63339 3.44505,4.84394 6.068615,6.36664 0.160472,0.09314 0.322835,0.1837 0.487196,0.27167 0.226363,0.1211 0.226363,0.4313 0,0.5524 -0.164361,0.088 -0.326724,0.1785 -0.487196,0.2717 -2.623565,1.5226 -4.730928,3.7332 -6.068615,6.3666 -0.109083,0.2146 -0.210915,0.4323 -0.312642,0.6502 -0.122535,0.2622 -0.513679,0.2622 -0.636213,0 C 15.005586,17.6414 14.903754,17.4237 14.794671,17.2091 13.456984,14.5757 11.34962,12.3651 8.7260665,10.8425 8.5655945,10.7493 8.4031994,10.6588 8.2389232,10.5708 8.01256,10.4497 8.01256,10.1395 8.2389232,10.0184 8.4031994,9.93043 8.5655945,9.83987 8.7260665,9.74673 11.34962,8.22403 13.456984,6.01348 14.794671,3.38009 c 0.108873,-0.21431 0.210915,-0.43228 0.312642,-0.65018 0.122534,-0.26227 0.513678,-0.26227 0.636213,0 z"
                     id="形状"
                     fill="#09244b"
                     style="fill:#5206ff;fill-opacity:1;stroke-width:1.02513" /></g></g></g></g></g></g></g></g><metadata
     id="metadata835"><rdf:RDF><cc:Work
         rdf:about=""><dc:title>TrackJobs Logo</dc:title></cc:Work></rdf:RDF></metadata></svg>
