<svg transform="scale(1)" version="1.1" id="Layer_1" xmlns="http://www.w3.org/2000/svg" xmlns:xlink="http://www.w3.org/1999/xlink" x="0px" y="0px" viewBox="0 0 500 500" xml:space="preserve" class="show_show__wrapper__graphic__5Waiy "><title>React</title><style type="text/css">
	.st0{fill:#000111;}
	.st1{fill:#FFFFFF;}
	.st2{fill:url(#SVGID_1_);}
	.st3{fill:url(#SVGID_00000044869929136428889940000005038650255155468690_);}
	.st4{fill:url(#SVGID_00000170239402991670522580000016843079938678359187_);}
	.st5{fill:#FED490;}
	.st6{fill:url(#SVGID_00000144312910238837909040000017150968788767005337_);}
	.st7{fill:#C64234;}
	.st8{fill:url(#SVGID_00000036934889308232567100000002124424617934747019_);}
	.st9{fill:url(#SVGID_00000086653021672512866990000003587792785462813619_);}
</style><g id="computer"><g id="computer-2"><polygon class="st0" points="296.2,413.2 200.8,413.2 181.6,462.4 276.9,462.4 		"></polygon><path class="st0" d="M276.9,463.7h-95.3c-0.7,0-1.2-0.6-1.2-1.3c0-0.2,0-0.3,0.1-0.5l19.2-49.2c0.2-0.5,0.7-0.8,1.2-0.8h95.3
			c0.4,0,0.8,0.2,1,0.5c0.2,0.3,0.3,0.8,0.1,1.2l-19.2,49.2C277.9,463.4,277.4,463.7,276.9,463.7z M183.4,461.2h92.7l18.3-46.7
			h-92.7L183.4,461.2z"></path><polygon class="st1" points="286,413.2 190.7,413.2 171.5,462.4 266.8,462.4 		"></polygon><path class="st0" d="M266.8,463.7h-95.3c-0.4,0-0.8-0.2-1-0.5c-0.2-0.3-0.3-0.8-0.1-1.2l19.2-49.2c0.2-0.5,0.6-0.8,1.2-0.8h95.4
			c0.7,0,1.2,0.5,1.3,1.2c0,0.2,0,0.3-0.1,0.5L268,462.9C267.8,463.4,267.3,463.7,266.8,463.7z M173.3,461.2H266l18.3-46.7h-92.7
			L173.3,461.2z"></path><rect class="st1" x="143.5" y="458.3" width="169.1" height="11.4"></rect><path class="st0" d="M312.5,470.9H143.5c-0.7,0-1.2-0.5-1.2-1.2c0,0,0,0,0,0v-11.4c0-0.7,0.5-1.2,1.2-1.2c0,0,0,0,0,0h169.1
			c0.7,0,1.2,0.6,1.2,1.2v11.4C313.8,470.4,313.2,470.9,312.5,470.9z M144.7,468.4h166.6v-8.9H144.7L144.7,468.4z"></path><rect class="st0" x="255.2" y="458.3" width="57.5" height="11.4"></rect><path class="st0" d="M312.7,470.9h-57.5c-0.7,0-1.2-0.6-1.2-1.2v-11.4c0-0.7,0.6-1.2,1.2-1.2h57.5c0.7,0,1.2,0.6,1.2,1.2v11.4
			C313.9,470.4,313.4,470.9,312.7,470.9z M256.4,468.4h55v-8.9h-55V468.4z"></path><path class="st0" d="M386,384H111.7l26.1-157.8c1.1-5.9,6.2-10.3,12.2-10.4h253.4c4.7-0.2,8.7,3.5,8.9,8.2c0,0,0,0,0,0.1
			c0,0.7,0,1.4-0.2,2.1L386,384z"></path><path class="st0" d="M386,385.2H111.7c-0.4,0-0.8-0.1-1-0.4c-0.2-0.3-0.3-0.6-0.3-1l26.1-157.8c1.2-6.5,6.8-11.2,13.3-11.4h253.5
			c5.4-0.2,9.9,4.1,10.1,9.5c0,0.8-0.1,1.7-0.3,2.5l-26,157.7C387.1,384.8,386.6,385.2,386,385.2z M113.2,382.7H385l25.8-156.8
			c0-0.1,0-0.1,0-0.2c0.2-0.6,0.2-1.2,0.2-1.7c-0.2-4-3.6-7.1-7.6-7H150c-5.4,0.2-9.9,4.1-10.9,9.4L113.2,382.7z"></path><path class="st1" d="M121.1,376l24.7-149.8c0.2-1.4,1.5-2.4,2.9-2.4h253.4c1.1,0,1.9,0.8,2,1.9v0.5L379.3,376H121.1z"></path><path class="st0" d="M379.3,377.2H121.1c-0.4,0-0.8-0.1-1-0.4c-0.2-0.3-0.3-0.6-0.3-1l24.8-149.8c0.3-2,2.1-3.4,4.1-3.4h253.5
			c1.8,0,3.2,1.4,3.2,3.1v0.5c0,0.1,0,0.1,0,0.2l-24.9,149.8C380.4,376.8,379.9,377.2,379.3,377.2z M122.6,374.7h255.6L402.9,226
			v-0.4c0-0.4-0.4-0.6-0.8-0.6H148.7c-0.8,0-1.5,0.5-1.6,1.4L122.6,374.7z"></path><path class="st1" d="M386,384H111.7l-3.6,22.2c-1,4.7,2,9.2,6.6,10.2c0.7,0.1,1.4,0.2,2.1,0.2h253.4c6-0.2,11-4.5,12.1-10.4
			L386,384z"></path><path class="st0" d="M116.8,418c-0.7,0-1.4-0.1-2.1-0.2h-0.3c-2.6-0.5-4.8-2.1-6.3-4.3c-1.4-2.2-1.9-4.9-1.4-7.4l3.6-22.2
			c0.1-0.6,0.6-1,1.2-1H386c0.4,0,0.7,0.1,1,0.4c0.2,0.3,0.3,0.6,0.3,1l-3.6,22.4c-1.3,6.4-6.8,11.1-13.3,11.4H116.8z M112.8,385.2
			l-3.5,21.2c-0.9,4,1.7,7.9,5.7,8.8h0.2c0.5,0.1,1.1,0.2,1.7,0.2h253.4c5.4-0.2,9.9-4.1,10.9-9.4l3.4-20.9L112.8,385.2z"></path><ellipse class="st1" transform="matrix(0.7363 -0.6766 0.6766 0.7363 -205.3221 273.6691)" cx="248.5" cy="400.3" rx="7.4" ry="6.3"></ellipse><path class="st0" d="M245.2,407.3c-3.8,0.1-6.9-2.9-7-6.7c0-0.4,0-0.8,0.1-1.2c0.3-2.2,1.4-4.2,3-5.6l0,0
			c3.5-3.2,8.6-3.4,11.4-0.3c1.4,1.5,2,3.6,1.7,5.7c-0.7,4.5-4.4,7.9-8.9,8.2L245.2,407.3z M243,395.5c-1.2,1.1-2,2.5-2.2,4.1
			c-0.2,1.3,0.2,2.7,1.1,3.7c0.9,1,2.3,1.5,3.6,1.4c3.3-0.2,6-2.7,6.5-6c0.2-1.3-0.2-2.7-1.1-3.7C249,393,245.5,393.2,243,395.5
			L243,395.5z"></path><path class="st0" d="M400.3,244.1H142.5c-0.7,0-1.2-0.6-1.2-1.2s0.6-1.2,1.2-1.2h257.8c0.7,0,1.2,0.6,1.2,1.2
			S401,244.1,400.3,244.1z"></path><linearGradient id="SVGID_1_" gradientUnits="userSpaceOnUse" x1="9173.6396" y1="-188.1201" x2="9102.3799" y2="-319.0002" gradientTransform="matrix(-1 0 0 -1 9310.5498 3.56)"><stop offset="0" style="stop-color: rgb(243, 131, 116);"></stop><stop offset="1" style="stop-color: rgb(198, 66, 52);"></stop></linearGradient><path class="st2" d="M157,230.4c1.8-1.6,4.4-1.8,5.8-0.2c1.4,1.8,1.1,4.3-0.7,5.7c0,0,0,0,0,0c-1.8,1.6-4.4,1.8-5.8,0.2
			S155.2,232,157,230.4z"></path><linearGradient id="SVGID_00000095324513669068831520000006129564729676659854_" gradientUnits="userSpaceOnUse" x1="9163.3604" y1="-182.5171" x2="9092.0908" y2="-313.4071" gradientTransform="matrix(-1 0 0 -1 9310.5498 3.56)"><stop offset="0" style="stop-color: rgb(243, 131, 116);"></stop><stop offset="1" style="stop-color: rgb(198, 66, 52);"></stop></linearGradient><path d="M170.3,230.4c1.8-1.6,4.4-1.8,5.8-0.2
			c1.4,1.8,1.1,4.3-0.7,5.7c0,0,0,0,0,0c-1.8,1.6-4.4,1.8-5.8,0.2S168.6,232,170.3,230.4z" style="fill: url(&quot;#SVGID_00000095324513669068831520000006129564729676659854_&quot;);"></path><linearGradient id="SVGID_00000072238389670280058070000008375924581352526466_" gradientUnits="userSpaceOnUse" x1="9153.0352" y1="-176.8987" x2="9081.7646" y2="-307.7787" gradientTransform="matrix(-1 0 0 -1 9310.54 3.56)"><stop offset="0" style="stop-color: rgb(243, 131, 116);"></stop><stop offset="1" style="stop-color: rgb(198, 66, 52);"></stop></linearGradient><path d="M183.7,230.4c1.8-1.6,4.4-1.8,5.8-0.2
			c1.4,1.8,1.1,4.3-0.7,5.7c0,0,0,0,0,0c-1.8,1.6-4.4,1.8-5.7,0.2S182,232,183.7,230.4z" style="fill: url(&quot;#SVGID_00000072238389670280058070000008375924581352526466_&quot;);"></path><polygon class="st5" points="382.3,293.2 328,293.2 334.8,252.5 389,252.5 		"></polygon><polygon class="st5" points="379.6,309.2 325.4,309.2 327,299.2 381.3,299.2 		"></polygon><polygon class="st5" points="377.3,324 322.9,324 324.5,314 378.9,314 		"></polygon><polygon class="st5" points="311.9,327 257.6,327 259.3,317 313.5,317 		"></polygon><polygon class="st5" points="309.4,341.7 255.2,341.7 256.8,331.7 311,331.7 		"></polygon><path class="st0" d="M249.6,328.2h-54.2c-0.7,0-1.3-0.6-1.3-1.2c0-0.1,0-0.1,0-0.2l1.6-10c0.1-0.6,0.6-1,1.2-1h54.2
			c0.4,0,0.7,0.2,0.9,0.4c0.2,0.3,0.3,0.6,0.3,1l-1.6,10C250.7,327.8,250.2,328.2,249.6,328.2z M196.8,325.7h51.7l1.2-7.5H198
			L196.8,325.7z"></path><path class="st0" d="M247.1,343h-54.2c-0.4,0-0.8-0.1-1-0.4c-0.2-0.3-0.3-0.6-0.3-1l1.6-10c0.1-0.6,0.6-1,1.2-1h54.4
			c0.4,0,0.8,0.1,1,0.4c0.2,0.3,0.3,0.6,0.3,1l-1.7,10C248.2,342.6,247.7,343,247.1,343z M194.3,340.5H246l1.3-7.5h-51.8
			L194.3,340.5z"></path><polygon class="st5" points="374.8,338.9 320.5,338.9 322.2,328.9 376.4,328.9 		"></polygon><polygon class="st5" points="372.3,353.6 318,353.6 319.7,343.6 374,343.6 		"></polygon><linearGradient id="SVGID_00000147202356448437217280000007256933095827879075_" gradientUnits="userSpaceOnUse" x1="228.5243" y1="-147.9196" x2="242.6343" y2="-313.0596" gradientTransform="matrix(1 0 0 -1 0 2)"><stop offset="0" style="stop-color: rgb(243, 131, 116);"></stop><stop offset="1" style="stop-color: rgb(198, 66, 52);"></stop></linearGradient><polygon points="326.2,226.5 150.1,258.5 
			151.6,315.7 325.5,284.2 		" style="fill: url(&quot;#SVGID_00000147202356448437217280000007256933095827879075_&quot;);"></polygon><path class="st0" d="M148.5,323c-0.7,0-1.2-0.5-1.2-1.2l-1.4-51c0-0.6,0.4-1.1,1-1.3L303.6,241c0.4-0.1,0.7,0,1,0.3
			c0.3,0.2,0.5,0.6,0.5,1l-0.5,51.4c0,0.6-0.4,1.1-1,1.2L148.7,323H148.5z M148.4,271.8l1.3,48.5l152.4-27.7l0.5-48.8L148.4,271.8z"></path><path class="st1" d="M197,302c-1.6,0-2.8-0.3-3.5-1c-2.2-2.5,1.5-6.6,5-9.9c11.3-10.7,28.6-20.1,47.9-27.2
			c-6.4-0.6-19.7,1.9-47.3,13.7c-23.1,9.9-45.1,21.6-45.3,21.7c-0.6,0.4-1.4,0.2-1.7-0.4c-0.4-0.6-0.2-1.4,0.4-1.7
			c0,0,0.1,0,0.1-0.1c0.2-0.1,22.3-11.9,45.5-21.8c27.8-11.9,45.1-16.1,52.6-12.9c27.9-9.6,59.6-14.4,84.1-11.2
			c0.7,0.1,1.2,0.7,1.1,1.4c0,0,0,0,0,0c-0.1,0.7-0.7,1.2-1.4,1.1c-23.8-3.1-54.2,1.4-81.3,10.5l0.2,0.3c2,2.5,2.5,7-6.1,14.3
			C235.3,288.9,207.4,302,197,302z M250.5,265c-20.3,7.1-38.5,16.8-50.2,27.9c-5.3,5-4.9,6.4-4.9,6.4s0.7,0.4,2.6,0.3
			c12.7-1.1,49.2-19.2,53.8-29.9c0.9-2,0.3-3.1-0.2-3.8C251.3,265.5,250.9,265.2,250.5,265L250.5,265z"></path></g><path class="st0" d="M380,470.8H143.5c-0.7,0-1.2-0.6-1.2-1.2s0.6-1.2,1.2-1.2H380c0.7,0,1.2,0.6,1.2,1.2S380.7,470.8,380,470.8z"></path></g><g id="building"><path class="st7" d="M488.8,459c-0.7,0-1.2-0.6-1.2-1.2V222.5h-44.9v75.6c0,0.7-0.6,1.2-1.2,1.2h-14c-0.7,0-1.2-0.6-1.2-1.2v-96.8
		h-29.9c-0.7,0-1.3-0.5-1.3-1.2c0,0,0,0,0,0v-38.2h-56.1v49.6c-0.1,0.7-0.7,1.2-1.4,1.1c-0.6-0.1-1.1-0.5-1.1-1.1v-50.9
		c0-0.7,0.5-1.2,1.2-1.2c0,0,0,0,0,0h58.6c0.7,0,1.2,0.5,1.2,1.2c0,0,0,0,0,0v38.2h29.9c0.7,0,1.2,0.6,1.2,1.2v96.9h11.5v-75.6
		c0-0.7,0.6-1.2,1.2-1.2h47.4c0.7,0,1.2,0.6,1.2,1.2v236.4C490,458.4,489.5,459,488.8,459C488.8,459,488.8,459,488.8,459z"></path><rect class="st7" x="347.9" y="170.4" width="11" height="11"></rect><rect class="st7" x="365.9" y="170.4" width="11" height="11"></rect><rect class="st7" x="347.9" y="190.5" width="11" height="11"></rect><rect class="st7" x="365.9" y="190.5" width="11" height="11"></rect><rect class="st7" x="451.4" y="233.6" width="11" height="11"></rect><rect class="st7" x="469.4" y="233.6" width="11" height="11"></rect><rect class="st7" x="451.4" y="252.9" width="11" height="11"></rect><rect class="st7" x="469.4" y="252.9" width="11" height="11"></rect><rect class="st7" x="451.4" y="272.1" width="11" height="11"></rect><rect class="st7" x="469.4" y="272.1" width="11" height="11"></rect><rect class="st7" x="451.4" y="291.5" width="11" height="11"></rect><path class="st7" d="M427.4,395c-0.7,0-1.2-0.6-1.2-1.2v-95.6c0-0.7,0.6-1.2,1.2-1.2s1.2,0.6,1.2,1.2v95.6
		C428.6,394.4,428.1,395,427.4,395z"></path><path class="st7" d="M396.3,221.1c-0.7,0-1.2-0.6-1.2-1.2V200c0-0.7,0.6-1.2,1.2-1.2s1.2,0.6,1.2,1.2v19.9
		C397.5,220.6,397,221.1,396.3,221.1C396.3,221.1,396.3,221.1,396.3,221.1z"></path></g><g id="crane"><rect class="st0" x="258.7" y="200.8" width="42.9" height="5.6"></rect><path class="st0" d="M277.4,231.9V246c0,0,9.4,4.8,9.2,13.1c-0.1,6.8-10,10.5-15,8.1c-0.6-0.3-1.4-0.1-1.7,0.6c0,0,0,0,0,0.1
		c-0.1,0.4-0.1,0.8,0,1.1c1.1,2.4,3.8,4.9,9.4,5.7c9.2,1.5,19.5-7.6,17.7-18c-2.1-11.9-14.1-13.4-14.1-13.4v-12L277.4,231.9z"></path><path class="st0" d="M280,149.9c-0.3,0-0.6-0.1-0.9-0.4c-0.5-0.5-0.5-1.3,0-1.8c0,0,0,0,0,0l45.6-45.6c0.5-0.5,1.3-0.5,1.8,0
		c0.5,0.5,0.5,1.3,0,1.8c0,0,0,0,0,0l-45.6,45.6C280.7,149.8,280.4,149.9,280,149.9z"></path><path class="st0" d="M325.7,149.9c-0.3,0-0.7-0.1-0.9-0.4l-45.6-45.6c-0.5-0.5-0.5-1.3,0-1.8c0,0,0,0,0,0c0.5-0.5,1.3-0.5,1.8,0
		l45.6,45.6c0.5,0.5,0.5,1.3,0,1.8c0,0,0,0,0,0C326.3,149.8,326,149.9,325.7,149.9z"></path><path class="st0" d="M233.9,149.9c-0.3,0-0.6-0.1-0.9-0.4c-0.5-0.5-0.5-1.3,0-1.8c0,0,0,0,0,0l45.6-45.6c0.5-0.5,1.3-0.5,1.8,0
		c0.5,0.5,0.5,1.3,0,1.8c0,0,0,0,0,0l-45.6,45.6C234.6,149.8,234.3,149.9,233.9,149.9z"></path><path class="st0" d="M279.6,149.9c-0.3,0-0.7-0.1-0.9-0.4l-45.6-45.6c-0.5-0.5-0.5-1.3,0-1.8c0,0,0,0,0,0c0.5-0.5,1.3-0.5,1.8,0
		l45.6,45.6c0.5,0.5,0.5,1.3,0,1.8C280.2,149.8,279.9,149.9,279.6,149.9L279.6,149.9z"></path><path class="st0" d="M187.8,149.9c-0.3,0-0.6-0.1-0.9-0.4c-0.5-0.5-0.5-1.3,0-1.8c0,0,0,0,0,0l45.6-45.6c0.5-0.5,1.3-0.5,1.8,0
		c0.5,0.5,0.5,1.3,0,1.8l0,0l-45.6,45.6C188.5,149.8,188.2,149.9,187.8,149.9z"></path><path class="st0" d="M233.4,149.9c-0.3,0-0.6-0.1-0.9-0.4L187,103.9c-0.5-0.5-0.6-1.2-0.1-1.8s1.2-0.6,1.8-0.1c0,0,0.1,0.1,0.1,0.1
		l45.6,45.6c0.5,0.5,0.5,1.3,0,1.8C234.1,149.8,233.8,149.9,233.4,149.9L233.4,149.9z"></path><path class="st0" d="M141.7,149.9c-0.7,0-1.3-0.6-1.3-1.2c0-0.3,0.1-0.6,0.4-0.9l45.6-45.6c0.5-0.5,1.3-0.4,1.8,0.1
		c0.4,0.5,0.4,1.2,0,1.7l-45.6,45.6C142.4,149.8,142.1,149.9,141.7,149.9z"></path><path class="st0" d="M187.3,149.9c-0.3,0-0.6-0.1-0.9-0.4l-45.6-45.6c-0.5-0.5-0.5-1.3,0-1.8c0,0,0,0,0,0c0.5-0.5,1.3-0.5,1.8,0
		l45.6,45.6c0.5,0.5,0.5,1.3,0,1.8c0,0,0,0,0,0C188,149.8,187.7,149.9,187.3,149.9z"></path><path class="st0" d="M95.6,149.9c-0.3,0-0.6-0.1-0.9-0.4c-0.5-0.5-0.5-1.3,0-1.8c0,0,0,0,0,0l45.6-45.6c0.5-0.5,1.3-0.5,1.8,0
		c0.5,0.5,0.5,1.3,0,1.8c0,0,0,0,0,0l-45.6,45.6C96.3,149.8,95.9,149.9,95.6,149.9z"></path><path class="st0" d="M141.2,149.9c-0.3,0-0.7-0.1-0.9-0.4l-45.6-45.6c-0.5-0.5-0.5-1.3,0-1.8c0,0,0,0,0,0c0.5-0.5,1.3-0.5,1.8,0
		l45.6,45.6c0.5,0.5,0.5,1.3,0,1.8c0,0,0,0,0,0C141.9,149.8,141.6,149.9,141.2,149.9z"></path><path class="st0" d="M49.5,149.9c-0.3,0-0.6-0.1-0.9-0.4c-0.5-0.5-0.5-1.3,0-1.8c0,0,0,0,0,0l45.6-45.6c0.5-0.5,1.3-0.5,1.8,0
		s0.5,1.3,0,1.8l0,0l-45.6,45.6C50.1,149.8,49.8,149.9,49.5,149.9z"></path><path class="st0" d="M95.1,149.9c-0.3,0-0.6-0.1-0.9-0.4l-45.6-45.6c-0.5-0.5-0.6-1.2-0.1-1.8s1.2-0.6,1.8-0.1c0,0,0.1,0.1,0.1,0.1
		L96,147.8c0.5,0.5,0.5,1.3,0,1.8C95.8,149.8,95.4,149.9,95.1,149.9L95.1,149.9z"></path><path class="st1" d="M45.1,148.5V103c0-2,1.6-3.7,3.6-3.7c0.1,0,0.1,0,0.2,0h276.8c2,0,3.7,1.6,3.8,3.6c0,0,0,0.1,0,0.1v45.5
		c0,2-1.6,3.7-3.6,3.8c0,0-0.1,0-0.1,0H48.9C46.8,152.2,45.2,150.6,45.1,148.5z M52.6,106.8v38h269.3v-38H52.6z"></path><path class="st0" d="M325.7,153.5H48.9c-2.7,0-5-2.3-5-5V103c0-2.7,2.2-5,4.9-5c0,0,0.1,0,0.1,0h276.8c2.8,0,5,2.2,5,5v45.5
		C330.7,151.3,328.5,153.5,325.7,153.5C325.7,153.5,325.7,153.5,325.7,153.5z M48.9,100.5c-1.3,0-2.5,1-2.5,2.4c0,0,0,0.1,0,0.1
		v45.5c0,1.4,1.1,2.4,2.5,2.5h276.8c1.4,0,2.5-1,2.5-2.4c0,0,0-0.1,0-0.1V103c0-1.4-1-2.5-2.4-2.5c0,0-0.1,0-0.1,0L48.9,100.5z
		 M321.9,146H52.6c-0.7,0-1.2-0.6-1.2-1.2v-38c0-0.7,0.6-1.2,1.2-1.2h269.3c0.7,0,1.2,0.6,1.2,1.2v38
		C323.2,145.4,322.6,146,321.9,146z M53.9,143.5h266.8V108H53.9L53.9,143.5z"></path><path class="st0" d="M60.4,27.9L60.4,27.9c1.7,0,3,1.3,3,3v45.1c0,1.7-1.3,3-3,3l0,0c-1.7,0-3-1.3-3-3v-45
		C57.3,29.4,58.7,28,60.4,27.9z"></path><rect class="st1" x="52.9" y="70.2" width="15" height="15"></rect><path class="st0" d="M67.9,86.4h-15c-0.7,0-1.2-0.6-1.2-1.2v-15c0-0.7,0.6-1.2,1.2-1.2h15c0.7,0,1.2,0.6,1.2,1.2v15
		C69.1,85.9,68.6,86.4,67.9,86.4z M54.1,83.9h12.5V71.4H54.1V83.9z"></path><linearGradient id="SVGID_00000075131913485869252150000016363605542486726022_" gradientUnits="userSpaceOnUse" x1="24.0043" y1="-63.5472" x2="64.3943" y2="-125.7672" gradientTransform="matrix(1 0 0 -1 0 2)"><stop offset="0" style="stop-color: rgb(243, 131, 116);"></stop><stop offset="1" style="stop-color: rgb(198, 66, 52);"></stop></linearGradient><path d="M25.4,77.9h69.9c4.8,0,8.6,3.9,8.6,8.6
		v69.9c0,4.8-3.9,8.6-8.6,8.6H25.4c-4.8,0-8.6-3.9-8.6-8.6V86.5C16.8,81.8,20.6,77.9,25.4,77.9z" style="fill: url(&quot;#SVGID_00000075131913485869252150000016363605542486726022_&quot;);"></path><path class="st0" d="M30.5,99H104v45H30.5c-2.5,0-4.5-2-4.5-4.5c0,0,0,0,0,0v-36.1C26.1,101,28.1,99.1,30.5,99z"></path><path class="st1" d="M57.5,115.5c6.8-5.5,13.5-10.9,20-16.6H66.9l-0.8,0.8c-9.5,9.3-19.7,18.1-30.1,26.5c-3.2,2.6-6.6,5.4-10,8v5.2
		c0,1.1,0.4,2.2,1.1,3C37.5,133.7,47,124.2,57.5,115.5z"></path><path class="st1" d="M61.9,140c6.6-6.6,13.2-13.2,20-19.9c6.5-6.5,13-13.1,19.6-19.6L103,99H83.5c-2.8,2.4-5.5,4.9-8.2,7.1
		c-5.9,4.9-11.9,9.5-17.6,14.5S46,131.2,40.2,136.4c-2.8,2.5-5.6,5.1-8.5,7.6H58C59.2,142.6,60.5,141.4,61.9,140z"></path><path class="st0" d="M103.1,90.8H16.6c-0.7,0-1.2-0.6-1.2-1.2s0.6-1.2,1.2-1.2h86.5c0.7,0,1.2,0.6,1.2,1.2S103.8,90.8,103.1,90.8z"></path><path class="st0" d="M103.1,153.5H16.6c-0.7,0-1.2-0.6-1.2-1.2s0.6-1.2,1.2-1.2h86.5c0.7,0,1.2,0.6,1.2,1.2
		S103.8,153.5,103.1,153.5z"></path><path class="st0" d="M83.2,219.9c-0.3,0-0.6-0.1-0.9-0.4l-45.7-45.6c-0.5-0.5-0.6-1.3-0.1-1.8s1.3-0.6,1.8-0.1c0,0,0.1,0.1,0.1,0.1
		l45.7,45.6c0.5,0.5,0.5,1.3,0,1.8C83.9,219.7,83.6,219.9,83.2,219.9z"></path><path class="st0" d="M37.5,219.9c-0.7,0-1.2-0.6-1.2-1.3c0-0.3,0.1-0.6,0.4-0.9l45.7-45.6c0.5-0.5,1.3-0.5,1.8,0
		c0.5,0.5,0.5,1.3,0,1.8l-45.7,45.6C38.1,219.8,37.8,219.9,37.5,219.9z"></path><path class="st0" d="M83.2,266c-0.3,0-0.6-0.1-0.9-0.4L36.6,220c-0.5-0.5-0.5-1.3,0-1.8c0.5-0.5,1.3-0.5,1.8,0l45.7,45.6
		c0.5,0.5,0.5,1.3,0,1.8C83.9,265.8,83.6,266,83.2,266z"></path><path class="st0" d="M37.5,266c-0.7,0-1.3-0.6-1.2-1.3c0-0.3,0.1-0.6,0.4-0.9l45.7-45.6c0.4-0.5,1.2-0.6,1.8-0.2
		c0.5,0.4,0.6,1.2,0.2,1.8c-0.1,0.1-0.1,0.2-0.2,0.2l-45.7,45.6C38.1,265.9,37.8,266,37.5,266z"></path><path class="st0" d="M83.2,312.1c-0.3,0-0.6-0.1-0.9-0.4l-45.7-45.6c-0.5-0.5-0.5-1.3,0-1.8c0.5-0.5,1.3-0.5,1.8,0L84.1,310
		c0.5,0.5,0.5,1.3,0,1.8C83.9,312,83.6,312.1,83.2,312.1L83.2,312.1z"></path><path class="st0" d="M37.5,312.1c-0.3,0-0.6-0.1-0.9-0.4c-0.5-0.5-0.5-1.3,0-1.8c0,0,0,0,0,0l45.7-45.6c0.5-0.5,1.3-0.6,1.8-0.1
		c0.5,0.5,0.6,1.3,0.1,1.8c0,0-0.1,0.1-0.1,0.1l-45.7,45.6C38.1,312,37.8,312.1,37.5,312.1z"></path><path class="st0" d="M83.2,358.2c-0.3,0-0.6-0.1-0.9-0.4l-45.7-45.6c-0.5-0.5-0.5-1.3,0-1.8c0,0,0,0,0,0c0.5-0.5,1.3-0.5,1.8,0
		l45.7,45.6c0.5,0.5,0.5,1.3,0,1.8C83.9,358.1,83.6,358.2,83.2,358.2L83.2,358.2z"></path><path class="st0" d="M37.5,358.2c-0.3,0-0.6-0.1-0.9-0.4c-0.5-0.5-0.5-1.3,0-1.8c0,0,0,0,0,0l45.7-45.6c0.5-0.5,1.3-0.6,1.8-0.1
		c0.5,0.5,0.6,1.3,0.1,1.8c0,0-0.1,0.1-0.1,0.1l-45.7,45.6C38.1,358.1,37.8,358.2,37.5,358.2z"></path><path class="st0" d="M83.2,404.3c-0.3,0-0.6-0.1-0.9-0.4l-45.7-45.6c-0.5-0.5-0.5-1.3,0-1.8c0.5-0.5,1.3-0.5,1.8,0l0,0l45.7,45.6
		c0.5,0.5,0.5,1.3,0,1.8C83.9,404.2,83.6,404.3,83.2,404.3z"></path><path class="st0" d="M37.5,404.3c-0.7,0-1.3-0.6-1.2-1.3c0-0.3,0.1-0.6,0.4-0.9l45.7-45.6c0.5-0.5,1.3-0.6,1.8-0.1
		c0.5,0.5,0.6,1.3,0.1,1.8c0,0-0.1,0.1-0.1,0.1L38.4,404C38.1,404.2,37.8,404.3,37.5,404.3z"></path><path class="st0" d="M83.2,450.5c-0.3,0-0.6-0.1-0.9-0.4l-45.7-45.6c-0.5-0.5-0.5-1.3,0-1.8c0.5-0.5,1.3-0.5,1.8,0l0,0l45.7,45.6
		c0.5,0.5,0.5,1.3,0,1.8C83.9,450.3,83.6,450.5,83.2,450.5z"></path><path class="st0" d="M37.5,450.5c-0.3,0-0.6-0.1-0.9-0.4c-0.5-0.5-0.5-1.3,0-1.8c0,0,0,0,0,0l45.7-45.6c0.5-0.5,1.3-0.6,1.8-0.1
		c0.5,0.5,0.6,1.3,0.1,1.8c0,0-0.1,0.1-0.1,0.1l-45.7,45.6C38.1,450.3,37.8,450.5,37.5,450.5z"></path><path class="st1" d="M83,453.6H37.5c-2,0-3.7-1.6-3.8-3.6c0,0,0-0.1,0-0.1V173c0-2,1.6-3.7,3.6-3.8c0,0,0.1,0,0.1,0H83
		c2,0,3.7,1.6,3.7,3.6c0,0,0,0.1,0,0.1v276.8C86.7,451.9,85.1,453.6,83,453.6z M41.3,446.1h38V176.8h-38L41.3,446.1z"></path><path class="st0" d="M83,454.8H37.5c-2.8,0-5-2.2-5-5V173c0-2.8,2.2-5,5-5H83c2.8,0,5,2.2,5,5v276.8C88,452.6,85.8,454.8,83,454.8
		C83,454.8,83,454.8,83,454.8z M37.5,170.5c-1.4,0-2.5,1.1-2.5,2.4c0,0,0,0,0,0.1v276.8c0,1.4,1,2.5,2.4,2.5c0,0,0.1,0,0.1,0H83
		c1.4,0,2.5-1.1,2.5-2.5V173c0-1.4-1-2.5-2.4-2.5c0,0-0.1,0-0.1,0L37.5,170.5z M79.2,447.3h-38c-0.7,0-1.2-0.6-1.2-1.2V176.8
		c0-0.7,0.6-1.2,1.2-1.2h38c0.7,0,1.2,0.6,1.2,1.2v269.3C80.5,446.8,79.9,447.3,79.2,447.3C79.2,447.3,79.2,447.3,79.2,447.3z
		 M42.5,444.8H78V178H42.5V444.8z"></path><path class="st0" d="M30.7,164.3H90c2.4,0,4.3,2,4.4,4.4l0,0c0,2.4-2,4.3-4.4,4.3H30.7c-2.4,0-4.3-2-4.4-4.4l0,0
		C26.4,166.2,28.3,164.3,30.7,164.3z"></path><path class="st0" d="M250.7,150.9h59.2c2.4,0,4.3,2,4.4,4.4l0,0c0,2.4-2,4.4-4.4,4.4h-59.2c-2.4,0-4.4-2-4.4-4.4l0,0
		C246.4,152.9,248.3,151,250.7,150.9z"></path><path class="st0" d="M30.7,451.3H90c2.4,0,4.3,2,4.4,4.4l0,0c0,2.4-2,4.3-4.4,4.4H30.7c-2.4,0-4.3-2-4.4-4.4l0,0
		C26.4,453.3,28.3,451.4,30.7,451.3z"></path><path class="st1" d="M24.2,457.8h72.1c7.2,0,13,5.8,13,13H11.2C11.3,463.7,17.1,457.9,24.2,457.8z"></path><path class="st0" d="M109.3,472.1H11.2c-0.7,0-1.2-0.6-1.2-1.2c0-7.9,6.4-14.2,14.2-14.2h72.1c7.9,0,14.2,6.4,14.2,14.2
		C110.6,471.5,110,472.1,109.3,472.1z M12.6,469.6H108c-0.6-6-5.7-10.5-11.7-10.5H24.2C18.2,459.1,13.2,463.6,12.6,469.6z"></path><path class="st0" d="M261.4,206c-0.7,0-1.2-0.5-1.2-1.2c0,0,0,0,0,0V168c-0.1-0.7,0.4-1.3,1.1-1.4c0.7-0.1,1.3,0.4,1.4,1.1
		c0,0.1,0,0.1,0,0.2v36.7C262.7,205.4,262.1,206,261.4,206C261.5,206,261.4,206,261.4,206z"></path><path class="st0" d="M299.4,206c-0.7,0-1.2-0.6-1.2-1.2V168c0-0.7,0.6-1.2,1.2-1.2s1.2,0.6,1.2,1.2v36.7
		C300.7,205.4,300.1,206,299.4,206C299.4,206,299.4,206,299.4,206z"></path><path class="st1" d="M250.7,159.1h59.2c2.4,0,4.3,2,4.4,4.4l0,0c0,2.4-2,4.4-4.4,4.4h-59.2c-2.4,0-4.4-2-4.4-4.4l0,0
		C246.4,161.1,248.3,159.2,250.7,159.1z"></path><path class="st0" d="M309.9,169.1h-59.2c-3.1,0.1-5.7-2.3-5.9-5.4s2.3-5.7,5.4-5.9c0.2,0,0.3,0,0.5,0h59.2c3.1-0.1,5.7,2.3,5.9,5.4
		c0.1,3.1-2.3,5.7-5.4,5.9C310.2,169.2,310.1,169.2,309.9,169.1z M250.7,160.4c-1.7,0.1-3.1,1.5-3.1,3.2c0,1.7,1.4,3,3.1,3.1h59.2
		c1.7,0.1,3.2-1.2,3.3-2.9s-1.2-3.2-2.9-3.3c-0.1,0-0.2,0-0.4,0H250.7z"></path><linearGradient id="SVGID_00000122721534641021348350000017303862347676644031_" gradientUnits="userSpaceOnUse" x1="257.6305" y1="-188.6995" x2="284.2205" y2="-217.5595" gradientTransform="matrix(1 0 0 -1 0 2)"><stop offset="0" style="stop-color: rgb(243, 131, 116);"></stop><stop offset="1" style="stop-color: rgb(198, 66, 52);"></stop></linearGradient><polygon points="282.2,205.3 278.7,205.3 
		257.1,205.3 264.4,233.6 278.7,233.6 282.2,233.6 296.4,233.6 303.8,205.3 	" style="fill: url(&quot;#SVGID_00000122721534641021348350000017303862347676644031_&quot;);"></polygon><path class="st0" d="M288.4,234.8h-0.2c-0.7-0.1-1.1-0.8-1-1.4l4.7-27.7c0.1-0.7,0.8-1.1,1.4-1c0.7,0.1,1.1,0.8,1,1.4l-4.8,27.8
		C289.6,234.3,289,234.8,288.4,234.8z"></path></g></svg>